%TF.GenerationSoftware,KiCad,Pcbnew,8.99.0-unknown-e6b739776e~181~ubuntu24.04.1*%
%TF.CreationDate,2024-12-30T21:47:43+01:00*%
%TF.ProjectId,Spinne_Werkstatt,5370696e-6e65-45f5-9765-726b73746174,rev?*%
%TF.SameCoordinates,Original*%
%TF.FileFunction,Soldermask,Top*%
%TF.FilePolarity,Negative*%
%FSLAX46Y46*%
G04 Gerber Fmt 4.6, Leading zero omitted, Abs format (unit mm)*
G04 Created by KiCad (PCBNEW 8.99.0-unknown-e6b739776e~181~ubuntu24.04.1) date 2024-12-30 21:47:43*
%MOMM*%
%LPD*%
G01*
G04 APERTURE LIST*
G04 Aperture macros list*
%AMRoundRect*
0 Rectangle with rounded corners*
0 $1 Rounding radius*
0 $2 $3 $4 $5 $6 $7 $8 $9 X,Y pos of 4 corners*
0 Add a 4 corners polygon primitive as box body*
4,1,4,$2,$3,$4,$5,$6,$7,$8,$9,$2,$3,0*
0 Add four circle primitives for the rounded corners*
1,1,$1+$1,$2,$3*
1,1,$1+$1,$4,$5*
1,1,$1+$1,$6,$7*
1,1,$1+$1,$8,$9*
0 Add four rect primitives between the rounded corners*
20,1,$1+$1,$2,$3,$4,$5,0*
20,1,$1+$1,$4,$5,$6,$7,0*
20,1,$1+$1,$6,$7,$8,$9,0*
20,1,$1+$1,$8,$9,$2,$3,0*%
G04 Aperture macros list end*
%ADD10RoundRect,0.250000X-0.625000X0.400000X-0.625000X-0.400000X0.625000X-0.400000X0.625000X0.400000X0*%
%ADD11RoundRect,0.250000X0.550000X-1.250000X0.550000X1.250000X-0.550000X1.250000X-0.550000X-1.250000X0*%
%ADD12RoundRect,0.250000X-0.475000X0.337500X-0.475000X-0.337500X0.475000X-0.337500X0.475000X0.337500X0*%
%ADD13RoundRect,0.250000X-0.550000X1.250000X-0.550000X-1.250000X0.550000X-1.250000X0.550000X1.250000X0*%
%ADD14C,0.700000*%
%ADD15O,0.900000X2.400000*%
%ADD16O,0.900000X1.700000*%
%ADD17R,0.990000X0.300000*%
%ADD18RoundRect,0.150000X-0.825000X-0.150000X0.825000X-0.150000X0.825000X0.150000X-0.825000X0.150000X0*%
%ADD19RoundRect,0.150000X-0.150000X0.587500X-0.150000X-0.587500X0.150000X-0.587500X0.150000X0.587500X0*%
%ADD20RoundRect,0.375000X-0.375000X0.625000X-0.375000X-0.625000X0.375000X-0.625000X0.375000X0.625000X0*%
%ADD21RoundRect,0.500000X-1.400000X0.500000X-1.400000X-0.500000X1.400000X-0.500000X1.400000X0.500000X0*%
%ADD22RoundRect,0.150000X0.150000X-0.587500X0.150000X0.587500X-0.150000X0.587500X-0.150000X-0.587500X0*%
%ADD23O,1.700000X1.700000*%
%ADD24R,1.700000X1.700000*%
%ADD25C,1.600000*%
%ADD26R,1.500000X0.900000*%
%ADD27R,0.900000X1.500000*%
%ADD28C,0.600000*%
%ADD29R,3.800000X3.800000*%
G04 APERTURE END LIST*
D10*
%TO.C,ESP_EN_R1*%
X124000000Y-49650000D03*
X124000000Y-52750000D03*
%TD*%
D11*
%TO.C,C_3.3V1*%
X125250000Y-46200000D03*
X125250000Y-41800000D03*
%TD*%
D12*
%TO.C,C_ESP2*%
X127500000Y-57000000D03*
X127500000Y-59075000D03*
%TD*%
D13*
%TO.C,C_ESP1*%
X123250000Y-57050000D03*
X123250000Y-61450000D03*
%TD*%
D14*
%TO.C,USB-C1*%
X154725000Y-42775000D03*
X153875000Y-42775000D03*
X153025000Y-42775000D03*
X152175000Y-42775000D03*
X151325000Y-42775000D03*
X150475000Y-42775000D03*
X149625000Y-42775000D03*
X148775000Y-42775000D03*
X148775000Y-41425000D03*
X149625000Y-41425000D03*
X150475000Y-41425000D03*
X151325000Y-41425000D03*
X152175000Y-41425000D03*
X153025000Y-41425000D03*
X153875000Y-41425000D03*
X154725000Y-41425000D03*
D15*
X156075000Y-41795000D03*
D16*
X156075000Y-38415000D03*
D15*
X147425000Y-41795000D03*
D16*
X147425000Y-38415000D03*
%TD*%
D17*
%TO.C,D1*%
X152555000Y-48055000D03*
X152555000Y-47555000D03*
X152555000Y-47055000D03*
X150945000Y-47055000D03*
X150945000Y-47555000D03*
X150945000Y-48055000D03*
%TD*%
D18*
%TO.C,U2*%
X151775000Y-55805000D03*
X151775000Y-57075000D03*
X151775000Y-58345000D03*
X151775000Y-59615000D03*
X151775000Y-60885000D03*
X151775000Y-62155000D03*
X151775000Y-63425000D03*
X151775000Y-64695000D03*
X156725000Y-64695000D03*
X156725000Y-63425000D03*
X156725000Y-62155000D03*
X156725000Y-60885000D03*
X156725000Y-59615000D03*
X156725000Y-58345000D03*
X156725000Y-57075000D03*
X156725000Y-55805000D03*
%TD*%
D19*
%TO.C,Q2*%
X155000000Y-72000000D03*
X153100000Y-72000000D03*
X154050000Y-73875000D03*
%TD*%
D20*
%TO.C,Spannungsregler1*%
X136300000Y-44100000D03*
X134000000Y-44100000D03*
D21*
X134000000Y-50400000D03*
D20*
X131700000Y-44100000D03*
%TD*%
D22*
%TO.C,Q1*%
X153050000Y-69375000D03*
X154950000Y-69375000D03*
X154000000Y-67500000D03*
%TD*%
D23*
%TO.C,J1*%
X131235000Y-39750000D03*
D24*
X133775000Y-39750000D03*
%TD*%
%TO.C,J3*%
X143750000Y-39750000D03*
D23*
X141210000Y-39750000D03*
X138670000Y-39750000D03*
%TD*%
D25*
%TO.C,C_USB_UART1*%
X156750000Y-53250000D03*
X151750000Y-53250000D03*
%TD*%
D13*
%TO.C,C_5V1*%
X142500000Y-44000000D03*
X142500000Y-48400000D03*
%TD*%
D23*
%TO.C,esp_right1*%
X148000000Y-113060000D03*
X148000000Y-110520000D03*
X148000000Y-107980000D03*
X148000000Y-105440000D03*
X148000000Y-102900000D03*
X148000000Y-100360000D03*
X148000000Y-97820000D03*
X148000000Y-95280000D03*
X148000000Y-92740000D03*
X148000000Y-90200000D03*
X148000000Y-87660000D03*
X148000000Y-85120000D03*
X148000000Y-82580000D03*
X148000000Y-80040000D03*
D24*
X148000000Y-77500000D03*
%TD*%
D23*
%TO.C,esp_left1*%
X131000000Y-113060000D03*
X131000000Y-110520000D03*
X131000000Y-107980000D03*
X131000000Y-105440000D03*
X131000000Y-102900000D03*
X131000000Y-100360000D03*
X131000000Y-97820000D03*
X131000000Y-95280000D03*
X131000000Y-92740000D03*
X131000000Y-90200000D03*
X131000000Y-87660000D03*
X131000000Y-85120000D03*
X131000000Y-82580000D03*
X131000000Y-80040000D03*
D24*
X131000000Y-77500000D03*
%TD*%
D26*
%TO.C,U1*%
X130500000Y-54340000D03*
X130500000Y-55610000D03*
X130500000Y-56880000D03*
X130500000Y-58150000D03*
X130500000Y-59420000D03*
X130500000Y-60690000D03*
X130500000Y-61960000D03*
X130500000Y-63230000D03*
X130500000Y-64500000D03*
X130500000Y-65770000D03*
X130500000Y-67040000D03*
X130500000Y-68310000D03*
X130500000Y-69580000D03*
X130500000Y-70850000D03*
D27*
X133535000Y-72100000D03*
X134805000Y-72100000D03*
X136075000Y-72100000D03*
X137345000Y-72100000D03*
X138615000Y-72100000D03*
X139885000Y-72100000D03*
X141155000Y-72100000D03*
X142425000Y-72100000D03*
X143695000Y-72100000D03*
X144965000Y-72100000D03*
D26*
X148000000Y-70850000D03*
X148000000Y-69580000D03*
X148000000Y-68310000D03*
X148000000Y-67040000D03*
X148000000Y-65770000D03*
X148000000Y-64500000D03*
X148000000Y-63230000D03*
X148000000Y-61960000D03*
X148000000Y-60690000D03*
X148000000Y-59420000D03*
X148000000Y-58150000D03*
X148000000Y-56880000D03*
X148000000Y-55610000D03*
X148000000Y-54340000D03*
D28*
X136350000Y-60980000D03*
X136350000Y-62380000D03*
X137050000Y-60280000D03*
X137050000Y-61680000D03*
X137050000Y-63080000D03*
X137750000Y-60980000D03*
D29*
X137750000Y-61680000D03*
D28*
X137750000Y-62380000D03*
X138450000Y-60280000D03*
X138450000Y-61680000D03*
X138450000Y-63080000D03*
X139150000Y-60980000D03*
X139150000Y-62380000D03*
%TD*%
M02*
