%TF.GenerationSoftware,KiCad,Pcbnew,8.99.0-unknown-e6b739776e~181~ubuntu24.04.1*%
%TF.CreationDate,2024-12-30T21:47:43+01:00*%
%TF.ProjectId,Spinne_Werkstatt,5370696e-6e65-45f5-9765-726b73746174,rev?*%
%TF.SameCoordinates,Original*%
%TF.FileFunction,Legend,Bot*%
%TF.FilePolarity,Positive*%
%FSLAX46Y46*%
G04 Gerber Fmt 4.6, Leading zero omitted, Abs format (unit mm)*
G04 Created by KiCad (PCBNEW 8.99.0-unknown-e6b739776e~181~ubuntu24.04.1) date 2024-12-30 21:47:43*
%MOMM*%
%LPD*%
G01*
G04 APERTURE LIST*
%ADD10C,0.150000*%
%ADD11C,0.120000*%
G04 APERTURE END LIST*
D10*
X151261905Y-75577200D02*
X151357143Y-75624819D01*
X151357143Y-75624819D02*
X151547619Y-75624819D01*
X151547619Y-75624819D02*
X151642857Y-75577200D01*
X151642857Y-75577200D02*
X151690476Y-75481961D01*
X151690476Y-75481961D02*
X151690476Y-75101009D01*
X151690476Y-75101009D02*
X151642857Y-75005771D01*
X151642857Y-75005771D02*
X151547619Y-74958152D01*
X151547619Y-74958152D02*
X151357143Y-74958152D01*
X151357143Y-74958152D02*
X151261905Y-75005771D01*
X151261905Y-75005771D02*
X151214286Y-75101009D01*
X151214286Y-75101009D02*
X151214286Y-75196247D01*
X151214286Y-75196247D02*
X151690476Y-75291485D01*
X150833333Y-75577200D02*
X150738095Y-75624819D01*
X150738095Y-75624819D02*
X150547619Y-75624819D01*
X150547619Y-75624819D02*
X150452381Y-75577200D01*
X150452381Y-75577200D02*
X150404762Y-75481961D01*
X150404762Y-75481961D02*
X150404762Y-75434342D01*
X150404762Y-75434342D02*
X150452381Y-75339104D01*
X150452381Y-75339104D02*
X150547619Y-75291485D01*
X150547619Y-75291485D02*
X150690476Y-75291485D01*
X150690476Y-75291485D02*
X150785714Y-75243866D01*
X150785714Y-75243866D02*
X150833333Y-75148628D01*
X150833333Y-75148628D02*
X150833333Y-75101009D01*
X150833333Y-75101009D02*
X150785714Y-75005771D01*
X150785714Y-75005771D02*
X150690476Y-74958152D01*
X150690476Y-74958152D02*
X150547619Y-74958152D01*
X150547619Y-74958152D02*
X150452381Y-75005771D01*
X149976190Y-74958152D02*
X149976190Y-75958152D01*
X149976190Y-75005771D02*
X149880952Y-74958152D01*
X149880952Y-74958152D02*
X149690476Y-74958152D01*
X149690476Y-74958152D02*
X149595238Y-75005771D01*
X149595238Y-75005771D02*
X149547619Y-75053390D01*
X149547619Y-75053390D02*
X149500000Y-75148628D01*
X149500000Y-75148628D02*
X149500000Y-75434342D01*
X149500000Y-75434342D02*
X149547619Y-75529580D01*
X149547619Y-75529580D02*
X149595238Y-75577200D01*
X149595238Y-75577200D02*
X149690476Y-75624819D01*
X149690476Y-75624819D02*
X149880952Y-75624819D01*
X149880952Y-75624819D02*
X149976190Y-75577200D01*
X149309524Y-75720057D02*
X148547619Y-75720057D01*
X148309523Y-75624819D02*
X148309523Y-74958152D01*
X148309523Y-75148628D02*
X148261904Y-75053390D01*
X148261904Y-75053390D02*
X148214285Y-75005771D01*
X148214285Y-75005771D02*
X148119047Y-74958152D01*
X148119047Y-74958152D02*
X148023809Y-74958152D01*
X147690475Y-75624819D02*
X147690475Y-74958152D01*
X147690475Y-74624819D02*
X147738094Y-74672438D01*
X147738094Y-74672438D02*
X147690475Y-74720057D01*
X147690475Y-74720057D02*
X147642856Y-74672438D01*
X147642856Y-74672438D02*
X147690475Y-74624819D01*
X147690475Y-74624819D02*
X147690475Y-74720057D01*
X146785714Y-74958152D02*
X146785714Y-75767676D01*
X146785714Y-75767676D02*
X146833333Y-75862914D01*
X146833333Y-75862914D02*
X146880952Y-75910533D01*
X146880952Y-75910533D02*
X146976190Y-75958152D01*
X146976190Y-75958152D02*
X147119047Y-75958152D01*
X147119047Y-75958152D02*
X147214285Y-75910533D01*
X146785714Y-75577200D02*
X146880952Y-75624819D01*
X146880952Y-75624819D02*
X147071428Y-75624819D01*
X147071428Y-75624819D02*
X147166666Y-75577200D01*
X147166666Y-75577200D02*
X147214285Y-75529580D01*
X147214285Y-75529580D02*
X147261904Y-75434342D01*
X147261904Y-75434342D02*
X147261904Y-75148628D01*
X147261904Y-75148628D02*
X147214285Y-75053390D01*
X147214285Y-75053390D02*
X147166666Y-75005771D01*
X147166666Y-75005771D02*
X147071428Y-74958152D01*
X147071428Y-74958152D02*
X146880952Y-74958152D01*
X146880952Y-74958152D02*
X146785714Y-75005771D01*
X146309523Y-75624819D02*
X146309523Y-74624819D01*
X145880952Y-75624819D02*
X145880952Y-75101009D01*
X145880952Y-75101009D02*
X145928571Y-75005771D01*
X145928571Y-75005771D02*
X146023809Y-74958152D01*
X146023809Y-74958152D02*
X146166666Y-74958152D01*
X146166666Y-74958152D02*
X146261904Y-75005771D01*
X146261904Y-75005771D02*
X146309523Y-75053390D01*
X145547618Y-74958152D02*
X145166666Y-74958152D01*
X145404761Y-74624819D02*
X145404761Y-75481961D01*
X145404761Y-75481961D02*
X145357142Y-75577200D01*
X145357142Y-75577200D02*
X145261904Y-75624819D01*
X145261904Y-75624819D02*
X145166666Y-75624819D01*
X144309523Y-75624819D02*
X144880951Y-75624819D01*
X144595237Y-75624819D02*
X144595237Y-74624819D01*
X144595237Y-74624819D02*
X144690475Y-74767676D01*
X144690475Y-74767676D02*
X144785713Y-74862914D01*
X144785713Y-74862914D02*
X144880951Y-74910533D01*
X133785715Y-75577200D02*
X133880953Y-75624819D01*
X133880953Y-75624819D02*
X134071429Y-75624819D01*
X134071429Y-75624819D02*
X134166667Y-75577200D01*
X134166667Y-75577200D02*
X134214286Y-75481961D01*
X134214286Y-75481961D02*
X134214286Y-75101009D01*
X134214286Y-75101009D02*
X134166667Y-75005771D01*
X134166667Y-75005771D02*
X134071429Y-74958152D01*
X134071429Y-74958152D02*
X133880953Y-74958152D01*
X133880953Y-74958152D02*
X133785715Y-75005771D01*
X133785715Y-75005771D02*
X133738096Y-75101009D01*
X133738096Y-75101009D02*
X133738096Y-75196247D01*
X133738096Y-75196247D02*
X134214286Y-75291485D01*
X133357143Y-75577200D02*
X133261905Y-75624819D01*
X133261905Y-75624819D02*
X133071429Y-75624819D01*
X133071429Y-75624819D02*
X132976191Y-75577200D01*
X132976191Y-75577200D02*
X132928572Y-75481961D01*
X132928572Y-75481961D02*
X132928572Y-75434342D01*
X132928572Y-75434342D02*
X132976191Y-75339104D01*
X132976191Y-75339104D02*
X133071429Y-75291485D01*
X133071429Y-75291485D02*
X133214286Y-75291485D01*
X133214286Y-75291485D02*
X133309524Y-75243866D01*
X133309524Y-75243866D02*
X133357143Y-75148628D01*
X133357143Y-75148628D02*
X133357143Y-75101009D01*
X133357143Y-75101009D02*
X133309524Y-75005771D01*
X133309524Y-75005771D02*
X133214286Y-74958152D01*
X133214286Y-74958152D02*
X133071429Y-74958152D01*
X133071429Y-74958152D02*
X132976191Y-75005771D01*
X132500000Y-74958152D02*
X132500000Y-75958152D01*
X132500000Y-75005771D02*
X132404762Y-74958152D01*
X132404762Y-74958152D02*
X132214286Y-74958152D01*
X132214286Y-74958152D02*
X132119048Y-75005771D01*
X132119048Y-75005771D02*
X132071429Y-75053390D01*
X132071429Y-75053390D02*
X132023810Y-75148628D01*
X132023810Y-75148628D02*
X132023810Y-75434342D01*
X132023810Y-75434342D02*
X132071429Y-75529580D01*
X132071429Y-75529580D02*
X132119048Y-75577200D01*
X132119048Y-75577200D02*
X132214286Y-75624819D01*
X132214286Y-75624819D02*
X132404762Y-75624819D01*
X132404762Y-75624819D02*
X132500000Y-75577200D01*
X131833334Y-75720057D02*
X131071429Y-75720057D01*
X130690476Y-75624819D02*
X130785714Y-75577200D01*
X130785714Y-75577200D02*
X130833333Y-75481961D01*
X130833333Y-75481961D02*
X130833333Y-74624819D01*
X129928571Y-75577200D02*
X130023809Y-75624819D01*
X130023809Y-75624819D02*
X130214285Y-75624819D01*
X130214285Y-75624819D02*
X130309523Y-75577200D01*
X130309523Y-75577200D02*
X130357142Y-75481961D01*
X130357142Y-75481961D02*
X130357142Y-75101009D01*
X130357142Y-75101009D02*
X130309523Y-75005771D01*
X130309523Y-75005771D02*
X130214285Y-74958152D01*
X130214285Y-74958152D02*
X130023809Y-74958152D01*
X130023809Y-74958152D02*
X129928571Y-75005771D01*
X129928571Y-75005771D02*
X129880952Y-75101009D01*
X129880952Y-75101009D02*
X129880952Y-75196247D01*
X129880952Y-75196247D02*
X130357142Y-75291485D01*
X129595237Y-74958152D02*
X129214285Y-74958152D01*
X129452380Y-75624819D02*
X129452380Y-74767676D01*
X129452380Y-74767676D02*
X129404761Y-74672438D01*
X129404761Y-74672438D02*
X129309523Y-74624819D01*
X129309523Y-74624819D02*
X129214285Y-74624819D01*
X129023808Y-74958152D02*
X128642856Y-74958152D01*
X128880951Y-74624819D02*
X128880951Y-75481961D01*
X128880951Y-75481961D02*
X128833332Y-75577200D01*
X128833332Y-75577200D02*
X128738094Y-75624819D01*
X128738094Y-75624819D02*
X128642856Y-75624819D01*
X127785713Y-75624819D02*
X128357141Y-75624819D01*
X128071427Y-75624819D02*
X128071427Y-74624819D01*
X128071427Y-74624819D02*
X128166665Y-74767676D01*
X128166665Y-74767676D02*
X128261903Y-74862914D01*
X128261903Y-74862914D02*
X128357141Y-74910533D01*
D11*
%TO.C,esp_right1*%
X149330000Y-114390000D02*
X146670000Y-114390000D01*
X149330000Y-78770000D02*
X149330000Y-114390000D01*
X149330000Y-78770000D02*
X146670000Y-78770000D01*
X149330000Y-77500000D02*
X149330000Y-76170000D01*
X149330000Y-76170000D02*
X148000000Y-76170000D01*
X146670000Y-78770000D02*
X146670000Y-114390000D01*
%TO.C,esp_left1*%
X132330000Y-114390000D02*
X129670000Y-114390000D01*
X132330000Y-78770000D02*
X132330000Y-114390000D01*
X132330000Y-78770000D02*
X129670000Y-78770000D01*
X132330000Y-77500000D02*
X132330000Y-76170000D01*
X132330000Y-76170000D02*
X131000000Y-76170000D01*
X129670000Y-78770000D02*
X129670000Y-114390000D01*
%TD*%
M02*
