%TF.GenerationSoftware,KiCad,Pcbnew,8.99.0-unknown-e6b739776e~181~ubuntu24.04.1*%
%TF.CreationDate,2024-12-30T21:47:43+01:00*%
%TF.ProjectId,Spinne_Werkstatt,5370696e-6e65-45f5-9765-726b73746174,rev?*%
%TF.SameCoordinates,Original*%
%TF.FileFunction,Copper,L1,Top*%
%TF.FilePolarity,Positive*%
%FSLAX46Y46*%
G04 Gerber Fmt 4.6, Leading zero omitted, Abs format (unit mm)*
G04 Created by KiCad (PCBNEW 8.99.0-unknown-e6b739776e~181~ubuntu24.04.1) date 2024-12-30 21:47:43*
%MOMM*%
%LPD*%
G01*
G04 APERTURE LIST*
G04 Aperture macros list*
%AMRoundRect*
0 Rectangle with rounded corners*
0 $1 Rounding radius*
0 $2 $3 $4 $5 $6 $7 $8 $9 X,Y pos of 4 corners*
0 Add a 4 corners polygon primitive as box body*
4,1,4,$2,$3,$4,$5,$6,$7,$8,$9,$2,$3,0*
0 Add four circle primitives for the rounded corners*
1,1,$1+$1,$2,$3*
1,1,$1+$1,$4,$5*
1,1,$1+$1,$6,$7*
1,1,$1+$1,$8,$9*
0 Add four rect primitives between the rounded corners*
20,1,$1+$1,$2,$3,$4,$5,0*
20,1,$1+$1,$4,$5,$6,$7,0*
20,1,$1+$1,$6,$7,$8,$9,0*
20,1,$1+$1,$8,$9,$2,$3,0*%
G04 Aperture macros list end*
%TA.AperFunction,SMDPad,CuDef*%
%ADD10RoundRect,0.250000X-0.625000X0.400000X-0.625000X-0.400000X0.625000X-0.400000X0.625000X0.400000X0*%
%TD*%
%TA.AperFunction,SMDPad,CuDef*%
%ADD11RoundRect,0.250000X0.550000X-1.250000X0.550000X1.250000X-0.550000X1.250000X-0.550000X-1.250000X0*%
%TD*%
%TA.AperFunction,SMDPad,CuDef*%
%ADD12RoundRect,0.250000X-0.475000X0.337500X-0.475000X-0.337500X0.475000X-0.337500X0.475000X0.337500X0*%
%TD*%
%TA.AperFunction,SMDPad,CuDef*%
%ADD13RoundRect,0.250000X-0.550000X1.250000X-0.550000X-1.250000X0.550000X-1.250000X0.550000X1.250000X0*%
%TD*%
%TA.AperFunction,ComponentPad*%
%ADD14C,0.700000*%
%TD*%
%TA.AperFunction,ComponentPad*%
%ADD15O,0.900000X2.400000*%
%TD*%
%TA.AperFunction,ComponentPad*%
%ADD16O,0.900000X1.700000*%
%TD*%
%TA.AperFunction,SMDPad,CuDef*%
%ADD17R,0.990000X0.300000*%
%TD*%
%TA.AperFunction,SMDPad,CuDef*%
%ADD18RoundRect,0.150000X-0.825000X-0.150000X0.825000X-0.150000X0.825000X0.150000X-0.825000X0.150000X0*%
%TD*%
%TA.AperFunction,SMDPad,CuDef*%
%ADD19RoundRect,0.150000X-0.150000X0.587500X-0.150000X-0.587500X0.150000X-0.587500X0.150000X0.587500X0*%
%TD*%
%TA.AperFunction,SMDPad,CuDef*%
%ADD20RoundRect,0.375000X-0.375000X0.625000X-0.375000X-0.625000X0.375000X-0.625000X0.375000X0.625000X0*%
%TD*%
%TA.AperFunction,SMDPad,CuDef*%
%ADD21RoundRect,0.500000X-1.400000X0.500000X-1.400000X-0.500000X1.400000X-0.500000X1.400000X0.500000X0*%
%TD*%
%TA.AperFunction,SMDPad,CuDef*%
%ADD22RoundRect,0.150000X0.150000X-0.587500X0.150000X0.587500X-0.150000X0.587500X-0.150000X-0.587500X0*%
%TD*%
%TA.AperFunction,ComponentPad*%
%ADD23O,1.700000X1.700000*%
%TD*%
%TA.AperFunction,ComponentPad*%
%ADD24R,1.700000X1.700000*%
%TD*%
%TA.AperFunction,ComponentPad*%
%ADD25C,1.600000*%
%TD*%
%TA.AperFunction,SMDPad,CuDef*%
%ADD26R,1.500000X0.900000*%
%TD*%
%TA.AperFunction,SMDPad,CuDef*%
%ADD27R,0.900000X1.500000*%
%TD*%
%TA.AperFunction,SMDPad,CuDef*%
%ADD28R,0.900000X0.900000*%
%TD*%
%TA.AperFunction,HeatsinkPad*%
%ADD29C,0.600000*%
%TD*%
%TA.AperFunction,SMDPad,CuDef*%
%ADD30R,3.800000X3.800000*%
%TD*%
%TA.AperFunction,ViaPad*%
%ADD31C,0.600000*%
%TD*%
%TA.AperFunction,Conductor*%
%ADD32C,0.299974*%
%TD*%
%TA.AperFunction,Conductor*%
%ADD33C,0.762000*%
%TD*%
%TA.AperFunction,Conductor*%
%ADD34C,0.254000*%
%TD*%
%TA.AperFunction,Conductor*%
%ADD35C,0.508000*%
%TD*%
%TA.AperFunction,Conductor*%
%ADD36C,1.700000*%
%TD*%
G04 APERTURE END LIST*
D10*
%TO.P,ESP_EN_R1,1*%
%TO.N,+3V3*%
X124000000Y-49650000D03*
%TO.P,ESP_EN_R1,2*%
%TO.N,ESP32_EN*%
X124000000Y-52750000D03*
%TD*%
D11*
%TO.P,C_3.3V1,1*%
%TO.N,+3V3*%
X125250000Y-46200000D03*
%TO.P,C_3.3V1,2*%
%TO.N,GND*%
X125250000Y-41800000D03*
%TD*%
D12*
%TO.P,C_ESP2,1*%
%TO.N,ESP32_EN*%
X127500000Y-57000000D03*
%TO.P,C_ESP2,2*%
%TO.N,GND*%
X127500000Y-59075000D03*
%TD*%
D13*
%TO.P,C_ESP1,1*%
%TO.N,ESP32_EN*%
X123250000Y-57050000D03*
%TO.P,C_ESP1,2*%
%TO.N,GND*%
X123250000Y-61450000D03*
%TD*%
D14*
%TO.P,USB-C1,A1,GND*%
%TO.N,GND*%
X154725000Y-42775000D03*
%TO.P,USB-C1,A4,VBUS*%
%TO.N,VBUS*%
X153875000Y-42775000D03*
%TO.P,USB-C1,A5,CC1*%
%TO.N,unconnected-(USB-C1-CC1-PadA5)*%
X153025000Y-42775000D03*
%TO.P,USB-C1,A6,D+*%
%TO.N,D+*%
X152175000Y-42775000D03*
%TO.P,USB-C1,A7,D-*%
%TO.N,D-*%
X151325000Y-42775000D03*
%TO.P,USB-C1,A8,SBU1*%
%TO.N,unconnected-(USB-C1-SBU1-PadA8)*%
X150475000Y-42775000D03*
%TO.P,USB-C1,A9,VBUS*%
%TO.N,VBUS*%
X149625000Y-42775000D03*
%TO.P,USB-C1,A12,GND*%
%TO.N,GND*%
X148775000Y-42775000D03*
%TO.P,USB-C1,B1,GND*%
X148775000Y-41425000D03*
%TO.P,USB-C1,B4,VBUS*%
%TO.N,VBUS*%
X149625000Y-41425000D03*
%TO.P,USB-C1,B5,CC2*%
%TO.N,unconnected-(USB-C1-CC2-PadB5)*%
X150475000Y-41425000D03*
%TO.P,USB-C1,B6,D+*%
%TO.N,D+*%
X151325000Y-41425000D03*
%TO.P,USB-C1,B7,D-*%
%TO.N,D-*%
X152175000Y-41425000D03*
%TO.P,USB-C1,B8,SBU2*%
%TO.N,unconnected-(USB-C1-SBU2-PadB8)*%
X153025000Y-41425000D03*
%TO.P,USB-C1,B9,VBUS*%
%TO.N,VBUS*%
X153875000Y-41425000D03*
%TO.P,USB-C1,B12,GND*%
%TO.N,GND*%
X154725000Y-41425000D03*
D15*
%TO.P,USB-C1,S1,SHIELD*%
X156075000Y-41795000D03*
D16*
X156075000Y-38415000D03*
D15*
X147425000Y-41795000D03*
D16*
X147425000Y-38415000D03*
%TD*%
D17*
%TO.P,D1,1,I/O1*%
%TO.N,D+*%
X152555000Y-48055000D03*
%TO.P,D1,2*%
%TO.N,N/C*%
X152555000Y-47555000D03*
%TO.P,D1,3,I/O2*%
%TO.N,D-*%
X152555000Y-47055000D03*
%TO.P,D1,4,I/O3*%
%TO.N,VBUS*%
X150945000Y-47055000D03*
%TO.P,D1,5*%
%TO.N,N/C*%
X150945000Y-47555000D03*
%TO.P,D1,6,GND*%
%TO.N,GND*%
X150945000Y-48055000D03*
%TD*%
D18*
%TO.P,U2,1,GND*%
%TO.N,GND*%
X151775000Y-55805000D03*
%TO.P,U2,2,TXD*%
%TO.N,ESP_RX*%
X151775000Y-57075000D03*
%TO.P,U2,3,RXD*%
%TO.N,ESP_TX*%
X151775000Y-58345000D03*
%TO.P,U2,4,V3*%
%TO.N,+3V3*%
X151775000Y-59615000D03*
%TO.P,U2,5,UD+*%
%TO.N,D+*%
X151775000Y-60885000D03*
%TO.P,U2,6,UD-*%
%TO.N,D-*%
X151775000Y-62155000D03*
%TO.P,U2,7,NC*%
%TO.N,unconnected-(U2-NC-Pad7)*%
X151775000Y-63425000D03*
%TO.P,U2,8,NC*%
%TO.N,unconnected-(U2-NC-Pad8)*%
X151775000Y-64695000D03*
%TO.P,U2,9,~{CTS}*%
%TO.N,unconnected-(U2-~{CTS}-Pad9)*%
X156725000Y-64695000D03*
%TO.P,U2,10,~{DSR}*%
%TO.N,unconnected-(U2-~{DSR}-Pad10)*%
X156725000Y-63425000D03*
%TO.P,U2,11,~{RI}*%
%TO.N,unconnected-(U2-~{RI}-Pad11)*%
X156725000Y-62155000D03*
%TO.P,U2,12,~{DCD}*%
%TO.N,unconnected-(U2-~{DCD}-Pad12)*%
X156725000Y-60885000D03*
%TO.P,U2,13,~{DTR}*%
%TO.N,Net-(Q1-G)*%
X156725000Y-59615000D03*
%TO.P,U2,14,~{RTS}*%
%TO.N,Net-(Q1-S)*%
X156725000Y-58345000D03*
%TO.P,U2,15,R232*%
%TO.N,unconnected-(U2-R232-Pad15)*%
X156725000Y-57075000D03*
%TO.P,U2,16,VCC*%
%TO.N,+3V3*%
X156725000Y-55805000D03*
%TD*%
D19*
%TO.P,Q2,1,G*%
%TO.N,Net-(Q1-S)*%
X155000000Y-72000000D03*
%TO.P,Q2,2,S*%
%TO.N,Net-(Q1-G)*%
X153100000Y-72000000D03*
%TO.P,Q2,3,D*%
%TO.N,ESP32_IO0*%
X154050000Y-73875000D03*
%TD*%
D20*
%TO.P,Spannungsregler1,1,GND*%
%TO.N,GND*%
X136300000Y-44100000D03*
%TO.P,Spannungsregler1,2,VO*%
%TO.N,+3V3*%
X134000000Y-44100000D03*
D21*
X134000000Y-50400000D03*
D20*
%TO.P,Spannungsregler1,3,VI*%
%TO.N,+5V*%
X131700000Y-44100000D03*
%TD*%
D22*
%TO.P,Q1,1,G*%
%TO.N,Net-(Q1-G)*%
X153050000Y-69375000D03*
%TO.P,Q1,2,S*%
%TO.N,Net-(Q1-S)*%
X154950000Y-69375000D03*
%TO.P,Q1,3,D*%
%TO.N,ESP32_EN*%
X154000000Y-67500000D03*
%TD*%
D23*
%TO.P,J1,2,Pin_2*%
%TO.N,GND*%
X131235000Y-39750000D03*
D24*
%TO.P,J1,1,Pin_1*%
%TO.N,VCC*%
X133775000Y-39750000D03*
%TD*%
%TO.P,J3,1,Pin_1*%
%TO.N,VBUS*%
X143750000Y-39750000D03*
D23*
%TO.P,J3,2,Pin_2*%
%TO.N,+5V*%
X141210000Y-39750000D03*
%TO.P,J3,3,Pin_3*%
%TO.N,VCC*%
X138670000Y-39750000D03*
%TD*%
D25*
%TO.P,C_USB_UART1,1*%
%TO.N,+3V3*%
X156750000Y-53250000D03*
%TO.P,C_USB_UART1,2*%
%TO.N,GND*%
X151750000Y-53250000D03*
%TD*%
D13*
%TO.P,C_5V1,1*%
%TO.N,+5V*%
X142500000Y-44000000D03*
%TO.P,C_5V1,2*%
%TO.N,GND*%
X142500000Y-48400000D03*
%TD*%
D23*
%TO.P,esp_right1,15,Pin_15*%
%TO.N,pin23*%
X148000000Y-113060000D03*
%TO.P,esp_right1,14,Pin_14*%
%TO.N,pin24*%
X148000000Y-110520000D03*
%TO.P,esp_right1,13,Pin_13*%
%TO.N,ESP32_IO0*%
X148000000Y-107980000D03*
%TO.P,esp_right1,12,Pin_12*%
%TO.N,pin26*%
X148000000Y-105440000D03*
%TO.P,esp_right1,11,Pin_11*%
%TO.N,pin27*%
X148000000Y-102900000D03*
%TO.P,esp_right1,10,Pin_10*%
%TO.N,pin28*%
X148000000Y-100360000D03*
%TO.P,esp_right1,9,Pin_9*%
%TO.N,pin29*%
X148000000Y-97820000D03*
%TO.P,esp_right1,8,Pin_8*%
%TO.N,pin30*%
X148000000Y-95280000D03*
%TO.P,esp_right1,7,Pin_7*%
%TO.N,pin31*%
X148000000Y-92740000D03*
%TO.P,esp_right1,6,Pin_6*%
%TO.N,pin33*%
X148000000Y-90200000D03*
%TO.P,esp_right1,5,Pin_5*%
%TO.N,ESP_RX*%
X148000000Y-87660000D03*
%TO.P,esp_right1,4,Pin_4*%
%TO.N,ESP_TX*%
X148000000Y-85120000D03*
%TO.P,esp_right1,3,Pin_3*%
%TO.N,pin36*%
X148000000Y-82580000D03*
%TO.P,esp_right1,2,Pin_2*%
%TO.N,pin37*%
X148000000Y-80040000D03*
D24*
%TO.P,esp_right1,1,Pin_1*%
%TO.N,+5V*%
X148000000Y-77500000D03*
%TD*%
D23*
%TO.P,esp_left1,15,Pin_15*%
%TO.N,pin16*%
X131000000Y-113060000D03*
%TO.P,esp_left1,14,Pin_14*%
%TO.N,pin14*%
X131000000Y-110520000D03*
%TO.P,esp_left1,13,Pin_13*%
%TO.N,pin13*%
X131000000Y-107980000D03*
%TO.P,esp_left1,12,Pin_12*%
%TO.N,pin12*%
X131000000Y-105440000D03*
%TO.P,esp_left1,11,Pin_11*%
%TO.N,pin11*%
X131000000Y-102900000D03*
%TO.P,esp_left1,10,Pin_10*%
%TO.N,pin10*%
X131000000Y-100360000D03*
%TO.P,esp_left1,9,Pin_9*%
%TO.N,pin9*%
X131000000Y-97820000D03*
%TO.P,esp_left1,8,Pin_8*%
%TO.N,pin8*%
X131000000Y-95280000D03*
%TO.P,esp_left1,7,Pin_7*%
%TO.N,pin7*%
X131000000Y-92740000D03*
%TO.P,esp_left1,6,Pin_6*%
%TO.N,pin6*%
X131000000Y-90200000D03*
%TO.P,esp_left1,5,Pin_5*%
%TO.N,pin5*%
X131000000Y-87660000D03*
%TO.P,esp_left1,4,Pin_4*%
%TO.N,pin4*%
X131000000Y-85120000D03*
%TO.P,esp_left1,3,Pin_3*%
%TO.N,ESP32_EN*%
X131000000Y-82580000D03*
%TO.P,esp_left1,2,Pin_2*%
%TO.N,+3V3*%
X131000000Y-80040000D03*
D24*
%TO.P,esp_left1,1,Pin_1*%
%TO.N,GND*%
X131000000Y-77500000D03*
%TD*%
D26*
%TO.P,U1,1,GND*%
%TO.N,GND*%
X130500000Y-54340000D03*
%TO.P,U1,2,VDD*%
%TO.N,+3V3*%
X130500000Y-55610000D03*
%TO.P,U1,3,EN*%
%TO.N,ESP32_EN*%
X130500000Y-56880000D03*
%TO.P,U1,4,SENSOR_VP*%
%TO.N,pin4*%
X130500000Y-58150000D03*
%TO.P,U1,5,SENSOR_VN*%
%TO.N,pin5*%
X130500000Y-59420000D03*
%TO.P,U1,6,IO34*%
%TO.N,pin6*%
X130500000Y-60690000D03*
%TO.P,U1,7,IO35*%
%TO.N,pin7*%
X130500000Y-61960000D03*
%TO.P,U1,8,IO32*%
%TO.N,pin8*%
X130500000Y-63230000D03*
%TO.P,U1,9,IO33*%
%TO.N,pin9*%
X130500000Y-64500000D03*
%TO.P,U1,10,IO25*%
%TO.N,pin10*%
X130500000Y-65770000D03*
%TO.P,U1,11,IO26*%
%TO.N,pin11*%
X130500000Y-67040000D03*
%TO.P,U1,12,IO27*%
%TO.N,pin12*%
X130500000Y-68310000D03*
%TO.P,U1,13,IO14*%
%TO.N,pin13*%
X130500000Y-69580000D03*
%TO.P,U1,14,IO12*%
%TO.N,pin14*%
X130500000Y-70850000D03*
D27*
%TO.P,U1,15,GND*%
%TO.N,GND*%
X133535000Y-72100000D03*
%TO.P,U1,16,IO13*%
%TO.N,pin16*%
X134805000Y-72100000D03*
%TO.P,U1,17,NC*%
%TO.N,unconnected-(U1-NC-Pad17)*%
X136075000Y-72100000D03*
%TO.P,U1,18,NC*%
%TO.N,unconnected-(U1-NC-Pad18)*%
X137345000Y-72100000D03*
%TO.P,U1,19,NC*%
%TO.N,unconnected-(U1-NC-Pad19)*%
X138615000Y-72100000D03*
%TO.P,U1,20,NC*%
%TO.N,unconnected-(U1-NC-Pad20)*%
X139885000Y-72100000D03*
%TO.P,U1,21,NC*%
%TO.N,unconnected-(U1-NC-Pad21)*%
X141155000Y-72100000D03*
%TO.P,U1,22,NC*%
%TO.N,unconnected-(U1-NC-Pad22)*%
X142425000Y-72100000D03*
%TO.P,U1,23,IO15*%
%TO.N,pin23*%
X143695000Y-72100000D03*
%TO.P,U1,24,IO2*%
%TO.N,pin24*%
X144965000Y-72100000D03*
D26*
%TO.P,U1,25,IO0*%
%TO.N,ESP32_IO0*%
X148000000Y-70850000D03*
%TO.P,U1,26,IO4*%
%TO.N,pin26*%
X148000000Y-69580000D03*
%TO.P,U1,27,IO16*%
%TO.N,pin27*%
X148000000Y-68310000D03*
%TO.P,U1,28,IO17*%
%TO.N,pin28*%
X148000000Y-67040000D03*
%TO.P,U1,29,IO5*%
%TO.N,pin29*%
X148000000Y-65770000D03*
%TO.P,U1,30,IO18*%
%TO.N,pin30*%
X148000000Y-64500000D03*
%TO.P,U1,31,IO19*%
%TO.N,pin31*%
X148000000Y-63230000D03*
%TO.P,U1,32,NC*%
%TO.N,unconnected-(U1-NC-Pad32)*%
X148000000Y-61960000D03*
%TO.P,U1,33,IO21*%
%TO.N,pin33*%
X148000000Y-60690000D03*
%TO.P,U1,34,RXD0/IO3*%
%TO.N,ESP_RX*%
X148000000Y-59420000D03*
%TO.P,U1,35,TXD0/IO1*%
%TO.N,ESP_TX*%
X148000000Y-58150000D03*
%TO.P,U1,36,IO22*%
%TO.N,pin36*%
X148000000Y-56880000D03*
%TO.P,U1,37,IO23*%
%TO.N,pin37*%
X148000000Y-55610000D03*
%TO.P,U1,38,GND*%
%TO.N,GND*%
X148000000Y-54340000D03*
D28*
%TO.P,U1,39,GND*%
X136350000Y-60280000D03*
D29*
X136350000Y-60980000D03*
D28*
X136350000Y-61680000D03*
D29*
X136350000Y-62380000D03*
D28*
X136350000Y-63080000D03*
D29*
X137050000Y-60280000D03*
X137050000Y-61680000D03*
X137050000Y-63080000D03*
D28*
X137750000Y-60280000D03*
D29*
X137750000Y-60980000D03*
D28*
X137750000Y-61680000D03*
D30*
X137750000Y-61680000D03*
D29*
X137750000Y-62380000D03*
D28*
X137750000Y-63080000D03*
D29*
X138450000Y-60280000D03*
X138450000Y-61680000D03*
X138450000Y-63080000D03*
D28*
X139150000Y-60280000D03*
D29*
X139150000Y-60980000D03*
D28*
X139150000Y-61680000D03*
D29*
X139150000Y-62380000D03*
D28*
X139150000Y-63080000D03*
%TD*%
D31*
%TO.N,+5V*%
X146750000Y-50000000D03*
%TO.N,+3V3*%
X134000000Y-56750000D03*
X126500000Y-75250000D03*
%TO.N,ESP32_EN*%
X128000000Y-62000000D03*
X125000000Y-75250000D03*
%TO.N,pin4*%
X132250000Y-57000000D03*
X123250000Y-75250000D03*
%TO.N,pin13*%
X137750000Y-69750000D03*
%TO.N,pin14*%
X139000000Y-70500000D03*
%TO.N,pin5*%
X132500000Y-59500000D03*
%TO.N,pin6*%
X133250000Y-60750000D03*
%TO.N,pin7*%
X134000000Y-62000000D03*
%TO.N,pin8*%
X135000000Y-63500000D03*
%TO.N,pin9*%
X136000000Y-65000000D03*
%TO.N,pin37*%
X146500000Y-55750000D03*
%TO.N,pin36*%
X145500000Y-57000000D03*
%TO.N,ESP_RX*%
X144000000Y-59500000D03*
%TO.N,ESP_TX*%
X144750000Y-58250000D03*
%TO.N,pin33*%
X143250000Y-60750000D03*
%TO.N,pin31*%
X142250000Y-63250000D03*
%TO.N,pin30*%
X141500000Y-64500000D03*
%TO.N,pin28*%
X149750000Y-100250000D03*
X150000000Y-67250000D03*
%TO.N,pin27*%
X150250000Y-102750000D03*
X151000000Y-68500000D03*
%TO.N,pin26*%
X150500000Y-105250000D03*
X151750000Y-69750000D03*
%TO.N,pin10*%
X128750000Y-65770000D03*
X129000000Y-100250000D03*
%TO.N,pin11*%
X128500000Y-67250000D03*
X129250000Y-102750000D03*
%TO.N,pin12*%
X127500000Y-68500000D03*
X129250000Y-105250000D03*
%TO.N,+3V3*%
X152500000Y-50750000D03*
%TO.N,ESP_RX*%
X149750000Y-57000000D03*
X149750000Y-59500000D03*
%TO.N,D+*%
X153750000Y-45750000D03*
X153750000Y-60750000D03*
%TO.N,D-*%
X153750000Y-62250000D03*
%TO.N,+3V3*%
X134000000Y-47500000D03*
%TO.N,ESP32_EN*%
X126375000Y-52125000D03*
X154750000Y-66000000D03*
%TD*%
D32*
%TO.N,D-*%
X152555000Y-47055000D02*
X151325000Y-45825000D01*
D33*
%TO.N,+5V*%
X146750000Y-50000000D02*
X146750000Y-48250000D01*
X146750000Y-48250000D02*
X142500000Y-44000000D01*
D34*
%TO.N,pin30*%
X141500000Y-64500000D02*
X148000000Y-64500000D01*
D35*
%TO.N,ESP32_EN*%
X126375000Y-52125000D02*
X125750000Y-52750000D01*
X125750000Y-52750000D02*
X124000000Y-52750000D01*
D34*
%TO.N,+3V3*%
X134000000Y-56750000D02*
X132860000Y-55610000D01*
X132860000Y-55610000D02*
X132390000Y-55610000D01*
%TO.N,pin4*%
X130500000Y-58150000D02*
X131600000Y-58150000D01*
X131600000Y-58150000D02*
X132250000Y-57500000D01*
X132250000Y-57000000D02*
X132250000Y-57500000D01*
%TO.N,+3V3*%
X131000000Y-80040000D02*
X130040000Y-80040000D01*
X130040000Y-80040000D02*
X129500000Y-79500000D01*
X129500000Y-79500000D02*
X129500000Y-77750000D01*
X129500000Y-77750000D02*
X127000000Y-75250000D01*
X127000000Y-75250000D02*
X126500000Y-75250000D01*
%TO.N,ESP32_EN*%
X125000000Y-75250000D02*
X125000000Y-75272214D01*
X125000000Y-75272214D02*
X128500000Y-78772214D01*
X128500000Y-78772214D02*
X128500000Y-81000000D01*
X128500000Y-81000000D02*
X130080000Y-82580000D01*
X130080000Y-82580000D02*
X131000000Y-82580000D01*
%TO.N,pin4*%
X123250000Y-75250000D02*
X127250000Y-79250000D01*
X127250000Y-79250000D02*
X127250000Y-81370000D01*
X127250000Y-81370000D02*
X131000000Y-85120000D01*
D36*
%TO.N,GND*%
X131000000Y-77500000D02*
X131000000Y-74250000D01*
D35*
%TO.N,ESP32_EN*%
X130500000Y-56880000D02*
X129500000Y-56880000D01*
D34*
X129000000Y-57380000D02*
X129500000Y-56880000D01*
X129000000Y-57500000D02*
X129000000Y-56880000D01*
D35*
X128500000Y-56880000D02*
X127620000Y-56880000D01*
D34*
X129000000Y-57500000D02*
X129000000Y-57380000D01*
X129000000Y-57380000D02*
X128500000Y-56880000D01*
D35*
X129500000Y-56880000D02*
X129000000Y-56880000D01*
D34*
X128000000Y-62000000D02*
X129000000Y-61000000D01*
X129000000Y-61000000D02*
X129000000Y-57500000D01*
%TO.N,pin13*%
X137750000Y-69750000D02*
X137580000Y-69580000D01*
X137580000Y-69580000D02*
X130500000Y-69580000D01*
%TO.N,pin14*%
X130500000Y-70850000D02*
X138650000Y-70850000D01*
X138650000Y-70850000D02*
X139000000Y-70500000D01*
%TO.N,pin5*%
X130500000Y-59420000D02*
X132420000Y-59420000D01*
X132420000Y-59420000D02*
X132500000Y-59500000D01*
%TO.N,pin6*%
X130500000Y-60690000D02*
X133190000Y-60690000D01*
X133190000Y-60690000D02*
X133250000Y-60750000D01*
%TO.N,pin9*%
X136000000Y-65000000D02*
X135500000Y-64500000D01*
X135500000Y-64500000D02*
X130500000Y-64500000D01*
%TO.N,pin7*%
X130540000Y-62000000D02*
X130500000Y-61960000D01*
X134000000Y-62000000D02*
X130540000Y-62000000D01*
%TO.N,pin8*%
X130500000Y-63230000D02*
X134730000Y-63230000D01*
X134730000Y-63230000D02*
X135000000Y-63500000D01*
%TO.N,pin37*%
X146640000Y-55610000D02*
X146500000Y-55750000D01*
X148000000Y-55610000D02*
X146640000Y-55610000D01*
%TO.N,pin36*%
X145500000Y-57000000D02*
X147880000Y-57000000D01*
X147880000Y-57000000D02*
X148000000Y-56880000D01*
%TO.N,ESP_TX*%
X144750000Y-58250000D02*
X147900000Y-58250000D01*
X147900000Y-58250000D02*
X148000000Y-58150000D01*
%TO.N,pin33*%
X143250000Y-60750000D02*
X143310000Y-60690000D01*
X143310000Y-60690000D02*
X148000000Y-60690000D01*
%TO.N,ESP_RX*%
X144000000Y-59500000D02*
X144080000Y-59420000D01*
X144080000Y-59420000D02*
X148000000Y-59420000D01*
%TO.N,pin31*%
X148000000Y-63230000D02*
X142270000Y-63230000D01*
X142270000Y-63230000D02*
X142250000Y-63250000D01*
%TO.N,pin28*%
X149640000Y-100360000D02*
X148000000Y-100360000D01*
X149750000Y-100250000D02*
X149640000Y-100360000D01*
%TO.N,pin29*%
X148000000Y-97820000D02*
X146570000Y-97820000D01*
X146570000Y-97820000D02*
X146000000Y-97250000D01*
X146000000Y-97250000D02*
X146000000Y-66500000D01*
X146000000Y-66500000D02*
X146750000Y-65750000D01*
X146750000Y-65750000D02*
X146770000Y-65770000D01*
X146770000Y-65770000D02*
X148000000Y-65770000D01*
%TO.N,pin27*%
X148000000Y-68310000D02*
X150810000Y-68310000D01*
X150810000Y-68310000D02*
X151000000Y-68500000D01*
%TO.N,pin28*%
X148000000Y-67040000D02*
X149790000Y-67040000D01*
X149790000Y-67040000D02*
X150000000Y-67250000D01*
%TO.N,pin27*%
X148000000Y-102900000D02*
X150100000Y-102900000D01*
X150100000Y-102900000D02*
X150250000Y-102750000D01*
%TO.N,pin26*%
X150310000Y-105440000D02*
X150500000Y-105250000D01*
X148000000Y-105440000D02*
X150310000Y-105440000D01*
X151580000Y-69580000D02*
X148000000Y-69580000D01*
X151750000Y-69750000D02*
X151580000Y-69580000D01*
%TO.N,pin24*%
X144965000Y-72100000D02*
X144965000Y-108465000D01*
X144965000Y-108465000D02*
X147020000Y-110520000D01*
X147020000Y-110520000D02*
X148000000Y-110520000D01*
%TO.N,pin23*%
X143695000Y-72100000D02*
X143695000Y-108755000D01*
X143695000Y-108755000D02*
X148000000Y-113060000D01*
D35*
%TO.N,ESP32_IO0*%
X152000000Y-76000000D02*
X151750000Y-76250000D01*
X151745000Y-81187269D02*
X151745000Y-106005000D01*
X151750000Y-76250000D02*
X151750000Y-81082622D01*
X151750000Y-81082622D02*
X151747497Y-81184772D01*
X151747497Y-81184772D02*
X151745000Y-81187269D01*
X151745000Y-106005000D02*
X149750000Y-108000000D01*
X149750000Y-108000000D02*
X148020000Y-108000000D01*
X148020000Y-108000000D02*
X148000000Y-107980000D01*
D34*
%TO.N,pin10*%
X128750000Y-65770000D02*
X130500000Y-65770000D01*
X129110000Y-100360000D02*
X129000000Y-100250000D01*
X131000000Y-100360000D02*
X129110000Y-100360000D01*
%TO.N,pin11*%
X130500000Y-67040000D02*
X128710000Y-67040000D01*
X128710000Y-67040000D02*
X128500000Y-67250000D01*
X129400000Y-102900000D02*
X129250000Y-102750000D01*
X131000000Y-102900000D02*
X129400000Y-102900000D01*
%TO.N,pin14*%
X130350000Y-71000000D02*
X130500000Y-70850000D01*
%TO.N,pin12*%
X131000000Y-105440000D02*
X129440000Y-105440000D01*
X129440000Y-105440000D02*
X129250000Y-105250000D01*
X127500000Y-68500000D02*
X127690000Y-68310000D01*
X127690000Y-68310000D02*
X130500000Y-68310000D01*
D35*
%TO.N,ESP32_EN*%
X128000000Y-57000000D02*
X123300000Y-57000000D01*
%TO.N,VBUS*%
X150000000Y-40000000D02*
X144000000Y-40000000D01*
X144000000Y-40000000D02*
X143750000Y-39750000D01*
D33*
%TO.N,VCC*%
X133775000Y-39750000D02*
X138670000Y-39750000D01*
D34*
%TO.N,pin16*%
X134750000Y-72155000D02*
X134805000Y-72100000D01*
D35*
%TO.N,+3V3*%
X154250000Y-50750000D02*
X152500000Y-50750000D01*
X156750000Y-53250000D02*
X154250000Y-50750000D01*
%TO.N,ESP_RX*%
X151775000Y-57075000D02*
X149825000Y-57075000D01*
X149825000Y-57075000D02*
X149750000Y-57000000D01*
X148000000Y-59420000D02*
X149670000Y-59420000D01*
X149670000Y-59420000D02*
X149750000Y-59500000D01*
%TO.N,GND*%
X133535000Y-72100000D02*
X133500000Y-72135000D01*
%TO.N,D+*%
X153750000Y-45750000D02*
X152175000Y-44175000D01*
X152175000Y-44175000D02*
X152175000Y-42775000D01*
D32*
%TO.N,D-*%
X151325000Y-45825000D02*
X151325000Y-42775000D01*
D35*
%TO.N,D+*%
X153615000Y-60885000D02*
X153750000Y-60750000D01*
X151775000Y-60885000D02*
X153615000Y-60885000D01*
D34*
%TO.N,D-*%
X152175000Y-41425000D02*
X152175000Y-41825000D01*
X151325000Y-42666163D02*
X151325000Y-42775000D01*
X152175000Y-41825000D02*
X151903000Y-42097000D01*
X151903000Y-42097000D02*
X151894163Y-42097000D01*
X151894163Y-42097000D02*
X151325000Y-42666163D01*
D32*
X151325000Y-42775000D02*
X151325000Y-42675000D01*
D35*
X151775000Y-62155000D02*
X153655000Y-62155000D01*
X153655000Y-62155000D02*
X153750000Y-62250000D01*
%TO.N,Net-(Q1-G)*%
X153050000Y-69375000D02*
X153050000Y-65950000D01*
X153050000Y-65950000D02*
X155000000Y-64000000D01*
X155000000Y-64000000D02*
X155000000Y-60250000D01*
X155000000Y-60250000D02*
X155635000Y-59615000D01*
X155635000Y-59615000D02*
X156725000Y-59615000D01*
D33*
%TO.N,+3V3*%
X134000000Y-50400000D02*
X134000000Y-44100000D01*
X124000000Y-49650000D02*
X128400000Y-49650000D01*
X128400000Y-49650000D02*
X129150000Y-50400000D01*
X134000000Y-50400000D02*
X129150000Y-50400000D01*
X132390000Y-55610000D02*
X133750000Y-54250000D01*
X130500000Y-55610000D02*
X132390000Y-55610000D01*
X133750000Y-54250000D02*
X133750000Y-50650000D01*
X133750000Y-50650000D02*
X134000000Y-50400000D01*
X124000000Y-49650000D02*
X125250000Y-48400000D01*
X125250000Y-48400000D02*
X125250000Y-46200000D01*
%TO.N,+5V*%
X142500000Y-42500000D02*
X142500000Y-42000000D01*
X142500000Y-42500000D02*
X141750000Y-41750000D01*
X141750000Y-41750000D02*
X141250000Y-41750000D01*
X140170000Y-41750000D02*
X141250000Y-41750000D01*
X141210000Y-40710000D02*
X141375000Y-40875000D01*
X141375000Y-40875000D02*
X141375000Y-41625000D01*
X141375000Y-41625000D02*
X141250000Y-41750000D01*
X141250000Y-41750000D02*
X142250000Y-41750000D01*
X142250000Y-41750000D02*
X142500000Y-42000000D01*
X131700000Y-44100000D02*
X131700000Y-42800000D01*
X131700000Y-42800000D02*
X132750000Y-41750000D01*
X132750000Y-41750000D02*
X140170000Y-41750000D01*
X140170000Y-41750000D02*
X141210000Y-40710000D01*
X142500000Y-44000000D02*
X142500000Y-42500000D01*
X142500000Y-42000000D02*
X141210000Y-40710000D01*
D35*
%TO.N,+3V3*%
X156725000Y-55805000D02*
X156725000Y-53275000D01*
X156725000Y-53275000D02*
X156750000Y-53250000D01*
X154250000Y-58500000D02*
X154250000Y-57000000D01*
X151775000Y-59615000D02*
X153135000Y-59615000D01*
X155445000Y-55805000D02*
X156725000Y-55805000D01*
X153135000Y-59615000D02*
X154250000Y-58500000D01*
X154250000Y-57000000D02*
X155445000Y-55805000D01*
D32*
%TO.N,GND*%
X151305000Y-48055000D02*
X152500000Y-49250000D01*
X150945000Y-48055000D02*
X151305000Y-48055000D01*
X149375000Y-47125000D02*
X149000000Y-46750000D01*
X150250000Y-48055000D02*
X150250000Y-48000000D01*
X150945000Y-48055000D02*
X150250000Y-48055000D01*
X150250000Y-48000000D02*
X149375000Y-47125000D01*
X150250000Y-48055000D02*
X149805000Y-48055000D01*
X149805000Y-48055000D02*
X149750000Y-48000000D01*
X150945000Y-48695000D02*
X151000000Y-48750000D01*
X150945000Y-48055000D02*
X150945000Y-48695000D01*
D35*
%TO.N,ESP32_EN*%
X123300000Y-57000000D02*
X123750000Y-56550000D01*
X123750000Y-56550000D02*
X123750000Y-53000000D01*
X123750000Y-53000000D02*
X124000000Y-52750000D01*
X123250000Y-57050000D02*
X123300000Y-57000000D01*
X129000000Y-56880000D02*
X128500000Y-56880000D01*
X127620000Y-56880000D02*
X127500000Y-57000000D01*
X154000000Y-66750000D02*
X154750000Y-66000000D01*
X154000000Y-67500000D02*
X154000000Y-66750000D01*
%TO.N,Net-(Q1-S)*%
X154950000Y-69375000D02*
X154950000Y-68550000D01*
X154950000Y-68550000D02*
X156500000Y-67000000D01*
X156500000Y-67000000D02*
X158000000Y-67000000D01*
X158000000Y-67000000D02*
X159000000Y-66000000D01*
X159000000Y-66000000D02*
X159000000Y-58750000D01*
X159000000Y-58750000D02*
X158595000Y-58345000D01*
X158595000Y-58345000D02*
X156725000Y-58345000D01*
%TO.N,ESP32_IO0*%
X154050000Y-73875000D02*
X154050000Y-75450000D01*
X154050000Y-75450000D02*
X153500000Y-76000000D01*
X153500000Y-76000000D02*
X152000000Y-76000000D01*
X152000000Y-76000000D02*
X150750000Y-74750000D01*
X150750000Y-74750000D02*
X150750000Y-72000000D01*
X150750000Y-72000000D02*
X149600000Y-70850000D01*
X149600000Y-70850000D02*
X148000000Y-70850000D01*
%TO.N,Net-(Q1-S)*%
X155000000Y-72000000D02*
X155000000Y-69425000D01*
X155000000Y-69425000D02*
X154950000Y-69375000D01*
%TO.N,Net-(Q1-G)*%
X153100000Y-72000000D02*
X153100000Y-69425000D01*
X153100000Y-69425000D02*
X153050000Y-69375000D01*
%TO.N,ESP_TX*%
X151775000Y-58345000D02*
X148195000Y-58345000D01*
X148195000Y-58345000D02*
X148000000Y-58150000D01*
D32*
%TO.N,D+*%
X155500000Y-45250000D02*
X155500000Y-47250000D01*
X154695000Y-48055000D02*
X152555000Y-48055000D01*
X152175000Y-43925000D02*
X152750000Y-44500000D01*
X152175000Y-42775000D02*
X152175000Y-43925000D01*
X152750000Y-44500000D02*
X154750000Y-44500000D01*
X155500000Y-47250000D02*
X154695000Y-48055000D01*
X154750000Y-44500000D02*
X155500000Y-45250000D01*
D34*
%TO.N,VBUS*%
X149797000Y-46602000D02*
X149797000Y-42947000D01*
X149797000Y-42947000D02*
X149625000Y-42775000D01*
X150945000Y-47055000D02*
X150250000Y-47055000D01*
X150250000Y-47055000D02*
X149797000Y-46602000D01*
X149500000Y-42900000D02*
X149625000Y-42775000D01*
X150945000Y-47055000D02*
X150923000Y-47077000D01*
D35*
X153875000Y-41425000D02*
X153875000Y-42775000D01*
X153920000Y-40420000D02*
X153500000Y-40000000D01*
X153920000Y-41330000D02*
X153920000Y-40420000D01*
X153875000Y-41375000D02*
X153920000Y-41330000D01*
X153875000Y-41425000D02*
X153875000Y-41375000D01*
X153500000Y-40000000D02*
X150000000Y-40000000D01*
X149625000Y-41425000D02*
X149625000Y-40375000D01*
X149625000Y-40375000D02*
X150000000Y-40000000D01*
X149625000Y-41425000D02*
X149625000Y-42775000D01*
D34*
%TO.N,pin16*%
X131000000Y-113060000D02*
X132940000Y-113060000D01*
X134750000Y-111250000D02*
X134750000Y-72155000D01*
X132940000Y-113060000D02*
X134750000Y-111250000D01*
%TD*%
%TA.AperFunction,Conductor*%
%TO.N,GND*%
G36*
X156463801Y-37250230D02*
G01*
X156494523Y-37252088D01*
X156758566Y-37268059D01*
X156773647Y-37269890D01*
X157060374Y-37322435D01*
X157075121Y-37326070D01*
X157353432Y-37412795D01*
X157367644Y-37418186D01*
X157427978Y-37445340D01*
X157633445Y-37537813D01*
X157646910Y-37544879D01*
X157896373Y-37695685D01*
X157908872Y-37704312D01*
X158138342Y-37884090D01*
X158149722Y-37894173D01*
X158355826Y-38100277D01*
X158365910Y-38111658D01*
X158545684Y-38341124D01*
X158554316Y-38353629D01*
X158644828Y-38503354D01*
X158705116Y-38603082D01*
X158712186Y-38616554D01*
X158831811Y-38882350D01*
X158837207Y-38896576D01*
X158906482Y-39118888D01*
X158923925Y-39174862D01*
X158927566Y-39189636D01*
X158980107Y-39476340D01*
X158981941Y-39491444D01*
X158999770Y-39786197D01*
X159000000Y-39793805D01*
X159000000Y-57498860D01*
X158992042Y-57525959D01*
X158987385Y-57553813D01*
X158982180Y-57559548D01*
X158979998Y-57566981D01*
X158958653Y-57585475D01*
X158939676Y-57606390D01*
X158932196Y-57608401D01*
X158926342Y-57613474D01*
X158898385Y-57617493D01*
X158871115Y-57624827D01*
X158861491Y-57622798D01*
X158856068Y-57623578D01*
X158835743Y-57618912D01*
X158830680Y-57617298D01*
X158817413Y-57611803D01*
X158813768Y-57611078D01*
X158806835Y-57609698D01*
X158806826Y-57609696D01*
X158670100Y-57582500D01*
X158299680Y-57582500D01*
X158231559Y-57562498D01*
X158185066Y-57508842D01*
X158174962Y-57438568D01*
X158178680Y-57421358D01*
X158205562Y-57328831D01*
X158208499Y-57291511D01*
X158208500Y-57291511D01*
X158208500Y-56858489D01*
X158208499Y-56858488D01*
X158207269Y-56842865D01*
X158205562Y-56821169D01*
X158159145Y-56661399D01*
X158159143Y-56661397D01*
X158159143Y-56661394D01*
X158074456Y-56518198D01*
X158074455Y-56518197D01*
X158074453Y-56518193D01*
X158074449Y-56518189D01*
X158073708Y-56517233D01*
X158073356Y-56516337D01*
X158070418Y-56511369D01*
X158071219Y-56510895D01*
X158047756Y-56451150D01*
X158061652Y-56381526D01*
X158073708Y-56362767D01*
X158074445Y-56361814D01*
X158074453Y-56361807D01*
X158149678Y-56234609D01*
X158159143Y-56218605D01*
X158159143Y-56218603D01*
X158159145Y-56218601D01*
X158205562Y-56058831D01*
X158208499Y-56021511D01*
X158208500Y-56021511D01*
X158208500Y-55588489D01*
X158208499Y-55588488D01*
X158205562Y-55551171D01*
X158205562Y-55551170D01*
X158201963Y-55538781D01*
X158159145Y-55391399D01*
X158159143Y-55391397D01*
X158159143Y-55391394D01*
X158074455Y-55248196D01*
X158074450Y-55248189D01*
X157956810Y-55130549D01*
X157956803Y-55130544D01*
X157813605Y-55045856D01*
X157653829Y-54999437D01*
X157616511Y-54996500D01*
X157616502Y-54996500D01*
X157613500Y-54996500D01*
X157545379Y-54976498D01*
X157498886Y-54922842D01*
X157487500Y-54870500D01*
X157487500Y-54395769D01*
X157507502Y-54327648D01*
X157539439Y-54293833D01*
X157602430Y-54248068D01*
X157748068Y-54102430D01*
X157869129Y-53935803D01*
X157962634Y-53752290D01*
X158026280Y-53556408D01*
X158058500Y-53352981D01*
X158058500Y-53147019D01*
X158026280Y-52943592D01*
X157962634Y-52747710D01*
X157869129Y-52564197D01*
X157748068Y-52397570D01*
X157748065Y-52397567D01*
X157748063Y-52397564D01*
X157602435Y-52251936D01*
X157602432Y-52251934D01*
X157602430Y-52251932D01*
X157435803Y-52130871D01*
X157252290Y-52037366D01*
X157252287Y-52037365D01*
X157252285Y-52037364D01*
X157056412Y-51973721D01*
X157056410Y-51973720D01*
X157056408Y-51973720D01*
X156852981Y-51941500D01*
X156647019Y-51941500D01*
X156636137Y-51943223D01*
X156600634Y-51948846D01*
X156530223Y-51939746D01*
X156491830Y-51913492D01*
X154736069Y-50157730D01*
X154736065Y-50157727D01*
X154611179Y-50074282D01*
X154472415Y-50016804D01*
X154472414Y-50016803D01*
X154325103Y-49987500D01*
X154325100Y-49987500D01*
X152796939Y-49987500D01*
X152748721Y-49977909D01*
X152735837Y-49972572D01*
X152735831Y-49972570D01*
X152579632Y-49941500D01*
X152579630Y-49941500D01*
X152420370Y-49941500D01*
X152420367Y-49941500D01*
X152303219Y-49964802D01*
X152264169Y-49972570D01*
X152157383Y-50016803D01*
X152117032Y-50033517D01*
X151984609Y-50121998D01*
X151984603Y-50122003D01*
X151872003Y-50234603D01*
X151871998Y-50234609D01*
X151783517Y-50367032D01*
X151722571Y-50514167D01*
X151722570Y-50514170D01*
X151691500Y-50670367D01*
X151691500Y-50829632D01*
X151703409Y-50889500D01*
X151722570Y-50985831D01*
X151783517Y-51132968D01*
X151871997Y-51265389D01*
X151871998Y-51265390D01*
X151872003Y-51265396D01*
X151984603Y-51377996D01*
X151984609Y-51378001D01*
X151984611Y-51378003D01*
X152117032Y-51466483D01*
X152264169Y-51527430D01*
X152420370Y-51558500D01*
X152420371Y-51558500D01*
X152579629Y-51558500D01*
X152579630Y-51558500D01*
X152735831Y-51527430D01*
X152744580Y-51523805D01*
X152748721Y-51522091D01*
X152796939Y-51512500D01*
X153881972Y-51512500D01*
X153950093Y-51532502D01*
X153971067Y-51549405D01*
X155413492Y-52991830D01*
X155447518Y-53054142D01*
X155448846Y-53100634D01*
X155441500Y-53147019D01*
X155441500Y-53352981D01*
X155466766Y-53512500D01*
X155473721Y-53556412D01*
X155536306Y-53749030D01*
X155537366Y-53752290D01*
X155630871Y-53935803D01*
X155751932Y-54102430D01*
X155751934Y-54102432D01*
X155751936Y-54102435D01*
X155897568Y-54248067D01*
X155910560Y-54257506D01*
X155953914Y-54313728D01*
X155962500Y-54359443D01*
X155962500Y-54870500D01*
X155942498Y-54938621D01*
X155888842Y-54985114D01*
X155863898Y-54993485D01*
X155850364Y-54996500D01*
X155833498Y-54996500D01*
X155796169Y-54999438D01*
X155661323Y-55038613D01*
X155657413Y-55039485D01*
X155653177Y-55039203D01*
X155630015Y-55042500D01*
X155369896Y-55042500D01*
X155222585Y-55071803D01*
X155222584Y-55071804D01*
X155141295Y-55105475D01*
X155101409Y-55121997D01*
X155083819Y-55129283D01*
X154958939Y-55212725D01*
X154958937Y-55212726D01*
X153657726Y-56513935D01*
X153591202Y-56613499D01*
X153591201Y-56613500D01*
X153574283Y-56638819D01*
X153516804Y-56777584D01*
X153504882Y-56837516D01*
X153471973Y-56900425D01*
X153410278Y-56935556D01*
X153339383Y-56931755D01*
X153281798Y-56890229D01*
X153257090Y-56827431D01*
X153256718Y-56827500D01*
X153256372Y-56825605D01*
X153255804Y-56824162D01*
X153255704Y-56822978D01*
X153255562Y-56821169D01*
X153209145Y-56661399D01*
X153209143Y-56661397D01*
X153209143Y-56661394D01*
X153124455Y-56518196D01*
X153124450Y-56518189D01*
X153006810Y-56400549D01*
X153006803Y-56400544D01*
X152863605Y-56315856D01*
X152703829Y-56269437D01*
X152666511Y-56266500D01*
X152666502Y-56266500D01*
X150883498Y-56266500D01*
X150883489Y-56266500D01*
X150846171Y-56269437D01*
X150846167Y-56269438D01*
X150715167Y-56307497D01*
X150680015Y-56312500D01*
X150214565Y-56312500D01*
X150146444Y-56292498D01*
X150144565Y-56291266D01*
X150132968Y-56283517D01*
X150132964Y-56283515D01*
X150078615Y-56261003D01*
X149985831Y-56222570D01*
X149907730Y-56207035D01*
X149829632Y-56191500D01*
X149829630Y-56191500D01*
X149670370Y-56191500D01*
X149670367Y-56191500D01*
X149553219Y-56214802D01*
X149514169Y-56222570D01*
X149514167Y-56222570D01*
X149514162Y-56222572D01*
X149429959Y-56257450D01*
X149359369Y-56265039D01*
X149295882Y-56233259D01*
X149259656Y-56172200D01*
X149256464Y-56127573D01*
X149258500Y-56108638D01*
X149258500Y-55111362D01*
X149258499Y-55111350D01*
X149251990Y-55050803D01*
X149251988Y-55050795D01*
X149204263Y-54922842D01*
X149200889Y-54913796D01*
X149200888Y-54913794D01*
X149200887Y-54913792D01*
X149113261Y-54796738D01*
X148996207Y-54709112D01*
X148996202Y-54709110D01*
X148859204Y-54658011D01*
X148859196Y-54658009D01*
X148798649Y-54651500D01*
X148798638Y-54651500D01*
X147201362Y-54651500D01*
X147201350Y-54651500D01*
X147140803Y-54658009D01*
X147140795Y-54658011D01*
X147003797Y-54709110D01*
X147003792Y-54709112D01*
X146886738Y-54796738D01*
X146800194Y-54912349D01*
X146743358Y-54954896D01*
X146674745Y-54960419D01*
X146579635Y-54941500D01*
X146579630Y-54941500D01*
X146420370Y-54941500D01*
X146420367Y-54941500D01*
X146303219Y-54964802D01*
X146264169Y-54972570D01*
X146206398Y-54996500D01*
X146117032Y-55033517D01*
X145984609Y-55121998D01*
X145984603Y-55122003D01*
X145872003Y-55234603D01*
X145871998Y-55234609D01*
X145783517Y-55367032D01*
X145722571Y-55514167D01*
X145722570Y-55514170D01*
X145691500Y-55670367D01*
X145691500Y-55670370D01*
X145691500Y-55829630D01*
X145722570Y-55985831D01*
X145722571Y-55985833D01*
X145738035Y-56023166D01*
X145745624Y-56093756D01*
X145713844Y-56157243D01*
X145652786Y-56193470D01*
X145597048Y-56194964D01*
X145579632Y-56191500D01*
X145579630Y-56191500D01*
X145420370Y-56191500D01*
X145420367Y-56191500D01*
X145303219Y-56214802D01*
X145264169Y-56222570D01*
X145161641Y-56265039D01*
X145117032Y-56283517D01*
X144984609Y-56371998D01*
X144984603Y-56372003D01*
X144872003Y-56484603D01*
X144871998Y-56484609D01*
X144783517Y-56617032D01*
X144722571Y-56764167D01*
X144722570Y-56764170D01*
X144691500Y-56920367D01*
X144691500Y-57079632D01*
X144694187Y-57093140D01*
X144722570Y-57235831D01*
X144738549Y-57274407D01*
X144746138Y-57344995D01*
X144714359Y-57408482D01*
X144653301Y-57444710D01*
X144646722Y-57446203D01*
X144544776Y-57466482D01*
X144514169Y-57472570D01*
X144475458Y-57488605D01*
X144367032Y-57533517D01*
X144234609Y-57621998D01*
X144234603Y-57622003D01*
X144122003Y-57734603D01*
X144121998Y-57734609D01*
X144074232Y-57806097D01*
X144033517Y-57867032D01*
X143976707Y-58004183D01*
X143972571Y-58014167D01*
X143972570Y-58014170D01*
X143941500Y-58170367D01*
X143941500Y-58170370D01*
X143941500Y-58329630D01*
X143972570Y-58485831D01*
X143988549Y-58524407D01*
X143996138Y-58594995D01*
X143964359Y-58658482D01*
X143903301Y-58694710D01*
X143896722Y-58696203D01*
X143811411Y-58713173D01*
X143764169Y-58722570D01*
X143677184Y-58758601D01*
X143617032Y-58783517D01*
X143484609Y-58871998D01*
X143484603Y-58872003D01*
X143372003Y-58984603D01*
X143371998Y-58984609D01*
X143283517Y-59117032D01*
X143222571Y-59264167D01*
X143222570Y-59264170D01*
X143191500Y-59420367D01*
X143191500Y-59420370D01*
X143191500Y-59579630D01*
X143222570Y-59735831D01*
X143238549Y-59774407D01*
X143246138Y-59844995D01*
X143214359Y-59908482D01*
X143153301Y-59944710D01*
X143146722Y-59946203D01*
X143039729Y-59967485D01*
X143014169Y-59972570D01*
X143014167Y-59972571D01*
X142867032Y-60033517D01*
X142734609Y-60121998D01*
X142734603Y-60122003D01*
X142622003Y-60234603D01*
X142621998Y-60234609D01*
X142533517Y-60367032D01*
X142472571Y-60514167D01*
X142472570Y-60514170D01*
X142441500Y-60670367D01*
X142441500Y-60670370D01*
X142441500Y-60829630D01*
X142472570Y-60985831D01*
X142533517Y-61132968D01*
X142611181Y-61249201D01*
X142621998Y-61265390D01*
X142622003Y-61265396D01*
X142734603Y-61377996D01*
X142734609Y-61378001D01*
X142734611Y-61378003D01*
X142867032Y-61466483D01*
X143014169Y-61527430D01*
X143170370Y-61558500D01*
X143170371Y-61558500D01*
X143329629Y-61558500D01*
X143329630Y-61558500D01*
X143485831Y-61527430D01*
X143632968Y-61466483D01*
X143765389Y-61378003D01*
X143771395Y-61371997D01*
X143780988Y-61362405D01*
X143843300Y-61328379D01*
X143870083Y-61325500D01*
X146615848Y-61325500D01*
X146683969Y-61345502D01*
X146730462Y-61399158D01*
X146741667Y-61458249D01*
X146741500Y-61461362D01*
X146741500Y-62458637D01*
X146741667Y-62461751D01*
X146725342Y-62530846D01*
X146674254Y-62580146D01*
X146615848Y-62594500D01*
X142762457Y-62594500D01*
X142694336Y-62574498D01*
X142692455Y-62573265D01*
X142659079Y-62550964D01*
X142632968Y-62533517D01*
X142485831Y-62472570D01*
X142407730Y-62457035D01*
X142329632Y-62441500D01*
X142329630Y-62441500D01*
X142170370Y-62441500D01*
X142170367Y-62441500D01*
X142084155Y-62458649D01*
X142014169Y-62472570D01*
X141901601Y-62519198D01*
X141867032Y-62533517D01*
X141734609Y-62621998D01*
X141734603Y-62622003D01*
X141622003Y-62734603D01*
X141621998Y-62734609D01*
X141572627Y-62808499D01*
X141533517Y-62867032D01*
X141472570Y-63014169D01*
X141469932Y-63027430D01*
X141441500Y-63170367D01*
X141441500Y-63170370D01*
X141441500Y-63329630D01*
X141472570Y-63485831D01*
X141488549Y-63524407D01*
X141496138Y-63594995D01*
X141464359Y-63658482D01*
X141403301Y-63694710D01*
X141396722Y-63696203D01*
X141289729Y-63717485D01*
X141264169Y-63722570D01*
X141232155Y-63735831D01*
X141117032Y-63783517D01*
X140984609Y-63871998D01*
X140984603Y-63872003D01*
X140872003Y-63984603D01*
X140871998Y-63984609D01*
X140829067Y-64048861D01*
X140783517Y-64117032D01*
X140722570Y-64264169D01*
X140714802Y-64303219D01*
X140691500Y-64420367D01*
X140691500Y-64579632D01*
X140707035Y-64657730D01*
X140722570Y-64735831D01*
X140783517Y-64882968D01*
X140860812Y-64998649D01*
X140871998Y-65015390D01*
X140872003Y-65015396D01*
X140984603Y-65127996D01*
X140984609Y-65128001D01*
X140984611Y-65128003D01*
X141117032Y-65216483D01*
X141264169Y-65277430D01*
X141420370Y-65308500D01*
X141420371Y-65308500D01*
X141579629Y-65308500D01*
X141579630Y-65308500D01*
X141735831Y-65277430D01*
X141882968Y-65216483D01*
X141972390Y-65156734D01*
X142040143Y-65135520D01*
X142042391Y-65135500D01*
X146161577Y-65135500D01*
X146229698Y-65155502D01*
X146276191Y-65209158D01*
X146286295Y-65279432D01*
X146256801Y-65344012D01*
X146250672Y-65350595D01*
X145506377Y-66094889D01*
X145506372Y-66094896D01*
X145436827Y-66198977D01*
X145388924Y-66314625D01*
X145388922Y-66314630D01*
X145364500Y-66437406D01*
X145364500Y-70715500D01*
X145344498Y-70783621D01*
X145290842Y-70830114D01*
X145238500Y-70841500D01*
X144466350Y-70841500D01*
X144405804Y-70848009D01*
X144405801Y-70848010D01*
X144374030Y-70859860D01*
X144303214Y-70864923D01*
X144285970Y-70859860D01*
X144254198Y-70848010D01*
X144254195Y-70848009D01*
X144193649Y-70841500D01*
X144193638Y-70841500D01*
X143196362Y-70841500D01*
X143196350Y-70841500D01*
X143135804Y-70848009D01*
X143135801Y-70848010D01*
X143104030Y-70859860D01*
X143033214Y-70864923D01*
X143015970Y-70859860D01*
X142984198Y-70848010D01*
X142984195Y-70848009D01*
X142923649Y-70841500D01*
X142923638Y-70841500D01*
X141926362Y-70841500D01*
X141926350Y-70841500D01*
X141865804Y-70848009D01*
X141865801Y-70848010D01*
X141834030Y-70859860D01*
X141763214Y-70864923D01*
X141745970Y-70859860D01*
X141714198Y-70848010D01*
X141714195Y-70848009D01*
X141653649Y-70841500D01*
X141653638Y-70841500D01*
X140656362Y-70841500D01*
X140656350Y-70841500D01*
X140595804Y-70848009D01*
X140595801Y-70848010D01*
X140564030Y-70859860D01*
X140493214Y-70864923D01*
X140475970Y-70859860D01*
X140444198Y-70848010D01*
X140444195Y-70848009D01*
X140383649Y-70841500D01*
X140383638Y-70841500D01*
X139909942Y-70841500D01*
X139841821Y-70821498D01*
X139795328Y-70767842D01*
X139785224Y-70697568D01*
X139786358Y-70690941D01*
X139808500Y-70579630D01*
X139808500Y-70420370D01*
X139777430Y-70264169D01*
X139716483Y-70117032D01*
X139628003Y-69984611D01*
X139628001Y-69984609D01*
X139627996Y-69984603D01*
X139515396Y-69872003D01*
X139515390Y-69871998D01*
X139441499Y-69822626D01*
X139382968Y-69783517D01*
X139235831Y-69722570D01*
X139157730Y-69707035D01*
X139079632Y-69691500D01*
X139079630Y-69691500D01*
X138920370Y-69691500D01*
X138920367Y-69691500D01*
X138805454Y-69714358D01*
X138764169Y-69722570D01*
X138764167Y-69722570D01*
X138764166Y-69722571D01*
X138725593Y-69738549D01*
X138655003Y-69746138D01*
X138591516Y-69714358D01*
X138555289Y-69653300D01*
X138553796Y-69646722D01*
X138527430Y-69514169D01*
X138466483Y-69367032D01*
X138378003Y-69234611D01*
X138378001Y-69234609D01*
X138377996Y-69234603D01*
X138265396Y-69122003D01*
X138265390Y-69121998D01*
X138265389Y-69121997D01*
X138132968Y-69033517D01*
X137985831Y-68972570D01*
X137902381Y-68955971D01*
X137829632Y-68941500D01*
X137829630Y-68941500D01*
X137670370Y-68941500D01*
X137667453Y-68942080D01*
X137642877Y-68944500D01*
X131884152Y-68944500D01*
X131816031Y-68924498D01*
X131769538Y-68870842D01*
X131758333Y-68811751D01*
X131758500Y-68808637D01*
X131758500Y-67811367D01*
X131758499Y-67811350D01*
X131751990Y-67750803D01*
X131751989Y-67750801D01*
X131751989Y-67750799D01*
X131740140Y-67719033D01*
X131735074Y-67648221D01*
X131740137Y-67630974D01*
X131751989Y-67599201D01*
X131752956Y-67590213D01*
X131758499Y-67538649D01*
X131758500Y-67538632D01*
X131758500Y-66541367D01*
X131758499Y-66541350D01*
X131751990Y-66480803D01*
X131751989Y-66480801D01*
X131751989Y-66480799D01*
X131740140Y-66449033D01*
X131735074Y-66378221D01*
X131740137Y-66360974D01*
X131751989Y-66329201D01*
X131752329Y-66326047D01*
X131758499Y-66268649D01*
X131758500Y-66268632D01*
X131758500Y-65271362D01*
X131758333Y-65268249D01*
X131774658Y-65199154D01*
X131825746Y-65149854D01*
X131884152Y-65135500D01*
X135099208Y-65135500D01*
X135167329Y-65155502D01*
X135213822Y-65209158D01*
X135220544Y-65229975D01*
X135220773Y-65229906D01*
X135222569Y-65235828D01*
X135222570Y-65235831D01*
X135283517Y-65382968D01*
X135364053Y-65503500D01*
X135371998Y-65515390D01*
X135372003Y-65515396D01*
X135484603Y-65627996D01*
X135484609Y-65628001D01*
X135484611Y-65628003D01*
X135617032Y-65716483D01*
X135764169Y-65777430D01*
X135920370Y-65808500D01*
X135920371Y-65808500D01*
X136079629Y-65808500D01*
X136079630Y-65808500D01*
X136235831Y-65777430D01*
X136382968Y-65716483D01*
X136515389Y-65628003D01*
X136628003Y-65515389D01*
X136716483Y-65382968D01*
X136777430Y-65235831D01*
X136808500Y-65079630D01*
X136808500Y-64920370D01*
X136777430Y-64764169D01*
X136716483Y-64617032D01*
X136628003Y-64484611D01*
X136628001Y-64484609D01*
X136627996Y-64484603D01*
X136515396Y-64372003D01*
X136515390Y-64371998D01*
X136515389Y-64371997D01*
X136382968Y-64283517D01*
X136235831Y-64222570D01*
X136194382Y-64214325D01*
X136130350Y-64201588D01*
X136067440Y-64168680D01*
X136065837Y-64167104D01*
X135905110Y-64006377D01*
X135905108Y-64006375D01*
X135862020Y-63977584D01*
X135803314Y-63938358D01*
X135757786Y-63883881D01*
X135748938Y-63813438D01*
X135756908Y-63785374D01*
X135777430Y-63735831D01*
X135808500Y-63579630D01*
X135808500Y-63420370D01*
X135777430Y-63264169D01*
X135716483Y-63117032D01*
X135628003Y-62984611D01*
X135628001Y-62984609D01*
X135627996Y-62984603D01*
X135515396Y-62872003D01*
X135515390Y-62871998D01*
X135515389Y-62871997D01*
X135382968Y-62783517D01*
X135235831Y-62722570D01*
X135156211Y-62706732D01*
X135087575Y-62693080D01*
X135042155Y-62674266D01*
X135031022Y-62666827D01*
X134915369Y-62618922D01*
X134786519Y-62593292D01*
X134787035Y-62590694D01*
X134731864Y-62568365D01*
X134690900Y-62510379D01*
X134687788Y-62439450D01*
X134705359Y-62399615D01*
X134716483Y-62382968D01*
X134777430Y-62235831D01*
X134808500Y-62079630D01*
X134808500Y-61920370D01*
X134777430Y-61764169D01*
X134716483Y-61617032D01*
X134628003Y-61484611D01*
X134628001Y-61484609D01*
X134627996Y-61484603D01*
X134515396Y-61372003D01*
X134515390Y-61371998D01*
X134515389Y-61371997D01*
X134382968Y-61283517D01*
X134235831Y-61222570D01*
X134184709Y-61212401D01*
X134103277Y-61196203D01*
X134040367Y-61163295D01*
X134005236Y-61101600D01*
X134009036Y-61030705D01*
X134011429Y-61024458D01*
X134027430Y-60985831D01*
X134058500Y-60829630D01*
X134058500Y-60670370D01*
X134027430Y-60514169D01*
X133966483Y-60367032D01*
X133878003Y-60234611D01*
X133878001Y-60234609D01*
X133877996Y-60234603D01*
X133765396Y-60122003D01*
X133765390Y-60121998D01*
X133750059Y-60111754D01*
X133632968Y-60033517D01*
X133485831Y-59972570D01*
X133434709Y-59962401D01*
X133353277Y-59946203D01*
X133290367Y-59913295D01*
X133255236Y-59851600D01*
X133259036Y-59780705D01*
X133261429Y-59774458D01*
X133277430Y-59735831D01*
X133308500Y-59579630D01*
X133308500Y-59420370D01*
X133277430Y-59264169D01*
X133216483Y-59117032D01*
X133128003Y-58984611D01*
X133128001Y-58984609D01*
X133127996Y-58984603D01*
X133015396Y-58872003D01*
X133015390Y-58871998D01*
X133015052Y-58871772D01*
X132882968Y-58783517D01*
X132735831Y-58722570D01*
X132657730Y-58707035D01*
X132579632Y-58691500D01*
X132579630Y-58691500D01*
X132420370Y-58691500D01*
X132420367Y-58691500D01*
X132264164Y-58722571D01*
X132260331Y-58723734D01*
X132258226Y-58723752D01*
X132258099Y-58723778D01*
X132258094Y-58723753D01*
X132189337Y-58724361D01*
X132129274Y-58686507D01*
X132099212Y-58622189D01*
X132108694Y-58551829D01*
X132134666Y-58514066D01*
X132743625Y-57905108D01*
X132813173Y-57801022D01*
X132861078Y-57685369D01*
X132885500Y-57562591D01*
X132885500Y-57542389D01*
X132905502Y-57474268D01*
X132906735Y-57472387D01*
X132910680Y-57466483D01*
X132966483Y-57382968D01*
X133027430Y-57235831D01*
X133043299Y-57156049D01*
X133076206Y-57093140D01*
X133137901Y-57058008D01*
X133208796Y-57061808D01*
X133266382Y-57103334D01*
X133280473Y-57127573D01*
X133280598Y-57127507D01*
X133282456Y-57130983D01*
X133283285Y-57132409D01*
X133283514Y-57132963D01*
X133283516Y-57132967D01*
X133371998Y-57265390D01*
X133372003Y-57265396D01*
X133484603Y-57377996D01*
X133484609Y-57378001D01*
X133484611Y-57378003D01*
X133617032Y-57466483D01*
X133764169Y-57527430D01*
X133920370Y-57558500D01*
X133920371Y-57558500D01*
X134079629Y-57558500D01*
X134079630Y-57558500D01*
X134235831Y-57527430D01*
X134382968Y-57466483D01*
X134515389Y-57378003D01*
X134628003Y-57265389D01*
X134716483Y-57132968D01*
X134777430Y-56985831D01*
X134808500Y-56829630D01*
X134808500Y-56670370D01*
X134777430Y-56514169D01*
X134716483Y-56367032D01*
X134628003Y-56234611D01*
X134628001Y-56234609D01*
X134627996Y-56234603D01*
X134515396Y-56122003D01*
X134515390Y-56121998D01*
X134515389Y-56121997D01*
X134382968Y-56033517D01*
X134235831Y-55972570D01*
X134194382Y-55964325D01*
X134130350Y-55951588D01*
X134067440Y-55918680D01*
X134065837Y-55917104D01*
X133792433Y-55643700D01*
X133758407Y-55581388D01*
X133763472Y-55510573D01*
X133792431Y-55465511D01*
X134440919Y-54817024D01*
X134513025Y-54709111D01*
X134538265Y-54671336D01*
X134605317Y-54509458D01*
X134639500Y-54337608D01*
X134639500Y-52034499D01*
X134659502Y-51966378D01*
X134713158Y-51919885D01*
X134765500Y-51908499D01*
X135449535Y-51908499D01*
X135449546Y-51908499D01*
X135509668Y-51902577D01*
X135597694Y-51893909D01*
X135597695Y-51893908D01*
X135597701Y-51893908D01*
X135787804Y-51836241D01*
X135963004Y-51742595D01*
X136116568Y-51616568D01*
X136242595Y-51463004D01*
X136336241Y-51287804D01*
X136393908Y-51097701D01*
X136408500Y-50949547D01*
X136408499Y-49850454D01*
X136393908Y-49702299D01*
X136336241Y-49512196D01*
X136242595Y-49336996D01*
X136116568Y-49183432D01*
X135963004Y-49057405D01*
X135787804Y-48963759D01*
X135597701Y-48906092D01*
X135597700Y-48906091D01*
X135597694Y-48906090D01*
X135449553Y-48891500D01*
X135449547Y-48891500D01*
X135015500Y-48891500D01*
X134947379Y-48871498D01*
X134900886Y-48817842D01*
X134889500Y-48765500D01*
X134889500Y-45505316D01*
X134909502Y-45437195D01*
X134936205Y-45407396D01*
X135003170Y-45353170D01*
X135045786Y-45300544D01*
X135120042Y-45208846D01*
X135120043Y-45208843D01*
X135120047Y-45208839D01*
X135204362Y-45043362D01*
X135252430Y-44863971D01*
X135258500Y-44786843D01*
X135258499Y-43413158D01*
X135252430Y-43336029D01*
X135204362Y-43156638D01*
X135120047Y-42991161D01*
X135096213Y-42961729D01*
X135013477Y-42859558D01*
X135003170Y-42846830D01*
X135003169Y-42846829D01*
X135001522Y-42844795D01*
X134974196Y-42779267D01*
X134986636Y-42709369D01*
X135034890Y-42657292D01*
X135099442Y-42639500D01*
X140082392Y-42639500D01*
X140257608Y-42639500D01*
X141065500Y-42639500D01*
X141133621Y-42659502D01*
X141180114Y-42713158D01*
X141191500Y-42765500D01*
X141191500Y-45300544D01*
X141202112Y-45404425D01*
X141257885Y-45572738D01*
X141350970Y-45723652D01*
X141350975Y-45723658D01*
X141476341Y-45849024D01*
X141476347Y-45849029D01*
X141476348Y-45849030D01*
X141627262Y-45942115D01*
X141795574Y-45997887D01*
X141899455Y-46008500D01*
X143100544Y-46008499D01*
X143177090Y-46000679D01*
X143246889Y-46013655D01*
X143278989Y-46036932D01*
X145823595Y-48581538D01*
X145857621Y-48643850D01*
X145860500Y-48670633D01*
X145860500Y-50087610D01*
X145874447Y-50157727D01*
X145894683Y-50259458D01*
X145961735Y-50421336D01*
X146059080Y-50567023D01*
X146182977Y-50690920D01*
X146328664Y-50788265D01*
X146490542Y-50855317D01*
X146662392Y-50889500D01*
X146662393Y-50889500D01*
X146837607Y-50889500D01*
X146837608Y-50889500D01*
X147009458Y-50855317D01*
X147171336Y-50788265D01*
X147317023Y-50690920D01*
X147440920Y-50567023D01*
X147538265Y-50421336D01*
X147605317Y-50259458D01*
X147639500Y-50087608D01*
X147639500Y-48162392D01*
X147605317Y-47990542D01*
X147538265Y-47828664D01*
X147440920Y-47682977D01*
X147317023Y-47559080D01*
X143845404Y-44087461D01*
X143811378Y-44025149D01*
X143808499Y-43998366D01*
X143808499Y-42699455D01*
X143797887Y-42595574D01*
X143742115Y-42427262D01*
X143649030Y-42276348D01*
X143649029Y-42276347D01*
X143649024Y-42276341D01*
X143523658Y-42150975D01*
X143523649Y-42150968D01*
X143449352Y-42105140D01*
X143401874Y-42052354D01*
X143389500Y-41997900D01*
X143389500Y-41912396D01*
X143389500Y-41912392D01*
X143379290Y-41861065D01*
X143355317Y-41740542D01*
X143288265Y-41578664D01*
X143190919Y-41432976D01*
X143190914Y-41432970D01*
X143081539Y-41323595D01*
X143047513Y-41261283D01*
X143052578Y-41190468D01*
X143095125Y-41133632D01*
X143161645Y-41108821D01*
X143170634Y-41108500D01*
X144648632Y-41108500D01*
X144648638Y-41108500D01*
X144648645Y-41108499D01*
X144648649Y-41108499D01*
X144709196Y-41101990D01*
X144709199Y-41101989D01*
X144709201Y-41101989D01*
X144846204Y-41050889D01*
X144963261Y-40963261D01*
X145014598Y-40894683D01*
X145050887Y-40846207D01*
X145050889Y-40846203D01*
X145051537Y-40844467D01*
X145052646Y-40842984D01*
X145055205Y-40838299D01*
X145055878Y-40838666D01*
X145094084Y-40787631D01*
X145160604Y-40762821D01*
X145169592Y-40762500D01*
X148736500Y-40762500D01*
X148745325Y-40765091D01*
X148754432Y-40763782D01*
X148778857Y-40774937D01*
X148804621Y-40782502D01*
X148810645Y-40789455D01*
X148819012Y-40793276D01*
X148833526Y-40815861D01*
X148851114Y-40836158D01*
X148853438Y-40846844D01*
X148857396Y-40853002D01*
X148862500Y-40888500D01*
X148862500Y-40997405D01*
X148852909Y-41045623D01*
X148799493Y-41174581D01*
X148799492Y-41174584D01*
X148766500Y-41340441D01*
X148766500Y-41509558D01*
X148799492Y-41675415D01*
X148799493Y-41675418D01*
X148852909Y-41804375D01*
X148862500Y-41852593D01*
X148862500Y-42347405D01*
X148852909Y-42395623D01*
X148799493Y-42524581D01*
X148799492Y-42524584D01*
X148766500Y-42690441D01*
X148766500Y-42859558D01*
X148799492Y-43025415D01*
X148864207Y-43181652D01*
X148958159Y-43322262D01*
X149049054Y-43413157D01*
X149077739Y-43441842D01*
X149077741Y-43441843D01*
X149105500Y-43460391D01*
X149151029Y-43514867D01*
X149161500Y-43565157D01*
X149161500Y-46539409D01*
X149161500Y-46664591D01*
X149185922Y-46787369D01*
X149233827Y-46903022D01*
X149303375Y-47007108D01*
X149844892Y-47548625D01*
X149885503Y-47575760D01*
X149931029Y-47630235D01*
X149941500Y-47680524D01*
X149941500Y-47753649D01*
X149948009Y-47814196D01*
X149948011Y-47814204D01*
X149999110Y-47951202D01*
X149999112Y-47951207D01*
X150086738Y-48068261D01*
X150203792Y-48155887D01*
X150203794Y-48155888D01*
X150203796Y-48155889D01*
X150221234Y-48162393D01*
X150340795Y-48206988D01*
X150340803Y-48206990D01*
X150401350Y-48213499D01*
X150401355Y-48213499D01*
X150401362Y-48213500D01*
X150401368Y-48213500D01*
X151434519Y-48213500D01*
X151502640Y-48233502D01*
X151549133Y-48287158D01*
X151557141Y-48310522D01*
X151558010Y-48314200D01*
X151609110Y-48451202D01*
X151609112Y-48451207D01*
X151696738Y-48568261D01*
X151813792Y-48655887D01*
X151813794Y-48655888D01*
X151813796Y-48655889D01*
X151853326Y-48670633D01*
X151950795Y-48706988D01*
X151950803Y-48706990D01*
X152011350Y-48713499D01*
X152011355Y-48713499D01*
X152011362Y-48713500D01*
X152011368Y-48713500D01*
X153101767Y-48713500D01*
X153102253Y-48713487D01*
X154759854Y-48713487D01*
X154759855Y-48713487D01*
X154887074Y-48688182D01*
X154956418Y-48659458D01*
X155006910Y-48638544D01*
X155114761Y-48566480D01*
X156011480Y-47669761D01*
X156083544Y-47561910D01*
X156108962Y-47500544D01*
X156133182Y-47442074D01*
X156158487Y-47314855D01*
X156158487Y-45185145D01*
X156133182Y-45057926D01*
X156112620Y-45008288D01*
X156083544Y-44938089D01*
X156011480Y-44830239D01*
X156011475Y-44830233D01*
X155169766Y-43988524D01*
X155169760Y-43988519D01*
X155061911Y-43916457D01*
X155061912Y-43916457D01*
X155061910Y-43916456D01*
X155001992Y-43891637D01*
X154942074Y-43866818D01*
X154814857Y-43841513D01*
X154814855Y-43841513D01*
X154177023Y-43841513D01*
X154108902Y-43821511D01*
X154062409Y-43767855D01*
X154052305Y-43697581D01*
X154081799Y-43633001D01*
X154128805Y-43599104D01*
X154151399Y-43589744D01*
X154281652Y-43535793D01*
X154422262Y-43441841D01*
X154541841Y-43322262D01*
X154635793Y-43181652D01*
X154700508Y-43025415D01*
X154733500Y-42859555D01*
X154733500Y-42690445D01*
X154700508Y-42524585D01*
X154660196Y-42427262D01*
X154647091Y-42395623D01*
X154637500Y-42347405D01*
X154637500Y-41852593D01*
X154647091Y-41804375D01*
X154673531Y-41740543D01*
X154700508Y-41675415D01*
X154733500Y-41509555D01*
X154733500Y-41340445D01*
X154700508Y-41174585D01*
X154692091Y-41154264D01*
X154682500Y-41106046D01*
X154682500Y-40344899D01*
X154682499Y-40344896D01*
X154667896Y-40271483D01*
X154653197Y-40197587D01*
X154630577Y-40142977D01*
X154595719Y-40058821D01*
X154512273Y-39933935D01*
X153986065Y-39407727D01*
X153861179Y-39324282D01*
X153722414Y-39266803D01*
X153575103Y-39237500D01*
X153575100Y-39237500D01*
X150075100Y-39237500D01*
X145234500Y-39237500D01*
X145166379Y-39217498D01*
X145119886Y-39163842D01*
X145108500Y-39111500D01*
X145108500Y-38851367D01*
X145108499Y-38851350D01*
X145101990Y-38790803D01*
X145101988Y-38790795D01*
X145050889Y-38653797D01*
X145050887Y-38653792D01*
X144963261Y-38536738D01*
X144846207Y-38449112D01*
X144846202Y-38449110D01*
X144709204Y-38398011D01*
X144709196Y-38398009D01*
X144648649Y-38391500D01*
X144648638Y-38391500D01*
X142851362Y-38391500D01*
X142851350Y-38391500D01*
X142790803Y-38398009D01*
X142790795Y-38398011D01*
X142653797Y-38449110D01*
X142653792Y-38449112D01*
X142536738Y-38536738D01*
X142449112Y-38653792D01*
X142449110Y-38653797D01*
X142405131Y-38771708D01*
X142362584Y-38828544D01*
X142296064Y-38853354D01*
X142226690Y-38838262D01*
X142197981Y-38816770D01*
X142095009Y-38713798D01*
X142095006Y-38713796D01*
X142095004Y-38713794D01*
X141922009Y-38588106D01*
X141731483Y-38491028D01*
X141731480Y-38491027D01*
X141731478Y-38491026D01*
X141528120Y-38424952D01*
X141528123Y-38424952D01*
X141488801Y-38418724D01*
X141316916Y-38391500D01*
X141103084Y-38391500D01*
X140891884Y-38424951D01*
X140891878Y-38424952D01*
X140688521Y-38491026D01*
X140688515Y-38491029D01*
X140497987Y-38588108D01*
X140324993Y-38713796D01*
X140324990Y-38713798D01*
X140173798Y-38864990D01*
X140173796Y-38864993D01*
X140048108Y-39037987D01*
X140047434Y-39039088D01*
X140047068Y-39039418D01*
X140045196Y-39041996D01*
X140044654Y-39041602D01*
X139994787Y-39086721D01*
X139924745Y-39098328D01*
X139859547Y-39070226D01*
X139834976Y-39041870D01*
X139834804Y-39041996D01*
X139833341Y-39039982D01*
X139832566Y-39039088D01*
X139831896Y-39037996D01*
X139831894Y-39037991D01*
X139706206Y-38864996D01*
X139706203Y-38864993D01*
X139706201Y-38864990D01*
X139555009Y-38713798D01*
X139555006Y-38713796D01*
X139555004Y-38713794D01*
X139382009Y-38588106D01*
X139191483Y-38491028D01*
X139191480Y-38491027D01*
X139191478Y-38491026D01*
X138988120Y-38424952D01*
X138988123Y-38424952D01*
X138948801Y-38418724D01*
X138776916Y-38391500D01*
X138563084Y-38391500D01*
X138351884Y-38424951D01*
X138351878Y-38424952D01*
X138148521Y-38491026D01*
X138148515Y-38491029D01*
X137957987Y-38588108D01*
X137784995Y-38713794D01*
X137730095Y-38768694D01*
X137675193Y-38823596D01*
X137612884Y-38857620D01*
X137586100Y-38860500D01*
X135240469Y-38860500D01*
X135172348Y-38840498D01*
X135125855Y-38786842D01*
X135122422Y-38778556D01*
X135075889Y-38653796D01*
X135075886Y-38653792D01*
X135075886Y-38653791D01*
X134988261Y-38536738D01*
X134871207Y-38449112D01*
X134871202Y-38449110D01*
X134734204Y-38398011D01*
X134734196Y-38398009D01*
X134673649Y-38391500D01*
X134673638Y-38391500D01*
X132876362Y-38391500D01*
X132876350Y-38391500D01*
X132815803Y-38398009D01*
X132815795Y-38398011D01*
X132678797Y-38449110D01*
X132678792Y-38449112D01*
X132561738Y-38536738D01*
X132474112Y-38653792D01*
X132474110Y-38653797D01*
X132423011Y-38790795D01*
X132423009Y-38790803D01*
X132416500Y-38851350D01*
X132416500Y-40648649D01*
X132423009Y-40709196D01*
X132423011Y-40709204D01*
X132449483Y-40780175D01*
X132454549Y-40850990D01*
X132420524Y-40913303D01*
X132379647Y-40940616D01*
X132328669Y-40961732D01*
X132328664Y-40961734D01*
X132182981Y-41059077D01*
X132182974Y-41059082D01*
X131009082Y-42232974D01*
X131009077Y-42232981D01*
X130911735Y-42378664D01*
X130844685Y-42540536D01*
X130844683Y-42540541D01*
X130809335Y-42718247D01*
X130776427Y-42781156D01*
X130765052Y-42791584D01*
X130696829Y-42846831D01*
X130696823Y-42846836D01*
X130579957Y-42991153D01*
X130579952Y-42991162D01*
X130495637Y-43156639D01*
X130488935Y-43181652D01*
X130447570Y-43336029D01*
X130441500Y-43413157D01*
X130441500Y-43413160D01*
X130441500Y-44786841D01*
X130447569Y-44863969D01*
X130495637Y-45043360D01*
X130579952Y-45208837D01*
X130579957Y-45208846D01*
X130696829Y-45353170D01*
X130841153Y-45470042D01*
X130841158Y-45470045D01*
X130841161Y-45470047D01*
X131006638Y-45554362D01*
X131186029Y-45602430D01*
X131263157Y-45608500D01*
X132136842Y-45608499D01*
X132213971Y-45602430D01*
X132393362Y-45554362D01*
X132558839Y-45470047D01*
X132558843Y-45470043D01*
X132558846Y-45470042D01*
X132703170Y-45353170D01*
X132752080Y-45292772D01*
X132764806Y-45283980D01*
X132774021Y-45271551D01*
X132793427Y-45264209D01*
X132810494Y-45252420D01*
X132825953Y-45251904D01*
X132840425Y-45246430D01*
X132860716Y-45250745D01*
X132881451Y-45250054D01*
X132895808Y-45258207D01*
X132909868Y-45261198D01*
X132928946Y-45277028D01*
X132938679Y-45282556D01*
X132943578Y-45287410D01*
X132996830Y-45353170D01*
X133068702Y-45411371D01*
X133073179Y-45415806D01*
X133087412Y-45441586D01*
X133104146Y-45465809D01*
X133105526Y-45474395D01*
X133107494Y-45477958D01*
X133107084Y-45484081D01*
X133110500Y-45505316D01*
X133110500Y-48765500D01*
X133090498Y-48833621D01*
X133036842Y-48880114D01*
X132984500Y-48891500D01*
X132550465Y-48891500D01*
X132550445Y-48891501D01*
X132402305Y-48906090D01*
X132212195Y-48963759D01*
X132036995Y-49057405D01*
X131883432Y-49183432D01*
X131757405Y-49336995D01*
X131700266Y-49443896D01*
X131650514Y-49494544D01*
X131589144Y-49510500D01*
X129570633Y-49510500D01*
X129502512Y-49490498D01*
X129481538Y-49473595D01*
X128967025Y-48959082D01*
X128967023Y-48959080D01*
X128821336Y-48861735D01*
X128659458Y-48794683D01*
X128487610Y-48760500D01*
X128487608Y-48760500D01*
X126238750Y-48760500D01*
X126170629Y-48740498D01*
X126124136Y-48686842D01*
X126114032Y-48616568D01*
X126115171Y-48609918D01*
X126125521Y-48557885D01*
X126139500Y-48487608D01*
X126139500Y-48312392D01*
X126139500Y-48202099D01*
X126159502Y-48133978D01*
X126199353Y-48094858D01*
X126201487Y-48093542D01*
X126273652Y-48049030D01*
X126399030Y-47923652D01*
X126492115Y-47772738D01*
X126547887Y-47604426D01*
X126553588Y-47548625D01*
X126558500Y-47500553D01*
X126558500Y-47500545D01*
X126558499Y-44899455D01*
X126547887Y-44795574D01*
X126544993Y-44786839D01*
X126492115Y-44627262D01*
X126399030Y-44476348D01*
X126399029Y-44476347D01*
X126399024Y-44476341D01*
X126273658Y-44350975D01*
X126273652Y-44350970D01*
X126122738Y-44257885D01*
X126038582Y-44229999D01*
X125954427Y-44202113D01*
X125954420Y-44202112D01*
X125850553Y-44191500D01*
X124649455Y-44191500D01*
X124545574Y-44202112D01*
X124377261Y-44257885D01*
X124226347Y-44350970D01*
X124226341Y-44350975D01*
X124100975Y-44476341D01*
X124100970Y-44476347D01*
X124007885Y-44627262D01*
X123952113Y-44795572D01*
X123952112Y-44795579D01*
X123941500Y-44899446D01*
X123941500Y-47500544D01*
X123952112Y-47604425D01*
X124007885Y-47772738D01*
X124100970Y-47923652D01*
X124100975Y-47923658D01*
X124195591Y-48018274D01*
X124229617Y-48080586D01*
X124224552Y-48151401D01*
X124195591Y-48196464D01*
X123937460Y-48454595D01*
X123875148Y-48488621D01*
X123848365Y-48491500D01*
X123324455Y-48491500D01*
X123220574Y-48502112D01*
X123052261Y-48557885D01*
X122901347Y-48650970D01*
X122901341Y-48650975D01*
X122775975Y-48776341D01*
X122775970Y-48776347D01*
X122682885Y-48927262D01*
X122627113Y-49095572D01*
X122627112Y-49095579D01*
X122616500Y-49199446D01*
X122616500Y-50100544D01*
X122627112Y-50204425D01*
X122682885Y-50372738D01*
X122775970Y-50523652D01*
X122775975Y-50523658D01*
X122901341Y-50649024D01*
X122901347Y-50649029D01*
X122901348Y-50649030D01*
X123052262Y-50742115D01*
X123220574Y-50797887D01*
X123324455Y-50808500D01*
X124675544Y-50808499D01*
X124779426Y-50797887D01*
X124947738Y-50742115D01*
X125098652Y-50649030D01*
X125171278Y-50576403D01*
X125233588Y-50542380D01*
X125260372Y-50539500D01*
X127979367Y-50539500D01*
X128047488Y-50559502D01*
X128068462Y-50576405D01*
X128582977Y-51090920D01*
X128728664Y-51188265D01*
X128890542Y-51255317D01*
X129062391Y-51289500D01*
X129062392Y-51289500D01*
X131589144Y-51289500D01*
X131657265Y-51309502D01*
X131700266Y-51356104D01*
X131711970Y-51378001D01*
X131757405Y-51463004D01*
X131883432Y-51616568D01*
X132036996Y-51742595D01*
X132212196Y-51836241D01*
X132402299Y-51893908D01*
X132402303Y-51893908D01*
X132402305Y-51893909D01*
X132442502Y-51897867D01*
X132550453Y-51908500D01*
X132734500Y-51908499D01*
X132802620Y-51928501D01*
X132849113Y-51982156D01*
X132860500Y-52034499D01*
X132860500Y-53829367D01*
X132840498Y-53897488D01*
X132823595Y-53918462D01*
X132058462Y-54683595D01*
X131996150Y-54717621D01*
X131969367Y-54720500D01*
X131549220Y-54720500D01*
X131505716Y-54709392D01*
X131504647Y-54712260D01*
X131359204Y-54658011D01*
X131359196Y-54658009D01*
X131298649Y-54651500D01*
X131298638Y-54651500D01*
X129701362Y-54651500D01*
X129701350Y-54651500D01*
X129640803Y-54658009D01*
X129640795Y-54658011D01*
X129503797Y-54709110D01*
X129503792Y-54709112D01*
X129386738Y-54796738D01*
X129299112Y-54913792D01*
X129299110Y-54913797D01*
X129248011Y-55050795D01*
X129248009Y-55050803D01*
X129241500Y-55111350D01*
X129241500Y-55991500D01*
X129221498Y-56059621D01*
X129167842Y-56106114D01*
X129115500Y-56117500D01*
X128554873Y-56117500D01*
X128486752Y-56097498D01*
X128465778Y-56080595D01*
X128448658Y-56063475D01*
X128448652Y-56063470D01*
X128441126Y-56058828D01*
X128297738Y-55970385D01*
X128141700Y-55918680D01*
X128129427Y-55914613D01*
X128129420Y-55914612D01*
X128025553Y-55904000D01*
X126974455Y-55904000D01*
X126870574Y-55914612D01*
X126702261Y-55970385D01*
X126551347Y-56063470D01*
X126551341Y-56063475D01*
X126425973Y-56188843D01*
X126425339Y-56189646D01*
X126424763Y-56190053D01*
X126420780Y-56194037D01*
X126420099Y-56193356D01*
X126367400Y-56230677D01*
X126326500Y-56237500D01*
X124684499Y-56237500D01*
X124616378Y-56217498D01*
X124569885Y-56163842D01*
X124558499Y-56111500D01*
X124558499Y-55749455D01*
X124557414Y-55738843D01*
X124547887Y-55645574D01*
X124518895Y-55558080D01*
X124512500Y-55518448D01*
X124512500Y-54034499D01*
X124532502Y-53966378D01*
X124586158Y-53919885D01*
X124638500Y-53908499D01*
X124675544Y-53908499D01*
X124779426Y-53897887D01*
X124947738Y-53842115D01*
X125098652Y-53749030D01*
X125224030Y-53623652D01*
X125255671Y-53572352D01*
X125308457Y-53524875D01*
X125362912Y-53512500D01*
X125825100Y-53512500D01*
X125972413Y-53483197D01*
X126111179Y-53425718D01*
X126236065Y-53342273D01*
X126704204Y-52874132D01*
X126745083Y-52846819D01*
X126757968Y-52841483D01*
X126890389Y-52753003D01*
X127003003Y-52640389D01*
X127091483Y-52507968D01*
X127152430Y-52360831D01*
X127183500Y-52204630D01*
X127183500Y-52045370D01*
X127152430Y-51889169D01*
X127091483Y-51742032D01*
X127003003Y-51609611D01*
X127003001Y-51609609D01*
X127002996Y-51609603D01*
X126890396Y-51497003D01*
X126890390Y-51496998D01*
X126890389Y-51496997D01*
X126757968Y-51408517D01*
X126610831Y-51347570D01*
X126532730Y-51332035D01*
X126454632Y-51316500D01*
X126454630Y-51316500D01*
X126295370Y-51316500D01*
X126295367Y-51316500D01*
X126178219Y-51339802D01*
X126139169Y-51347570D01*
X126065715Y-51377996D01*
X125992032Y-51408517D01*
X125859609Y-51496998D01*
X125859603Y-51497003D01*
X125747003Y-51609603D01*
X125746998Y-51609609D01*
X125658516Y-51742032D01*
X125658514Y-51742037D01*
X125653176Y-51754923D01*
X125648472Y-51761962D01*
X125647358Y-51767084D01*
X125625866Y-51795794D01*
X125471067Y-51950595D01*
X125408755Y-51984620D01*
X125381971Y-51987500D01*
X125362912Y-51987500D01*
X125294791Y-51967498D01*
X125255671Y-51927647D01*
X125250883Y-51919885D01*
X125224030Y-51876348D01*
X125224029Y-51876347D01*
X125224024Y-51876341D01*
X125098658Y-51750975D01*
X125098652Y-51750970D01*
X125084161Y-51742032D01*
X124947738Y-51657885D01*
X124863582Y-51629999D01*
X124779427Y-51602113D01*
X124779420Y-51602112D01*
X124675553Y-51591500D01*
X123324455Y-51591500D01*
X123220574Y-51602112D01*
X123052261Y-51657885D01*
X122901347Y-51750970D01*
X122901341Y-51750975D01*
X122775975Y-51876341D01*
X122775970Y-51876347D01*
X122682885Y-52027262D01*
X122627113Y-52195572D01*
X122627112Y-52195579D01*
X122616500Y-52299446D01*
X122616500Y-53200544D01*
X122627112Y-53304425D01*
X122682885Y-53472738D01*
X122775970Y-53623652D01*
X122775975Y-53623658D01*
X122901341Y-53749024D01*
X122901347Y-53749029D01*
X122901348Y-53749030D01*
X122927647Y-53765251D01*
X122975125Y-53818037D01*
X122987500Y-53872492D01*
X122987500Y-54915500D01*
X122967498Y-54983621D01*
X122913842Y-55030114D01*
X122861501Y-55041500D01*
X122649455Y-55041500D01*
X122545574Y-55052112D01*
X122377261Y-55107885D01*
X122226347Y-55200970D01*
X122226341Y-55200975D01*
X122100975Y-55326341D01*
X122100970Y-55326347D01*
X122007885Y-55477262D01*
X121952113Y-55645572D01*
X121952112Y-55645579D01*
X121941500Y-55749446D01*
X121941500Y-58350544D01*
X121952112Y-58454425D01*
X122007885Y-58622738D01*
X122100970Y-58773652D01*
X122100975Y-58773658D01*
X122226341Y-58899024D01*
X122226347Y-58899029D01*
X122226348Y-58899030D01*
X122377262Y-58992115D01*
X122545574Y-59047887D01*
X122649455Y-59058500D01*
X123850544Y-59058499D01*
X123954426Y-59047887D01*
X124122738Y-58992115D01*
X124273652Y-58899030D01*
X124399030Y-58773652D01*
X124492115Y-58622738D01*
X124547887Y-58454426D01*
X124554590Y-58388821D01*
X124558500Y-58350553D01*
X124558500Y-57888500D01*
X124578502Y-57820379D01*
X124632158Y-57773886D01*
X124684500Y-57762500D01*
X126326500Y-57762500D01*
X126394621Y-57782502D01*
X126420645Y-57806097D01*
X126420780Y-57805963D01*
X126423538Y-57808721D01*
X126425339Y-57810354D01*
X126425973Y-57811156D01*
X126551341Y-57936524D01*
X126551347Y-57936529D01*
X126551348Y-57936530D01*
X126702262Y-58029615D01*
X126870574Y-58085387D01*
X126974455Y-58096000D01*
X128025544Y-58095999D01*
X128129426Y-58085387D01*
X128198867Y-58062376D01*
X128269821Y-58059936D01*
X128330832Y-58096244D01*
X128362527Y-58159772D01*
X128364500Y-58181981D01*
X128364500Y-60684575D01*
X128344498Y-60752696D01*
X128327595Y-60773671D01*
X127934160Y-61167105D01*
X127871848Y-61201130D01*
X127869648Y-61201588D01*
X127764168Y-61222570D01*
X127617032Y-61283517D01*
X127484609Y-61371998D01*
X127484603Y-61372003D01*
X127372003Y-61484603D01*
X127371998Y-61484609D01*
X127283517Y-61617032D01*
X127222571Y-61764167D01*
X127222570Y-61764170D01*
X127191500Y-61920367D01*
X127191500Y-62079632D01*
X127201589Y-62130352D01*
X127222570Y-62235831D01*
X127283517Y-62382968D01*
X127371997Y-62515389D01*
X127371998Y-62515390D01*
X127372003Y-62515396D01*
X127484603Y-62627996D01*
X127484609Y-62628001D01*
X127484611Y-62628003D01*
X127617032Y-62716483D01*
X127764169Y-62777430D01*
X127920370Y-62808500D01*
X127920371Y-62808500D01*
X128079629Y-62808500D01*
X128079630Y-62808500D01*
X128235831Y-62777430D01*
X128382968Y-62716483D01*
X128515389Y-62628003D01*
X128628003Y-62515389D01*
X128716483Y-62382968D01*
X128777430Y-62235831D01*
X128798410Y-62130350D01*
X128831317Y-62067443D01*
X128832836Y-62065895D01*
X129026406Y-61872326D01*
X129088717Y-61838302D01*
X129159533Y-61843367D01*
X129216368Y-61885914D01*
X129241179Y-61952435D01*
X129241500Y-61961423D01*
X129241500Y-62458649D01*
X129248009Y-62519195D01*
X129248010Y-62519198D01*
X129248010Y-62519200D01*
X129248011Y-62519201D01*
X129259858Y-62550964D01*
X129259860Y-62550970D01*
X129264923Y-62621786D01*
X129259860Y-62639030D01*
X129248010Y-62670801D01*
X129248009Y-62670804D01*
X129241500Y-62731350D01*
X129241500Y-63728649D01*
X129248009Y-63789195D01*
X129248010Y-63789198D01*
X129259860Y-63820970D01*
X129264923Y-63891786D01*
X129259860Y-63909030D01*
X129248010Y-63940801D01*
X129248009Y-63940804D01*
X129241500Y-64001350D01*
X129241500Y-64909899D01*
X129221498Y-64978020D01*
X129167842Y-65024513D01*
X129097568Y-65034617D01*
X129067283Y-65026308D01*
X128985837Y-64992572D01*
X128985834Y-64992571D01*
X128985831Y-64992570D01*
X128907730Y-64977035D01*
X128829632Y-64961500D01*
X128829630Y-64961500D01*
X128670370Y-64961500D01*
X128670367Y-64961500D01*
X128553219Y-64984802D01*
X128514169Y-64992570D01*
X128412660Y-65034617D01*
X128367032Y-65053517D01*
X128234609Y-65141998D01*
X128234603Y-65142003D01*
X128122003Y-65254603D01*
X128121998Y-65254609D01*
X128085990Y-65308500D01*
X128033517Y-65387032D01*
X127976989Y-65523502D01*
X127972571Y-65534167D01*
X127972570Y-65534170D01*
X127941500Y-65690367D01*
X127941500Y-65849632D01*
X127946526Y-65874900D01*
X127972570Y-66005831D01*
X128033517Y-66152968D01*
X128121997Y-66285389D01*
X128121998Y-66285390D01*
X128122003Y-66285396D01*
X128162654Y-66326047D01*
X128196680Y-66388359D01*
X128191615Y-66459174D01*
X128149068Y-66516010D01*
X128121783Y-66531548D01*
X128117038Y-66533513D01*
X128117032Y-66533516D01*
X127984609Y-66621998D01*
X127984603Y-66622003D01*
X127872003Y-66734603D01*
X127871998Y-66734609D01*
X127783517Y-66867032D01*
X127722570Y-67014169D01*
X127714802Y-67053219D01*
X127691500Y-67170367D01*
X127691500Y-67329632D01*
X127698216Y-67363396D01*
X127722570Y-67485831D01*
X127722571Y-67485833D01*
X127722572Y-67485836D01*
X127728912Y-67501143D01*
X127731226Y-67522680D01*
X127738349Y-67543142D01*
X127734945Y-67557279D01*
X127736499Y-67571733D01*
X127726803Y-67591101D01*
X127721732Y-67612166D01*
X127711225Y-67622218D01*
X127704718Y-67635219D01*
X127686088Y-67646271D01*
X127670435Y-67661250D01*
X127651278Y-67666924D01*
X127643659Y-67671445D01*
X127636565Y-67673039D01*
X127629056Y-67674500D01*
X127627409Y-67674500D01*
X127553845Y-67689132D01*
X127553597Y-67689181D01*
X127553332Y-67689156D01*
X127529534Y-67691500D01*
X127420367Y-67691500D01*
X127303219Y-67714802D01*
X127264169Y-67722570D01*
X127117032Y-67783517D01*
X126984609Y-67871998D01*
X126984603Y-67872003D01*
X126872003Y-67984603D01*
X126871998Y-67984609D01*
X126783517Y-68117032D01*
X126722571Y-68264167D01*
X126722570Y-68264170D01*
X126691500Y-68420367D01*
X126691500Y-68420370D01*
X126691500Y-68579630D01*
X126722570Y-68735831D01*
X126783517Y-68882968D01*
X126871997Y-69015389D01*
X126871998Y-69015390D01*
X126872003Y-69015396D01*
X126984603Y-69127996D01*
X126984609Y-69128001D01*
X126984611Y-69128003D01*
X127117032Y-69216483D01*
X127264169Y-69277430D01*
X127420370Y-69308500D01*
X127420371Y-69308500D01*
X127579629Y-69308500D01*
X127579630Y-69308500D01*
X127735831Y-69277430D01*
X127882968Y-69216483D01*
X128015389Y-69128003D01*
X128128003Y-69015389D01*
X128137284Y-69001499D01*
X128191760Y-68955971D01*
X128242049Y-68945500D01*
X129115848Y-68945500D01*
X129183969Y-68965502D01*
X129230462Y-69019158D01*
X129241667Y-69078249D01*
X129241500Y-69081362D01*
X129241500Y-70078649D01*
X129248009Y-70139195D01*
X129248010Y-70139198D01*
X129259860Y-70170970D01*
X129264923Y-70241786D01*
X129259860Y-70259030D01*
X129248010Y-70290801D01*
X129248009Y-70290804D01*
X129241500Y-70351350D01*
X129241500Y-71348649D01*
X129248009Y-71409196D01*
X129248011Y-71409204D01*
X129299110Y-71546202D01*
X129299112Y-71546207D01*
X129386738Y-71663261D01*
X129503792Y-71750887D01*
X129503794Y-71750888D01*
X129503796Y-71750889D01*
X129562875Y-71772924D01*
X129640795Y-71801988D01*
X129640803Y-71801990D01*
X129701350Y-71808499D01*
X129701355Y-71808499D01*
X129701362Y-71808500D01*
X129701368Y-71808500D01*
X131298632Y-71808500D01*
X131298638Y-71808500D01*
X131298645Y-71808499D01*
X131298649Y-71808499D01*
X131359196Y-71801990D01*
X131359199Y-71801989D01*
X131359201Y-71801989D01*
X131496204Y-71750889D01*
X131613261Y-71663261D01*
X131700889Y-71546204D01*
X131700890Y-71546202D01*
X131706289Y-71538990D01*
X131708599Y-71540719D01*
X131748422Y-71500906D01*
X131808795Y-71485500D01*
X133720500Y-71485500D01*
X133788621Y-71505502D01*
X133835114Y-71559158D01*
X133846500Y-71611500D01*
X133846500Y-72898649D01*
X133853009Y-72959196D01*
X133853011Y-72959204D01*
X133904110Y-73096202D01*
X133904112Y-73096207D01*
X133991738Y-73213261D01*
X134064009Y-73267362D01*
X134106556Y-73324198D01*
X134114500Y-73368230D01*
X134114500Y-74374000D01*
X134094498Y-74442121D01*
X134040842Y-74488614D01*
X133988500Y-74500000D01*
X126827117Y-74500000D01*
X126778899Y-74490409D01*
X126735836Y-74472571D01*
X126579632Y-74441500D01*
X126579630Y-74441500D01*
X126420370Y-74441500D01*
X126420367Y-74441500D01*
X126264163Y-74472571D01*
X126221101Y-74490409D01*
X126172883Y-74500000D01*
X125327117Y-74500000D01*
X125278899Y-74490409D01*
X125235836Y-74472571D01*
X125079632Y-74441500D01*
X125079630Y-74441500D01*
X124920370Y-74441500D01*
X124920367Y-74441500D01*
X124764163Y-74472571D01*
X124721101Y-74490409D01*
X124672883Y-74500000D01*
X123577117Y-74500000D01*
X123528899Y-74490409D01*
X123485836Y-74472571D01*
X123329632Y-74441500D01*
X123329630Y-74441500D01*
X123170370Y-74441500D01*
X123170367Y-74441500D01*
X123014163Y-74472571D01*
X122971101Y-74490409D01*
X122922883Y-74500000D01*
X122060925Y-74500000D01*
X122053285Y-74499768D01*
X122034636Y-74498635D01*
X121757275Y-74481785D01*
X121742108Y-74479935D01*
X121454226Y-74426948D01*
X121439393Y-74423276D01*
X121160036Y-74335829D01*
X121145758Y-74330389D01*
X120949052Y-74241432D01*
X120879039Y-74209769D01*
X120865530Y-74202644D01*
X120787072Y-74154965D01*
X120615368Y-74050621D01*
X120602815Y-74041908D01*
X120372904Y-73860728D01*
X120361498Y-73850560D01*
X120259374Y-73747749D01*
X120155199Y-73642873D01*
X120145119Y-73631411D01*
X119985272Y-73425746D01*
X119965485Y-73400287D01*
X119956857Y-73387676D01*
X119806517Y-73136500D01*
X119799478Y-73122937D01*
X119680650Y-72855414D01*
X119675306Y-72841099D01*
X119629525Y-72691329D01*
X119589736Y-72561162D01*
X119586166Y-72546321D01*
X119535109Y-72258071D01*
X119533362Y-72242895D01*
X119517365Y-71946738D01*
X119517186Y-71939143D01*
X119733039Y-39777056D01*
X119733361Y-39768865D01*
X119756238Y-39451160D01*
X119758478Y-39434928D01*
X119821623Y-39126939D01*
X119825958Y-39111116D01*
X119840081Y-39070226D01*
X119928596Y-38813952D01*
X119934945Y-38798838D01*
X120075339Y-38517525D01*
X120083606Y-38503354D01*
X120259375Y-38242671D01*
X120269403Y-38229709D01*
X120477554Y-37994091D01*
X120489184Y-37982537D01*
X120726214Y-37775954D01*
X120739230Y-37766025D01*
X121001096Y-37592003D01*
X121015302Y-37583844D01*
X121297562Y-37445334D01*
X121312712Y-37439089D01*
X121610580Y-37338441D01*
X121626413Y-37334219D01*
X121934822Y-37273141D01*
X121951067Y-37271010D01*
X122244443Y-37251864D01*
X122268920Y-37250267D01*
X122277125Y-37250000D01*
X156456194Y-37250000D01*
X156463801Y-37250230D01*
G37*
%TD.AperFunction*%
%TD*%
M02*
