%TF.GenerationSoftware,KiCad,Pcbnew,8.99.0-unknown-e6b739776e~181~ubuntu24.04.1*%
%TF.CreationDate,2024-12-30T21:47:43+01:00*%
%TF.ProjectId,Spinne_Werkstatt,5370696e-6e65-45f5-9765-726b73746174,rev?*%
%TF.SameCoordinates,Original*%
%TF.FileFunction,Legend,Top*%
%TF.FilePolarity,Positive*%
%FSLAX46Y46*%
G04 Gerber Fmt 4.6, Leading zero omitted, Abs format (unit mm)*
G04 Created by KiCad (PCBNEW 8.99.0-unknown-e6b739776e~181~ubuntu24.04.1) date 2024-12-30 21:47:43*
%MOMM*%
%LPD*%
G01*
G04 APERTURE LIST*
%ADD10C,0.100000*%
%ADD11C,0.150000*%
%ADD12C,0.062500*%
%ADD13C,0.254000*%
%ADD14C,0.120000*%
G04 APERTURE END LIST*
D10*
X156122419Y-43969925D02*
X156122419Y-44446115D01*
X156122419Y-44446115D02*
X156598609Y-44493734D01*
X156598609Y-44493734D02*
X156550990Y-44446115D01*
X156550990Y-44446115D02*
X156503371Y-44350877D01*
X156503371Y-44350877D02*
X156503371Y-44112782D01*
X156503371Y-44112782D02*
X156550990Y-44017544D01*
X156550990Y-44017544D02*
X156598609Y-43969925D01*
X156598609Y-43969925D02*
X156693847Y-43922306D01*
X156693847Y-43922306D02*
X156931942Y-43922306D01*
X156931942Y-43922306D02*
X157027180Y-43969925D01*
X157027180Y-43969925D02*
X157074800Y-44017544D01*
X157074800Y-44017544D02*
X157122419Y-44112782D01*
X157122419Y-44112782D02*
X157122419Y-44350877D01*
X157122419Y-44350877D02*
X157074800Y-44446115D01*
X157074800Y-44446115D02*
X157027180Y-44493734D01*
X156122419Y-43636591D02*
X157122419Y-43303258D01*
X157122419Y-43303258D02*
X156122419Y-42969925D01*
X156170038Y-48672306D02*
X156122419Y-48767544D01*
X156122419Y-48767544D02*
X156122419Y-48910401D01*
X156122419Y-48910401D02*
X156170038Y-49053258D01*
X156170038Y-49053258D02*
X156265276Y-49148496D01*
X156265276Y-49148496D02*
X156360514Y-49196115D01*
X156360514Y-49196115D02*
X156550990Y-49243734D01*
X156550990Y-49243734D02*
X156693847Y-49243734D01*
X156693847Y-49243734D02*
X156884323Y-49196115D01*
X156884323Y-49196115D02*
X156979561Y-49148496D01*
X156979561Y-49148496D02*
X157074800Y-49053258D01*
X157074800Y-49053258D02*
X157122419Y-48910401D01*
X157122419Y-48910401D02*
X157122419Y-48815163D01*
X157122419Y-48815163D02*
X157074800Y-48672306D01*
X157074800Y-48672306D02*
X157027180Y-48624687D01*
X157027180Y-48624687D02*
X156693847Y-48624687D01*
X156693847Y-48624687D02*
X156693847Y-48815163D01*
X157122419Y-48196115D02*
X156122419Y-48196115D01*
X156122419Y-48196115D02*
X157122419Y-47624687D01*
X157122419Y-47624687D02*
X156122419Y-47624687D01*
X157122419Y-47148496D02*
X156122419Y-47148496D01*
X156122419Y-47148496D02*
X156122419Y-46910401D01*
X156122419Y-46910401D02*
X156170038Y-46767544D01*
X156170038Y-46767544D02*
X156265276Y-46672306D01*
X156265276Y-46672306D02*
X156360514Y-46624687D01*
X156360514Y-46624687D02*
X156550990Y-46577068D01*
X156550990Y-46577068D02*
X156693847Y-46577068D01*
X156693847Y-46577068D02*
X156884323Y-46624687D01*
X156884323Y-46624687D02*
X156979561Y-46672306D01*
X156979561Y-46672306D02*
X157074800Y-46767544D01*
X157074800Y-46767544D02*
X157122419Y-46910401D01*
X157122419Y-46910401D02*
X157122419Y-47148496D01*
D11*
X125751009Y-55104761D02*
X125751009Y-54771428D01*
X126274819Y-54628571D02*
X126274819Y-55104761D01*
X126274819Y-55104761D02*
X125274819Y-55104761D01*
X125274819Y-55104761D02*
X125274819Y-54628571D01*
X126227200Y-54247618D02*
X126274819Y-54104761D01*
X126274819Y-54104761D02*
X126274819Y-53866666D01*
X126274819Y-53866666D02*
X126227200Y-53771428D01*
X126227200Y-53771428D02*
X126179580Y-53723809D01*
X126179580Y-53723809D02*
X126084342Y-53676190D01*
X126084342Y-53676190D02*
X125989104Y-53676190D01*
X125989104Y-53676190D02*
X125893866Y-53723809D01*
X125893866Y-53723809D02*
X125846247Y-53771428D01*
X125846247Y-53771428D02*
X125798628Y-53866666D01*
X125798628Y-53866666D02*
X125751009Y-54057142D01*
X125751009Y-54057142D02*
X125703390Y-54152380D01*
X125703390Y-54152380D02*
X125655771Y-54199999D01*
X125655771Y-54199999D02*
X125560533Y-54247618D01*
X125560533Y-54247618D02*
X125465295Y-54247618D01*
X125465295Y-54247618D02*
X125370057Y-54199999D01*
X125370057Y-54199999D02*
X125322438Y-54152380D01*
X125322438Y-54152380D02*
X125274819Y-54057142D01*
X125274819Y-54057142D02*
X125274819Y-53819047D01*
X125274819Y-53819047D02*
X125322438Y-53676190D01*
X126274819Y-53247618D02*
X125274819Y-53247618D01*
X125274819Y-53247618D02*
X125274819Y-52866666D01*
X125274819Y-52866666D02*
X125322438Y-52771428D01*
X125322438Y-52771428D02*
X125370057Y-52723809D01*
X125370057Y-52723809D02*
X125465295Y-52676190D01*
X125465295Y-52676190D02*
X125608152Y-52676190D01*
X125608152Y-52676190D02*
X125703390Y-52723809D01*
X125703390Y-52723809D02*
X125751009Y-52771428D01*
X125751009Y-52771428D02*
X125798628Y-52866666D01*
X125798628Y-52866666D02*
X125798628Y-53247618D01*
X126370057Y-52485714D02*
X126370057Y-51723809D01*
X125751009Y-51485713D02*
X125751009Y-51152380D01*
X126274819Y-51009523D02*
X126274819Y-51485713D01*
X126274819Y-51485713D02*
X125274819Y-51485713D01*
X125274819Y-51485713D02*
X125274819Y-51009523D01*
X126274819Y-50580951D02*
X125274819Y-50580951D01*
X125274819Y-50580951D02*
X126274819Y-50009523D01*
X126274819Y-50009523D02*
X125274819Y-50009523D01*
X126370057Y-49771428D02*
X126370057Y-49009523D01*
X126274819Y-48199999D02*
X125798628Y-48533332D01*
X126274819Y-48771427D02*
X125274819Y-48771427D01*
X125274819Y-48771427D02*
X125274819Y-48390475D01*
X125274819Y-48390475D02*
X125322438Y-48295237D01*
X125322438Y-48295237D02*
X125370057Y-48247618D01*
X125370057Y-48247618D02*
X125465295Y-48199999D01*
X125465295Y-48199999D02*
X125608152Y-48199999D01*
X125608152Y-48199999D02*
X125703390Y-48247618D01*
X125703390Y-48247618D02*
X125751009Y-48295237D01*
X125751009Y-48295237D02*
X125798628Y-48390475D01*
X125798628Y-48390475D02*
X125798628Y-48771427D01*
X126274819Y-47247618D02*
X126274819Y-47819046D01*
X126274819Y-47533332D02*
X125274819Y-47533332D01*
X125274819Y-47533332D02*
X125417676Y-47628570D01*
X125417676Y-47628570D02*
X125512914Y-47723808D01*
X125512914Y-47723808D02*
X125560533Y-47819046D01*
X121909580Y-46166666D02*
X121957200Y-46214285D01*
X121957200Y-46214285D02*
X122004819Y-46357142D01*
X122004819Y-46357142D02*
X122004819Y-46452380D01*
X122004819Y-46452380D02*
X121957200Y-46595237D01*
X121957200Y-46595237D02*
X121861961Y-46690475D01*
X121861961Y-46690475D02*
X121766723Y-46738094D01*
X121766723Y-46738094D02*
X121576247Y-46785713D01*
X121576247Y-46785713D02*
X121433390Y-46785713D01*
X121433390Y-46785713D02*
X121242914Y-46738094D01*
X121242914Y-46738094D02*
X121147676Y-46690475D01*
X121147676Y-46690475D02*
X121052438Y-46595237D01*
X121052438Y-46595237D02*
X121004819Y-46452380D01*
X121004819Y-46452380D02*
X121004819Y-46357142D01*
X121004819Y-46357142D02*
X121052438Y-46214285D01*
X121052438Y-46214285D02*
X121100057Y-46166666D01*
X122100057Y-45976190D02*
X122100057Y-45214285D01*
X121004819Y-45071427D02*
X121004819Y-44452380D01*
X121004819Y-44452380D02*
X121385771Y-44785713D01*
X121385771Y-44785713D02*
X121385771Y-44642856D01*
X121385771Y-44642856D02*
X121433390Y-44547618D01*
X121433390Y-44547618D02*
X121481009Y-44499999D01*
X121481009Y-44499999D02*
X121576247Y-44452380D01*
X121576247Y-44452380D02*
X121814342Y-44452380D01*
X121814342Y-44452380D02*
X121909580Y-44499999D01*
X121909580Y-44499999D02*
X121957200Y-44547618D01*
X121957200Y-44547618D02*
X122004819Y-44642856D01*
X122004819Y-44642856D02*
X122004819Y-44928570D01*
X122004819Y-44928570D02*
X121957200Y-45023808D01*
X121957200Y-45023808D02*
X121909580Y-45071427D01*
X121909580Y-44023808D02*
X121957200Y-43976189D01*
X121957200Y-43976189D02*
X122004819Y-44023808D01*
X122004819Y-44023808D02*
X121957200Y-44071427D01*
X121957200Y-44071427D02*
X121909580Y-44023808D01*
X121909580Y-44023808D02*
X122004819Y-44023808D01*
X121004819Y-43642856D02*
X121004819Y-43023809D01*
X121004819Y-43023809D02*
X121385771Y-43357142D01*
X121385771Y-43357142D02*
X121385771Y-43214285D01*
X121385771Y-43214285D02*
X121433390Y-43119047D01*
X121433390Y-43119047D02*
X121481009Y-43071428D01*
X121481009Y-43071428D02*
X121576247Y-43023809D01*
X121576247Y-43023809D02*
X121814342Y-43023809D01*
X121814342Y-43023809D02*
X121909580Y-43071428D01*
X121909580Y-43071428D02*
X121957200Y-43119047D01*
X121957200Y-43119047D02*
X122004819Y-43214285D01*
X122004819Y-43214285D02*
X122004819Y-43499999D01*
X122004819Y-43499999D02*
X121957200Y-43595237D01*
X121957200Y-43595237D02*
X121909580Y-43642856D01*
X121004819Y-42738094D02*
X122004819Y-42404761D01*
X122004819Y-42404761D02*
X121004819Y-42071428D01*
X122004819Y-41214285D02*
X122004819Y-41785713D01*
X122004819Y-41499999D02*
X121004819Y-41499999D01*
X121004819Y-41499999D02*
X121147676Y-41595237D01*
X121147676Y-41595237D02*
X121242914Y-41690475D01*
X121242914Y-41690475D02*
X121290533Y-41785713D01*
D12*
X126180440Y-59238094D02*
X126204250Y-59261903D01*
X126204250Y-59261903D02*
X126228059Y-59333332D01*
X126228059Y-59333332D02*
X126228059Y-59380951D01*
X126228059Y-59380951D02*
X126204250Y-59452379D01*
X126204250Y-59452379D02*
X126156630Y-59499998D01*
X126156630Y-59499998D02*
X126109011Y-59523808D01*
X126109011Y-59523808D02*
X126013773Y-59547617D01*
X126013773Y-59547617D02*
X125942345Y-59547617D01*
X125942345Y-59547617D02*
X125847107Y-59523808D01*
X125847107Y-59523808D02*
X125799488Y-59499998D01*
X125799488Y-59499998D02*
X125751869Y-59452379D01*
X125751869Y-59452379D02*
X125728059Y-59380951D01*
X125728059Y-59380951D02*
X125728059Y-59333332D01*
X125728059Y-59333332D02*
X125751869Y-59261903D01*
X125751869Y-59261903D02*
X125775678Y-59238094D01*
X126275678Y-59142856D02*
X126275678Y-58761903D01*
X125966154Y-58642856D02*
X125966154Y-58476189D01*
X126228059Y-58404761D02*
X126228059Y-58642856D01*
X126228059Y-58642856D02*
X125728059Y-58642856D01*
X125728059Y-58642856D02*
X125728059Y-58404761D01*
X126204250Y-58214284D02*
X126228059Y-58142856D01*
X126228059Y-58142856D02*
X126228059Y-58023808D01*
X126228059Y-58023808D02*
X126204250Y-57976189D01*
X126204250Y-57976189D02*
X126180440Y-57952380D01*
X126180440Y-57952380D02*
X126132821Y-57928570D01*
X126132821Y-57928570D02*
X126085202Y-57928570D01*
X126085202Y-57928570D02*
X126037583Y-57952380D01*
X126037583Y-57952380D02*
X126013773Y-57976189D01*
X126013773Y-57976189D02*
X125989964Y-58023808D01*
X125989964Y-58023808D02*
X125966154Y-58119046D01*
X125966154Y-58119046D02*
X125942345Y-58166665D01*
X125942345Y-58166665D02*
X125918535Y-58190475D01*
X125918535Y-58190475D02*
X125870916Y-58214284D01*
X125870916Y-58214284D02*
X125823297Y-58214284D01*
X125823297Y-58214284D02*
X125775678Y-58190475D01*
X125775678Y-58190475D02*
X125751869Y-58166665D01*
X125751869Y-58166665D02*
X125728059Y-58119046D01*
X125728059Y-58119046D02*
X125728059Y-57999999D01*
X125728059Y-57999999D02*
X125751869Y-57928570D01*
X126228059Y-57714285D02*
X125728059Y-57714285D01*
X125728059Y-57714285D02*
X125728059Y-57523809D01*
X125728059Y-57523809D02*
X125751869Y-57476190D01*
X125751869Y-57476190D02*
X125775678Y-57452380D01*
X125775678Y-57452380D02*
X125823297Y-57428571D01*
X125823297Y-57428571D02*
X125894726Y-57428571D01*
X125894726Y-57428571D02*
X125942345Y-57452380D01*
X125942345Y-57452380D02*
X125966154Y-57476190D01*
X125966154Y-57476190D02*
X125989964Y-57523809D01*
X125989964Y-57523809D02*
X125989964Y-57714285D01*
X125775678Y-57238094D02*
X125751869Y-57214285D01*
X125751869Y-57214285D02*
X125728059Y-57166666D01*
X125728059Y-57166666D02*
X125728059Y-57047618D01*
X125728059Y-57047618D02*
X125751869Y-56999999D01*
X125751869Y-56999999D02*
X125775678Y-56976190D01*
X125775678Y-56976190D02*
X125823297Y-56952380D01*
X125823297Y-56952380D02*
X125870916Y-56952380D01*
X125870916Y-56952380D02*
X125942345Y-56976190D01*
X125942345Y-56976190D02*
X126228059Y-57261904D01*
X126228059Y-57261904D02*
X126228059Y-56952380D01*
D11*
X125109580Y-61226190D02*
X125157200Y-61273809D01*
X125157200Y-61273809D02*
X125204819Y-61416666D01*
X125204819Y-61416666D02*
X125204819Y-61511904D01*
X125204819Y-61511904D02*
X125157200Y-61654761D01*
X125157200Y-61654761D02*
X125061961Y-61749999D01*
X125061961Y-61749999D02*
X124966723Y-61797618D01*
X124966723Y-61797618D02*
X124776247Y-61845237D01*
X124776247Y-61845237D02*
X124633390Y-61845237D01*
X124633390Y-61845237D02*
X124442914Y-61797618D01*
X124442914Y-61797618D02*
X124347676Y-61749999D01*
X124347676Y-61749999D02*
X124252438Y-61654761D01*
X124252438Y-61654761D02*
X124204819Y-61511904D01*
X124204819Y-61511904D02*
X124204819Y-61416666D01*
X124204819Y-61416666D02*
X124252438Y-61273809D01*
X124252438Y-61273809D02*
X124300057Y-61226190D01*
X125300057Y-61035714D02*
X125300057Y-60273809D01*
X124681009Y-60035713D02*
X124681009Y-59702380D01*
X125204819Y-59559523D02*
X125204819Y-60035713D01*
X125204819Y-60035713D02*
X124204819Y-60035713D01*
X124204819Y-60035713D02*
X124204819Y-59559523D01*
X125157200Y-59178570D02*
X125204819Y-59035713D01*
X125204819Y-59035713D02*
X125204819Y-58797618D01*
X125204819Y-58797618D02*
X125157200Y-58702380D01*
X125157200Y-58702380D02*
X125109580Y-58654761D01*
X125109580Y-58654761D02*
X125014342Y-58607142D01*
X125014342Y-58607142D02*
X124919104Y-58607142D01*
X124919104Y-58607142D02*
X124823866Y-58654761D01*
X124823866Y-58654761D02*
X124776247Y-58702380D01*
X124776247Y-58702380D02*
X124728628Y-58797618D01*
X124728628Y-58797618D02*
X124681009Y-58988094D01*
X124681009Y-58988094D02*
X124633390Y-59083332D01*
X124633390Y-59083332D02*
X124585771Y-59130951D01*
X124585771Y-59130951D02*
X124490533Y-59178570D01*
X124490533Y-59178570D02*
X124395295Y-59178570D01*
X124395295Y-59178570D02*
X124300057Y-59130951D01*
X124300057Y-59130951D02*
X124252438Y-59083332D01*
X124252438Y-59083332D02*
X124204819Y-58988094D01*
X124204819Y-58988094D02*
X124204819Y-58749999D01*
X124204819Y-58749999D02*
X124252438Y-58607142D01*
X125204819Y-58178570D02*
X124204819Y-58178570D01*
X124204819Y-58178570D02*
X124204819Y-57797618D01*
X124204819Y-57797618D02*
X124252438Y-57702380D01*
X124252438Y-57702380D02*
X124300057Y-57654761D01*
X124300057Y-57654761D02*
X124395295Y-57607142D01*
X124395295Y-57607142D02*
X124538152Y-57607142D01*
X124538152Y-57607142D02*
X124633390Y-57654761D01*
X124633390Y-57654761D02*
X124681009Y-57702380D01*
X124681009Y-57702380D02*
X124728628Y-57797618D01*
X124728628Y-57797618D02*
X124728628Y-58178570D01*
X125204819Y-56654761D02*
X125204819Y-57226189D01*
X125204819Y-56940475D02*
X124204819Y-56940475D01*
X124204819Y-56940475D02*
X124347676Y-57035713D01*
X124347676Y-57035713D02*
X124442914Y-57130951D01*
X124442914Y-57130951D02*
X124490533Y-57226189D01*
X148892857Y-43954819D02*
X148892857Y-44764342D01*
X148892857Y-44764342D02*
X148940476Y-44859580D01*
X148940476Y-44859580D02*
X148988095Y-44907200D01*
X148988095Y-44907200D02*
X149083333Y-44954819D01*
X149083333Y-44954819D02*
X149273809Y-44954819D01*
X149273809Y-44954819D02*
X149369047Y-44907200D01*
X149369047Y-44907200D02*
X149416666Y-44859580D01*
X149416666Y-44859580D02*
X149464285Y-44764342D01*
X149464285Y-44764342D02*
X149464285Y-43954819D01*
X149892857Y-44907200D02*
X150035714Y-44954819D01*
X150035714Y-44954819D02*
X150273809Y-44954819D01*
X150273809Y-44954819D02*
X150369047Y-44907200D01*
X150369047Y-44907200D02*
X150416666Y-44859580D01*
X150416666Y-44859580D02*
X150464285Y-44764342D01*
X150464285Y-44764342D02*
X150464285Y-44669104D01*
X150464285Y-44669104D02*
X150416666Y-44573866D01*
X150416666Y-44573866D02*
X150369047Y-44526247D01*
X150369047Y-44526247D02*
X150273809Y-44478628D01*
X150273809Y-44478628D02*
X150083333Y-44431009D01*
X150083333Y-44431009D02*
X149988095Y-44383390D01*
X149988095Y-44383390D02*
X149940476Y-44335771D01*
X149940476Y-44335771D02*
X149892857Y-44240533D01*
X149892857Y-44240533D02*
X149892857Y-44145295D01*
X149892857Y-44145295D02*
X149940476Y-44050057D01*
X149940476Y-44050057D02*
X149988095Y-44002438D01*
X149988095Y-44002438D02*
X150083333Y-43954819D01*
X150083333Y-43954819D02*
X150321428Y-43954819D01*
X150321428Y-43954819D02*
X150464285Y-44002438D01*
X151226190Y-44431009D02*
X151369047Y-44478628D01*
X151369047Y-44478628D02*
X151416666Y-44526247D01*
X151416666Y-44526247D02*
X151464285Y-44621485D01*
X151464285Y-44621485D02*
X151464285Y-44764342D01*
X151464285Y-44764342D02*
X151416666Y-44859580D01*
X151416666Y-44859580D02*
X151369047Y-44907200D01*
X151369047Y-44907200D02*
X151273809Y-44954819D01*
X151273809Y-44954819D02*
X150892857Y-44954819D01*
X150892857Y-44954819D02*
X150892857Y-43954819D01*
X150892857Y-43954819D02*
X151226190Y-43954819D01*
X151226190Y-43954819D02*
X151321428Y-44002438D01*
X151321428Y-44002438D02*
X151369047Y-44050057D01*
X151369047Y-44050057D02*
X151416666Y-44145295D01*
X151416666Y-44145295D02*
X151416666Y-44240533D01*
X151416666Y-44240533D02*
X151369047Y-44335771D01*
X151369047Y-44335771D02*
X151321428Y-44383390D01*
X151321428Y-44383390D02*
X151226190Y-44431009D01*
X151226190Y-44431009D02*
X150892857Y-44431009D01*
X151892857Y-44573866D02*
X152654762Y-44573866D01*
X153702380Y-44859580D02*
X153654761Y-44907200D01*
X153654761Y-44907200D02*
X153511904Y-44954819D01*
X153511904Y-44954819D02*
X153416666Y-44954819D01*
X153416666Y-44954819D02*
X153273809Y-44907200D01*
X153273809Y-44907200D02*
X153178571Y-44811961D01*
X153178571Y-44811961D02*
X153130952Y-44716723D01*
X153130952Y-44716723D02*
X153083333Y-44526247D01*
X153083333Y-44526247D02*
X153083333Y-44383390D01*
X153083333Y-44383390D02*
X153130952Y-44192914D01*
X153130952Y-44192914D02*
X153178571Y-44097676D01*
X153178571Y-44097676D02*
X153273809Y-44002438D01*
X153273809Y-44002438D02*
X153416666Y-43954819D01*
X153416666Y-43954819D02*
X153511904Y-43954819D01*
X153511904Y-43954819D02*
X153654761Y-44002438D01*
X153654761Y-44002438D02*
X153702380Y-44050057D01*
X154654761Y-44954819D02*
X154083333Y-44954819D01*
X154369047Y-44954819D02*
X154369047Y-43954819D01*
X154369047Y-43954819D02*
X154273809Y-44097676D01*
X154273809Y-44097676D02*
X154178571Y-44192914D01*
X154178571Y-44192914D02*
X154083333Y-44240533D01*
D13*
X152324318Y-48492381D02*
X151054318Y-48492381D01*
X151054318Y-48492381D02*
X151054318Y-48190000D01*
X151054318Y-48190000D02*
X151114794Y-48008571D01*
X151114794Y-48008571D02*
X151235746Y-47887619D01*
X151235746Y-47887619D02*
X151356699Y-47827142D01*
X151356699Y-47827142D02*
X151598603Y-47766666D01*
X151598603Y-47766666D02*
X151780032Y-47766666D01*
X151780032Y-47766666D02*
X152021937Y-47827142D01*
X152021937Y-47827142D02*
X152142889Y-47887619D01*
X152142889Y-47887619D02*
X152263842Y-48008571D01*
X152263842Y-48008571D02*
X152324318Y-48190000D01*
X152324318Y-48190000D02*
X152324318Y-48492381D01*
X152324318Y-46557142D02*
X152324318Y-47282857D01*
X152324318Y-46920000D02*
X151054318Y-46920000D01*
X151054318Y-46920000D02*
X151235746Y-47040952D01*
X151235746Y-47040952D02*
X151356699Y-47161904D01*
X151356699Y-47161904D02*
X151417175Y-47282857D01*
D11*
X153488095Y-53804819D02*
X153488095Y-54614342D01*
X153488095Y-54614342D02*
X153535714Y-54709580D01*
X153535714Y-54709580D02*
X153583333Y-54757200D01*
X153583333Y-54757200D02*
X153678571Y-54804819D01*
X153678571Y-54804819D02*
X153869047Y-54804819D01*
X153869047Y-54804819D02*
X153964285Y-54757200D01*
X153964285Y-54757200D02*
X154011904Y-54709580D01*
X154011904Y-54709580D02*
X154059523Y-54614342D01*
X154059523Y-54614342D02*
X154059523Y-53804819D01*
X154488095Y-53900057D02*
X154535714Y-53852438D01*
X154535714Y-53852438D02*
X154630952Y-53804819D01*
X154630952Y-53804819D02*
X154869047Y-53804819D01*
X154869047Y-53804819D02*
X154964285Y-53852438D01*
X154964285Y-53852438D02*
X155011904Y-53900057D01*
X155011904Y-53900057D02*
X155059523Y-53995295D01*
X155059523Y-53995295D02*
X155059523Y-54090533D01*
X155059523Y-54090533D02*
X155011904Y-54233390D01*
X155011904Y-54233390D02*
X154440476Y-54804819D01*
X154440476Y-54804819D02*
X155059523Y-54804819D01*
X157000057Y-73032738D02*
X156952438Y-73127976D01*
X156952438Y-73127976D02*
X156857200Y-73223214D01*
X156857200Y-73223214D02*
X156714342Y-73366071D01*
X156714342Y-73366071D02*
X156666723Y-73461309D01*
X156666723Y-73461309D02*
X156666723Y-73556547D01*
X156904819Y-73508928D02*
X156857200Y-73604166D01*
X156857200Y-73604166D02*
X156761961Y-73699404D01*
X156761961Y-73699404D02*
X156571485Y-73747023D01*
X156571485Y-73747023D02*
X156238152Y-73747023D01*
X156238152Y-73747023D02*
X156047676Y-73699404D01*
X156047676Y-73699404D02*
X155952438Y-73604166D01*
X155952438Y-73604166D02*
X155904819Y-73508928D01*
X155904819Y-73508928D02*
X155904819Y-73318452D01*
X155904819Y-73318452D02*
X155952438Y-73223214D01*
X155952438Y-73223214D02*
X156047676Y-73127976D01*
X156047676Y-73127976D02*
X156238152Y-73080357D01*
X156238152Y-73080357D02*
X156571485Y-73080357D01*
X156571485Y-73080357D02*
X156761961Y-73127976D01*
X156761961Y-73127976D02*
X156857200Y-73223214D01*
X156857200Y-73223214D02*
X156904819Y-73318452D01*
X156904819Y-73318452D02*
X156904819Y-73508928D01*
X156000057Y-72699404D02*
X155952438Y-72651785D01*
X155952438Y-72651785D02*
X155904819Y-72556547D01*
X155904819Y-72556547D02*
X155904819Y-72318452D01*
X155904819Y-72318452D02*
X155952438Y-72223214D01*
X155952438Y-72223214D02*
X156000057Y-72175595D01*
X156000057Y-72175595D02*
X156095295Y-72127976D01*
X156095295Y-72127976D02*
X156190533Y-72127976D01*
X156190533Y-72127976D02*
X156333390Y-72175595D01*
X156333390Y-72175595D02*
X156904819Y-72747023D01*
X156904819Y-72747023D02*
X156904819Y-72127976D01*
X143407200Y-59023810D02*
X143454819Y-58880953D01*
X143454819Y-58880953D02*
X143454819Y-58642858D01*
X143454819Y-58642858D02*
X143407200Y-58547620D01*
X143407200Y-58547620D02*
X143359580Y-58500001D01*
X143359580Y-58500001D02*
X143264342Y-58452382D01*
X143264342Y-58452382D02*
X143169104Y-58452382D01*
X143169104Y-58452382D02*
X143073866Y-58500001D01*
X143073866Y-58500001D02*
X143026247Y-58547620D01*
X143026247Y-58547620D02*
X142978628Y-58642858D01*
X142978628Y-58642858D02*
X142931009Y-58833334D01*
X142931009Y-58833334D02*
X142883390Y-58928572D01*
X142883390Y-58928572D02*
X142835771Y-58976191D01*
X142835771Y-58976191D02*
X142740533Y-59023810D01*
X142740533Y-59023810D02*
X142645295Y-59023810D01*
X142645295Y-59023810D02*
X142550057Y-58976191D01*
X142550057Y-58976191D02*
X142502438Y-58928572D01*
X142502438Y-58928572D02*
X142454819Y-58833334D01*
X142454819Y-58833334D02*
X142454819Y-58595239D01*
X142454819Y-58595239D02*
X142502438Y-58452382D01*
X142788152Y-58023810D02*
X143788152Y-58023810D01*
X142835771Y-58023810D02*
X142788152Y-57928572D01*
X142788152Y-57928572D02*
X142788152Y-57738096D01*
X142788152Y-57738096D02*
X142835771Y-57642858D01*
X142835771Y-57642858D02*
X142883390Y-57595239D01*
X142883390Y-57595239D02*
X142978628Y-57547620D01*
X142978628Y-57547620D02*
X143264342Y-57547620D01*
X143264342Y-57547620D02*
X143359580Y-57595239D01*
X143359580Y-57595239D02*
X143407200Y-57642858D01*
X143407200Y-57642858D02*
X143454819Y-57738096D01*
X143454819Y-57738096D02*
X143454819Y-57928572D01*
X143454819Y-57928572D02*
X143407200Y-58023810D01*
X143454819Y-56690477D02*
X142931009Y-56690477D01*
X142931009Y-56690477D02*
X142835771Y-56738096D01*
X142835771Y-56738096D02*
X142788152Y-56833334D01*
X142788152Y-56833334D02*
X142788152Y-57023810D01*
X142788152Y-57023810D02*
X142835771Y-57119048D01*
X143407200Y-56690477D02*
X143454819Y-56785715D01*
X143454819Y-56785715D02*
X143454819Y-57023810D01*
X143454819Y-57023810D02*
X143407200Y-57119048D01*
X143407200Y-57119048D02*
X143311961Y-57166667D01*
X143311961Y-57166667D02*
X143216723Y-57166667D01*
X143216723Y-57166667D02*
X143121485Y-57119048D01*
X143121485Y-57119048D02*
X143073866Y-57023810D01*
X143073866Y-57023810D02*
X143073866Y-56785715D01*
X143073866Y-56785715D02*
X143026247Y-56690477D01*
X142788152Y-56214286D02*
X143454819Y-56214286D01*
X142883390Y-56214286D02*
X142835771Y-56166667D01*
X142835771Y-56166667D02*
X142788152Y-56071429D01*
X142788152Y-56071429D02*
X142788152Y-55928572D01*
X142788152Y-55928572D02*
X142835771Y-55833334D01*
X142835771Y-55833334D02*
X142931009Y-55785715D01*
X142931009Y-55785715D02*
X143454819Y-55785715D01*
X142788152Y-55309524D02*
X143454819Y-55309524D01*
X142883390Y-55309524D02*
X142835771Y-55261905D01*
X142835771Y-55261905D02*
X142788152Y-55166667D01*
X142788152Y-55166667D02*
X142788152Y-55023810D01*
X142788152Y-55023810D02*
X142835771Y-54928572D01*
X142835771Y-54928572D02*
X142931009Y-54880953D01*
X142931009Y-54880953D02*
X143454819Y-54880953D01*
X142788152Y-53976191D02*
X143454819Y-53976191D01*
X142788152Y-54404762D02*
X143311961Y-54404762D01*
X143311961Y-54404762D02*
X143407200Y-54357143D01*
X143407200Y-54357143D02*
X143454819Y-54261905D01*
X143454819Y-54261905D02*
X143454819Y-54119048D01*
X143454819Y-54119048D02*
X143407200Y-54023810D01*
X143407200Y-54023810D02*
X143359580Y-53976191D01*
X142788152Y-53500000D02*
X143454819Y-53500000D01*
X142883390Y-53500000D02*
X142835771Y-53452381D01*
X142835771Y-53452381D02*
X142788152Y-53357143D01*
X142788152Y-53357143D02*
X142788152Y-53214286D01*
X142788152Y-53214286D02*
X142835771Y-53119048D01*
X142835771Y-53119048D02*
X142931009Y-53071429D01*
X142931009Y-53071429D02*
X143454819Y-53071429D01*
X142788152Y-52166667D02*
X143597676Y-52166667D01*
X143597676Y-52166667D02*
X143692914Y-52214286D01*
X143692914Y-52214286D02*
X143740533Y-52261905D01*
X143740533Y-52261905D02*
X143788152Y-52357143D01*
X143788152Y-52357143D02*
X143788152Y-52500000D01*
X143788152Y-52500000D02*
X143740533Y-52595238D01*
X143407200Y-52166667D02*
X143454819Y-52261905D01*
X143454819Y-52261905D02*
X143454819Y-52452381D01*
X143454819Y-52452381D02*
X143407200Y-52547619D01*
X143407200Y-52547619D02*
X143359580Y-52595238D01*
X143359580Y-52595238D02*
X143264342Y-52642857D01*
X143264342Y-52642857D02*
X142978628Y-52642857D01*
X142978628Y-52642857D02*
X142883390Y-52595238D01*
X142883390Y-52595238D02*
X142835771Y-52547619D01*
X142835771Y-52547619D02*
X142788152Y-52452381D01*
X142788152Y-52452381D02*
X142788152Y-52261905D01*
X142788152Y-52261905D02*
X142835771Y-52166667D01*
X143407200Y-51738095D02*
X143454819Y-51642857D01*
X143454819Y-51642857D02*
X143454819Y-51452381D01*
X143454819Y-51452381D02*
X143407200Y-51357143D01*
X143407200Y-51357143D02*
X143311961Y-51309524D01*
X143311961Y-51309524D02*
X143264342Y-51309524D01*
X143264342Y-51309524D02*
X143169104Y-51357143D01*
X143169104Y-51357143D02*
X143121485Y-51452381D01*
X143121485Y-51452381D02*
X143121485Y-51595238D01*
X143121485Y-51595238D02*
X143073866Y-51690476D01*
X143073866Y-51690476D02*
X142978628Y-51738095D01*
X142978628Y-51738095D02*
X142931009Y-51738095D01*
X142931009Y-51738095D02*
X142835771Y-51690476D01*
X142835771Y-51690476D02*
X142788152Y-51595238D01*
X142788152Y-51595238D02*
X142788152Y-51452381D01*
X142788152Y-51452381D02*
X142835771Y-51357143D01*
X143454819Y-50880952D02*
X142788152Y-50880952D01*
X142978628Y-50880952D02*
X142883390Y-50833333D01*
X142883390Y-50833333D02*
X142835771Y-50785714D01*
X142835771Y-50785714D02*
X142788152Y-50690476D01*
X142788152Y-50690476D02*
X142788152Y-50595238D01*
X143407200Y-49880952D02*
X143454819Y-49976190D01*
X143454819Y-49976190D02*
X143454819Y-50166666D01*
X143454819Y-50166666D02*
X143407200Y-50261904D01*
X143407200Y-50261904D02*
X143311961Y-50309523D01*
X143311961Y-50309523D02*
X142931009Y-50309523D01*
X142931009Y-50309523D02*
X142835771Y-50261904D01*
X142835771Y-50261904D02*
X142788152Y-50166666D01*
X142788152Y-50166666D02*
X142788152Y-49976190D01*
X142788152Y-49976190D02*
X142835771Y-49880952D01*
X142835771Y-49880952D02*
X142931009Y-49833333D01*
X142931009Y-49833333D02*
X143026247Y-49833333D01*
X143026247Y-49833333D02*
X143121485Y-50309523D01*
X142788152Y-48976190D02*
X143597676Y-48976190D01*
X143597676Y-48976190D02*
X143692914Y-49023809D01*
X143692914Y-49023809D02*
X143740533Y-49071428D01*
X143740533Y-49071428D02*
X143788152Y-49166666D01*
X143788152Y-49166666D02*
X143788152Y-49309523D01*
X143788152Y-49309523D02*
X143740533Y-49404761D01*
X143407200Y-48976190D02*
X143454819Y-49071428D01*
X143454819Y-49071428D02*
X143454819Y-49261904D01*
X143454819Y-49261904D02*
X143407200Y-49357142D01*
X143407200Y-49357142D02*
X143359580Y-49404761D01*
X143359580Y-49404761D02*
X143264342Y-49452380D01*
X143264342Y-49452380D02*
X142978628Y-49452380D01*
X142978628Y-49452380D02*
X142883390Y-49404761D01*
X142883390Y-49404761D02*
X142835771Y-49357142D01*
X142835771Y-49357142D02*
X142788152Y-49261904D01*
X142788152Y-49261904D02*
X142788152Y-49071428D01*
X142788152Y-49071428D02*
X142835771Y-48976190D01*
X143454819Y-48357142D02*
X143407200Y-48452380D01*
X143407200Y-48452380D02*
X143311961Y-48499999D01*
X143311961Y-48499999D02*
X142454819Y-48499999D01*
X143407200Y-47595237D02*
X143454819Y-47690475D01*
X143454819Y-47690475D02*
X143454819Y-47880951D01*
X143454819Y-47880951D02*
X143407200Y-47976189D01*
X143407200Y-47976189D02*
X143311961Y-48023808D01*
X143311961Y-48023808D02*
X142931009Y-48023808D01*
X142931009Y-48023808D02*
X142835771Y-47976189D01*
X142835771Y-47976189D02*
X142788152Y-47880951D01*
X142788152Y-47880951D02*
X142788152Y-47690475D01*
X142788152Y-47690475D02*
X142835771Y-47595237D01*
X142835771Y-47595237D02*
X142931009Y-47547618D01*
X142931009Y-47547618D02*
X143026247Y-47547618D01*
X143026247Y-47547618D02*
X143121485Y-48023808D01*
X143454819Y-47119046D02*
X142788152Y-47119046D01*
X142978628Y-47119046D02*
X142883390Y-47071427D01*
X142883390Y-47071427D02*
X142835771Y-47023808D01*
X142835771Y-47023808D02*
X142788152Y-46928570D01*
X142788152Y-46928570D02*
X142788152Y-46833332D01*
X143454819Y-45976189D02*
X143454819Y-46547617D01*
X143454819Y-46261903D02*
X142454819Y-46261903D01*
X142454819Y-46261903D02*
X142597676Y-46357141D01*
X142597676Y-46357141D02*
X142692914Y-46452379D01*
X142692914Y-46452379D02*
X142740533Y-46547617D01*
X157050057Y-68782738D02*
X157002438Y-68877976D01*
X157002438Y-68877976D02*
X156907200Y-68973214D01*
X156907200Y-68973214D02*
X156764342Y-69116071D01*
X156764342Y-69116071D02*
X156716723Y-69211309D01*
X156716723Y-69211309D02*
X156716723Y-69306547D01*
X156954819Y-69258928D02*
X156907200Y-69354166D01*
X156907200Y-69354166D02*
X156811961Y-69449404D01*
X156811961Y-69449404D02*
X156621485Y-69497023D01*
X156621485Y-69497023D02*
X156288152Y-69497023D01*
X156288152Y-69497023D02*
X156097676Y-69449404D01*
X156097676Y-69449404D02*
X156002438Y-69354166D01*
X156002438Y-69354166D02*
X155954819Y-69258928D01*
X155954819Y-69258928D02*
X155954819Y-69068452D01*
X155954819Y-69068452D02*
X156002438Y-68973214D01*
X156002438Y-68973214D02*
X156097676Y-68877976D01*
X156097676Y-68877976D02*
X156288152Y-68830357D01*
X156288152Y-68830357D02*
X156621485Y-68830357D01*
X156621485Y-68830357D02*
X156811961Y-68877976D01*
X156811961Y-68877976D02*
X156907200Y-68973214D01*
X156907200Y-68973214D02*
X156954819Y-69068452D01*
X156954819Y-69068452D02*
X156954819Y-69258928D01*
X156954819Y-67877976D02*
X156954819Y-68449404D01*
X156954819Y-68163690D02*
X155954819Y-68163690D01*
X155954819Y-68163690D02*
X156097676Y-68258928D01*
X156097676Y-68258928D02*
X156192914Y-68354166D01*
X156192914Y-68354166D02*
X156240533Y-68449404D01*
X131954819Y-40083333D02*
X132669104Y-40083333D01*
X132669104Y-40083333D02*
X132811961Y-40130952D01*
X132811961Y-40130952D02*
X132907200Y-40226190D01*
X132907200Y-40226190D02*
X132954819Y-40369047D01*
X132954819Y-40369047D02*
X132954819Y-40464285D01*
X132954819Y-39083333D02*
X132954819Y-39654761D01*
X132954819Y-39369047D02*
X131954819Y-39369047D01*
X131954819Y-39369047D02*
X132097676Y-39464285D01*
X132097676Y-39464285D02*
X132192914Y-39559523D01*
X132192914Y-39559523D02*
X132240533Y-39654761D01*
X145534819Y-40083333D02*
X146249104Y-40083333D01*
X146249104Y-40083333D02*
X146391961Y-40130952D01*
X146391961Y-40130952D02*
X146487200Y-40226190D01*
X146487200Y-40226190D02*
X146534819Y-40369047D01*
X146534819Y-40369047D02*
X146534819Y-40464285D01*
X145534819Y-39702380D02*
X145534819Y-39083333D01*
X145534819Y-39083333D02*
X145915771Y-39416666D01*
X145915771Y-39416666D02*
X145915771Y-39273809D01*
X145915771Y-39273809D02*
X145963390Y-39178571D01*
X145963390Y-39178571D02*
X146011009Y-39130952D01*
X146011009Y-39130952D02*
X146106247Y-39083333D01*
X146106247Y-39083333D02*
X146344342Y-39083333D01*
X146344342Y-39083333D02*
X146439580Y-39130952D01*
X146439580Y-39130952D02*
X146487200Y-39178571D01*
X146487200Y-39178571D02*
X146534819Y-39273809D01*
X146534819Y-39273809D02*
X146534819Y-39559523D01*
X146534819Y-39559523D02*
X146487200Y-39654761D01*
X146487200Y-39654761D02*
X146439580Y-39702380D01*
X155109580Y-65261905D02*
X155157200Y-65309524D01*
X155157200Y-65309524D02*
X155204819Y-65452381D01*
X155204819Y-65452381D02*
X155204819Y-65547619D01*
X155204819Y-65547619D02*
X155157200Y-65690476D01*
X155157200Y-65690476D02*
X155061961Y-65785714D01*
X155061961Y-65785714D02*
X154966723Y-65833333D01*
X154966723Y-65833333D02*
X154776247Y-65880952D01*
X154776247Y-65880952D02*
X154633390Y-65880952D01*
X154633390Y-65880952D02*
X154442914Y-65833333D01*
X154442914Y-65833333D02*
X154347676Y-65785714D01*
X154347676Y-65785714D02*
X154252438Y-65690476D01*
X154252438Y-65690476D02*
X154204819Y-65547619D01*
X154204819Y-65547619D02*
X154204819Y-65452381D01*
X154204819Y-65452381D02*
X154252438Y-65309524D01*
X154252438Y-65309524D02*
X154300057Y-65261905D01*
X155300057Y-65071429D02*
X155300057Y-64309524D01*
X154204819Y-64071428D02*
X155014342Y-64071428D01*
X155014342Y-64071428D02*
X155109580Y-64023809D01*
X155109580Y-64023809D02*
X155157200Y-63976190D01*
X155157200Y-63976190D02*
X155204819Y-63880952D01*
X155204819Y-63880952D02*
X155204819Y-63690476D01*
X155204819Y-63690476D02*
X155157200Y-63595238D01*
X155157200Y-63595238D02*
X155109580Y-63547619D01*
X155109580Y-63547619D02*
X155014342Y-63500000D01*
X155014342Y-63500000D02*
X154204819Y-63500000D01*
X155157200Y-63071428D02*
X155204819Y-62928571D01*
X155204819Y-62928571D02*
X155204819Y-62690476D01*
X155204819Y-62690476D02*
X155157200Y-62595238D01*
X155157200Y-62595238D02*
X155109580Y-62547619D01*
X155109580Y-62547619D02*
X155014342Y-62500000D01*
X155014342Y-62500000D02*
X154919104Y-62500000D01*
X154919104Y-62500000D02*
X154823866Y-62547619D01*
X154823866Y-62547619D02*
X154776247Y-62595238D01*
X154776247Y-62595238D02*
X154728628Y-62690476D01*
X154728628Y-62690476D02*
X154681009Y-62880952D01*
X154681009Y-62880952D02*
X154633390Y-62976190D01*
X154633390Y-62976190D02*
X154585771Y-63023809D01*
X154585771Y-63023809D02*
X154490533Y-63071428D01*
X154490533Y-63071428D02*
X154395295Y-63071428D01*
X154395295Y-63071428D02*
X154300057Y-63023809D01*
X154300057Y-63023809D02*
X154252438Y-62976190D01*
X154252438Y-62976190D02*
X154204819Y-62880952D01*
X154204819Y-62880952D02*
X154204819Y-62642857D01*
X154204819Y-62642857D02*
X154252438Y-62500000D01*
X154681009Y-61738095D02*
X154728628Y-61595238D01*
X154728628Y-61595238D02*
X154776247Y-61547619D01*
X154776247Y-61547619D02*
X154871485Y-61500000D01*
X154871485Y-61500000D02*
X155014342Y-61500000D01*
X155014342Y-61500000D02*
X155109580Y-61547619D01*
X155109580Y-61547619D02*
X155157200Y-61595238D01*
X155157200Y-61595238D02*
X155204819Y-61690476D01*
X155204819Y-61690476D02*
X155204819Y-62071428D01*
X155204819Y-62071428D02*
X154204819Y-62071428D01*
X154204819Y-62071428D02*
X154204819Y-61738095D01*
X154204819Y-61738095D02*
X154252438Y-61642857D01*
X154252438Y-61642857D02*
X154300057Y-61595238D01*
X154300057Y-61595238D02*
X154395295Y-61547619D01*
X154395295Y-61547619D02*
X154490533Y-61547619D01*
X154490533Y-61547619D02*
X154585771Y-61595238D01*
X154585771Y-61595238D02*
X154633390Y-61642857D01*
X154633390Y-61642857D02*
X154681009Y-61738095D01*
X154681009Y-61738095D02*
X154681009Y-62071428D01*
X155300057Y-61309524D02*
X155300057Y-60547619D01*
X154204819Y-60309523D02*
X155014342Y-60309523D01*
X155014342Y-60309523D02*
X155109580Y-60261904D01*
X155109580Y-60261904D02*
X155157200Y-60214285D01*
X155157200Y-60214285D02*
X155204819Y-60119047D01*
X155204819Y-60119047D02*
X155204819Y-59928571D01*
X155204819Y-59928571D02*
X155157200Y-59833333D01*
X155157200Y-59833333D02*
X155109580Y-59785714D01*
X155109580Y-59785714D02*
X155014342Y-59738095D01*
X155014342Y-59738095D02*
X154204819Y-59738095D01*
X154919104Y-59309523D02*
X154919104Y-58833333D01*
X155204819Y-59404761D02*
X154204819Y-59071428D01*
X154204819Y-59071428D02*
X155204819Y-58738095D01*
X155204819Y-57833333D02*
X154728628Y-58166666D01*
X155204819Y-58404761D02*
X154204819Y-58404761D01*
X154204819Y-58404761D02*
X154204819Y-58023809D01*
X154204819Y-58023809D02*
X154252438Y-57928571D01*
X154252438Y-57928571D02*
X154300057Y-57880952D01*
X154300057Y-57880952D02*
X154395295Y-57833333D01*
X154395295Y-57833333D02*
X154538152Y-57833333D01*
X154538152Y-57833333D02*
X154633390Y-57880952D01*
X154633390Y-57880952D02*
X154681009Y-57928571D01*
X154681009Y-57928571D02*
X154728628Y-58023809D01*
X154728628Y-58023809D02*
X154728628Y-58404761D01*
X154204819Y-57547618D02*
X154204819Y-56976190D01*
X155204819Y-57261904D02*
X154204819Y-57261904D01*
X155204819Y-56119047D02*
X155204819Y-56690475D01*
X155204819Y-56404761D02*
X154204819Y-56404761D01*
X154204819Y-56404761D02*
X154347676Y-56499999D01*
X154347676Y-56499999D02*
X154442914Y-56595237D01*
X154442914Y-56595237D02*
X154490533Y-56690475D01*
X146559580Y-48952381D02*
X146607200Y-49000000D01*
X146607200Y-49000000D02*
X146654819Y-49142857D01*
X146654819Y-49142857D02*
X146654819Y-49238095D01*
X146654819Y-49238095D02*
X146607200Y-49380952D01*
X146607200Y-49380952D02*
X146511961Y-49476190D01*
X146511961Y-49476190D02*
X146416723Y-49523809D01*
X146416723Y-49523809D02*
X146226247Y-49571428D01*
X146226247Y-49571428D02*
X146083390Y-49571428D01*
X146083390Y-49571428D02*
X145892914Y-49523809D01*
X145892914Y-49523809D02*
X145797676Y-49476190D01*
X145797676Y-49476190D02*
X145702438Y-49380952D01*
X145702438Y-49380952D02*
X145654819Y-49238095D01*
X145654819Y-49238095D02*
X145654819Y-49142857D01*
X145654819Y-49142857D02*
X145702438Y-49000000D01*
X145702438Y-49000000D02*
X145750057Y-48952381D01*
X146750057Y-48761905D02*
X146750057Y-48000000D01*
X145654819Y-47285714D02*
X145654819Y-47761904D01*
X145654819Y-47761904D02*
X146131009Y-47809523D01*
X146131009Y-47809523D02*
X146083390Y-47761904D01*
X146083390Y-47761904D02*
X146035771Y-47666666D01*
X146035771Y-47666666D02*
X146035771Y-47428571D01*
X146035771Y-47428571D02*
X146083390Y-47333333D01*
X146083390Y-47333333D02*
X146131009Y-47285714D01*
X146131009Y-47285714D02*
X146226247Y-47238095D01*
X146226247Y-47238095D02*
X146464342Y-47238095D01*
X146464342Y-47238095D02*
X146559580Y-47285714D01*
X146559580Y-47285714D02*
X146607200Y-47333333D01*
X146607200Y-47333333D02*
X146654819Y-47428571D01*
X146654819Y-47428571D02*
X146654819Y-47666666D01*
X146654819Y-47666666D02*
X146607200Y-47761904D01*
X146607200Y-47761904D02*
X146559580Y-47809523D01*
X145654819Y-46952380D02*
X146654819Y-46619047D01*
X146654819Y-46619047D02*
X145654819Y-46285714D01*
X146654819Y-45428571D02*
X146654819Y-45999999D01*
X146654819Y-45714285D02*
X145654819Y-45714285D01*
X145654819Y-45714285D02*
X145797676Y-45809523D01*
X145797676Y-45809523D02*
X145892914Y-45904761D01*
X145892914Y-45904761D02*
X145940533Y-45999999D01*
X138738095Y-48454819D02*
X138738095Y-49264342D01*
X138738095Y-49264342D02*
X138785714Y-49359580D01*
X138785714Y-49359580D02*
X138833333Y-49407200D01*
X138833333Y-49407200D02*
X138928571Y-49454819D01*
X138928571Y-49454819D02*
X139119047Y-49454819D01*
X139119047Y-49454819D02*
X139214285Y-49407200D01*
X139214285Y-49407200D02*
X139261904Y-49359580D01*
X139261904Y-49359580D02*
X139309523Y-49264342D01*
X139309523Y-49264342D02*
X139309523Y-48454819D01*
X140309523Y-49454819D02*
X139738095Y-49454819D01*
X140023809Y-49454819D02*
X140023809Y-48454819D01*
X140023809Y-48454819D02*
X139928571Y-48597676D01*
X139928571Y-48597676D02*
X139833333Y-48692914D01*
X139833333Y-48692914D02*
X139738095Y-48740533D01*
D14*
%TO.C,ESP_EN_R1*%
X124910000Y-50472936D02*
X124910000Y-51927064D01*
X123090000Y-50472936D02*
X123090000Y-51927064D01*
%TO.C,C_3.3V1*%
X128010000Y-45695563D02*
X128010000Y-41240000D01*
X128010000Y-41240000D02*
X126310000Y-41240000D01*
X126945563Y-46760000D02*
X128010000Y-45695563D01*
X126945563Y-46760000D02*
X126310000Y-46760000D01*
X123565000Y-47625000D02*
X123565000Y-47000000D01*
X123554437Y-46760000D02*
X124190000Y-46760000D01*
X123554437Y-46760000D02*
X122490000Y-45695563D01*
X123252500Y-47312500D02*
X123877500Y-47312500D01*
X122490000Y-45695563D02*
X122490000Y-41240000D01*
X122490000Y-41240000D02*
X124190000Y-41240000D01*
%TO.C,C_ESP2*%
X128235000Y-57776248D02*
X128235000Y-58298752D01*
X126765000Y-57776248D02*
X126765000Y-58298752D01*
%TO.C,C_ESP1*%
X120490000Y-62010000D02*
X122190000Y-62010000D01*
X126010000Y-62010000D02*
X124310000Y-62010000D01*
X120490000Y-57554437D02*
X120490000Y-62010000D01*
X126010000Y-57554437D02*
X126010000Y-62010000D01*
X121554437Y-56490000D02*
X120490000Y-57554437D01*
X121554437Y-56490000D02*
X122190000Y-56490000D01*
X124945563Y-56490000D02*
X126010000Y-57554437D01*
X124945563Y-56490000D02*
X124310000Y-56490000D01*
X125247500Y-55937500D02*
X124622500Y-55937500D01*
X124935000Y-55625000D02*
X124935000Y-56250000D01*
%TO.C,USB-C1*%
X147155000Y-36775000D02*
X147155000Y-34045000D01*
X147155000Y-40375000D02*
X147155000Y-39475000D01*
X156225000Y-43455000D02*
X147275000Y-43455000D01*
X156345000Y-34045000D02*
X147155000Y-34045000D01*
X156345000Y-36775000D02*
X156345000Y-34045000D01*
X156345000Y-40375000D02*
X156345000Y-39475000D01*
D10*
%TO.C,D1*%
X151150000Y-46755000D02*
X152350000Y-46755000D01*
X151150000Y-48355000D02*
X152350000Y-48355000D01*
D14*
%TO.C,U2*%
X154250000Y-55190000D02*
X152300000Y-55190000D01*
X154250000Y-55190000D02*
X156200000Y-55190000D01*
X154250000Y-65310000D02*
X152300000Y-65310000D01*
X154250000Y-65310000D02*
X156200000Y-65310000D01*
X151550000Y-55245000D02*
X151310000Y-54915000D01*
X151790000Y-54915000D01*
X151550000Y-55245000D01*
G36*
X151550000Y-55245000D02*
G01*
X151310000Y-54915000D01*
X151790000Y-54915000D01*
X151550000Y-55245000D01*
G37*
%TO.C,Q2*%
X152490000Y-72937500D02*
X152490000Y-72287500D01*
X152490000Y-72937500D02*
X152490000Y-73587500D01*
X155610000Y-72937500D02*
X155610000Y-72287500D01*
X155610000Y-72937500D02*
X155610000Y-73587500D01*
X155890000Y-72015000D02*
X155560000Y-71775000D01*
X155890000Y-71535000D01*
X155890000Y-72015000D01*
G36*
X155890000Y-72015000D02*
G01*
X155560000Y-71775000D01*
X155890000Y-71535000D01*
X155890000Y-72015000D01*
G37*
%TO.C,Spannungsregler1*%
X130590000Y-45400000D02*
X130590000Y-49160000D01*
X130590000Y-49160000D02*
X131850000Y-49160000D01*
X137410000Y-45400000D02*
X137410000Y-49160000D01*
X137410000Y-49160000D02*
X136150000Y-49160000D01*
X137640000Y-44360000D02*
X137310000Y-44120000D01*
X137640000Y-43880000D01*
X137640000Y-44360000D01*
G36*
X137640000Y-44360000D02*
G01*
X137310000Y-44120000D01*
X137640000Y-43880000D01*
X137640000Y-44360000D01*
G37*
%TO.C,Q1*%
X152440000Y-68437500D02*
X152440000Y-67787500D01*
X152440000Y-68437500D02*
X152440000Y-69087500D01*
X155560000Y-68437500D02*
X155560000Y-67787500D01*
X155560000Y-68437500D02*
X155560000Y-69087500D01*
X152490000Y-69600000D02*
X152160000Y-69840000D01*
X152160000Y-69360000D01*
X152490000Y-69600000D01*
G36*
X152490000Y-69600000D02*
G01*
X152160000Y-69840000D01*
X152160000Y-69360000D01*
X152490000Y-69600000D01*
G37*
%TO.C,J1*%
X129905000Y-38420000D02*
X129905000Y-41080000D01*
X132505000Y-38420000D02*
X129905000Y-38420000D01*
X132505000Y-38420000D02*
X132505000Y-41080000D01*
X132505000Y-41080000D02*
X129905000Y-41080000D01*
X133775000Y-38420000D02*
X135105000Y-38420000D01*
X135105000Y-38420000D02*
X135105000Y-39750000D01*
%TO.C,J3*%
X137340000Y-38420000D02*
X137340000Y-41080000D01*
X142480000Y-38420000D02*
X137340000Y-38420000D01*
X142480000Y-38420000D02*
X142480000Y-41080000D01*
X142480000Y-41080000D02*
X137340000Y-41080000D01*
X143750000Y-38420000D02*
X145080000Y-38420000D01*
X145080000Y-38420000D02*
X145080000Y-39750000D01*
%TO.C,C_USB_UART1*%
X150630000Y-54370000D02*
X150630000Y-52130000D01*
X157870000Y-52130000D02*
X150630000Y-52130000D01*
X157870000Y-54370000D02*
X150630000Y-54370000D01*
X157870000Y-54370000D02*
X157870000Y-52130000D01*
%TO.C,C_5V1*%
X139740000Y-44504437D02*
X139740000Y-48960000D01*
X139740000Y-48960000D02*
X141440000Y-48960000D01*
X140804437Y-43440000D02*
X139740000Y-44504437D01*
X140804437Y-43440000D02*
X141440000Y-43440000D01*
X144185000Y-42575000D02*
X144185000Y-43200000D01*
X144195563Y-43440000D02*
X143560000Y-43440000D01*
X144195563Y-43440000D02*
X145260000Y-44504437D01*
X144497500Y-42887500D02*
X143872500Y-42887500D01*
X145260000Y-44504437D02*
X145260000Y-48960000D01*
X145260000Y-48960000D02*
X143560000Y-48960000D01*
%TO.C,U1*%
X130140000Y-71560000D02*
X130140000Y-72460000D01*
X130140000Y-72460000D02*
X132825000Y-72460000D01*
X130450000Y-53040000D02*
X148360000Y-53040000D01*
X145675000Y-72460000D02*
X148360000Y-72460000D01*
X148360000Y-53040000D02*
X148360000Y-53630000D01*
X148360000Y-71560000D02*
X148360000Y-72460000D01*
X130140000Y-53600000D02*
X129640000Y-53600000D01*
X130140000Y-53100000D01*
X130140000Y-53600000D01*
G36*
X130140000Y-53600000D02*
G01*
X129640000Y-53600000D01*
X130140000Y-53100000D01*
X130140000Y-53600000D01*
G37*
%TD*%
M02*
