M48
; DRILL file {KiCad 8.99.0-unknown-e6b739776e~181~ubuntu24.04.1} date 2024-12-31T17:56:23+0100
; FORMAT={-:-/ absolute / metric / decimal}
; #@! TF.CreationDate,2024-12-31T17:56:23+01:00
; #@! TF.GenerationSoftware,Kicad,Pcbnew,8.99.0-unknown-e6b739776e~181~ubuntu24.04.1
; #@! TF.FileFunction,Plated,1,2,PTH
FMAT,2
METRIC
; #@! TA.AperFunction,Plated,PTH,ComponentDrill
T1C0.200
; #@! TA.AperFunction,Plated,PTH,ViaDrill
T2C0.300
; #@! TA.AperFunction,Plated,PTH,ComponentDrill
T3C0.400
; #@! TA.AperFunction,Plated,PTH,ComponentDrill
T4C0.600
; #@! TA.AperFunction,Plated,PTH,ComponentDrill
T5C0.800
; #@! TA.AperFunction,Plated,PTH,ComponentDrill
T6C1.000
%
G90
G05
T1
X136.35Y-60.98
X136.35Y-62.38
X137.05Y-60.28
X137.05Y-61.68
X137.05Y-63.08
X137.75Y-60.98
X137.75Y-62.38
X138.45Y-60.28
X138.45Y-61.68
X138.45Y-63.08
X139.15Y-60.98
X139.15Y-62.38
T2
X124.993Y-75.257
X126.25Y-52.75
X126.5Y-75.25
X127.5Y-68.31
X127.5Y-75.25
X127.75Y-47.25
X128.0Y-62.0
X128.75Y-65.77
X128.795Y-67.545
X132.25Y-57.0
X133.0Y-59.42
X133.625Y-56.375
X133.75Y-60.69
X134.061Y-45.5
X134.5Y-62.0
X135.127Y-63.23
X136.5Y-64.5
X137.75Y-69.5
X139.0Y-70.5
X140.375Y-64.625
X141.25Y-63.23
X142.25Y-60.75
X143.25Y-59.5
X144.0Y-58.25
X145.0Y-57.0
X145.25Y-48.25
X146.0Y-55.61
X149.657Y-57.075
X149.657Y-59.42
X150.0Y-67.04
X150.75Y-68.31
X151.5Y-69.5
X152.5Y-51.5
X153.75Y-60.75
X153.75Y-62.25
X154.0Y-66.033
X154.217Y-46.25
T3
X148.775Y-41.425
X148.775Y-42.775
X149.625Y-41.425
X149.625Y-42.775
X150.475Y-41.425
X150.475Y-42.775
X151.325Y-41.425
X151.325Y-42.775
X152.175Y-41.425
X152.175Y-42.775
X153.025Y-41.425
X153.025Y-42.775
X153.875Y-41.425
X153.875Y-42.775
X154.725Y-41.425
X154.725Y-42.775
T5
X151.75Y-53.25
X156.75Y-53.25
T6
X131.0Y-77.5
X131.0Y-80.04
X131.0Y-82.58
X131.0Y-85.12
X131.0Y-87.66
X131.0Y-90.2
X131.0Y-92.74
X131.0Y-95.28
X131.0Y-97.82
X131.0Y-100.36
X131.0Y-102.9
X131.0Y-105.44
X131.0Y-107.98
X131.0Y-110.52
X131.0Y-113.06
X131.235Y-39.75
X133.775Y-39.75
X138.67Y-39.75
X141.21Y-39.75
X143.75Y-39.75
X148.0Y-77.5
X148.0Y-80.04
X148.0Y-82.58
X148.0Y-85.12
X148.0Y-87.66
X148.0Y-90.2
X148.0Y-92.74
X148.0Y-95.28
X148.0Y-97.82
X148.0Y-100.36
X148.0Y-102.9
X148.0Y-105.44
X148.0Y-107.98
X148.0Y-110.52
X148.0Y-113.06
T4
X147.425Y-38.815G85X147.425Y-38.015
G05
X147.425Y-42.545G85X147.425Y-41.045
G05
X156.075Y-38.815G85X156.075Y-38.015
G05
X156.075Y-42.545G85X156.075Y-41.045
G05
M30
