M48
; DRILL file {KiCad 8.99.0-unknown-e6b739776e~181~ubuntu24.04.1} date 2024-12-31T00:06:48+0100
; FORMAT={-:-/ absolute / metric / decimal}
; #@! TF.CreationDate,2024-12-31T00:06:48+01:00
; #@! TF.GenerationSoftware,Kicad,Pcbnew,8.99.0-unknown-e6b739776e~181~ubuntu24.04.1
; #@! TF.FileFunction,Plated,1,2,PTH
FMAT,2
METRIC
; #@! TA.AperFunction,Plated,PTH,ComponentDrill
T1C0.200
; #@! TA.AperFunction,Plated,PTH,ViaDrill
T2C0.300
; #@! TA.AperFunction,Plated,PTH,ComponentDrill
T3C0.400
; #@! TA.AperFunction,Plated,PTH,ComponentDrill
T4C0.600
; #@! TA.AperFunction,Plated,PTH,ComponentDrill
T5C0.800
; #@! TA.AperFunction,Plated,PTH,ComponentDrill
T6C1.000
%
G90
G05
T1
X136.35Y-60.98
X136.35Y-62.38
X137.05Y-60.28
X137.05Y-61.68
X137.05Y-63.08
X137.75Y-60.98
X137.75Y-62.38
X138.45Y-60.28
X138.45Y-61.68
X138.45Y-63.08
X139.15Y-60.98
X139.15Y-62.38
T2
X124.993Y-75.257
X126.375Y-52.125
X126.5Y-75.25
X127.5Y-68.5
X127.5Y-75.25
X128.0Y-62.0
X128.5Y-67.25
X128.75Y-65.77
X132.25Y-57.0
X132.5Y-59.5
X133.25Y-60.75
X134.0Y-46.0
X134.0Y-56.75
X134.0Y-62.0
X135.0Y-63.5
X136.0Y-65.0
X138.0Y-69.25
X139.0Y-70.5
X141.5Y-64.5
X142.25Y-63.25
X143.25Y-60.75
X144.0Y-59.5
X144.75Y-58.25
X145.5Y-57.0
X146.5Y-55.75
X146.75Y-48.25
X149.75Y-57.0
X149.75Y-59.5
X149.75Y-100.25
X149.75Y-105.44
X150.0Y-67.25
X150.25Y-102.75
X150.627Y-68.31
X151.127Y-69.58
X152.5Y-51.5
X153.75Y-60.75
X153.75Y-62.25
X154.217Y-46.25
X154.75Y-66.0
T3
X148.775Y-41.425
X148.775Y-42.775
X149.625Y-41.425
X149.625Y-42.775
X150.475Y-41.425
X150.475Y-42.775
X151.325Y-41.425
X151.325Y-42.775
X152.175Y-41.425
X152.175Y-42.775
X153.025Y-41.425
X153.025Y-42.775
X153.875Y-41.425
X153.875Y-42.775
X154.725Y-41.425
X154.725Y-42.775
T5
X151.75Y-53.25
X156.75Y-53.25
T6
X131.0Y-77.5
X131.0Y-80.04
X131.0Y-82.58
X131.0Y-85.12
X131.0Y-87.66
X131.0Y-90.2
X131.0Y-92.74
X131.0Y-95.28
X131.0Y-97.82
X131.0Y-100.36
X131.0Y-102.9
X131.0Y-105.44
X131.0Y-107.98
X131.0Y-110.52
X131.0Y-113.06
X131.235Y-39.75
X133.775Y-39.75
X138.67Y-39.75
X141.21Y-39.75
X143.75Y-39.75
X148.0Y-77.5
X148.0Y-80.04
X148.0Y-82.58
X148.0Y-85.12
X148.0Y-87.66
X148.0Y-90.2
X148.0Y-92.74
X148.0Y-95.28
X148.0Y-97.82
X148.0Y-100.36
X148.0Y-102.9
X148.0Y-105.44
X148.0Y-107.98
X148.0Y-110.52
X148.0Y-113.06
T4
X147.425Y-38.815G85X147.425Y-38.015
G05
X147.425Y-42.545G85X147.425Y-41.045
G05
X156.075Y-38.815G85X156.075Y-38.015
G05
X156.075Y-42.545G85X156.075Y-41.045
G05
M30
