G04 #@! TF.GenerationSoftware,KiCad,Pcbnew,8.99.0-unknown-e6b739776e~181~ubuntu24.04.1*
G04 #@! TF.CreationDate,2024-12-31T15:22:32+01:00*
G04 #@! TF.ProjectId,Spinne_Werkstatt,5370696e-6e65-45f5-9765-726b73746174,rev?*
G04 #@! TF.SameCoordinates,Original*
G04 #@! TF.FileFunction,Copper,L2,Bot*
G04 #@! TF.FilePolarity,Positive*
%FSLAX46Y46*%
G04 Gerber Fmt 4.6, Leading zero omitted, Abs format (unit mm)*
G04 Created by KiCad (PCBNEW 8.99.0-unknown-e6b739776e~181~ubuntu24.04.1) date 2024-12-31 15:22:32*
%MOMM*%
%LPD*%
G01*
G04 APERTURE LIST*
G04 #@! TA.AperFunction,ComponentPad*
%ADD10C,0.700000*%
G04 #@! TD*
G04 #@! TA.AperFunction,ComponentPad*
%ADD11O,0.900000X2.400000*%
G04 #@! TD*
G04 #@! TA.AperFunction,ComponentPad*
%ADD12O,0.900000X1.700000*%
G04 #@! TD*
G04 #@! TA.AperFunction,HeatsinkPad*
%ADD13C,0.600000*%
G04 #@! TD*
G04 #@! TA.AperFunction,ComponentPad*
%ADD14R,1.700000X1.700000*%
G04 #@! TD*
G04 #@! TA.AperFunction,ComponentPad*
%ADD15O,1.700000X1.700000*%
G04 #@! TD*
G04 #@! TA.AperFunction,ComponentPad*
%ADD16C,1.600000*%
G04 #@! TD*
G04 #@! TA.AperFunction,ViaPad*
%ADD17C,0.600000*%
G04 #@! TD*
G04 #@! TA.AperFunction,Conductor*
%ADD18C,0.508000*%
G04 #@! TD*
G04 #@! TA.AperFunction,Conductor*
%ADD19C,0.762000*%
G04 #@! TD*
G04 #@! TA.AperFunction,Conductor*
%ADD20C,0.254000*%
G04 #@! TD*
G04 #@! TA.AperFunction,Conductor*
%ADD21C,0.299974*%
G04 #@! TD*
G04 APERTURE END LIST*
D10*
X154725000Y-42775000D03*
X153875000Y-42775000D03*
X153025000Y-42775000D03*
X152175000Y-42775000D03*
X151325000Y-42775000D03*
X150475000Y-42775000D03*
X149625000Y-42775000D03*
X148775000Y-42775000D03*
X148775000Y-41425000D03*
X149625000Y-41425000D03*
X150475000Y-41425000D03*
X151325000Y-41425000D03*
X152175000Y-41425000D03*
X153025000Y-41425000D03*
X153875000Y-41425000D03*
X154725000Y-41425000D03*
D11*
X156075000Y-41795000D03*
D12*
X156075000Y-38415000D03*
D11*
X147425000Y-41795000D03*
D12*
X147425000Y-38415000D03*
D13*
X136350000Y-60980000D03*
X136350000Y-62380000D03*
X137050000Y-60280000D03*
X137050000Y-61680000D03*
X137050000Y-63080000D03*
X137750000Y-60980000D03*
X137750000Y-62380000D03*
X138450000Y-60280000D03*
X138450000Y-61680000D03*
X138450000Y-63080000D03*
X139150000Y-60980000D03*
X139150000Y-62380000D03*
D14*
X133775000Y-39750000D03*
D15*
X131235000Y-39750000D03*
D14*
X143750000Y-39750000D03*
D15*
X141210000Y-39750000D03*
X138670000Y-39750000D03*
D16*
X156750000Y-53250000D03*
X151750000Y-53250000D03*
D14*
X148000000Y-77500000D03*
D15*
X148000000Y-80040000D03*
X148000000Y-82580000D03*
X148000000Y-85120000D03*
X148000000Y-87660000D03*
X148000000Y-90200000D03*
X148000000Y-92740000D03*
X148000000Y-95280000D03*
X148000000Y-97820000D03*
X148000000Y-100360000D03*
X148000000Y-102900000D03*
X148000000Y-105440000D03*
X148000000Y-107980000D03*
X148000000Y-110520000D03*
X148000000Y-113060000D03*
D14*
X131000000Y-77500000D03*
D15*
X131000000Y-80040000D03*
X131000000Y-82580000D03*
X131000000Y-85120000D03*
X131000000Y-87660000D03*
X131000000Y-90200000D03*
X131000000Y-92740000D03*
X131000000Y-95280000D03*
X131000000Y-97820000D03*
X131000000Y-100360000D03*
X131000000Y-102900000D03*
X131000000Y-105440000D03*
X131000000Y-107980000D03*
X131000000Y-110520000D03*
X131000000Y-113060000D03*
D17*
X126500000Y-45500000D03*
X128000000Y-62000000D03*
X154750000Y-66000000D03*
X126500000Y-75250000D03*
X126250000Y-52750000D03*
X152500000Y-51500000D03*
X134061200Y-45500000D03*
X133625000Y-56375000D03*
X127500000Y-75250000D03*
X144500000Y-49000000D03*
X132250000Y-57000000D03*
X124993144Y-75256856D03*
X128750000Y-65770000D03*
X134000000Y-62000000D03*
X132500000Y-59500000D03*
X133250000Y-60750000D03*
X138000000Y-69250000D03*
X135000000Y-63500000D03*
X136000000Y-65000000D03*
X127500000Y-68500000D03*
X139000000Y-70500000D03*
X128500000Y-67250000D03*
X144750000Y-58250000D03*
X150627000Y-68310000D03*
X150250000Y-102750000D03*
X141500000Y-64500000D03*
X150000000Y-67250000D03*
X149750000Y-100250000D03*
X142250000Y-63250000D03*
X146500000Y-55750000D03*
X143250000Y-60750000D03*
X145500000Y-57000000D03*
X151127000Y-69580000D03*
X149750000Y-105440000D03*
X144000000Y-59500000D03*
X149656800Y-59420000D03*
X149656800Y-57075000D03*
X154216841Y-46250000D03*
X153750000Y-60750000D03*
X153750000Y-62250000D03*
D18*
X134061200Y-45500000D02*
X126500000Y-45500000D01*
X134061200Y-45500000D02*
X135561200Y-44000000D01*
X135561200Y-44000000D02*
X147000000Y-44000000D01*
X147000000Y-44000000D02*
X152500000Y-49500000D01*
X152500000Y-49500000D02*
X152500000Y-51500000D01*
X149625000Y-50375000D02*
X149625000Y-54375000D01*
X126250000Y-52750000D02*
X129750000Y-52750000D01*
X135750000Y-46750000D02*
X146000000Y-46750000D01*
X152000000Y-63250000D02*
X154750000Y-66000000D01*
X129750000Y-52750000D02*
X135750000Y-46750000D01*
X146000000Y-46750000D02*
X149625000Y-50375000D01*
X149625000Y-54375000D02*
X152000000Y-56750000D01*
X152000000Y-56750000D02*
X152000000Y-63250000D01*
D19*
X144500000Y-49000000D02*
X148000000Y-52500000D01*
X148000000Y-52500000D02*
X148000000Y-77500000D01*
D18*
X149656800Y-59420000D02*
X149656800Y-57075000D01*
D20*
X126500000Y-73000000D02*
X127500000Y-74000000D01*
X133625000Y-56375000D02*
X133625000Y-57125000D01*
X133625000Y-57125000D02*
X130250000Y-60500000D01*
X130250000Y-60500000D02*
X130250000Y-62000000D01*
X130250000Y-62000000D02*
X126500000Y-65750000D01*
X126500000Y-65750000D02*
X126500000Y-73000000D01*
X127500000Y-74000000D02*
X127500000Y-75250000D01*
X126500000Y-75250000D02*
X125000000Y-73750000D01*
X125000000Y-73750000D02*
X125000000Y-65000000D01*
X125000000Y-65000000D02*
X128000000Y-62000000D01*
X123250000Y-73500000D02*
X123250000Y-61500000D01*
X124993144Y-75243144D02*
X123250000Y-73500000D01*
X131000000Y-58250000D02*
X132250000Y-57000000D01*
X126500000Y-58250000D02*
X131000000Y-58250000D01*
X124993144Y-75256856D02*
X124993144Y-75243144D01*
X123250000Y-61500000D02*
X126500000Y-58250000D01*
X129750000Y-66750000D02*
X129750000Y-72500000D01*
X128750000Y-65770000D02*
X128770000Y-65770000D01*
X128770000Y-65770000D02*
X129750000Y-66750000D01*
X129750000Y-72500000D02*
X129250000Y-73000000D01*
X129250000Y-73000000D02*
X129250000Y-99000000D01*
X130610000Y-100360000D02*
X131000000Y-100360000D01*
X129250000Y-99000000D02*
X130610000Y-100360000D01*
X134000000Y-62000000D02*
X134000000Y-91250000D01*
X132510000Y-92740000D02*
X131000000Y-92740000D01*
X134000000Y-91250000D02*
X132510000Y-92740000D01*
X132500000Y-87000000D02*
X132500000Y-59500000D01*
X131840000Y-87660000D02*
X132500000Y-87000000D01*
X131000000Y-87660000D02*
X131840000Y-87660000D01*
X131000000Y-90200000D02*
X132300000Y-90200000D01*
X132300000Y-90200000D02*
X133250000Y-89250000D01*
X133250000Y-89250000D02*
X133250000Y-60750000D01*
X137750000Y-92250000D02*
X137750000Y-103500000D01*
X133270000Y-107980000D02*
X131000000Y-107980000D01*
X137750000Y-103500000D02*
X133270000Y-107980000D01*
X137750000Y-92500000D02*
X137750000Y-92250000D01*
X137750000Y-69500000D02*
X137750000Y-92500000D01*
X138000000Y-69250000D02*
X137750000Y-69500000D01*
X135000000Y-93250000D02*
X132970000Y-95280000D01*
X132970000Y-95280000D02*
X131000000Y-95280000D01*
X135000000Y-63500000D02*
X135000000Y-93250000D01*
X132680000Y-97820000D02*
X131000000Y-97820000D01*
X136000000Y-65000000D02*
X136000000Y-94500000D01*
X136000000Y-94500000D02*
X132680000Y-97820000D01*
X129530000Y-105440000D02*
X128340000Y-104250000D01*
X127500000Y-71660000D02*
X127500000Y-68500000D01*
X131000000Y-105440000D02*
X129530000Y-105440000D01*
X128340000Y-72500000D02*
X127500000Y-71660000D01*
X128340000Y-104250000D02*
X128340000Y-72500000D01*
X130810000Y-105250000D02*
X131000000Y-105440000D01*
X131000000Y-110520000D02*
X133230000Y-110520000D01*
X133230000Y-110520000D02*
X139000000Y-104750000D01*
X139000000Y-104750000D02*
X139000000Y-70500000D01*
X128795000Y-101795000D02*
X128795000Y-72311532D01*
X128795000Y-67545000D02*
X128500000Y-67250000D01*
X131000000Y-102900000D02*
X129900000Y-102900000D01*
X128795000Y-72311532D02*
X128795000Y-67545000D01*
X129900000Y-102900000D02*
X128795000Y-101795000D01*
X128795000Y-72311532D02*
X128795000Y-72311533D01*
X146370000Y-85120000D02*
X144750000Y-83500000D01*
X144750000Y-63925062D02*
X144750000Y-58250000D01*
X144750000Y-83500000D02*
X144750000Y-63925062D01*
X148000000Y-85120000D02*
X146370000Y-85120000D01*
X150500000Y-68437000D02*
X150500000Y-102500000D01*
X150500000Y-102500000D02*
X150250000Y-102750000D01*
X150627000Y-68310000D02*
X150500000Y-68437000D01*
X141500000Y-90250000D02*
X146530000Y-95280000D01*
X141500000Y-64500000D02*
X141500000Y-90250000D01*
X146530000Y-95280000D02*
X148000000Y-95280000D01*
X149750000Y-100250000D02*
X150000000Y-100000000D01*
X150000000Y-100000000D02*
X150000000Y-67250000D01*
X148000000Y-92740000D02*
X145990000Y-92740000D01*
X145990000Y-92740000D02*
X142250000Y-89000000D01*
X142250000Y-89000000D02*
X142250000Y-63250000D01*
X146500000Y-78540000D02*
X148000000Y-80040000D01*
X146500000Y-55750000D02*
X146500000Y-78540000D01*
X143250000Y-87500000D02*
X143250000Y-60750000D01*
X148000000Y-90200000D02*
X145950000Y-90200000D01*
X145950000Y-90200000D02*
X143250000Y-87500000D01*
X146330000Y-82580000D02*
X145500000Y-81750000D01*
X148000000Y-82580000D02*
X146330000Y-82580000D01*
X145500000Y-81750000D02*
X145500000Y-57000000D01*
X149750000Y-105440000D02*
X149810000Y-105440000D01*
X151000000Y-104250000D02*
X151000000Y-69707000D01*
X149810000Y-105440000D02*
X151000000Y-104250000D01*
X151000000Y-69707000D02*
X151127000Y-69580000D01*
X148000000Y-87660000D02*
X145660000Y-87660000D01*
X144000000Y-64250000D02*
X144000000Y-59500000D01*
X144000000Y-86000000D02*
X144000000Y-64250000D01*
X145660000Y-87660000D02*
X144000000Y-86000000D01*
D21*
X152175000Y-42775000D02*
X152175000Y-42425000D01*
X151325000Y-41575000D02*
X151325000Y-41425000D01*
D18*
X154250000Y-46283159D02*
X154250000Y-60250000D01*
D21*
X152175000Y-42425000D02*
X151325000Y-41575000D01*
D18*
X154216841Y-46250000D02*
X154250000Y-46283159D01*
X154250000Y-60250000D02*
X153750000Y-60750000D01*
X152500000Y-44750000D02*
X154750000Y-44750000D01*
X155495000Y-53769839D02*
X155500000Y-53774839D01*
X155500000Y-52725161D02*
X155495000Y-52730161D01*
X155500000Y-53774839D02*
X155500000Y-60500000D01*
X151325000Y-42775000D02*
X151325000Y-43575000D01*
X151325000Y-43575000D02*
X152500000Y-44750000D01*
X154750000Y-44750000D02*
X155500000Y-45500000D01*
X155500000Y-60500000D02*
X153750000Y-62250000D01*
X155500000Y-45500000D02*
X155500000Y-52725161D01*
X155495000Y-52730161D02*
X155495000Y-53769839D01*
M02*
