G04 #@! TF.GenerationSoftware,KiCad,Pcbnew,9.0.0-rc1-eb83b2429a~181~ubuntu24.04.1*
G04 #@! TF.CreationDate,2025-01-01T20:11:52+01:00*
G04 #@! TF.ProjectId,Spinne_Werkstatt,5370696e-6e65-45f5-9765-726b73746174,rev?*
G04 #@! TF.SameCoordinates,Original*
G04 #@! TF.FileFunction,Paste,Top*
G04 #@! TF.FilePolarity,Positive*
%FSLAX46Y46*%
G04 Gerber Fmt 4.6, Leading zero omitted, Abs format (unit mm)*
G04 Created by KiCad (PCBNEW 9.0.0-rc1-eb83b2429a~181~ubuntu24.04.1) date 2025-01-01 20:11:52*
%MOMM*%
%LPD*%
G01*
G04 APERTURE LIST*
G04 Aperture macros list*
%AMRoundRect*
0 Rectangle with rounded corners*
0 $1 Rounding radius*
0 $2 $3 $4 $5 $6 $7 $8 $9 X,Y pos of 4 corners*
0 Add a 4 corners polygon primitive as box body*
4,1,4,$2,$3,$4,$5,$6,$7,$8,$9,$2,$3,0*
0 Add four circle primitives for the rounded corners*
1,1,$1+$1,$2,$3*
1,1,$1+$1,$4,$5*
1,1,$1+$1,$6,$7*
1,1,$1+$1,$8,$9*
0 Add four rect primitives between the rounded corners*
20,1,$1+$1,$2,$3,$4,$5,0*
20,1,$1+$1,$4,$5,$6,$7,0*
20,1,$1+$1,$6,$7,$8,$9,0*
20,1,$1+$1,$8,$9,$2,$3,0*%
G04 Aperture macros list end*
%ADD10RoundRect,0.250000X0.550000X-1.250000X0.550000X1.250000X-0.550000X1.250000X-0.550000X-1.250000X0*%
%ADD11RoundRect,0.250000X-0.475000X0.337500X-0.475000X-0.337500X0.475000X-0.337500X0.475000X0.337500X0*%
%ADD12R,1.500000X0.900000*%
%ADD13R,0.900000X1.500000*%
%ADD14R,0.900000X0.900000*%
%ADD15R,0.990000X0.300000*%
%ADD16RoundRect,0.150000X-0.825000X-0.150000X0.825000X-0.150000X0.825000X0.150000X-0.825000X0.150000X0*%
%ADD17RoundRect,0.150000X-0.150000X0.587500X-0.150000X-0.587500X0.150000X-0.587500X0.150000X0.587500X0*%
%ADD18RoundRect,0.150000X0.150000X-0.587500X0.150000X0.587500X-0.150000X0.587500X-0.150000X-0.587500X0*%
%ADD19RoundRect,0.250000X-0.550000X1.250000X-0.550000X-1.250000X0.550000X-1.250000X0.550000X1.250000X0*%
%ADD20R,0.950000X1.750000*%
%ADD21R,3.200000X1.750000*%
%ADD22RoundRect,0.250000X-0.625000X0.400000X-0.625000X-0.400000X0.625000X-0.400000X0.625000X0.400000X0*%
G04 APERTURE END LIST*
D10*
X126250000Y-47450000D03*
X126250000Y-43050000D03*
D11*
X127500000Y-57000000D03*
X127500000Y-59075000D03*
D12*
X130500000Y-54340000D03*
X130500000Y-55610000D03*
X130500000Y-56880000D03*
X130500000Y-58150000D03*
X130500000Y-59420000D03*
X130500000Y-60690000D03*
X130500000Y-61960000D03*
X130500000Y-63230000D03*
X130500000Y-64500000D03*
X130500000Y-65770000D03*
X130500000Y-67040000D03*
X130500000Y-68310000D03*
X130500000Y-69580000D03*
X130500000Y-70850000D03*
D13*
X133535000Y-72100000D03*
X134805000Y-72100000D03*
X136075000Y-72100000D03*
X137345000Y-72100000D03*
X138615000Y-72100000D03*
X139885000Y-72100000D03*
X141155000Y-72100000D03*
X142425000Y-72100000D03*
X143695000Y-72100000D03*
X144965000Y-72100000D03*
D12*
X148000000Y-70850000D03*
X148000000Y-69580000D03*
X148000000Y-68310000D03*
X148000000Y-67040000D03*
X148000000Y-65770000D03*
X148000000Y-64500000D03*
X148000000Y-63230000D03*
X148000000Y-61960000D03*
X148000000Y-60690000D03*
X148000000Y-59420000D03*
X148000000Y-58150000D03*
X148000000Y-56880000D03*
X148000000Y-55610000D03*
X148000000Y-54340000D03*
D14*
X136350000Y-60280000D03*
X136350000Y-61680000D03*
X136350000Y-63080000D03*
X137750000Y-60280000D03*
X137750000Y-61680000D03*
X137750000Y-63080000D03*
X139150000Y-60280000D03*
X139150000Y-61680000D03*
X139150000Y-63080000D03*
D15*
X152750000Y-47000000D03*
X152750000Y-46500000D03*
X152750000Y-46000000D03*
X151140000Y-46000000D03*
X151140000Y-46500000D03*
X151140000Y-47000000D03*
D16*
X151775000Y-55805000D03*
X151775000Y-57075000D03*
X151775000Y-58345000D03*
X151775000Y-59615000D03*
X151775000Y-60885000D03*
X151775000Y-62155000D03*
X151775000Y-63425000D03*
X151775000Y-64695000D03*
X156725000Y-64695000D03*
X156725000Y-63425000D03*
X156725000Y-62155000D03*
X156725000Y-60885000D03*
X156725000Y-59615000D03*
X156725000Y-58345000D03*
X156725000Y-57075000D03*
X156725000Y-55805000D03*
D17*
X155000000Y-72000000D03*
X153100000Y-72000000D03*
X154050000Y-73875000D03*
D18*
X153050000Y-69375000D03*
X154950000Y-69375000D03*
X154000000Y-67500000D03*
D19*
X123250000Y-57100000D03*
X123250000Y-61500000D03*
D20*
X136300000Y-43700000D03*
X134000000Y-43700000D03*
X131700000Y-43700000D03*
D21*
X134000000Y-50000000D03*
D22*
X126250000Y-51150000D03*
X126250000Y-54250000D03*
D19*
X142500000Y-44000000D03*
X142500000Y-48400000D03*
M02*
