G04 #@! TF.GenerationSoftware,KiCad,Pcbnew,8.99.0-unknown-e6b739776e~181~ubuntu24.04.1*
G04 #@! TF.CreationDate,2024-12-31T15:22:32+01:00*
G04 #@! TF.ProjectId,Spinne_Werkstatt,5370696e-6e65-45f5-9765-726b73746174,rev?*
G04 #@! TF.SameCoordinates,Original*
G04 #@! TF.FileFunction,Copper,L1,Top*
G04 #@! TF.FilePolarity,Positive*
%FSLAX46Y46*%
G04 Gerber Fmt 4.6, Leading zero omitted, Abs format (unit mm)*
G04 Created by KiCad (PCBNEW 8.99.0-unknown-e6b739776e~181~ubuntu24.04.1) date 2024-12-31 15:22:32*
%MOMM*%
%LPD*%
G01*
G04 APERTURE LIST*
G04 Aperture macros list*
%AMRoundRect*
0 Rectangle with rounded corners*
0 $1 Rounding radius*
0 $2 $3 $4 $5 $6 $7 $8 $9 X,Y pos of 4 corners*
0 Add a 4 corners polygon primitive as box body*
4,1,4,$2,$3,$4,$5,$6,$7,$8,$9,$2,$3,0*
0 Add four circle primitives for the rounded corners*
1,1,$1+$1,$2,$3*
1,1,$1+$1,$4,$5*
1,1,$1+$1,$6,$7*
1,1,$1+$1,$8,$9*
0 Add four rect primitives between the rounded corners*
20,1,$1+$1,$2,$3,$4,$5,0*
20,1,$1+$1,$4,$5,$6,$7,0*
20,1,$1+$1,$6,$7,$8,$9,0*
20,1,$1+$1,$8,$9,$2,$3,0*%
G04 Aperture macros list end*
G04 #@! TA.AperFunction,SMDPad,CuDef*
%ADD10RoundRect,0.250000X0.550000X-1.250000X0.550000X1.250000X-0.550000X1.250000X-0.550000X-1.250000X0*%
G04 #@! TD*
G04 #@! TA.AperFunction,SMDPad,CuDef*
%ADD11RoundRect,0.250000X-0.475000X0.337500X-0.475000X-0.337500X0.475000X-0.337500X0.475000X0.337500X0*%
G04 #@! TD*
G04 #@! TA.AperFunction,SMDPad,CuDef*
%ADD12RoundRect,0.250000X-0.550000X1.250000X-0.550000X-1.250000X0.550000X-1.250000X0.550000X1.250000X0*%
G04 #@! TD*
G04 #@! TA.AperFunction,ComponentPad*
%ADD13C,0.700000*%
G04 #@! TD*
G04 #@! TA.AperFunction,ComponentPad*
%ADD14O,0.900000X2.400000*%
G04 #@! TD*
G04 #@! TA.AperFunction,ComponentPad*
%ADD15O,0.900000X1.700000*%
G04 #@! TD*
G04 #@! TA.AperFunction,SMDPad,CuDef*
%ADD16R,1.500000X0.900000*%
G04 #@! TD*
G04 #@! TA.AperFunction,SMDPad,CuDef*
%ADD17R,0.900000X1.500000*%
G04 #@! TD*
G04 #@! TA.AperFunction,SMDPad,CuDef*
%ADD18R,0.900000X0.900000*%
G04 #@! TD*
G04 #@! TA.AperFunction,HeatsinkPad*
%ADD19C,0.600000*%
G04 #@! TD*
G04 #@! TA.AperFunction,SMDPad,CuDef*
%ADD20R,3.800000X3.800000*%
G04 #@! TD*
G04 #@! TA.AperFunction,SMDPad,CuDef*
%ADD21R,0.990000X0.300000*%
G04 #@! TD*
G04 #@! TA.AperFunction,SMDPad,CuDef*
%ADD22RoundRect,0.375000X-0.375000X0.625000X-0.375000X-0.625000X0.375000X-0.625000X0.375000X0.625000X0*%
G04 #@! TD*
G04 #@! TA.AperFunction,SMDPad,CuDef*
%ADD23RoundRect,0.500000X-1.400000X0.500000X-1.400000X-0.500000X1.400000X-0.500000X1.400000X0.500000X0*%
G04 #@! TD*
G04 #@! TA.AperFunction,SMDPad,CuDef*
%ADD24RoundRect,0.150000X-0.825000X-0.150000X0.825000X-0.150000X0.825000X0.150000X-0.825000X0.150000X0*%
G04 #@! TD*
G04 #@! TA.AperFunction,SMDPad,CuDef*
%ADD25RoundRect,0.150000X-0.150000X0.587500X-0.150000X-0.587500X0.150000X-0.587500X0.150000X0.587500X0*%
G04 #@! TD*
G04 #@! TA.AperFunction,SMDPad,CuDef*
%ADD26RoundRect,0.150000X0.150000X-0.587500X0.150000X0.587500X-0.150000X0.587500X-0.150000X-0.587500X0*%
G04 #@! TD*
G04 #@! TA.AperFunction,ComponentPad*
%ADD27R,1.700000X1.700000*%
G04 #@! TD*
G04 #@! TA.AperFunction,ComponentPad*
%ADD28O,1.700000X1.700000*%
G04 #@! TD*
G04 #@! TA.AperFunction,ComponentPad*
%ADD29C,1.600000*%
G04 #@! TD*
G04 #@! TA.AperFunction,SMDPad,CuDef*
%ADD30RoundRect,0.250000X-0.625000X0.400000X-0.625000X-0.400000X0.625000X-0.400000X0.625000X0.400000X0*%
G04 #@! TD*
G04 #@! TA.AperFunction,ViaPad*
%ADD31C,0.600000*%
G04 #@! TD*
G04 #@! TA.AperFunction,Conductor*
%ADD32C,0.762000*%
G04 #@! TD*
G04 #@! TA.AperFunction,Conductor*
%ADD33C,0.508000*%
G04 #@! TD*
G04 #@! TA.AperFunction,Conductor*
%ADD34C,0.254000*%
G04 #@! TD*
G04 #@! TA.AperFunction,Conductor*
%ADD35C,1.700000*%
G04 #@! TD*
G04 #@! TA.AperFunction,Conductor*
%ADD36C,0.299974*%
G04 #@! TD*
G04 APERTURE END LIST*
D10*
X126250000Y-47450000D03*
X126250000Y-43050000D03*
D11*
X127500000Y-57000000D03*
X127500000Y-59075000D03*
D12*
X123250000Y-57050000D03*
X123250000Y-61450000D03*
D13*
X154725000Y-42775000D03*
X153875000Y-42775000D03*
X153025000Y-42775000D03*
X152175000Y-42775000D03*
X151325000Y-42775000D03*
X150475000Y-42775000D03*
X149625000Y-42775000D03*
X148775000Y-42775000D03*
X148775000Y-41425000D03*
X149625000Y-41425000D03*
X150475000Y-41425000D03*
X151325000Y-41425000D03*
X152175000Y-41425000D03*
X153025000Y-41425000D03*
X153875000Y-41425000D03*
X154725000Y-41425000D03*
D14*
X156075000Y-41795000D03*
D15*
X156075000Y-38415000D03*
D14*
X147425000Y-41795000D03*
D15*
X147425000Y-38415000D03*
D16*
X130500000Y-54340000D03*
X130500000Y-55610000D03*
X130500000Y-56880000D03*
X130500000Y-58150000D03*
X130500000Y-59420000D03*
X130500000Y-60690000D03*
X130500000Y-61960000D03*
X130500000Y-63230000D03*
X130500000Y-64500000D03*
X130500000Y-65770000D03*
X130500000Y-67040000D03*
X130500000Y-68310000D03*
X130500000Y-69580000D03*
X130500000Y-70850000D03*
D17*
X133535000Y-72100000D03*
X134805000Y-72100000D03*
X136075000Y-72100000D03*
X137345000Y-72100000D03*
X138615000Y-72100000D03*
X139885000Y-72100000D03*
X141155000Y-72100000D03*
X142425000Y-72100000D03*
X143695000Y-72100000D03*
X144965000Y-72100000D03*
D16*
X148000000Y-70850000D03*
X148000000Y-69580000D03*
X148000000Y-68310000D03*
X148000000Y-67040000D03*
X148000000Y-65770000D03*
X148000000Y-64500000D03*
X148000000Y-63230000D03*
X148000000Y-61960000D03*
X148000000Y-60690000D03*
X148000000Y-59420000D03*
X148000000Y-58150000D03*
X148000000Y-56880000D03*
X148000000Y-55610000D03*
X148000000Y-54340000D03*
D18*
X136350000Y-60280000D03*
D19*
X136350000Y-60980000D03*
D18*
X136350000Y-61680000D03*
D19*
X136350000Y-62380000D03*
D18*
X136350000Y-63080000D03*
D19*
X137050000Y-60280000D03*
X137050000Y-61680000D03*
X137050000Y-63080000D03*
D18*
X137750000Y-60280000D03*
D19*
X137750000Y-60980000D03*
D18*
X137750000Y-61680000D03*
D20*
X137750000Y-61680000D03*
D19*
X137750000Y-62380000D03*
D18*
X137750000Y-63080000D03*
D19*
X138450000Y-60280000D03*
X138450000Y-61680000D03*
X138450000Y-63080000D03*
D18*
X139150000Y-60280000D03*
D19*
X139150000Y-60980000D03*
D18*
X139150000Y-61680000D03*
D19*
X139150000Y-62380000D03*
D18*
X139150000Y-63080000D03*
D21*
X152750000Y-47000000D03*
X152750000Y-46500000D03*
X152750000Y-46000000D03*
X151140000Y-46000000D03*
X151140000Y-46500000D03*
X151140000Y-47000000D03*
D22*
X136350000Y-43775000D03*
X134050000Y-43775000D03*
D23*
X134050000Y-50075000D03*
D22*
X131750000Y-43775000D03*
D24*
X151775000Y-55805000D03*
X151775000Y-57075000D03*
X151775000Y-58345000D03*
X151775000Y-59615000D03*
X151775000Y-60885000D03*
X151775000Y-62155000D03*
X151775000Y-63425000D03*
X151775000Y-64695000D03*
X156725000Y-64695000D03*
X156725000Y-63425000D03*
X156725000Y-62155000D03*
X156725000Y-60885000D03*
X156725000Y-59615000D03*
X156725000Y-58345000D03*
X156725000Y-57075000D03*
X156725000Y-55805000D03*
D25*
X155000000Y-72000000D03*
X153100000Y-72000000D03*
X154050000Y-73875000D03*
D26*
X153050000Y-69375000D03*
X154950000Y-69375000D03*
X154000000Y-67500000D03*
D27*
X133775000Y-39750000D03*
D28*
X131235000Y-39750000D03*
D27*
X143750000Y-39750000D03*
D28*
X141210000Y-39750000D03*
X138670000Y-39750000D03*
D29*
X156750000Y-53250000D03*
X151750000Y-53250000D03*
D30*
X126250000Y-51150000D03*
X126250000Y-54250000D03*
D12*
X142500000Y-44000000D03*
X142500000Y-48400000D03*
D27*
X148000000Y-77500000D03*
D28*
X148000000Y-80040000D03*
X148000000Y-82580000D03*
X148000000Y-85120000D03*
X148000000Y-87660000D03*
X148000000Y-90200000D03*
X148000000Y-92740000D03*
X148000000Y-95280000D03*
X148000000Y-97820000D03*
X148000000Y-100360000D03*
X148000000Y-102900000D03*
X148000000Y-105440000D03*
X148000000Y-107980000D03*
X148000000Y-110520000D03*
X148000000Y-113060000D03*
D27*
X131000000Y-77500000D03*
D28*
X131000000Y-80040000D03*
X131000000Y-82580000D03*
X131000000Y-85120000D03*
X131000000Y-87660000D03*
X131000000Y-90200000D03*
X131000000Y-92740000D03*
X131000000Y-95280000D03*
X131000000Y-97820000D03*
X131000000Y-100360000D03*
X131000000Y-102900000D03*
X131000000Y-105440000D03*
X131000000Y-107980000D03*
X131000000Y-110520000D03*
X131000000Y-113060000D03*
D31*
X126500000Y-45500000D03*
X128000000Y-62000000D03*
X154750000Y-66000000D03*
X126500000Y-75250000D03*
X126250000Y-52750000D03*
X152500000Y-51500000D03*
X134061200Y-45500000D03*
X133625000Y-56375000D03*
X127500000Y-75250000D03*
X144500000Y-49000000D03*
X132250000Y-57000000D03*
X124993144Y-75256856D03*
X128750000Y-65770000D03*
X134000000Y-62000000D03*
X132500000Y-59500000D03*
X133250000Y-60750000D03*
X138000000Y-69250000D03*
X135000000Y-63500000D03*
X136000000Y-65000000D03*
X127500000Y-68500000D03*
X139000000Y-70500000D03*
X128500000Y-67250000D03*
X144750000Y-58250000D03*
X150627000Y-68310000D03*
X150250000Y-102750000D03*
X141500000Y-64500000D03*
X150000000Y-67250000D03*
X149750000Y-100250000D03*
X142250000Y-63250000D03*
X146500000Y-55750000D03*
X143250000Y-60750000D03*
X145500000Y-57000000D03*
X151127000Y-69580000D03*
X149750000Y-105440000D03*
X144000000Y-59500000D03*
X149656800Y-59420000D03*
X149656800Y-57075000D03*
X154216841Y-46250000D03*
X153750000Y-60750000D03*
X153750000Y-62250000D03*
D32*
X126250000Y-45750000D02*
X126250000Y-47450000D01*
X126500000Y-45500000D02*
X126250000Y-45750000D01*
X134050000Y-43775000D02*
X134050000Y-45488800D01*
X134050000Y-45488800D02*
X134061200Y-45500000D01*
X130500000Y-55610000D02*
X132860000Y-55610000D01*
X132860000Y-55610000D02*
X133625000Y-56375000D01*
X126250000Y-51150000D02*
X127400000Y-51150000D01*
X127400000Y-51150000D02*
X128250000Y-52000000D01*
X128250000Y-52000000D02*
X128250000Y-54750000D01*
X128250000Y-54750000D02*
X129110000Y-55610000D01*
X129110000Y-55610000D02*
X130500000Y-55610000D01*
D33*
X126250000Y-54250000D02*
X126250000Y-52750000D01*
D32*
X126250000Y-47450000D02*
X126250000Y-51150000D01*
X144500000Y-49000000D02*
X144500000Y-46000000D01*
X144500000Y-46000000D02*
X142500000Y-44000000D01*
D33*
X123250000Y-55000000D02*
X124000000Y-54250000D01*
X124000000Y-54250000D02*
X126250000Y-54250000D01*
X123250000Y-57050000D02*
X123250000Y-55000000D01*
X149670000Y-59420000D02*
X148000000Y-59420000D01*
X149825000Y-57075000D02*
X151775000Y-57075000D01*
D34*
X128000000Y-62000000D02*
X129000000Y-61000000D01*
D33*
X127620000Y-56880000D02*
X127500000Y-57000000D01*
D34*
X129000000Y-61000000D02*
X129000000Y-57500000D01*
X129000000Y-57380000D02*
X128500000Y-56880000D01*
D33*
X129500000Y-56880000D02*
X129000000Y-56880000D01*
D34*
X129000000Y-57380000D02*
X129500000Y-56880000D01*
D33*
X129000000Y-56880000D02*
X128500000Y-56880000D01*
D34*
X129000000Y-57500000D02*
X129000000Y-57380000D01*
D33*
X128500000Y-56880000D02*
X127620000Y-56880000D01*
X154000000Y-67500000D02*
X154000000Y-66750000D01*
D34*
X129000000Y-57500000D02*
X129000000Y-56880000D01*
X128750000Y-77500000D02*
X128750000Y-81250000D01*
X130080000Y-82580000D02*
X131000000Y-82580000D01*
D33*
X123250000Y-57050000D02*
X123300000Y-57000000D01*
X154000000Y-66750000D02*
X154750000Y-66000000D01*
D34*
X128750000Y-81250000D02*
X130080000Y-82580000D01*
D33*
X130500000Y-56880000D02*
X129500000Y-56880000D01*
D34*
X126500000Y-75250000D02*
X128750000Y-77500000D01*
D33*
X128000000Y-57000000D02*
X123300000Y-57000000D01*
D34*
X150250000Y-47000000D02*
X150000000Y-46750000D01*
D35*
X131000000Y-77500000D02*
X131000000Y-76250000D01*
X131000000Y-76250000D02*
X131000000Y-74250000D01*
D34*
X151140000Y-47000000D02*
X150250000Y-47000000D01*
D35*
X131000000Y-76250000D02*
X133250000Y-74000000D01*
D34*
X151140000Y-47000000D02*
X151140000Y-47360000D01*
D33*
X133535000Y-72100000D02*
X133500000Y-72135000D01*
D35*
X131000000Y-76250000D02*
X128500000Y-73750000D01*
D34*
X151140000Y-47360000D02*
X151000000Y-47500000D01*
D33*
X155445000Y-55805000D02*
X156725000Y-55805000D01*
D32*
X133750000Y-50650000D02*
X134000000Y-50400000D01*
D33*
X152500000Y-51500000D02*
X155000000Y-51500000D01*
D34*
X129500000Y-77250000D02*
X129500000Y-79500000D01*
D33*
X156725000Y-53275000D02*
X156750000Y-53250000D01*
D34*
X130040000Y-80040000D02*
X131000000Y-80040000D01*
D33*
X155000000Y-51500000D02*
X156750000Y-53250000D01*
X151775000Y-59615000D02*
X153135000Y-59615000D01*
D34*
X127500000Y-75250000D02*
X129500000Y-77250000D01*
D33*
X156725000Y-55805000D02*
X156725000Y-53275000D01*
X153135000Y-59615000D02*
X154250000Y-58500000D01*
X154250000Y-58500000D02*
X154250000Y-57000000D01*
D34*
X129500000Y-79500000D02*
X130040000Y-80040000D01*
D32*
X134000000Y-50400000D02*
X133250000Y-49650000D01*
D33*
X154250000Y-57000000D02*
X155445000Y-55805000D01*
D32*
X142500000Y-42000000D02*
X141210000Y-40710000D01*
X132750000Y-41750000D02*
X140170000Y-41750000D01*
X131700000Y-44100000D02*
X131700000Y-42800000D01*
X140170000Y-41750000D02*
X141250000Y-41750000D01*
X142250000Y-41750000D02*
X142500000Y-42000000D01*
X141375000Y-40875000D02*
X141375000Y-41625000D01*
X141210000Y-40710000D02*
X141375000Y-40875000D01*
X141750000Y-41750000D02*
X141250000Y-41750000D01*
X140170000Y-41750000D02*
X141210000Y-40710000D01*
X142500000Y-44000000D02*
X142500000Y-42500000D01*
X142500000Y-42500000D02*
X142500000Y-42000000D01*
X141250000Y-41750000D02*
X142250000Y-41750000D01*
X141375000Y-41625000D02*
X141250000Y-41750000D01*
X142500000Y-42500000D02*
X141750000Y-41750000D01*
X131700000Y-42800000D02*
X132750000Y-41750000D01*
D33*
X153875000Y-41425000D02*
X153875000Y-42775000D01*
X153875000Y-41425000D02*
X153875000Y-41375000D01*
X149625000Y-41425000D02*
X149625000Y-40375000D01*
X153875000Y-41375000D02*
X153920000Y-41330000D01*
X144000000Y-40000000D02*
X143750000Y-39750000D01*
X149625000Y-40375000D02*
X150000000Y-40000000D01*
X153500000Y-40000000D02*
X150000000Y-40000000D01*
D34*
X149797000Y-42947000D02*
X149625000Y-42775000D01*
X150945000Y-45945000D02*
X149797000Y-44797000D01*
D33*
X153920000Y-41330000D02*
X153920000Y-40420000D01*
X153920000Y-40420000D02*
X153500000Y-40000000D01*
D34*
X149500000Y-42900000D02*
X149625000Y-42775000D01*
D33*
X149625000Y-41425000D02*
X149625000Y-42775000D01*
X150000000Y-40000000D02*
X144000000Y-40000000D01*
D34*
X149797000Y-44797000D02*
X149797000Y-42947000D01*
X130500000Y-58150000D02*
X131600000Y-58150000D01*
X128000000Y-82120000D02*
X131000000Y-85120000D01*
X132250000Y-57000000D02*
X132250000Y-57500000D01*
X128000000Y-78263712D02*
X128000000Y-82120000D01*
X131600000Y-58150000D02*
X132250000Y-57500000D01*
X124993144Y-75256856D02*
X128000000Y-78263712D01*
X128750000Y-65770000D02*
X130500000Y-65770000D01*
X130540000Y-62000000D02*
X130500000Y-61960000D01*
X134000000Y-62000000D02*
X130540000Y-62000000D01*
X132420000Y-59420000D02*
X132500000Y-59500000D01*
X130500000Y-59420000D02*
X132420000Y-59420000D01*
X130500000Y-60690000D02*
X133190000Y-60690000D01*
X133190000Y-60690000D02*
X133250000Y-60750000D01*
X130580000Y-69500000D02*
X130500000Y-69580000D01*
X138000000Y-69250000D02*
X137750000Y-69500000D01*
X137750000Y-69500000D02*
X130580000Y-69500000D01*
X135000000Y-63500000D02*
X134730000Y-63230000D01*
X134730000Y-63230000D02*
X130500000Y-63230000D01*
X135500000Y-64500000D02*
X130500000Y-64500000D01*
X136000000Y-65000000D02*
X135500000Y-64500000D01*
X127690000Y-68310000D02*
X130500000Y-68310000D01*
X127500000Y-68500000D02*
X127690000Y-68310000D01*
X130850000Y-70500000D02*
X130500000Y-70850000D01*
X139000000Y-70500000D02*
X130850000Y-70500000D01*
X130350000Y-71000000D02*
X130500000Y-70850000D01*
X131000000Y-113060000D02*
X132940000Y-113060000D01*
X132940000Y-113060000D02*
X134750000Y-111250000D01*
X134750000Y-111250000D02*
X134750000Y-72155000D01*
X134750000Y-72155000D02*
X134805000Y-72100000D01*
X130500000Y-67040000D02*
X128710000Y-67040000D01*
X128710000Y-67040000D02*
X128500000Y-67250000D01*
X146770000Y-65770000D02*
X148000000Y-65770000D01*
X146570000Y-97820000D02*
X146000000Y-97250000D01*
X148000000Y-97820000D02*
X146570000Y-97820000D01*
X146000000Y-97250000D02*
X146000000Y-66500000D01*
X146750000Y-65750000D02*
X146770000Y-65770000D01*
X146000000Y-66500000D02*
X146750000Y-65750000D01*
X143695000Y-108755000D02*
X148000000Y-113060000D01*
X143695000Y-72100000D02*
X143695000Y-108755000D01*
D33*
X148195000Y-58345000D02*
X148000000Y-58150000D01*
X151775000Y-58345000D02*
X148195000Y-58345000D01*
D34*
X147900000Y-58250000D02*
X148000000Y-58150000D01*
X144750000Y-58250000D02*
X147900000Y-58250000D01*
X150627000Y-68310000D02*
X148000000Y-68310000D01*
X148000000Y-102900000D02*
X150100000Y-102900000D01*
X150100000Y-102900000D02*
X150250000Y-102750000D01*
X144965000Y-72100000D02*
X144965000Y-108465000D01*
X144965000Y-108465000D02*
X147020000Y-110520000D01*
X147020000Y-110520000D02*
X148000000Y-110520000D01*
X141500000Y-64500000D02*
X148000000Y-64500000D01*
X149640000Y-100360000D02*
X148000000Y-100360000D01*
X149790000Y-67040000D02*
X150000000Y-67250000D01*
X148000000Y-67040000D02*
X149790000Y-67040000D01*
X149750000Y-100250000D02*
X149640000Y-100360000D01*
X142270000Y-63230000D02*
X142250000Y-63250000D01*
X148000000Y-63230000D02*
X142270000Y-63230000D01*
X148000000Y-55610000D02*
X146640000Y-55610000D01*
X146640000Y-55610000D02*
X146500000Y-55750000D01*
X143250000Y-60750000D02*
X143310000Y-60690000D01*
X143310000Y-60690000D02*
X148000000Y-60690000D01*
X147880000Y-57000000D02*
X148000000Y-56880000D01*
X145500000Y-57000000D02*
X147880000Y-57000000D01*
X149750000Y-105440000D02*
X148000000Y-105440000D01*
X151127000Y-69580000D02*
X148000000Y-69580000D01*
X144000000Y-59500000D02*
X144080000Y-59420000D01*
X144080000Y-59420000D02*
X148000000Y-59420000D01*
D32*
X133775000Y-39750000D02*
X138670000Y-39750000D01*
D33*
X159000000Y-66000000D02*
X159000000Y-58750000D01*
X155000000Y-72000000D02*
X155000000Y-69425000D01*
X158595000Y-58345000D02*
X156725000Y-58345000D01*
X156500000Y-67000000D02*
X158000000Y-67000000D01*
X154950000Y-69375000D02*
X154950000Y-68550000D01*
X159000000Y-58750000D02*
X158595000Y-58345000D01*
X155000000Y-69425000D02*
X154950000Y-69375000D01*
X158000000Y-67000000D02*
X159000000Y-66000000D01*
X154950000Y-68550000D02*
X156500000Y-67000000D01*
X153100000Y-69425000D02*
X153050000Y-69375000D01*
X155000000Y-60250000D02*
X155635000Y-59615000D01*
X155000000Y-64000000D02*
X155000000Y-60250000D01*
X155635000Y-59615000D02*
X156725000Y-59615000D01*
X153050000Y-65950000D02*
X155000000Y-64000000D01*
X153050000Y-69375000D02*
X153050000Y-65950000D01*
X153100000Y-72000000D02*
X153100000Y-69425000D01*
X152000000Y-76000000D02*
X151375000Y-75375000D01*
X151005000Y-103062732D02*
X151000000Y-103067732D01*
X151500000Y-76500000D02*
X151000000Y-77000000D01*
X151500000Y-76500000D02*
X151625000Y-76375000D01*
X151625000Y-75625000D02*
X151375000Y-75375000D01*
X152000000Y-76000000D02*
X151500000Y-76500000D01*
X151000000Y-103067732D02*
X151000000Y-106750000D01*
X151000000Y-102432268D02*
X151005000Y-102437268D01*
X151005000Y-102437268D02*
X151005000Y-103062732D01*
X150750000Y-74750000D02*
X150750000Y-72000000D01*
X151000000Y-106750000D02*
X149750000Y-108000000D01*
X148020000Y-108000000D02*
X148000000Y-107980000D01*
X151625000Y-76375000D02*
X151625000Y-75625000D01*
X154050000Y-73875000D02*
X154050000Y-75450000D01*
X153500000Y-76000000D02*
X152000000Y-76000000D01*
X154050000Y-75450000D02*
X153500000Y-76000000D01*
X151000000Y-77000000D02*
X151000000Y-102432268D01*
X150750000Y-72000000D02*
X149600000Y-70850000D01*
X149750000Y-108000000D02*
X148020000Y-108000000D01*
X151375000Y-75375000D02*
X150750000Y-74750000D01*
X149600000Y-70850000D02*
X148000000Y-70850000D01*
D36*
X154216841Y-46533159D02*
X153750000Y-47000000D01*
D33*
X152175000Y-42775000D02*
X152175000Y-43712500D01*
D36*
X154216841Y-46250000D02*
X154216841Y-46533159D01*
D33*
X152175000Y-43712500D02*
X154216841Y-45754341D01*
X153615000Y-60885000D02*
X153750000Y-60750000D01*
X151775000Y-60885000D02*
X153615000Y-60885000D01*
X154216841Y-45754341D02*
X154216841Y-46250000D01*
D36*
X153750000Y-47000000D02*
X152750000Y-47000000D01*
D33*
X151775000Y-62155000D02*
X153655000Y-62155000D01*
D34*
X151325000Y-42666163D02*
X151325000Y-42775000D01*
D33*
X153655000Y-62155000D02*
X153750000Y-62250000D01*
D34*
X152175000Y-41825000D02*
X151903000Y-42097000D01*
X151903000Y-42097000D02*
X151894163Y-42097000D01*
X151894163Y-42097000D02*
X151325000Y-42666163D01*
D36*
X151325000Y-42775000D02*
X151325000Y-42675000D01*
X152750000Y-46000000D02*
X151325000Y-44575000D01*
X151325000Y-44575000D02*
X151325000Y-42775000D01*
D34*
X152175000Y-41425000D02*
X152175000Y-41825000D01*
D33*
X123300000Y-57000000D02*
X123750000Y-56550000D01*
G04 #@! TA.AperFunction,Conductor*
G36*
X156463801Y-37250230D02*
G01*
X156494523Y-37252088D01*
X156758566Y-37268059D01*
X156773647Y-37269890D01*
X157060374Y-37322435D01*
X157075121Y-37326070D01*
X157353432Y-37412795D01*
X157367644Y-37418186D01*
X157427978Y-37445340D01*
X157633445Y-37537813D01*
X157646910Y-37544879D01*
X157896373Y-37695685D01*
X157908872Y-37704312D01*
X158138342Y-37884090D01*
X158149722Y-37894173D01*
X158355826Y-38100277D01*
X158365910Y-38111658D01*
X158545684Y-38341124D01*
X158554316Y-38353629D01*
X158644828Y-38503354D01*
X158705116Y-38603082D01*
X158712186Y-38616554D01*
X158831811Y-38882350D01*
X158837207Y-38896576D01*
X158906482Y-39118888D01*
X158923925Y-39174862D01*
X158927566Y-39189636D01*
X158980107Y-39476340D01*
X158981941Y-39491444D01*
X158999770Y-39786197D01*
X159000000Y-39793805D01*
X159000000Y-57498860D01*
X158992042Y-57525959D01*
X158987385Y-57553813D01*
X158982180Y-57559548D01*
X158979998Y-57566981D01*
X158958653Y-57585475D01*
X158939676Y-57606390D01*
X158932196Y-57608401D01*
X158926342Y-57613474D01*
X158898385Y-57617493D01*
X158871115Y-57624827D01*
X158861491Y-57622798D01*
X158856068Y-57623578D01*
X158835743Y-57618912D01*
X158830680Y-57617298D01*
X158817413Y-57611803D01*
X158813768Y-57611078D01*
X158806835Y-57609698D01*
X158806826Y-57609696D01*
X158670100Y-57582500D01*
X158299680Y-57582500D01*
X158231559Y-57562498D01*
X158185066Y-57508842D01*
X158174962Y-57438568D01*
X158178680Y-57421358D01*
X158205562Y-57328831D01*
X158208499Y-57291511D01*
X158208500Y-57291511D01*
X158208500Y-56858489D01*
X158208499Y-56858488D01*
X158206848Y-56837516D01*
X158205562Y-56821169D01*
X158159145Y-56661399D01*
X158159143Y-56661397D01*
X158159143Y-56661394D01*
X158074456Y-56518198D01*
X158074455Y-56518197D01*
X158074453Y-56518193D01*
X158074449Y-56518189D01*
X158073708Y-56517233D01*
X158073356Y-56516337D01*
X158070418Y-56511369D01*
X158071219Y-56510895D01*
X158047756Y-56451150D01*
X158061652Y-56381526D01*
X158073708Y-56362767D01*
X158074445Y-56361814D01*
X158074453Y-56361807D01*
X158125268Y-56275883D01*
X158159143Y-56218605D01*
X158159143Y-56218603D01*
X158159145Y-56218601D01*
X158205562Y-56058831D01*
X158208499Y-56021511D01*
X158208500Y-56021511D01*
X158208500Y-55588489D01*
X158208499Y-55588488D01*
X158205562Y-55551171D01*
X158205562Y-55551170D01*
X158194813Y-55514170D01*
X158159145Y-55391399D01*
X158159143Y-55391397D01*
X158159143Y-55391394D01*
X158074455Y-55248196D01*
X158074450Y-55248189D01*
X157956810Y-55130549D01*
X157956803Y-55130544D01*
X157813605Y-55045856D01*
X157653829Y-54999437D01*
X157616511Y-54996500D01*
X157616502Y-54996500D01*
X157613500Y-54996500D01*
X157545379Y-54976498D01*
X157498886Y-54922842D01*
X157487500Y-54870500D01*
X157487500Y-54395769D01*
X157507502Y-54327648D01*
X157539439Y-54293833D01*
X157602430Y-54248068D01*
X157748068Y-54102430D01*
X157869129Y-53935803D01*
X157962634Y-53752290D01*
X158026280Y-53556408D01*
X158058500Y-53352981D01*
X158058500Y-53147019D01*
X158026280Y-52943592D01*
X157962634Y-52747710D01*
X157869129Y-52564197D01*
X157748068Y-52397570D01*
X157748065Y-52397567D01*
X157748063Y-52397564D01*
X157602435Y-52251936D01*
X157602432Y-52251934D01*
X157602430Y-52251932D01*
X157460797Y-52149030D01*
X157435806Y-52130873D01*
X157435805Y-52130872D01*
X157435803Y-52130871D01*
X157252290Y-52037366D01*
X157252287Y-52037365D01*
X157252285Y-52037364D01*
X157056412Y-51973721D01*
X157056410Y-51973720D01*
X157056408Y-51973720D01*
X156852981Y-51941500D01*
X156647019Y-51941500D01*
X156636137Y-51943223D01*
X156600634Y-51948846D01*
X156530223Y-51939746D01*
X156491830Y-51913492D01*
X155486069Y-50907730D01*
X155486065Y-50907727D01*
X155361179Y-50824282D01*
X155222415Y-50766804D01*
X155222414Y-50766803D01*
X155075103Y-50737500D01*
X155075100Y-50737500D01*
X152796939Y-50737500D01*
X152748721Y-50727909D01*
X152735837Y-50722572D01*
X152735831Y-50722570D01*
X152579632Y-50691500D01*
X152579630Y-50691500D01*
X152420370Y-50691500D01*
X152420367Y-50691500D01*
X152303219Y-50714802D01*
X152264169Y-50722570D01*
X152157383Y-50766803D01*
X152117032Y-50783517D01*
X151984609Y-50871998D01*
X151984603Y-50872003D01*
X151872003Y-50984603D01*
X151871998Y-50984609D01*
X151783517Y-51117032D01*
X151722571Y-51264167D01*
X151722570Y-51264170D01*
X151691500Y-51420367D01*
X151691500Y-51579632D01*
X151695660Y-51600544D01*
X151722570Y-51735831D01*
X151783517Y-51882968D01*
X151844155Y-51973720D01*
X151871998Y-52015390D01*
X151872003Y-52015396D01*
X151984603Y-52127996D01*
X151984609Y-52128001D01*
X151984611Y-52128003D01*
X152117032Y-52216483D01*
X152264169Y-52277430D01*
X152420370Y-52308500D01*
X152420371Y-52308500D01*
X152579629Y-52308500D01*
X152579630Y-52308500D01*
X152735831Y-52277430D01*
X152744580Y-52273805D01*
X152748721Y-52272091D01*
X152796939Y-52262500D01*
X154631972Y-52262500D01*
X154700093Y-52282502D01*
X154721067Y-52299405D01*
X155413492Y-52991830D01*
X155447518Y-53054142D01*
X155448846Y-53100634D01*
X155444304Y-53129313D01*
X155441500Y-53147019D01*
X155441500Y-53352981D01*
X155473720Y-53556408D01*
X155473721Y-53556412D01*
X155506641Y-53657730D01*
X155537366Y-53752290D01*
X155630871Y-53935803D01*
X155751932Y-54102430D01*
X155751934Y-54102432D01*
X155751936Y-54102435D01*
X155897568Y-54248067D01*
X155910560Y-54257506D01*
X155953914Y-54313728D01*
X155962500Y-54359443D01*
X155962500Y-54870500D01*
X155942498Y-54938621D01*
X155888842Y-54985114D01*
X155863898Y-54993485D01*
X155850364Y-54996500D01*
X155833498Y-54996500D01*
X155796169Y-54999438D01*
X155661323Y-55038613D01*
X155657413Y-55039485D01*
X155653177Y-55039203D01*
X155630015Y-55042500D01*
X155369896Y-55042500D01*
X155222585Y-55071803D01*
X155222584Y-55071804D01*
X155221259Y-55072353D01*
X155097399Y-55123658D01*
X155083819Y-55129283D01*
X154958939Y-55212725D01*
X154958937Y-55212726D01*
X153657726Y-56513935D01*
X153591202Y-56613499D01*
X153591201Y-56613500D01*
X153574283Y-56638819D01*
X153516804Y-56777584D01*
X153504882Y-56837516D01*
X153471973Y-56900425D01*
X153410278Y-56935556D01*
X153339383Y-56931755D01*
X153281798Y-56890229D01*
X153257090Y-56827431D01*
X153256718Y-56827500D01*
X153256372Y-56825605D01*
X153255804Y-56824162D01*
X153255704Y-56822978D01*
X153255562Y-56821169D01*
X153209145Y-56661399D01*
X153209143Y-56661397D01*
X153209143Y-56661394D01*
X153124455Y-56518196D01*
X153124450Y-56518189D01*
X153006810Y-56400549D01*
X153006803Y-56400544D01*
X152863605Y-56315856D01*
X152703829Y-56269437D01*
X152666511Y-56266500D01*
X152666502Y-56266500D01*
X150883498Y-56266500D01*
X150883489Y-56266500D01*
X150846171Y-56269437D01*
X150846167Y-56269438D01*
X150715167Y-56307497D01*
X150680015Y-56312500D01*
X149953739Y-56312500D01*
X149905521Y-56302909D01*
X149892637Y-56297572D01*
X149892631Y-56297570D01*
X149736432Y-56266500D01*
X149736430Y-56266500D01*
X149577170Y-56266500D01*
X149577167Y-56266500D01*
X149460019Y-56289802D01*
X149420969Y-56297570D01*
X149420966Y-56297571D01*
X149415044Y-56299368D01*
X149414265Y-56296801D01*
X149355213Y-56303120D01*
X149291742Y-56271309D01*
X149255545Y-56210232D01*
X149252369Y-56165664D01*
X149253275Y-56157243D01*
X149258500Y-56108638D01*
X149258500Y-55111362D01*
X149258499Y-55111350D01*
X149251990Y-55050803D01*
X149251988Y-55050795D01*
X149210148Y-54938621D01*
X149200889Y-54913796D01*
X149200888Y-54913794D01*
X149200887Y-54913792D01*
X149113261Y-54796738D01*
X148996207Y-54709112D01*
X148996202Y-54709110D01*
X148859204Y-54658011D01*
X148859196Y-54658009D01*
X148798649Y-54651500D01*
X148798638Y-54651500D01*
X147201362Y-54651500D01*
X147201350Y-54651500D01*
X147140803Y-54658009D01*
X147140795Y-54658011D01*
X147003797Y-54709110D01*
X147003792Y-54709112D01*
X146886738Y-54796738D01*
X146800194Y-54912349D01*
X146743358Y-54954896D01*
X146674745Y-54960419D01*
X146579635Y-54941500D01*
X146579630Y-54941500D01*
X146420370Y-54941500D01*
X146420367Y-54941500D01*
X146303219Y-54964802D01*
X146264169Y-54972570D01*
X146206398Y-54996500D01*
X146117032Y-55033517D01*
X145984609Y-55121998D01*
X145984603Y-55122003D01*
X145872003Y-55234603D01*
X145871998Y-55234609D01*
X145783517Y-55367032D01*
X145722571Y-55514167D01*
X145722570Y-55514170D01*
X145691500Y-55670367D01*
X145691500Y-55670370D01*
X145691500Y-55829630D01*
X145722570Y-55985831D01*
X145722571Y-55985833D01*
X145738035Y-56023166D01*
X145745624Y-56093756D01*
X145713844Y-56157243D01*
X145652786Y-56193470D01*
X145597048Y-56194964D01*
X145579632Y-56191500D01*
X145579630Y-56191500D01*
X145420370Y-56191500D01*
X145420367Y-56191500D01*
X145303219Y-56214802D01*
X145264169Y-56222570D01*
X145210019Y-56245000D01*
X145117032Y-56283517D01*
X144984609Y-56371998D01*
X144984603Y-56372003D01*
X144872003Y-56484603D01*
X144871998Y-56484609D01*
X144783517Y-56617032D01*
X144722571Y-56764167D01*
X144722570Y-56764170D01*
X144691500Y-56920367D01*
X144691500Y-57079632D01*
X144705689Y-57150962D01*
X144722570Y-57235831D01*
X144738549Y-57274407D01*
X144746138Y-57344995D01*
X144714359Y-57408482D01*
X144653301Y-57444710D01*
X144646722Y-57446203D01*
X144539729Y-57467485D01*
X144514169Y-57472570D01*
X144475458Y-57488605D01*
X144367032Y-57533517D01*
X144234609Y-57621998D01*
X144234603Y-57622003D01*
X144122003Y-57734603D01*
X144121998Y-57734609D01*
X144074232Y-57806097D01*
X144033517Y-57867032D01*
X143976707Y-58004183D01*
X143972571Y-58014167D01*
X143972570Y-58014170D01*
X143941500Y-58170367D01*
X143941500Y-58170370D01*
X143941500Y-58329630D01*
X143972570Y-58485831D01*
X143988549Y-58524407D01*
X143996138Y-58594995D01*
X143964359Y-58658482D01*
X143903301Y-58694710D01*
X143896722Y-58696203D01*
X143811411Y-58713173D01*
X143764169Y-58722570D01*
X143677184Y-58758601D01*
X143617032Y-58783517D01*
X143484609Y-58871998D01*
X143484603Y-58872003D01*
X143372003Y-58984603D01*
X143371998Y-58984609D01*
X143283517Y-59117032D01*
X143222571Y-59264167D01*
X143222570Y-59264170D01*
X143191500Y-59420367D01*
X143191500Y-59420370D01*
X143191500Y-59579630D01*
X143222570Y-59735831D01*
X143238549Y-59774407D01*
X143246138Y-59844995D01*
X143214359Y-59908482D01*
X143153301Y-59944710D01*
X143146722Y-59946203D01*
X143039729Y-59967485D01*
X143014169Y-59972570D01*
X142897977Y-60020699D01*
X142867032Y-60033517D01*
X142734609Y-60121998D01*
X142734603Y-60122003D01*
X142622003Y-60234603D01*
X142621998Y-60234609D01*
X142533517Y-60367032D01*
X142472571Y-60514167D01*
X142472570Y-60514170D01*
X142441500Y-60670367D01*
X142441500Y-60670370D01*
X142441500Y-60829630D01*
X142472570Y-60985831D01*
X142533517Y-61132968D01*
X142611181Y-61249201D01*
X142621998Y-61265390D01*
X142622003Y-61265396D01*
X142734603Y-61377996D01*
X142734609Y-61378001D01*
X142734611Y-61378003D01*
X142867032Y-61466483D01*
X143014169Y-61527430D01*
X143170370Y-61558500D01*
X143170371Y-61558500D01*
X143329629Y-61558500D01*
X143329630Y-61558500D01*
X143485831Y-61527430D01*
X143632968Y-61466483D01*
X143765389Y-61378003D01*
X143771395Y-61371997D01*
X143780988Y-61362405D01*
X143843300Y-61328379D01*
X143870083Y-61325500D01*
X146615848Y-61325500D01*
X146683969Y-61345502D01*
X146730462Y-61399158D01*
X146741667Y-61458249D01*
X146741500Y-61461362D01*
X146741500Y-62458637D01*
X146741667Y-62461751D01*
X146725342Y-62530846D01*
X146674254Y-62580146D01*
X146615848Y-62594500D01*
X142762457Y-62594500D01*
X142694336Y-62574498D01*
X142692455Y-62573265D01*
X142659079Y-62550964D01*
X142632968Y-62533517D01*
X142485831Y-62472570D01*
X142407730Y-62457035D01*
X142329632Y-62441500D01*
X142329630Y-62441500D01*
X142170370Y-62441500D01*
X142170367Y-62441500D01*
X142084155Y-62458649D01*
X142014169Y-62472570D01*
X141901601Y-62519198D01*
X141867032Y-62533517D01*
X141734609Y-62621998D01*
X141734603Y-62622003D01*
X141622003Y-62734603D01*
X141621998Y-62734609D01*
X141572627Y-62808499D01*
X141533517Y-62867032D01*
X141472570Y-63014169D01*
X141469932Y-63027430D01*
X141441500Y-63170367D01*
X141441500Y-63170370D01*
X141441500Y-63329630D01*
X141472570Y-63485831D01*
X141488549Y-63524407D01*
X141496138Y-63594995D01*
X141464359Y-63658482D01*
X141403301Y-63694710D01*
X141396722Y-63696203D01*
X141289729Y-63717485D01*
X141264169Y-63722570D01*
X141232155Y-63735831D01*
X141117032Y-63783517D01*
X140984609Y-63871998D01*
X140984603Y-63872003D01*
X140872003Y-63984603D01*
X140871998Y-63984609D01*
X140829067Y-64048861D01*
X140783517Y-64117032D01*
X140722570Y-64264169D01*
X140714802Y-64303219D01*
X140691500Y-64420367D01*
X140691500Y-64579632D01*
X140707035Y-64657730D01*
X140722570Y-64735831D01*
X140783517Y-64882968D01*
X140860812Y-64998649D01*
X140871998Y-65015390D01*
X140872003Y-65015396D01*
X140984603Y-65127996D01*
X140984609Y-65128001D01*
X140984611Y-65128003D01*
X141117032Y-65216483D01*
X141264169Y-65277430D01*
X141420370Y-65308500D01*
X141420371Y-65308500D01*
X141579629Y-65308500D01*
X141579630Y-65308500D01*
X141735831Y-65277430D01*
X141882968Y-65216483D01*
X141972390Y-65156734D01*
X142040143Y-65135520D01*
X142042391Y-65135500D01*
X146161577Y-65135500D01*
X146229698Y-65155502D01*
X146276191Y-65209158D01*
X146286295Y-65279432D01*
X146256801Y-65344012D01*
X146250672Y-65350595D01*
X145506377Y-66094889D01*
X145506372Y-66094896D01*
X145436827Y-66198977D01*
X145388924Y-66314625D01*
X145388922Y-66314630D01*
X145364500Y-66437406D01*
X145364500Y-70715500D01*
X145344498Y-70783621D01*
X145290842Y-70830114D01*
X145238500Y-70841500D01*
X144466350Y-70841500D01*
X144405804Y-70848009D01*
X144405801Y-70848010D01*
X144374030Y-70859860D01*
X144303214Y-70864923D01*
X144285970Y-70859860D01*
X144254198Y-70848010D01*
X144254195Y-70848009D01*
X144193649Y-70841500D01*
X144193638Y-70841500D01*
X143196362Y-70841500D01*
X143196350Y-70841500D01*
X143135804Y-70848009D01*
X143135801Y-70848010D01*
X143104030Y-70859860D01*
X143033214Y-70864923D01*
X143015970Y-70859860D01*
X142984198Y-70848010D01*
X142984195Y-70848009D01*
X142923649Y-70841500D01*
X142923638Y-70841500D01*
X141926362Y-70841500D01*
X141926350Y-70841500D01*
X141865804Y-70848009D01*
X141865801Y-70848010D01*
X141834030Y-70859860D01*
X141763214Y-70864923D01*
X141745970Y-70859860D01*
X141714198Y-70848010D01*
X141714195Y-70848009D01*
X141653649Y-70841500D01*
X141653638Y-70841500D01*
X140656362Y-70841500D01*
X140656350Y-70841500D01*
X140595804Y-70848009D01*
X140595801Y-70848010D01*
X140564030Y-70859860D01*
X140493214Y-70864923D01*
X140475970Y-70859860D01*
X140444198Y-70848010D01*
X140444195Y-70848009D01*
X140383649Y-70841500D01*
X140383638Y-70841500D01*
X139909942Y-70841500D01*
X139841821Y-70821498D01*
X139795328Y-70767842D01*
X139785224Y-70697568D01*
X139786358Y-70690941D01*
X139808500Y-70579630D01*
X139808500Y-70420370D01*
X139777430Y-70264169D01*
X139716483Y-70117032D01*
X139628003Y-69984611D01*
X139628001Y-69984609D01*
X139627996Y-69984603D01*
X139515396Y-69872003D01*
X139515390Y-69871998D01*
X139515389Y-69871997D01*
X139382968Y-69783517D01*
X139235831Y-69722570D01*
X139157730Y-69707035D01*
X139079632Y-69691500D01*
X139079630Y-69691500D01*
X138920370Y-69691500D01*
X138920364Y-69691500D01*
X138902950Y-69694964D01*
X138832236Y-69688633D01*
X138776171Y-69645077D01*
X138752553Y-69578124D01*
X138761964Y-69523167D01*
X138777430Y-69485831D01*
X138808500Y-69329630D01*
X138808500Y-69170370D01*
X138777430Y-69014169D01*
X138716483Y-68867032D01*
X138628003Y-68734611D01*
X138628001Y-68734609D01*
X138627996Y-68734603D01*
X138515396Y-68622003D01*
X138515390Y-68621998D01*
X138515389Y-68621997D01*
X138382968Y-68533517D01*
X138235831Y-68472570D01*
X138157730Y-68457035D01*
X138079632Y-68441500D01*
X138079630Y-68441500D01*
X137920370Y-68441500D01*
X137920367Y-68441500D01*
X137803219Y-68464802D01*
X137764169Y-68472570D01*
X137764167Y-68472571D01*
X137617032Y-68533517D01*
X137484609Y-68621998D01*
X137484603Y-68622003D01*
X137372000Y-68734606D01*
X137371997Y-68734610D01*
X137356779Y-68757386D01*
X137325696Y-68803907D01*
X137322626Y-68808501D01*
X137268149Y-68854029D01*
X137217860Y-68864500D01*
X131884500Y-68864500D01*
X131816379Y-68844498D01*
X131769886Y-68790842D01*
X131758500Y-68738500D01*
X131758500Y-67811367D01*
X131758499Y-67811350D01*
X131751990Y-67750803D01*
X131751989Y-67750801D01*
X131751989Y-67750799D01*
X131740140Y-67719033D01*
X131735074Y-67648221D01*
X131740137Y-67630974D01*
X131751989Y-67599201D01*
X131752601Y-67593517D01*
X131758499Y-67538649D01*
X131758500Y-67538632D01*
X131758500Y-66541367D01*
X131758499Y-66541350D01*
X131751990Y-66480803D01*
X131751989Y-66480801D01*
X131751989Y-66480799D01*
X131740140Y-66449033D01*
X131735074Y-66378221D01*
X131740137Y-66360974D01*
X131751989Y-66329201D01*
X131752329Y-66326047D01*
X131758499Y-66268649D01*
X131758500Y-66268632D01*
X131758500Y-65271362D01*
X131758333Y-65268249D01*
X131774658Y-65199154D01*
X131825746Y-65149854D01*
X131884152Y-65135500D01*
X135099208Y-65135500D01*
X135167329Y-65155502D01*
X135213822Y-65209158D01*
X135220544Y-65229975D01*
X135220773Y-65229906D01*
X135222569Y-65235828D01*
X135222570Y-65235831D01*
X135283517Y-65382968D01*
X135364053Y-65503500D01*
X135371998Y-65515390D01*
X135372003Y-65515396D01*
X135484603Y-65627996D01*
X135484609Y-65628001D01*
X135484611Y-65628003D01*
X135617032Y-65716483D01*
X135764169Y-65777430D01*
X135920370Y-65808500D01*
X135920371Y-65808500D01*
X136079629Y-65808500D01*
X136079630Y-65808500D01*
X136235831Y-65777430D01*
X136382968Y-65716483D01*
X136515389Y-65628003D01*
X136628003Y-65515389D01*
X136716483Y-65382968D01*
X136777430Y-65235831D01*
X136808500Y-65079630D01*
X136808500Y-64920370D01*
X136777430Y-64764169D01*
X136716483Y-64617032D01*
X136628003Y-64484611D01*
X136628001Y-64484609D01*
X136627996Y-64484603D01*
X136515396Y-64372003D01*
X136515390Y-64371998D01*
X136515389Y-64371997D01*
X136382968Y-64283517D01*
X136235831Y-64222570D01*
X136194382Y-64214325D01*
X136130350Y-64201588D01*
X136067440Y-64168680D01*
X136065837Y-64167104D01*
X135905110Y-64006377D01*
X135905108Y-64006375D01*
X135862020Y-63977584D01*
X135803314Y-63938358D01*
X135757786Y-63883881D01*
X135748938Y-63813438D01*
X135756908Y-63785374D01*
X135777430Y-63735831D01*
X135808500Y-63579630D01*
X135808500Y-63420370D01*
X135777430Y-63264169D01*
X135716483Y-63117032D01*
X135628003Y-62984611D01*
X135628001Y-62984609D01*
X135627996Y-62984603D01*
X135515396Y-62872003D01*
X135515390Y-62871998D01*
X135515389Y-62871997D01*
X135382968Y-62783517D01*
X135235831Y-62722570D01*
X135156211Y-62706732D01*
X135087575Y-62693080D01*
X135042155Y-62674266D01*
X135031022Y-62666827D01*
X134915369Y-62618922D01*
X134786519Y-62593292D01*
X134787035Y-62590694D01*
X134731864Y-62568365D01*
X134690900Y-62510379D01*
X134687788Y-62439450D01*
X134705359Y-62399615D01*
X134716483Y-62382968D01*
X134777430Y-62235831D01*
X134808500Y-62079630D01*
X134808500Y-61920370D01*
X134777430Y-61764169D01*
X134716483Y-61617032D01*
X134628003Y-61484611D01*
X134628001Y-61484609D01*
X134627996Y-61484603D01*
X134515396Y-61372003D01*
X134515390Y-61371998D01*
X134515389Y-61371997D01*
X134382968Y-61283517D01*
X134235831Y-61222570D01*
X134184709Y-61212401D01*
X134103277Y-61196203D01*
X134040367Y-61163295D01*
X134005236Y-61101600D01*
X134009036Y-61030705D01*
X134011429Y-61024458D01*
X134027430Y-60985831D01*
X134058500Y-60829630D01*
X134058500Y-60670370D01*
X134027430Y-60514169D01*
X133966483Y-60367032D01*
X133878003Y-60234611D01*
X133878001Y-60234609D01*
X133877996Y-60234603D01*
X133765396Y-60122003D01*
X133765390Y-60121998D01*
X133750059Y-60111754D01*
X133632968Y-60033517D01*
X133485831Y-59972570D01*
X133434709Y-59962401D01*
X133353277Y-59946203D01*
X133290367Y-59913295D01*
X133255236Y-59851600D01*
X133259036Y-59780705D01*
X133261429Y-59774458D01*
X133277430Y-59735831D01*
X133308500Y-59579630D01*
X133308500Y-59420370D01*
X133277430Y-59264169D01*
X133216483Y-59117032D01*
X133128003Y-58984611D01*
X133128001Y-58984609D01*
X133127996Y-58984603D01*
X133015396Y-58872003D01*
X133015390Y-58871998D01*
X133015052Y-58871772D01*
X132882968Y-58783517D01*
X132735831Y-58722570D01*
X132657730Y-58707035D01*
X132579632Y-58691500D01*
X132579630Y-58691500D01*
X132420370Y-58691500D01*
X132420367Y-58691500D01*
X132264164Y-58722571D01*
X132260331Y-58723734D01*
X132258226Y-58723752D01*
X132258099Y-58723778D01*
X132258094Y-58723753D01*
X132189337Y-58724361D01*
X132129274Y-58686507D01*
X132099212Y-58622189D01*
X132108694Y-58551829D01*
X132134666Y-58514066D01*
X132743625Y-57905108D01*
X132813173Y-57801022D01*
X132861078Y-57685369D01*
X132885500Y-57562591D01*
X132885500Y-57542389D01*
X132905502Y-57474268D01*
X132906735Y-57472387D01*
X132966483Y-57382968D01*
X133027430Y-57235831D01*
X133027430Y-57235828D01*
X133029798Y-57230113D01*
X133031837Y-57230957D01*
X133065272Y-57179901D01*
X133130103Y-57150962D01*
X133197783Y-57161286D01*
X133197945Y-57160896D01*
X133199529Y-57161552D01*
X133200287Y-57161668D01*
X133202587Y-57162818D01*
X133203660Y-57163262D01*
X133203664Y-57163265D01*
X133365542Y-57230317D01*
X133537391Y-57264500D01*
X133537392Y-57264500D01*
X133712607Y-57264500D01*
X133712608Y-57264500D01*
X133884458Y-57230317D01*
X134046336Y-57163265D01*
X134192023Y-57065919D01*
X134315919Y-56942023D01*
X134413265Y-56796336D01*
X134480317Y-56634458D01*
X134514500Y-56462608D01*
X134514500Y-56287391D01*
X134480317Y-56115542D01*
X134413265Y-55953664D01*
X134315919Y-55807976D01*
X133427023Y-54919080D01*
X133281336Y-54821735D01*
X133119458Y-54754683D01*
X132947610Y-54720500D01*
X132947608Y-54720500D01*
X131549220Y-54720500D01*
X131505716Y-54709392D01*
X131504647Y-54712260D01*
X131359204Y-54658011D01*
X131359196Y-54658009D01*
X131298649Y-54651500D01*
X131298638Y-54651500D01*
X129701362Y-54651500D01*
X129701350Y-54651500D01*
X129640803Y-54658009D01*
X129640799Y-54658010D01*
X129552903Y-54690794D01*
X129482087Y-54695858D01*
X129419776Y-54661833D01*
X129176405Y-54418462D01*
X129142379Y-54356150D01*
X129139500Y-54329367D01*
X129139500Y-51912393D01*
X129139499Y-51912389D01*
X129131612Y-51872738D01*
X129105317Y-51740542D01*
X129038265Y-51578664D01*
X128940920Y-51432977D01*
X128817023Y-51309080D01*
X127967023Y-50459080D01*
X127821336Y-50361735D01*
X127659458Y-50294683D01*
X127488360Y-50260649D01*
X127425450Y-50227741D01*
X127423903Y-50226221D01*
X127348652Y-50150970D01*
X127199353Y-50058881D01*
X127151875Y-50006095D01*
X127139500Y-49951640D01*
X127139500Y-49525446D01*
X131641500Y-49525446D01*
X131641500Y-50624534D01*
X131641501Y-50624554D01*
X131656090Y-50772694D01*
X131656091Y-50772700D01*
X131656092Y-50772701D01*
X131713759Y-50962804D01*
X131807405Y-51138004D01*
X131933432Y-51291568D01*
X132086996Y-51417595D01*
X132262196Y-51511241D01*
X132452299Y-51568908D01*
X132452303Y-51568908D01*
X132452305Y-51568909D01*
X132492502Y-51572867D01*
X132600453Y-51583500D01*
X135499546Y-51583499D01*
X135559668Y-51577577D01*
X135647694Y-51568909D01*
X135647695Y-51568908D01*
X135647701Y-51568908D01*
X135837804Y-51511241D01*
X136013004Y-51417595D01*
X136166568Y-51291568D01*
X136292595Y-51138004D01*
X136386241Y-50962804D01*
X136443908Y-50772701D01*
X136458500Y-50624547D01*
X136458499Y-49525454D01*
X136443908Y-49377299D01*
X136386241Y-49187196D01*
X136292595Y-49011996D01*
X136166568Y-48858432D01*
X136013004Y-48732405D01*
X135837804Y-48638759D01*
X135647701Y-48581092D01*
X135647700Y-48581091D01*
X135647694Y-48581090D01*
X135518903Y-48568406D01*
X135499547Y-48566500D01*
X135499545Y-48566500D01*
X132600465Y-48566500D01*
X132600445Y-48566501D01*
X132452305Y-48581090D01*
X132262195Y-48638759D01*
X132086995Y-48732405D01*
X131933432Y-48858432D01*
X131807405Y-49011995D01*
X131713759Y-49187195D01*
X131656090Y-49377305D01*
X131641500Y-49525446D01*
X127139500Y-49525446D01*
X127139500Y-49452099D01*
X127159502Y-49383978D01*
X127199353Y-49344858D01*
X127273652Y-49299030D01*
X127399030Y-49173652D01*
X127492115Y-49022738D01*
X127547887Y-48854426D01*
X127558500Y-48750545D01*
X127558499Y-46149456D01*
X127547887Y-46045574D01*
X127492115Y-45877262D01*
X127399030Y-45726348D01*
X127399029Y-45726347D01*
X127396956Y-45722986D01*
X127378219Y-45654506D01*
X127380617Y-45632262D01*
X127389500Y-45587609D01*
X127389500Y-45412392D01*
X127355317Y-45240542D01*
X127288265Y-45078664D01*
X127190919Y-44932977D01*
X127190914Y-44932971D01*
X127067028Y-44809085D01*
X127067022Y-44809080D01*
X127004156Y-44767074D01*
X126921336Y-44711735D01*
X126759458Y-44644683D01*
X126735186Y-44639855D01*
X126587610Y-44610500D01*
X126587608Y-44610500D01*
X126412391Y-44610500D01*
X126412388Y-44610500D01*
X126240541Y-44644683D01*
X126240536Y-44644685D01*
X126078664Y-44711735D01*
X125932976Y-44809080D01*
X125858220Y-44883837D01*
X125682977Y-45059080D01*
X125559082Y-45182974D01*
X125559077Y-45182981D01*
X125461735Y-45328664D01*
X125406602Y-45461766D01*
X125362053Y-45517047D01*
X125356341Y-45520788D01*
X125226349Y-45600968D01*
X125226341Y-45600975D01*
X125100975Y-45726341D01*
X125100970Y-45726347D01*
X125007885Y-45877262D01*
X124952113Y-46045572D01*
X124952112Y-46045579D01*
X124941500Y-46149446D01*
X124941500Y-48750544D01*
X124952112Y-48854425D01*
X125007885Y-49022738D01*
X125100970Y-49173652D01*
X125100975Y-49173658D01*
X125226341Y-49299024D01*
X125226347Y-49299029D01*
X125226348Y-49299030D01*
X125300647Y-49344858D01*
X125348125Y-49397644D01*
X125360500Y-49452099D01*
X125360500Y-49951640D01*
X125340498Y-50019761D01*
X125300647Y-50058881D01*
X125151347Y-50150970D01*
X125151341Y-50150975D01*
X125025975Y-50276341D01*
X125025970Y-50276347D01*
X124932885Y-50427262D01*
X124877113Y-50595572D01*
X124877112Y-50595579D01*
X124866500Y-50699446D01*
X124866500Y-51600544D01*
X124877112Y-51704425D01*
X124932885Y-51872738D01*
X125025970Y-52023652D01*
X125025975Y-52023658D01*
X125151341Y-52149024D01*
X125151347Y-52149029D01*
X125151348Y-52149030D01*
X125302262Y-52242115D01*
X125422469Y-52281947D01*
X125480840Y-52322360D01*
X125508096Y-52387916D01*
X125499245Y-52449768D01*
X125472572Y-52514162D01*
X125472570Y-52514170D01*
X125441500Y-52670367D01*
X125441500Y-52829635D01*
X125472430Y-52985128D01*
X125466102Y-53055842D01*
X125422548Y-53111909D01*
X125388485Y-53129313D01*
X125302264Y-53157884D01*
X125302262Y-53157884D01*
X125302262Y-53157885D01*
X125260806Y-53183455D01*
X125151347Y-53250970D01*
X125151341Y-53250975D01*
X125025975Y-53376341D01*
X125025970Y-53376347D01*
X124994329Y-53427647D01*
X124941543Y-53475125D01*
X124887088Y-53487500D01*
X123924896Y-53487500D01*
X123786651Y-53515000D01*
X123786650Y-53514999D01*
X123777590Y-53516802D01*
X123777584Y-53516804D01*
X123638820Y-53574282D01*
X123513934Y-53657727D01*
X123513930Y-53657730D01*
X122657727Y-54513933D01*
X122592753Y-54611178D01*
X122592751Y-54611181D01*
X122574283Y-54638818D01*
X122516804Y-54777584D01*
X122516803Y-54777585D01*
X122487500Y-54924896D01*
X122487500Y-54980370D01*
X122467498Y-55048491D01*
X122413842Y-55094984D01*
X122401135Y-55099974D01*
X122377263Y-55107884D01*
X122226347Y-55200970D01*
X122226341Y-55200975D01*
X122100975Y-55326341D01*
X122100970Y-55326347D01*
X122007885Y-55477262D01*
X121952113Y-55645572D01*
X121952112Y-55645579D01*
X121941500Y-55749446D01*
X121941500Y-58350544D01*
X121952112Y-58454425D01*
X122007885Y-58622738D01*
X122100970Y-58773652D01*
X122100975Y-58773658D01*
X122226341Y-58899024D01*
X122226347Y-58899029D01*
X122226348Y-58899030D01*
X122377262Y-58992115D01*
X122545574Y-59047887D01*
X122649455Y-59058500D01*
X123850544Y-59058499D01*
X123954426Y-59047887D01*
X124122738Y-58992115D01*
X124273652Y-58899030D01*
X124399030Y-58773652D01*
X124492115Y-58622738D01*
X124547887Y-58454426D01*
X124554590Y-58388821D01*
X124558500Y-58350553D01*
X124558500Y-57888500D01*
X124578502Y-57820379D01*
X124632158Y-57773886D01*
X124684500Y-57762500D01*
X126326500Y-57762500D01*
X126394621Y-57782502D01*
X126420645Y-57806097D01*
X126420780Y-57805963D01*
X126423538Y-57808721D01*
X126425339Y-57810354D01*
X126425973Y-57811156D01*
X126551341Y-57936524D01*
X126551347Y-57936529D01*
X126551348Y-57936530D01*
X126702262Y-58029615D01*
X126870574Y-58085387D01*
X126974455Y-58096000D01*
X128025544Y-58095999D01*
X128129426Y-58085387D01*
X128198867Y-58062376D01*
X128269821Y-58059936D01*
X128330832Y-58096244D01*
X128362527Y-58159772D01*
X128364500Y-58181981D01*
X128364500Y-60684575D01*
X128344498Y-60752696D01*
X128327595Y-60773671D01*
X127934160Y-61167105D01*
X127871848Y-61201130D01*
X127869648Y-61201588D01*
X127764168Y-61222570D01*
X127617032Y-61283517D01*
X127484609Y-61371998D01*
X127484603Y-61372003D01*
X127372003Y-61484603D01*
X127371998Y-61484609D01*
X127283517Y-61617032D01*
X127222571Y-61764167D01*
X127222570Y-61764170D01*
X127191500Y-61920367D01*
X127191500Y-62079632D01*
X127201589Y-62130352D01*
X127222570Y-62235831D01*
X127283517Y-62382968D01*
X127371997Y-62515389D01*
X127371998Y-62515390D01*
X127372003Y-62515396D01*
X127484603Y-62627996D01*
X127484609Y-62628001D01*
X127484611Y-62628003D01*
X127617032Y-62716483D01*
X127764169Y-62777430D01*
X127920370Y-62808500D01*
X127920371Y-62808500D01*
X128079629Y-62808500D01*
X128079630Y-62808500D01*
X128235831Y-62777430D01*
X128382968Y-62716483D01*
X128515389Y-62628003D01*
X128628003Y-62515389D01*
X128716483Y-62382968D01*
X128777430Y-62235831D01*
X128798410Y-62130350D01*
X128831317Y-62067443D01*
X128832836Y-62065895D01*
X129026406Y-61872326D01*
X129088717Y-61838302D01*
X129159533Y-61843367D01*
X129216368Y-61885914D01*
X129241179Y-61952435D01*
X129241500Y-61961423D01*
X129241500Y-62458649D01*
X129248009Y-62519195D01*
X129248010Y-62519198D01*
X129248010Y-62519200D01*
X129248011Y-62519201D01*
X129259858Y-62550964D01*
X129259860Y-62550970D01*
X129264923Y-62621786D01*
X129259860Y-62639030D01*
X129248010Y-62670801D01*
X129248009Y-62670804D01*
X129241500Y-62731350D01*
X129241500Y-63728649D01*
X129248009Y-63789195D01*
X129248010Y-63789198D01*
X129259860Y-63820970D01*
X129264923Y-63891786D01*
X129259860Y-63909030D01*
X129248010Y-63940801D01*
X129248009Y-63940804D01*
X129241500Y-64001350D01*
X129241500Y-64909899D01*
X129221498Y-64978020D01*
X129167842Y-65024513D01*
X129097568Y-65034617D01*
X129067283Y-65026308D01*
X128985837Y-64992572D01*
X128985834Y-64992571D01*
X128985831Y-64992570D01*
X128907730Y-64977035D01*
X128829632Y-64961500D01*
X128829630Y-64961500D01*
X128670370Y-64961500D01*
X128670367Y-64961500D01*
X128553219Y-64984802D01*
X128514169Y-64992570D01*
X128412660Y-65034617D01*
X128367032Y-65053517D01*
X128234609Y-65141998D01*
X128234603Y-65142003D01*
X128122003Y-65254603D01*
X128121998Y-65254609D01*
X128085990Y-65308500D01*
X128033517Y-65387032D01*
X127976989Y-65523502D01*
X127972571Y-65534167D01*
X127972570Y-65534170D01*
X127941500Y-65690367D01*
X127941500Y-65849632D01*
X127946526Y-65874900D01*
X127972570Y-66005831D01*
X128033517Y-66152968D01*
X128121997Y-66285389D01*
X128121998Y-66285390D01*
X128122003Y-66285396D01*
X128162654Y-66326047D01*
X128196680Y-66388359D01*
X128191615Y-66459174D01*
X128149068Y-66516010D01*
X128121783Y-66531548D01*
X128117038Y-66533513D01*
X128117032Y-66533516D01*
X127984609Y-66621998D01*
X127984603Y-66622003D01*
X127872003Y-66734603D01*
X127871998Y-66734609D01*
X127783517Y-66867032D01*
X127722570Y-67014169D01*
X127714802Y-67053219D01*
X127691500Y-67170367D01*
X127691500Y-67329632D01*
X127698216Y-67363396D01*
X127722570Y-67485831D01*
X127722571Y-67485835D01*
X127722572Y-67485836D01*
X127728912Y-67501143D01*
X127731226Y-67522680D01*
X127738349Y-67543142D01*
X127734945Y-67557279D01*
X127736499Y-67571733D01*
X127726803Y-67591101D01*
X127721732Y-67612166D01*
X127711225Y-67622218D01*
X127704718Y-67635219D01*
X127686088Y-67646271D01*
X127670435Y-67661250D01*
X127651278Y-67666924D01*
X127643659Y-67671445D01*
X127636565Y-67673039D01*
X127629056Y-67674500D01*
X127627409Y-67674500D01*
X127553845Y-67689132D01*
X127553597Y-67689181D01*
X127553332Y-67689156D01*
X127529534Y-67691500D01*
X127420367Y-67691500D01*
X127303219Y-67714802D01*
X127264169Y-67722570D01*
X127117032Y-67783517D01*
X126984609Y-67871998D01*
X126984603Y-67872003D01*
X126872003Y-67984603D01*
X126871998Y-67984609D01*
X126871997Y-67984611D01*
X126783517Y-68117032D01*
X126736572Y-68230367D01*
X126722571Y-68264167D01*
X126722570Y-68264170D01*
X126691500Y-68420367D01*
X126691500Y-68420370D01*
X126691500Y-68579630D01*
X126722570Y-68735831D01*
X126783517Y-68882968D01*
X126871997Y-69015389D01*
X126871998Y-69015390D01*
X126872003Y-69015396D01*
X126984603Y-69127996D01*
X126984609Y-69128001D01*
X126984611Y-69128003D01*
X127117032Y-69216483D01*
X127264169Y-69277430D01*
X127420370Y-69308500D01*
X127420371Y-69308500D01*
X127579629Y-69308500D01*
X127579630Y-69308500D01*
X127735831Y-69277430D01*
X127882968Y-69216483D01*
X128015389Y-69128003D01*
X128128003Y-69015389D01*
X128137284Y-69001499D01*
X128191760Y-68955971D01*
X128242049Y-68945500D01*
X129115848Y-68945500D01*
X129183969Y-68965502D01*
X129230462Y-69019158D01*
X129241667Y-69078249D01*
X129241500Y-69081362D01*
X129241500Y-70078649D01*
X129248009Y-70139195D01*
X129248010Y-70139198D01*
X129259860Y-70170970D01*
X129264923Y-70241786D01*
X129259860Y-70259030D01*
X129248010Y-70290801D01*
X129248009Y-70290804D01*
X129241500Y-70351350D01*
X129241500Y-71348649D01*
X129248009Y-71409196D01*
X129248011Y-71409204D01*
X129299110Y-71546202D01*
X129299112Y-71546207D01*
X129386738Y-71663261D01*
X129503792Y-71750887D01*
X129503794Y-71750888D01*
X129503796Y-71750889D01*
X129562875Y-71772924D01*
X129640795Y-71801988D01*
X129640803Y-71801990D01*
X129701350Y-71808499D01*
X129701355Y-71808499D01*
X129701362Y-71808500D01*
X129701368Y-71808500D01*
X131298632Y-71808500D01*
X131298638Y-71808500D01*
X131298645Y-71808499D01*
X131298649Y-71808499D01*
X131359196Y-71801990D01*
X131359199Y-71801989D01*
X131359201Y-71801989D01*
X131496204Y-71750889D01*
X131613261Y-71663261D01*
X131618706Y-71655988D01*
X131700887Y-71546207D01*
X131700887Y-71546206D01*
X131700889Y-71546204D01*
X131751989Y-71409201D01*
X131758500Y-71348638D01*
X131758500Y-71261500D01*
X131778502Y-71193379D01*
X131832158Y-71146886D01*
X131884500Y-71135500D01*
X133724059Y-71135500D01*
X133792180Y-71155502D01*
X133838673Y-71209158D01*
X133849337Y-71274967D01*
X133846501Y-71301347D01*
X133846500Y-71301367D01*
X133846500Y-72898649D01*
X133853009Y-72959196D01*
X133853011Y-72959204D01*
X133904110Y-73096202D01*
X133904112Y-73096207D01*
X133991738Y-73213261D01*
X134064009Y-73267362D01*
X134106556Y-73324198D01*
X134114500Y-73368230D01*
X134114500Y-74374000D01*
X134094498Y-74442121D01*
X134040842Y-74488614D01*
X133988500Y-74500000D01*
X127827117Y-74500000D01*
X127778899Y-74490409D01*
X127735836Y-74472571D01*
X127579632Y-74441500D01*
X127579630Y-74441500D01*
X127420370Y-74441500D01*
X127420367Y-74441500D01*
X127264163Y-74472571D01*
X127221101Y-74490409D01*
X127172883Y-74500000D01*
X126827117Y-74500000D01*
X126778899Y-74490409D01*
X126735836Y-74472571D01*
X126579632Y-74441500D01*
X126579630Y-74441500D01*
X126420370Y-74441500D01*
X126420367Y-74441500D01*
X126264163Y-74472571D01*
X126221101Y-74490409D01*
X126172883Y-74500000D01*
X125303706Y-74500000D01*
X125255488Y-74490408D01*
X125228975Y-74479426D01*
X125150874Y-74463891D01*
X125072776Y-74448356D01*
X125072774Y-74448356D01*
X124913514Y-74448356D01*
X124913511Y-74448356D01*
X124796363Y-74471658D01*
X124757313Y-74479426D01*
X124757311Y-74479426D01*
X124757310Y-74479427D01*
X124751618Y-74481785D01*
X124730799Y-74490408D01*
X124682582Y-74500000D01*
X122060925Y-74500000D01*
X122053285Y-74499768D01*
X122034636Y-74498635D01*
X121757275Y-74481785D01*
X121742108Y-74479935D01*
X121454226Y-74426948D01*
X121439393Y-74423276D01*
X121160036Y-74335829D01*
X121145758Y-74330389D01*
X120949052Y-74241432D01*
X120879039Y-74209769D01*
X120865530Y-74202644D01*
X120787072Y-74154965D01*
X120615368Y-74050621D01*
X120602815Y-74041908D01*
X120372904Y-73860728D01*
X120361498Y-73850560D01*
X120259374Y-73747749D01*
X120155199Y-73642873D01*
X120145119Y-73631411D01*
X119985272Y-73425746D01*
X119965485Y-73400287D01*
X119956857Y-73387676D01*
X119806517Y-73136500D01*
X119799478Y-73122937D01*
X119680650Y-72855414D01*
X119675306Y-72841099D01*
X119629525Y-72691329D01*
X119589736Y-72561162D01*
X119586166Y-72546321D01*
X119535109Y-72258071D01*
X119533362Y-72242895D01*
X119517365Y-71946738D01*
X119517186Y-71939143D01*
X119710817Y-43088160D01*
X130491500Y-43088160D01*
X130491500Y-44461841D01*
X130497569Y-44538969D01*
X130545637Y-44718360D01*
X130629952Y-44883837D01*
X130629957Y-44883846D01*
X130746829Y-45028170D01*
X130891153Y-45145042D01*
X130891158Y-45145045D01*
X130891161Y-45145047D01*
X131056638Y-45229362D01*
X131236029Y-45277430D01*
X131313157Y-45283500D01*
X132186842Y-45283499D01*
X132263971Y-45277430D01*
X132443362Y-45229362D01*
X132608839Y-45145047D01*
X132608843Y-45145043D01*
X132608846Y-45145042D01*
X132753170Y-45028170D01*
X132802080Y-44967772D01*
X132814806Y-44958980D01*
X132824021Y-44946551D01*
X132843427Y-44939209D01*
X132860494Y-44927420D01*
X132875953Y-44926904D01*
X132890425Y-44921430D01*
X132910716Y-44925745D01*
X132931451Y-44925054D01*
X132945808Y-44933207D01*
X132959868Y-44936198D01*
X132978946Y-44952028D01*
X132988679Y-44957556D01*
X132993578Y-44962410D01*
X133046830Y-45028170D01*
X133118702Y-45086371D01*
X133123179Y-45090806D01*
X133137412Y-45116586D01*
X133154146Y-45140809D01*
X133155526Y-45149395D01*
X133157494Y-45152958D01*
X133157084Y-45159081D01*
X133160500Y-45180316D01*
X133160500Y-45576410D01*
X133180955Y-45679241D01*
X133194683Y-45748258D01*
X133261735Y-45910136D01*
X133359080Y-46055823D01*
X133494177Y-46190920D01*
X133639864Y-46288265D01*
X133801742Y-46355317D01*
X133973591Y-46389500D01*
X133973592Y-46389500D01*
X134148807Y-46389500D01*
X134148808Y-46389500D01*
X134320658Y-46355317D01*
X134482536Y-46288265D01*
X134628223Y-46190920D01*
X134752120Y-46067023D01*
X134849465Y-45921336D01*
X134916517Y-45759458D01*
X134950700Y-45587608D01*
X134950700Y-45412391D01*
X134949116Y-45404426D01*
X134941921Y-45368254D01*
X134939500Y-45343673D01*
X134939500Y-45180316D01*
X134959502Y-45112195D01*
X134986205Y-45082396D01*
X135053170Y-45028170D01*
X135090259Y-44982369D01*
X135170042Y-44883846D01*
X135170043Y-44883843D01*
X135170047Y-44883839D01*
X135254362Y-44718362D01*
X135302430Y-44538971D01*
X135308500Y-44461843D01*
X135308499Y-43088158D01*
X135302430Y-43011029D01*
X135254362Y-42831638D01*
X135249809Y-42822703D01*
X135236705Y-42752928D01*
X135263404Y-42687143D01*
X135321430Y-42646236D01*
X135362076Y-42639500D01*
X140082392Y-42639500D01*
X140257608Y-42639500D01*
X141065500Y-42639500D01*
X141133621Y-42659502D01*
X141180114Y-42713158D01*
X141191500Y-42765500D01*
X141191500Y-45300544D01*
X141202112Y-45404425D01*
X141257885Y-45572738D01*
X141350970Y-45723652D01*
X141350975Y-45723658D01*
X141476341Y-45849024D01*
X141476347Y-45849029D01*
X141476348Y-45849030D01*
X141627262Y-45942115D01*
X141795574Y-45997887D01*
X141899455Y-46008500D01*
X143100544Y-46008499D01*
X143177090Y-46000679D01*
X143246889Y-46013655D01*
X143278989Y-46036932D01*
X143573595Y-46331538D01*
X143607621Y-46393850D01*
X143610500Y-46420633D01*
X143610500Y-49087608D01*
X143644683Y-49259458D01*
X143711735Y-49421336D01*
X143809080Y-49567023D01*
X143932977Y-49690920D01*
X144078664Y-49788265D01*
X144240542Y-49855317D01*
X144412392Y-49889500D01*
X144412393Y-49889500D01*
X144587607Y-49889500D01*
X144587608Y-49889500D01*
X144759458Y-49855317D01*
X144921336Y-49788265D01*
X145067023Y-49690920D01*
X145190920Y-49567023D01*
X145288265Y-49421336D01*
X145355317Y-49259458D01*
X145389500Y-49087608D01*
X145389500Y-45912392D01*
X145355317Y-45740542D01*
X145288265Y-45578664D01*
X145190920Y-45432977D01*
X145067023Y-45309080D01*
X143845404Y-44087461D01*
X143811378Y-44025149D01*
X143808499Y-43998366D01*
X143808499Y-42699455D01*
X143797887Y-42595574D01*
X143774364Y-42524585D01*
X143742115Y-42427262D01*
X143649030Y-42276348D01*
X143649029Y-42276347D01*
X143649024Y-42276341D01*
X143523658Y-42150975D01*
X143523649Y-42150968D01*
X143449352Y-42105140D01*
X143401874Y-42052354D01*
X143389500Y-41997900D01*
X143389500Y-41912396D01*
X143389500Y-41912392D01*
X143379290Y-41861065D01*
X143355317Y-41740542D01*
X143288265Y-41578664D01*
X143190919Y-41432976D01*
X143190914Y-41432970D01*
X143081539Y-41323595D01*
X143047513Y-41261283D01*
X143052578Y-41190468D01*
X143095125Y-41133632D01*
X143161645Y-41108821D01*
X143170634Y-41108500D01*
X144648632Y-41108500D01*
X144648638Y-41108500D01*
X144648645Y-41108499D01*
X144648649Y-41108499D01*
X144709196Y-41101990D01*
X144709199Y-41101989D01*
X144709201Y-41101989D01*
X144846204Y-41050889D01*
X144963261Y-40963261D01*
X145014598Y-40894683D01*
X145050887Y-40846207D01*
X145050889Y-40846203D01*
X145051537Y-40844467D01*
X145052646Y-40842984D01*
X145055205Y-40838299D01*
X145055878Y-40838666D01*
X145094084Y-40787631D01*
X145160604Y-40762821D01*
X145169592Y-40762500D01*
X148736500Y-40762500D01*
X148745325Y-40765091D01*
X148754432Y-40763782D01*
X148778857Y-40774937D01*
X148804621Y-40782502D01*
X148810645Y-40789455D01*
X148819012Y-40793276D01*
X148833526Y-40815861D01*
X148851114Y-40836158D01*
X148853438Y-40846844D01*
X148857396Y-40853002D01*
X148862500Y-40888500D01*
X148862500Y-40997405D01*
X148852909Y-41045623D01*
X148799493Y-41174581D01*
X148799492Y-41174584D01*
X148766500Y-41340441D01*
X148766500Y-41509558D01*
X148799492Y-41675415D01*
X148799493Y-41675418D01*
X148852909Y-41804375D01*
X148862500Y-41852593D01*
X148862500Y-42347405D01*
X148852909Y-42395623D01*
X148799493Y-42524581D01*
X148799492Y-42524584D01*
X148766500Y-42690441D01*
X148766500Y-42859558D01*
X148799492Y-43025415D01*
X148799493Y-43025418D01*
X148864207Y-43181652D01*
X148958159Y-43322262D01*
X149077733Y-43441836D01*
X149077739Y-43441842D01*
X149077741Y-43441843D01*
X149105500Y-43460391D01*
X149151029Y-43514867D01*
X149161500Y-43565157D01*
X149161500Y-44859593D01*
X149174521Y-44925054D01*
X149185922Y-44982369D01*
X149233827Y-45098022D01*
X149303375Y-45202108D01*
X149303377Y-45202110D01*
X150099595Y-45998328D01*
X150113681Y-46024125D01*
X150130297Y-46048376D01*
X150131680Y-46057086D01*
X150133621Y-46060640D01*
X150136445Y-46083708D01*
X150136500Y-46085572D01*
X150136500Y-46198638D01*
X150141095Y-46241391D01*
X150141240Y-46246285D01*
X150140573Y-46248832D01*
X150140573Y-46263466D01*
X150136501Y-46301345D01*
X150136500Y-46301369D01*
X150136500Y-46698649D01*
X150143009Y-46759196D01*
X150143011Y-46759204D01*
X150194110Y-46896202D01*
X150194112Y-46896207D01*
X150281738Y-47013261D01*
X150398792Y-47100887D01*
X150398794Y-47100888D01*
X150398796Y-47100889D01*
X150457875Y-47122924D01*
X150535795Y-47151988D01*
X150535803Y-47151990D01*
X150596350Y-47158499D01*
X150596355Y-47158499D01*
X150596362Y-47158500D01*
X150596368Y-47158500D01*
X151629519Y-47158500D01*
X151697640Y-47178502D01*
X151744133Y-47232158D01*
X151752141Y-47255522D01*
X151753010Y-47259200D01*
X151804110Y-47396202D01*
X151804112Y-47396207D01*
X151891738Y-47513261D01*
X152008792Y-47600887D01*
X152008794Y-47600888D01*
X152008796Y-47600889D01*
X152028832Y-47608362D01*
X152145795Y-47651988D01*
X152145803Y-47651990D01*
X152206350Y-47658499D01*
X152206355Y-47658499D01*
X152206362Y-47658500D01*
X152206368Y-47658500D01*
X153296767Y-47658500D01*
X153297253Y-47658487D01*
X153814854Y-47658487D01*
X153814855Y-47658487D01*
X153942074Y-47633182D01*
X154001992Y-47608362D01*
X154061910Y-47583544D01*
X154169761Y-47511480D01*
X154728321Y-46952920D01*
X154800385Y-46845069D01*
X154815697Y-46808100D01*
X154840996Y-46770239D01*
X154840917Y-46770174D01*
X154841581Y-46769364D01*
X154843017Y-46767215D01*
X154844844Y-46765389D01*
X154933324Y-46632968D01*
X154994271Y-46485831D01*
X155025341Y-46329630D01*
X155025341Y-46170370D01*
X154994271Y-46014169D01*
X154988932Y-46001279D01*
X154979341Y-45953061D01*
X154979341Y-45679240D01*
X154979340Y-45679237D01*
X154969995Y-45632257D01*
X154950038Y-45531928D01*
X154892559Y-45393162D01*
X154809113Y-45268276D01*
X154702906Y-45162069D01*
X154074604Y-44533767D01*
X153313954Y-43773116D01*
X153297982Y-43743867D01*
X153280962Y-43715180D01*
X153281045Y-43712850D01*
X153279928Y-43710804D01*
X153282306Y-43677548D01*
X153283497Y-43644229D01*
X153284826Y-43642314D01*
X153284993Y-43639988D01*
X153304974Y-43613296D01*
X153323989Y-43585911D01*
X153326662Y-43584324D01*
X153327540Y-43583153D01*
X153354827Y-43567614D01*
X153401783Y-43548164D01*
X153472373Y-43540576D01*
X153498214Y-43548163D01*
X153624585Y-43600508D01*
X153790445Y-43633500D01*
X153959555Y-43633500D01*
X154125415Y-43600508D01*
X154281652Y-43535793D01*
X154422262Y-43441841D01*
X154541841Y-43322262D01*
X154635793Y-43181652D01*
X154700508Y-43025415D01*
X154733500Y-42859555D01*
X154733500Y-42690445D01*
X154700508Y-42524585D01*
X154660196Y-42427262D01*
X154647091Y-42395623D01*
X154637500Y-42347405D01*
X154637500Y-41852593D01*
X154647091Y-41804375D01*
X154673531Y-41740543D01*
X154700508Y-41675415D01*
X154733500Y-41509555D01*
X154733500Y-41340445D01*
X154700508Y-41174585D01*
X154692091Y-41154264D01*
X154682500Y-41106046D01*
X154682500Y-40344899D01*
X154682499Y-40344896D01*
X154667896Y-40271483D01*
X154653197Y-40197587D01*
X154630577Y-40142977D01*
X154595719Y-40058821D01*
X154512273Y-39933935D01*
X153986065Y-39407727D01*
X153861179Y-39324282D01*
X153722414Y-39266803D01*
X153575103Y-39237500D01*
X153575100Y-39237500D01*
X150075100Y-39237500D01*
X145234500Y-39237500D01*
X145166379Y-39217498D01*
X145119886Y-39163842D01*
X145108500Y-39111500D01*
X145108500Y-38851367D01*
X145108499Y-38851350D01*
X145101990Y-38790803D01*
X145101988Y-38790795D01*
X145050889Y-38653797D01*
X145050887Y-38653792D01*
X144963261Y-38536738D01*
X144846207Y-38449112D01*
X144846202Y-38449110D01*
X144709204Y-38398011D01*
X144709196Y-38398009D01*
X144648649Y-38391500D01*
X144648638Y-38391500D01*
X142851362Y-38391500D01*
X142851350Y-38391500D01*
X142790803Y-38398009D01*
X142790795Y-38398011D01*
X142653797Y-38449110D01*
X142653792Y-38449112D01*
X142536738Y-38536738D01*
X142449112Y-38653792D01*
X142449110Y-38653797D01*
X142405131Y-38771708D01*
X142362584Y-38828544D01*
X142296064Y-38853354D01*
X142226690Y-38838262D01*
X142197981Y-38816770D01*
X142095009Y-38713798D01*
X142095006Y-38713796D01*
X142095004Y-38713794D01*
X141922009Y-38588106D01*
X141731483Y-38491028D01*
X141731480Y-38491027D01*
X141731478Y-38491026D01*
X141528120Y-38424952D01*
X141528123Y-38424952D01*
X141488801Y-38418724D01*
X141316916Y-38391500D01*
X141103084Y-38391500D01*
X140891884Y-38424951D01*
X140891878Y-38424952D01*
X140688521Y-38491026D01*
X140688515Y-38491029D01*
X140497987Y-38588108D01*
X140324993Y-38713796D01*
X140324990Y-38713798D01*
X140173798Y-38864990D01*
X140173796Y-38864993D01*
X140048108Y-39037987D01*
X140047434Y-39039088D01*
X140047068Y-39039418D01*
X140045196Y-39041996D01*
X140044654Y-39041602D01*
X139994787Y-39086721D01*
X139924745Y-39098328D01*
X139859547Y-39070226D01*
X139834976Y-39041870D01*
X139834804Y-39041996D01*
X139833341Y-39039982D01*
X139832566Y-39039088D01*
X139831896Y-39037996D01*
X139831894Y-39037991D01*
X139706206Y-38864996D01*
X139706203Y-38864993D01*
X139706201Y-38864990D01*
X139555009Y-38713798D01*
X139555006Y-38713796D01*
X139555004Y-38713794D01*
X139382009Y-38588106D01*
X139191483Y-38491028D01*
X139191480Y-38491027D01*
X139191478Y-38491026D01*
X138988120Y-38424952D01*
X138988123Y-38424952D01*
X138948801Y-38418724D01*
X138776916Y-38391500D01*
X138563084Y-38391500D01*
X138351884Y-38424951D01*
X138351878Y-38424952D01*
X138148521Y-38491026D01*
X138148515Y-38491029D01*
X137957987Y-38588108D01*
X137784995Y-38713794D01*
X137730095Y-38768694D01*
X137675193Y-38823596D01*
X137612884Y-38857620D01*
X137586100Y-38860500D01*
X135240469Y-38860500D01*
X135172348Y-38840498D01*
X135125855Y-38786842D01*
X135122422Y-38778556D01*
X135075889Y-38653796D01*
X135075886Y-38653792D01*
X135075886Y-38653791D01*
X134988261Y-38536738D01*
X134871207Y-38449112D01*
X134871202Y-38449110D01*
X134734204Y-38398011D01*
X134734196Y-38398009D01*
X134673649Y-38391500D01*
X134673638Y-38391500D01*
X132876362Y-38391500D01*
X132876350Y-38391500D01*
X132815803Y-38398009D01*
X132815795Y-38398011D01*
X132678797Y-38449110D01*
X132678792Y-38449112D01*
X132561738Y-38536738D01*
X132474112Y-38653792D01*
X132474110Y-38653797D01*
X132423011Y-38790795D01*
X132423009Y-38790803D01*
X132416500Y-38851350D01*
X132416500Y-40648649D01*
X132423009Y-40709196D01*
X132423011Y-40709204D01*
X132449483Y-40780175D01*
X132454549Y-40850990D01*
X132420524Y-40913303D01*
X132379647Y-40940616D01*
X132328669Y-40961732D01*
X132328664Y-40961734D01*
X132182981Y-41059077D01*
X132182974Y-41059082D01*
X131009082Y-42232974D01*
X131009076Y-42232981D01*
X130908333Y-42383754D01*
X130882863Y-42411672D01*
X130746827Y-42521831D01*
X130629957Y-42666153D01*
X130629952Y-42666162D01*
X130545637Y-42831639D01*
X130497571Y-43011025D01*
X130497570Y-43011029D01*
X130496438Y-43025415D01*
X130491500Y-43088160D01*
X119710817Y-43088160D01*
X119733039Y-39777056D01*
X119733361Y-39768865D01*
X119756238Y-39451160D01*
X119758478Y-39434928D01*
X119821623Y-39126939D01*
X119825958Y-39111116D01*
X119840081Y-39070226D01*
X119928596Y-38813952D01*
X119934945Y-38798838D01*
X120075339Y-38517525D01*
X120083606Y-38503354D01*
X120259375Y-38242671D01*
X120269403Y-38229709D01*
X120477554Y-37994091D01*
X120489184Y-37982537D01*
X120726214Y-37775954D01*
X120739230Y-37766025D01*
X121001096Y-37592003D01*
X121015302Y-37583844D01*
X121297562Y-37445334D01*
X121312712Y-37439089D01*
X121610580Y-37338441D01*
X121626413Y-37334219D01*
X121934822Y-37273141D01*
X121951067Y-37271010D01*
X122244443Y-37251864D01*
X122268920Y-37250267D01*
X122277125Y-37250000D01*
X156456194Y-37250000D01*
X156463801Y-37250230D01*
G37*
G04 #@! TD.AperFunction*
M02*
