G04 #@! TF.GenerationSoftware,KiCad,Pcbnew,9.0.0-rc1-eb83b2429a~181~ubuntu24.04.1*
G04 #@! TF.CreationDate,2025-01-01T21:40:26+01:00*
G04 #@! TF.ProjectId,Spinne_Werkstatt,5370696e-6e65-45f5-9765-726b73746174,rev?*
G04 #@! TF.SameCoordinates,Original*
G04 #@! TF.FileFunction,Copper,L1,Top*
G04 #@! TF.FilePolarity,Positive*
%FSLAX46Y46*%
G04 Gerber Fmt 4.6, Leading zero omitted, Abs format (unit mm)*
G04 Created by KiCad (PCBNEW 9.0.0-rc1-eb83b2429a~181~ubuntu24.04.1) date 2025-01-01 21:40:26*
%MOMM*%
%LPD*%
G01*
G04 APERTURE LIST*
G04 Aperture macros list*
%AMRoundRect*
0 Rectangle with rounded corners*
0 $1 Rounding radius*
0 $2 $3 $4 $5 $6 $7 $8 $9 X,Y pos of 4 corners*
0 Add a 4 corners polygon primitive as box body*
4,1,4,$2,$3,$4,$5,$6,$7,$8,$9,$2,$3,0*
0 Add four circle primitives for the rounded corners*
1,1,$1+$1,$2,$3*
1,1,$1+$1,$4,$5*
1,1,$1+$1,$6,$7*
1,1,$1+$1,$8,$9*
0 Add four rect primitives between the rounded corners*
20,1,$1+$1,$2,$3,$4,$5,0*
20,1,$1+$1,$4,$5,$6,$7,0*
20,1,$1+$1,$6,$7,$8,$9,0*
20,1,$1+$1,$8,$9,$2,$3,0*%
G04 Aperture macros list end*
G04 #@! TA.AperFunction,ComponentPad*
%ADD10C,1.600000*%
G04 #@! TD*
G04 #@! TA.AperFunction,SMDPad,CuDef*
%ADD11R,0.300000X0.990000*%
G04 #@! TD*
G04 #@! TA.AperFunction,SMDPad,CuDef*
%ADD12R,2.260000X2.160000*%
G04 #@! TD*
G04 #@! TA.AperFunction,SMDPad,CuDef*
%ADD13RoundRect,0.250000X0.550000X-1.250000X0.550000X1.250000X-0.550000X1.250000X-0.550000X-1.250000X0*%
G04 #@! TD*
G04 #@! TA.AperFunction,SMDPad,CuDef*
%ADD14RoundRect,0.250000X-0.475000X0.337500X-0.475000X-0.337500X0.475000X-0.337500X0.475000X0.337500X0*%
G04 #@! TD*
G04 #@! TA.AperFunction,ComponentPad*
%ADD15C,0.700000*%
G04 #@! TD*
G04 #@! TA.AperFunction,ComponentPad*
%ADD16O,0.900000X2.400000*%
G04 #@! TD*
G04 #@! TA.AperFunction,ComponentPad*
%ADD17O,0.900000X1.700000*%
G04 #@! TD*
G04 #@! TA.AperFunction,SMDPad,CuDef*
%ADD18R,1.500000X0.900000*%
G04 #@! TD*
G04 #@! TA.AperFunction,SMDPad,CuDef*
%ADD19R,0.900000X1.500000*%
G04 #@! TD*
G04 #@! TA.AperFunction,SMDPad,CuDef*
%ADD20R,0.900000X0.900000*%
G04 #@! TD*
G04 #@! TA.AperFunction,HeatsinkPad*
%ADD21C,0.600000*%
G04 #@! TD*
G04 #@! TA.AperFunction,SMDPad,CuDef*
%ADD22R,3.800000X3.800000*%
G04 #@! TD*
G04 #@! TA.AperFunction,SMDPad,CuDef*
%ADD23RoundRect,0.150000X-0.825000X-0.150000X0.825000X-0.150000X0.825000X0.150000X-0.825000X0.150000X0*%
G04 #@! TD*
G04 #@! TA.AperFunction,SMDPad,CuDef*
%ADD24RoundRect,0.150000X-0.150000X0.587500X-0.150000X-0.587500X0.150000X-0.587500X0.150000X0.587500X0*%
G04 #@! TD*
G04 #@! TA.AperFunction,SMDPad,CuDef*
%ADD25RoundRect,0.150000X0.150000X-0.587500X0.150000X0.587500X-0.150000X0.587500X-0.150000X-0.587500X0*%
G04 #@! TD*
G04 #@! TA.AperFunction,SMDPad,CuDef*
%ADD26RoundRect,0.250000X-0.550000X1.250000X-0.550000X-1.250000X0.550000X-1.250000X0.550000X1.250000X0*%
G04 #@! TD*
G04 #@! TA.AperFunction,ComponentPad*
%ADD27R,1.700000X1.700000*%
G04 #@! TD*
G04 #@! TA.AperFunction,ComponentPad*
%ADD28O,1.700000X1.700000*%
G04 #@! TD*
G04 #@! TA.AperFunction,SMDPad,CuDef*
%ADD29R,0.950000X1.750000*%
G04 #@! TD*
G04 #@! TA.AperFunction,SMDPad,CuDef*
%ADD30R,3.200000X1.750000*%
G04 #@! TD*
G04 #@! TA.AperFunction,SMDPad,CuDef*
%ADD31RoundRect,0.250000X-0.625000X0.400000X-0.625000X-0.400000X0.625000X-0.400000X0.625000X0.400000X0*%
G04 #@! TD*
G04 #@! TA.AperFunction,ViaPad*
%ADD32C,0.600000*%
G04 #@! TD*
G04 #@! TA.AperFunction,Conductor*
%ADD33C,0.508000*%
G04 #@! TD*
G04 #@! TA.AperFunction,Conductor*
%ADD34C,0.299974*%
G04 #@! TD*
G04 #@! TA.AperFunction,Conductor*
%ADD35C,0.762000*%
G04 #@! TD*
G04 #@! TA.AperFunction,Conductor*
%ADD36C,0.254000*%
G04 #@! TD*
G04 #@! TA.AperFunction,Conductor*
%ADD37C,1.700000*%
G04 #@! TD*
G04 APERTURE END LIST*
D10*
X151750000Y-53750000D03*
X156750000Y-53750000D03*
D11*
X143750000Y-43750000D03*
X144250000Y-43750000D03*
X144750000Y-43750000D03*
X144750000Y-45360000D03*
X144250000Y-45360000D03*
X143750000Y-45360000D03*
D12*
X158000000Y-50700000D03*
X158000000Y-45800000D03*
X153250000Y-50650000D03*
X153250000Y-45750000D03*
X148000000Y-45750000D03*
X148000000Y-50650000D03*
D13*
X123500000Y-47450000D03*
X123500000Y-43050000D03*
D14*
X127500000Y-57000000D03*
X127500000Y-59075000D03*
D15*
X154725000Y-42775000D03*
X153875000Y-42775000D03*
X153025000Y-42775000D03*
X152175000Y-42775000D03*
X151325000Y-42775000D03*
X150475000Y-42775000D03*
X149625000Y-42775000D03*
X148775000Y-42775000D03*
X148775000Y-41425000D03*
X149625000Y-41425000D03*
X150475000Y-41425000D03*
X151325000Y-41425000D03*
X152175000Y-41425000D03*
X153025000Y-41425000D03*
X153875000Y-41425000D03*
X154725000Y-41425000D03*
D16*
X156075000Y-41795000D03*
D17*
X156075000Y-38415000D03*
D16*
X147425000Y-41795000D03*
D17*
X147425000Y-38415000D03*
D18*
X130500000Y-54340000D03*
X130500000Y-55610000D03*
X130500000Y-56880000D03*
X130500000Y-58150000D03*
X130500000Y-59420000D03*
X130500000Y-60690000D03*
X130500000Y-61960000D03*
X130500000Y-63230000D03*
X130500000Y-64500000D03*
X130500000Y-65770000D03*
X130500000Y-67040000D03*
X130500000Y-68310000D03*
X130500000Y-69580000D03*
X130500000Y-70850000D03*
D19*
X133535000Y-72100000D03*
X134805000Y-72100000D03*
X136075000Y-72100000D03*
X137345000Y-72100000D03*
X138615000Y-72100000D03*
X139885000Y-72100000D03*
X141155000Y-72100000D03*
X142425000Y-72100000D03*
X143695000Y-72100000D03*
X144965000Y-72100000D03*
D18*
X148000000Y-70850000D03*
X148000000Y-69580000D03*
X148000000Y-68310000D03*
X148000000Y-67040000D03*
X148000000Y-65770000D03*
X148000000Y-64500000D03*
X148000000Y-63230000D03*
X148000000Y-61960000D03*
X148000000Y-60690000D03*
X148000000Y-59420000D03*
X148000000Y-58150000D03*
X148000000Y-56880000D03*
X148000000Y-55610000D03*
X148000000Y-54340000D03*
D20*
X136350000Y-60280000D03*
D21*
X136350000Y-60980000D03*
D20*
X136350000Y-61680000D03*
D21*
X136350000Y-62380000D03*
D20*
X136350000Y-63080000D03*
D21*
X137050000Y-60280000D03*
X137050000Y-61680000D03*
X137050000Y-63080000D03*
D20*
X137750000Y-60280000D03*
D21*
X137750000Y-60980000D03*
D20*
X137750000Y-61680000D03*
D22*
X137750000Y-61680000D03*
D21*
X137750000Y-62380000D03*
D20*
X137750000Y-63080000D03*
D21*
X138450000Y-60280000D03*
X138450000Y-61680000D03*
X138450000Y-63080000D03*
D20*
X139150000Y-60280000D03*
D21*
X139150000Y-60980000D03*
D20*
X139150000Y-61680000D03*
D21*
X139150000Y-62380000D03*
D20*
X139150000Y-63080000D03*
D23*
X151775000Y-56210000D03*
X151775000Y-57480000D03*
X151775000Y-58750000D03*
X151775000Y-60020000D03*
X151775000Y-61290000D03*
X151775000Y-62560000D03*
X151775000Y-63830000D03*
X151775000Y-65100000D03*
X156725000Y-65100000D03*
X156725000Y-63830000D03*
X156725000Y-62560000D03*
X156725000Y-61290000D03*
X156725000Y-60020000D03*
X156725000Y-58750000D03*
X156725000Y-57480000D03*
X156725000Y-56210000D03*
D24*
X155000000Y-72000000D03*
X153100000Y-72000000D03*
X154050000Y-73875000D03*
D25*
X153050000Y-69375000D03*
X154950000Y-69375000D03*
X154000000Y-67500000D03*
D26*
X123250000Y-57100000D03*
X123250000Y-61500000D03*
D27*
X132525000Y-39750000D03*
D28*
X129985000Y-39750000D03*
D27*
X143750000Y-39750000D03*
D28*
X141210000Y-39750000D03*
X138670000Y-39750000D03*
D29*
X134300000Y-43700000D03*
X132000000Y-43700000D03*
X129700000Y-43700000D03*
D30*
X132000000Y-50000000D03*
D31*
X126250000Y-51150000D03*
X126250000Y-54250000D03*
D26*
X139250000Y-44050000D03*
X139250000Y-48450000D03*
D27*
X148000000Y-77500000D03*
D28*
X148000000Y-80040000D03*
X148000000Y-82580000D03*
X148000000Y-85120000D03*
X148000000Y-87660000D03*
X148000000Y-90200000D03*
X148000000Y-92740000D03*
X148000000Y-95280000D03*
X148000000Y-97820000D03*
X148000000Y-100360000D03*
X148000000Y-102900000D03*
X148000000Y-105440000D03*
X148000000Y-107980000D03*
X148000000Y-110520000D03*
X148000000Y-113060000D03*
D27*
X131000000Y-77500000D03*
D28*
X131000000Y-80040000D03*
X131000000Y-82580000D03*
X131000000Y-85120000D03*
X131000000Y-87660000D03*
X131000000Y-90200000D03*
X131000000Y-92740000D03*
X131000000Y-95280000D03*
X131000000Y-97820000D03*
X131000000Y-100360000D03*
X131000000Y-102900000D03*
X131000000Y-105440000D03*
X131000000Y-107980000D03*
X131000000Y-110520000D03*
X131000000Y-113060000D03*
D32*
X151250000Y-48250000D03*
X144750000Y-42750000D03*
X158000000Y-47750000D03*
X153504000Y-47500000D03*
X148250000Y-48000000D03*
X128000000Y-62000000D03*
X155000000Y-65250000D03*
X126500000Y-75250000D03*
X126250000Y-52750000D03*
X125000000Y-47250000D03*
X132000000Y-45500000D03*
X133625000Y-56375000D03*
X127500000Y-75250000D03*
X136000000Y-48000000D03*
X132250000Y-57000000D03*
X124993144Y-75256856D03*
X128750000Y-65770000D03*
X134500000Y-62000000D03*
X133000000Y-59420000D03*
X133750000Y-60690000D03*
X137750000Y-69500000D03*
X135127000Y-63230000D03*
X136500000Y-64500000D03*
X127500000Y-68310000D03*
X139000000Y-70500000D03*
X128795000Y-67545000D03*
X144000000Y-58250000D03*
X150750000Y-68310000D03*
X140375000Y-64625000D03*
X150000000Y-67040000D03*
X141250000Y-63230000D03*
X146000000Y-55610000D03*
X142250000Y-60750000D03*
X145000000Y-57000000D03*
X151500000Y-69500000D03*
X149656800Y-59420000D03*
X149656800Y-57480000D03*
X143250000Y-59500000D03*
X153750000Y-61290000D03*
X154000000Y-62560000D03*
D33*
X155000000Y-63750000D02*
X155000000Y-60500000D01*
X156725000Y-60020000D02*
X155480000Y-60020000D01*
X155480000Y-60020000D02*
X155000000Y-60500000D01*
X153050000Y-69375000D02*
X153050000Y-65700000D01*
X153050000Y-65700000D02*
X155000000Y-63750000D01*
X159000000Y-66000000D02*
X159000000Y-59500000D01*
X156725000Y-58750000D02*
X158250000Y-58750000D01*
X158250000Y-58750000D02*
X159000000Y-59500000D01*
X154950000Y-69375000D02*
X154950000Y-68550000D01*
X154950000Y-68550000D02*
X156500000Y-67000000D01*
X156500000Y-67000000D02*
X158000000Y-67000000D01*
X158000000Y-67000000D02*
X159000000Y-66000000D01*
X151775000Y-60020000D02*
X152730000Y-60020000D01*
X152730000Y-60020000D02*
X154250000Y-58500000D01*
X154250000Y-58500000D02*
X154250000Y-57000000D01*
X154250000Y-57000000D02*
X155040000Y-56210000D01*
X155040000Y-56210000D02*
X156725000Y-56210000D01*
X156725000Y-53275000D02*
X156500000Y-53500000D01*
X156725000Y-56210000D02*
X156725000Y-53275000D01*
X156750000Y-53750000D02*
X155500000Y-52500000D01*
X155500000Y-52500000D02*
X155500000Y-49500000D01*
X155500000Y-49500000D02*
X154255000Y-48255000D01*
X154255000Y-48255000D02*
X153191268Y-48255000D01*
X153191268Y-48255000D02*
X153186268Y-48250000D01*
X153186268Y-48250000D02*
X151250000Y-48250000D01*
D34*
X144750000Y-42750000D02*
X144750000Y-43750000D01*
D33*
X148000000Y-45750000D02*
X148250000Y-46000000D01*
X148250000Y-46000000D02*
X148250000Y-48000000D01*
X148000000Y-45750000D02*
X148000000Y-47500000D01*
D34*
X147250000Y-48000000D02*
X147500000Y-48000000D01*
X147500000Y-48000000D02*
X148000000Y-47500000D01*
D33*
X148000000Y-47500000D02*
X148000000Y-47750000D01*
X148000000Y-47750000D02*
X148250000Y-48000000D01*
D34*
X144750000Y-48000000D02*
X147250000Y-48000000D01*
D33*
X148000000Y-45750000D02*
X150125000Y-45750000D01*
X150125000Y-45750000D02*
X152175000Y-43700000D01*
X152175000Y-43700000D02*
X152175000Y-42775000D01*
D34*
X144750000Y-45360000D02*
X144750000Y-46250000D01*
X144750000Y-46250000D02*
X145000000Y-46500000D01*
X145500000Y-46500000D02*
X145750000Y-46250000D01*
X145000000Y-46500000D02*
X145500000Y-46500000D01*
X145750000Y-46250000D02*
X145750000Y-44750000D01*
X145750000Y-44750000D02*
X146500000Y-44000000D01*
X146500000Y-44000000D02*
X150644420Y-44000000D01*
X150644420Y-44000000D02*
X151325000Y-43319420D01*
X151325000Y-43319420D02*
X151325000Y-42775000D01*
D33*
X158000000Y-47750000D02*
X158000000Y-45800000D01*
X153504000Y-47500000D02*
X153504000Y-46004000D01*
X153504000Y-46004000D02*
X153250000Y-45750000D01*
D34*
X143750000Y-45360000D02*
X143750000Y-47000000D01*
X143750000Y-47000000D02*
X144750000Y-48000000D01*
X147500000Y-48000000D02*
X148250000Y-48000000D01*
D33*
X151775000Y-61290000D02*
X153750000Y-61290000D01*
X151775000Y-62560000D02*
X154000000Y-62560000D01*
X154000000Y-66250000D02*
X155000000Y-65250000D01*
X154000000Y-67500000D02*
X154000000Y-66250000D01*
X150054532Y-58750000D02*
X149539532Y-58235000D01*
X149539532Y-58235000D02*
X148085000Y-58235000D01*
X148085000Y-58235000D02*
X148000000Y-58150000D01*
X151775000Y-58750000D02*
X150054532Y-58750000D01*
X149656800Y-57500000D02*
X151755000Y-57500000D01*
X151755000Y-57500000D02*
X151775000Y-57480000D01*
D35*
X138250000Y-41750000D02*
X139000000Y-41750000D01*
X139250000Y-42670000D02*
X139460000Y-42460000D01*
X139460000Y-42460000D02*
X139460000Y-42210000D01*
X139460000Y-42210000D02*
X139000000Y-41750000D01*
X130500000Y-41750000D02*
X138250000Y-41750000D01*
X139250000Y-44050000D02*
X139250000Y-42750000D01*
X139250000Y-42750000D02*
X138250000Y-41750000D01*
X139250000Y-44050000D02*
X139250000Y-42670000D01*
X139250000Y-42670000D02*
X140170000Y-41750000D01*
X136000000Y-48000000D02*
X136000000Y-46250000D01*
X136000000Y-46250000D02*
X138200000Y-44050000D01*
X138200000Y-44050000D02*
X139250000Y-44050000D01*
D33*
X132000000Y-45500000D02*
X132000000Y-43700000D01*
D35*
X129700000Y-43700000D02*
X129750000Y-43650000D01*
X129750000Y-43650000D02*
X129750000Y-42500000D01*
X129750000Y-42500000D02*
X130500000Y-41750000D01*
X139000000Y-41750000D02*
X140170000Y-41750000D01*
D33*
X125000000Y-47250000D02*
X123700000Y-47250000D01*
X123700000Y-47250000D02*
X123500000Y-47450000D01*
D35*
X126250000Y-51150000D02*
X126250000Y-48500000D01*
X126250000Y-48500000D02*
X125000000Y-47250000D01*
D36*
X128000000Y-62000000D02*
X129000000Y-61000000D01*
D33*
X127620000Y-56880000D02*
X127500000Y-57000000D01*
D36*
X129000000Y-61000000D02*
X129000000Y-57500000D01*
X129000000Y-57380000D02*
X128500000Y-56880000D01*
D33*
X129500000Y-56880000D02*
X129000000Y-56880000D01*
D36*
X129000000Y-57380000D02*
X129500000Y-56880000D01*
D33*
X123250000Y-55000000D02*
X124000000Y-54250000D01*
X129000000Y-56880000D02*
X128500000Y-56880000D01*
D36*
X129000000Y-57500000D02*
X129000000Y-57380000D01*
D33*
X123250000Y-57050000D02*
X123250000Y-55000000D01*
X128500000Y-56880000D02*
X127620000Y-56880000D01*
D36*
X129000000Y-57500000D02*
X129000000Y-56880000D01*
X128750000Y-77500000D02*
X128750000Y-81250000D01*
X130080000Y-82580000D02*
X131000000Y-82580000D01*
D33*
X126250000Y-54250000D02*
X126250000Y-52750000D01*
X123250000Y-57050000D02*
X123300000Y-57000000D01*
X123300000Y-57000000D02*
X123750000Y-56550000D01*
D36*
X128750000Y-81250000D02*
X130080000Y-82580000D01*
D33*
X130500000Y-56880000D02*
X129500000Y-56880000D01*
D36*
X126500000Y-75250000D02*
X128750000Y-77500000D01*
D33*
X124000000Y-54250000D02*
X126250000Y-54250000D01*
X128000000Y-57000000D02*
X123300000Y-57000000D01*
D37*
X131000000Y-77500000D02*
X131000000Y-76250000D01*
X131000000Y-76250000D02*
X131000000Y-74250000D01*
X131000000Y-76250000D02*
X133250000Y-74000000D01*
D33*
X133535000Y-72100000D02*
X133500000Y-72135000D01*
D37*
X131000000Y-76250000D02*
X128500000Y-73750000D01*
D35*
X127400000Y-51150000D02*
X128250000Y-52000000D01*
D36*
X129500000Y-77250000D02*
X129500000Y-79500000D01*
X130040000Y-80040000D02*
X131000000Y-80040000D01*
D35*
X128250000Y-52000000D02*
X128250000Y-54750000D01*
X130500000Y-55610000D02*
X132860000Y-55610000D01*
X129110000Y-55610000D02*
X130500000Y-55610000D01*
D36*
X127500000Y-75250000D02*
X129500000Y-77250000D01*
D35*
X126250000Y-51150000D02*
X127400000Y-51150000D01*
X128250000Y-54750000D02*
X129110000Y-55610000D01*
D36*
X129500000Y-79500000D02*
X130040000Y-80040000D01*
D35*
X132860000Y-55610000D02*
X133625000Y-56375000D01*
X140170000Y-41750000D02*
X141210000Y-40710000D01*
D33*
X153875000Y-41425000D02*
X153875000Y-42775000D01*
X153875000Y-41425000D02*
X153875000Y-41375000D01*
X149625000Y-41425000D02*
X149625000Y-40375000D01*
X153875000Y-41375000D02*
X153920000Y-41330000D01*
X144000000Y-40000000D02*
X143750000Y-39750000D01*
X149625000Y-40375000D02*
X150000000Y-40000000D01*
X153500000Y-40000000D02*
X150000000Y-40000000D01*
X153920000Y-41330000D02*
X153920000Y-40420000D01*
X153920000Y-40420000D02*
X153500000Y-40000000D01*
D36*
X149500000Y-42900000D02*
X149625000Y-42775000D01*
D33*
X149625000Y-41425000D02*
X149625000Y-42775000D01*
X150000000Y-40000000D02*
X144000000Y-40000000D01*
D36*
X130500000Y-58150000D02*
X131600000Y-58150000D01*
X128000000Y-82120000D02*
X131000000Y-85120000D01*
X132250000Y-57000000D02*
X132250000Y-57500000D01*
X128000000Y-78263712D02*
X128000000Y-82120000D01*
X131600000Y-58150000D02*
X132250000Y-57500000D01*
X124993144Y-75256856D02*
X128000000Y-78263712D01*
X128750000Y-65770000D02*
X130500000Y-65770000D01*
X134500000Y-62000000D02*
X130540000Y-62000000D01*
X130540000Y-62000000D02*
X130500000Y-61960000D01*
X130500000Y-59420000D02*
X132920000Y-59420000D01*
X132920000Y-59420000D02*
X133000000Y-59500000D01*
X133750000Y-60690000D02*
X130500000Y-60690000D01*
X130580000Y-69500000D02*
X130500000Y-69580000D01*
X137750000Y-69500000D02*
X130580000Y-69500000D01*
X130500000Y-63230000D02*
X135127000Y-63230000D01*
X136500000Y-64500000D02*
X130500000Y-64500000D01*
X130500000Y-68310000D02*
X127500000Y-68310000D01*
X130850000Y-70500000D02*
X130500000Y-70850000D01*
X139000000Y-70500000D02*
X130850000Y-70500000D01*
X130350000Y-71000000D02*
X130500000Y-70850000D01*
X131000000Y-113060000D02*
X132940000Y-113060000D01*
X132940000Y-113060000D02*
X134750000Y-111250000D01*
X134750000Y-111250000D02*
X134750000Y-72155000D01*
X134750000Y-72155000D02*
X134805000Y-72100000D01*
X129300000Y-67040000D02*
X130500000Y-67040000D01*
X128795000Y-67545000D02*
X129300000Y-67040000D01*
X146570000Y-97820000D02*
X146000000Y-97250000D01*
X148000000Y-97820000D02*
X146570000Y-97820000D01*
X146770000Y-65770000D02*
X148000000Y-65770000D01*
X146000000Y-97250000D02*
X146000000Y-66500000D01*
X146750000Y-65750000D02*
X146770000Y-65770000D01*
X146000000Y-66500000D02*
X146750000Y-65750000D01*
X143695000Y-72100000D02*
X143695000Y-111195000D01*
X143695000Y-111195000D02*
X145560000Y-113060000D01*
X145560000Y-113060000D02*
X148000000Y-113060000D01*
X144000000Y-58250000D02*
X147900000Y-58250000D01*
D33*
X148195000Y-58345000D02*
X148000000Y-58150000D01*
D36*
X147900000Y-58250000D02*
X148000000Y-58150000D01*
X150750000Y-68310000D02*
X148000000Y-68310000D01*
X144965000Y-109215000D02*
X144965000Y-72100000D01*
X146270000Y-110520000D02*
X144965000Y-109215000D01*
X148000000Y-110520000D02*
X146270000Y-110520000D01*
X140500000Y-64500000D02*
X148000000Y-64500000D01*
X140375000Y-64625000D02*
X140500000Y-64500000D01*
X148000000Y-67040000D02*
X150000000Y-67040000D01*
X148000000Y-63230000D02*
X141250000Y-63230000D01*
X148000000Y-55610000D02*
X146000000Y-55610000D01*
X142250000Y-60750000D02*
X147940000Y-60750000D01*
X147940000Y-60750000D02*
X148000000Y-60690000D01*
X145000000Y-57000000D02*
X147880000Y-57000000D01*
X147880000Y-57000000D02*
X148000000Y-56880000D01*
X151500000Y-69500000D02*
X151420000Y-69580000D01*
X151420000Y-69580000D02*
X148000000Y-69580000D01*
D33*
X149670000Y-59420000D02*
X148000000Y-59420000D01*
D36*
X143250000Y-59500000D02*
X147920000Y-59500000D01*
X147920000Y-59500000D02*
X148000000Y-59420000D01*
D35*
X138670000Y-39750000D02*
X132525000Y-39750000D01*
D33*
X155000000Y-72000000D02*
X155000000Y-69425000D01*
X155000000Y-69425000D02*
X154950000Y-69375000D01*
X153100000Y-69425000D02*
X153050000Y-69375000D01*
X153100000Y-72000000D02*
X153100000Y-69425000D01*
X152000000Y-76000000D02*
X151375000Y-75375000D01*
X151500000Y-76500000D02*
X151625000Y-76375000D01*
X151625000Y-75625000D02*
X151375000Y-75375000D01*
X152000000Y-76000000D02*
X151500000Y-76500000D01*
X151000000Y-77000000D02*
X151500000Y-76500000D01*
X150750000Y-74750000D02*
X150750000Y-72000000D01*
X148000000Y-107980000D02*
X149770000Y-107980000D01*
X151625000Y-76375000D02*
X151625000Y-75625000D01*
X154050000Y-73875000D02*
X154050000Y-75450000D01*
X153500000Y-76000000D02*
X152000000Y-76000000D01*
X154050000Y-75450000D02*
X153500000Y-76000000D01*
X149770000Y-107980000D02*
X151000000Y-106750000D01*
X151000000Y-106750000D02*
X151000000Y-77000000D01*
X150750000Y-72000000D02*
X149600000Y-70850000D01*
X151375000Y-75375000D02*
X150750000Y-74750000D01*
X149600000Y-70850000D02*
X148000000Y-70850000D01*
D36*
X151325000Y-42666163D02*
X151325000Y-42775000D01*
X152175000Y-41825000D02*
X151903000Y-42097000D01*
X151903000Y-42097000D02*
X151894163Y-42097000D01*
X151894163Y-42097000D02*
X151325000Y-42666163D01*
D34*
X151325000Y-42775000D02*
X151325000Y-42675000D01*
D36*
X152175000Y-41425000D02*
X152175000Y-41825000D01*
G04 #@! TA.AperFunction,Conductor*
G36*
X156463801Y-37250230D02*
G01*
X156494523Y-37252088D01*
X156758566Y-37268059D01*
X156773647Y-37269890D01*
X157060374Y-37322435D01*
X157075121Y-37326070D01*
X157353432Y-37412795D01*
X157367644Y-37418186D01*
X157633445Y-37537813D01*
X157646910Y-37544879D01*
X157896373Y-37695685D01*
X157908872Y-37704312D01*
X158138342Y-37884090D01*
X158149722Y-37894173D01*
X158355826Y-38100277D01*
X158365910Y-38111658D01*
X158545684Y-38341124D01*
X158554316Y-38353629D01*
X158665010Y-38536738D01*
X158705116Y-38603082D01*
X158712186Y-38616554D01*
X158831811Y-38882350D01*
X158837207Y-38896576D01*
X158923925Y-39174862D01*
X158927566Y-39189636D01*
X158980107Y-39476340D01*
X158981941Y-39491444D01*
X158999770Y-39786197D01*
X159000000Y-39793805D01*
X159000000Y-44085500D01*
X158979998Y-44153621D01*
X158926342Y-44200114D01*
X158874000Y-44211500D01*
X156821350Y-44211500D01*
X156760803Y-44218009D01*
X156760795Y-44218011D01*
X156623797Y-44269110D01*
X156623792Y-44269112D01*
X156506738Y-44356738D01*
X156419112Y-44473792D01*
X156419110Y-44473797D01*
X156368011Y-44610795D01*
X156368009Y-44610803D01*
X156361500Y-44671350D01*
X156361500Y-46928649D01*
X156368009Y-46989196D01*
X156368011Y-46989204D01*
X156419110Y-47126202D01*
X156419112Y-47126207D01*
X156506738Y-47243261D01*
X156623792Y-47330887D01*
X156623794Y-47330888D01*
X156623796Y-47330889D01*
X156682875Y-47352924D01*
X156760795Y-47381988D01*
X156760803Y-47381990D01*
X156821350Y-47388499D01*
X156821355Y-47388499D01*
X156821362Y-47388500D01*
X157094036Y-47388500D01*
X157162157Y-47408502D01*
X157208650Y-47462158D01*
X157218754Y-47532432D01*
X157217615Y-47539082D01*
X157191500Y-47670367D01*
X157191500Y-47829632D01*
X157207035Y-47907730D01*
X157222570Y-47985831D01*
X157283517Y-48132968D01*
X157371997Y-48265389D01*
X157372000Y-48265392D01*
X157372003Y-48265396D01*
X157484603Y-48377996D01*
X157484609Y-48378001D01*
X157484611Y-48378003D01*
X157617032Y-48466483D01*
X157764169Y-48527430D01*
X157920370Y-48558500D01*
X157920371Y-48558500D01*
X158079629Y-48558500D01*
X158079630Y-48558500D01*
X158235831Y-48527430D01*
X158382968Y-48466483D01*
X158515389Y-48378003D01*
X158628003Y-48265389D01*
X158716483Y-48132968D01*
X158757591Y-48033724D01*
X158802140Y-47978444D01*
X158869503Y-47956023D01*
X158938294Y-47973581D01*
X158986673Y-48025544D01*
X159000000Y-48081943D01*
X159000000Y-58117471D01*
X158979998Y-58185592D01*
X158926342Y-58232085D01*
X158856068Y-58242189D01*
X158791488Y-58212695D01*
X158784905Y-58206566D01*
X158736069Y-58157730D01*
X158736065Y-58157727D01*
X158611179Y-58074282D01*
X158525219Y-58038676D01*
X158472414Y-58016803D01*
X158325103Y-57987500D01*
X158325100Y-57987500D01*
X158299680Y-57987500D01*
X158231559Y-57967498D01*
X158185066Y-57913842D01*
X158174962Y-57843568D01*
X158178680Y-57826358D01*
X158205562Y-57733831D01*
X158208499Y-57696511D01*
X158208500Y-57696511D01*
X158208500Y-57263489D01*
X158208499Y-57263488D01*
X158206322Y-57235833D01*
X158205562Y-57226169D01*
X158159145Y-57066399D01*
X158159143Y-57066397D01*
X158159143Y-57066394D01*
X158074456Y-56923198D01*
X158074455Y-56923197D01*
X158074453Y-56923193D01*
X158074449Y-56923189D01*
X158073708Y-56922233D01*
X158073356Y-56921337D01*
X158070418Y-56916369D01*
X158071219Y-56915895D01*
X158047756Y-56856150D01*
X158061652Y-56786526D01*
X158073708Y-56767767D01*
X158074445Y-56766814D01*
X158074453Y-56766807D01*
X158150145Y-56638819D01*
X158159143Y-56623605D01*
X158159143Y-56623603D01*
X158159145Y-56623601D01*
X158205562Y-56463831D01*
X158208499Y-56426511D01*
X158208500Y-56426511D01*
X158208500Y-55993489D01*
X158208499Y-55993488D01*
X158205562Y-55956171D01*
X158205562Y-55956170D01*
X158193489Y-55914613D01*
X158159145Y-55796399D01*
X158159143Y-55796397D01*
X158159143Y-55796394D01*
X158074455Y-55653196D01*
X158074450Y-55653189D01*
X157956810Y-55535549D01*
X157956803Y-55535544D01*
X157813605Y-55450856D01*
X157653829Y-55404437D01*
X157616511Y-55401500D01*
X157616502Y-55401500D01*
X157613500Y-55401500D01*
X157545379Y-55381498D01*
X157498886Y-55327842D01*
X157487500Y-55275500D01*
X157487500Y-54895769D01*
X157507502Y-54827648D01*
X157539439Y-54793833D01*
X157602430Y-54748068D01*
X157748068Y-54602430D01*
X157869129Y-54435803D01*
X157962634Y-54252290D01*
X158026280Y-54056408D01*
X158058500Y-53852981D01*
X158058500Y-53647019D01*
X158026280Y-53443592D01*
X157962634Y-53247710D01*
X157869129Y-53064197D01*
X157748068Y-52897570D01*
X157748065Y-52897567D01*
X157748063Y-52897564D01*
X157602435Y-52751936D01*
X157602432Y-52751934D01*
X157602430Y-52751932D01*
X157435803Y-52630871D01*
X157252290Y-52537366D01*
X157252287Y-52537365D01*
X157252285Y-52537364D01*
X157056412Y-52473721D01*
X157056410Y-52473720D01*
X157056408Y-52473720D01*
X156852981Y-52441500D01*
X156647019Y-52441500D01*
X156636137Y-52443223D01*
X156600634Y-52448846D01*
X156530223Y-52439746D01*
X156491830Y-52413492D01*
X156299405Y-52221067D01*
X156265379Y-52158755D01*
X156262500Y-52131972D01*
X156262500Y-49424899D01*
X156262499Y-49424896D01*
X156233197Y-49277587D01*
X156175718Y-49138821D01*
X156092273Y-49013935D01*
X156092272Y-49013934D01*
X156092269Y-49013930D01*
X154741069Y-47662730D01*
X154741065Y-47662727D01*
X154616176Y-47579280D01*
X154616173Y-47579279D01*
X154537735Y-47546788D01*
X154482454Y-47502240D01*
X154460034Y-47434876D01*
X154477593Y-47366085D01*
X154529555Y-47317707D01*
X154541907Y-47312330D01*
X154626204Y-47280889D01*
X154643616Y-47267855D01*
X154743261Y-47193261D01*
X154830887Y-47076207D01*
X154830887Y-47076206D01*
X154830889Y-47076204D01*
X154881989Y-46939201D01*
X154883124Y-46928649D01*
X154888499Y-46878649D01*
X154888500Y-46878632D01*
X154888500Y-44621367D01*
X154888499Y-44621350D01*
X154881990Y-44560803D01*
X154881988Y-44560795D01*
X154830889Y-44423797D01*
X154830887Y-44423792D01*
X154743261Y-44306738D01*
X154626207Y-44219112D01*
X154626202Y-44219110D01*
X154489204Y-44168011D01*
X154489196Y-44168009D01*
X154428649Y-44161500D01*
X154428638Y-44161500D01*
X152997736Y-44161500D01*
X152929615Y-44141498D01*
X152883122Y-44087842D01*
X152873018Y-44017568D01*
X152881328Y-43987281D01*
X152908193Y-43922424D01*
X152908194Y-43922419D01*
X152908197Y-43922413D01*
X152937500Y-43775100D01*
X152937500Y-43759500D01*
X152957502Y-43691379D01*
X153011158Y-43644886D01*
X153063500Y-43633500D01*
X153109555Y-43633500D01*
X153275415Y-43600508D01*
X153401783Y-43548164D01*
X153472372Y-43540576D01*
X153498214Y-43548163D01*
X153624585Y-43600508D01*
X153790445Y-43633500D01*
X153959555Y-43633500D01*
X154125415Y-43600508D01*
X154281652Y-43535793D01*
X154422262Y-43441841D01*
X154541841Y-43322262D01*
X154635793Y-43181652D01*
X154700508Y-43025415D01*
X154733500Y-42859555D01*
X154733500Y-42690445D01*
X154700508Y-42524585D01*
X154675047Y-42463118D01*
X154647091Y-42395623D01*
X154637500Y-42347405D01*
X154637500Y-41852593D01*
X154647091Y-41804375D01*
X154700508Y-41675415D01*
X154733500Y-41509555D01*
X154733500Y-41340445D01*
X154700508Y-41174585D01*
X154692091Y-41154264D01*
X154682500Y-41106046D01*
X154682500Y-40344899D01*
X154682499Y-40344896D01*
X154667896Y-40271483D01*
X154653197Y-40197587D01*
X154630577Y-40142977D01*
X154595719Y-40058821D01*
X154512273Y-39933935D01*
X153986065Y-39407727D01*
X153861179Y-39324282D01*
X153722414Y-39266803D01*
X153575103Y-39237500D01*
X153575100Y-39237500D01*
X150075100Y-39237500D01*
X145234500Y-39237500D01*
X145166379Y-39217498D01*
X145119886Y-39163842D01*
X145108500Y-39111500D01*
X145108500Y-38851367D01*
X145108499Y-38851350D01*
X145101990Y-38790803D01*
X145101988Y-38790795D01*
X145050889Y-38653797D01*
X145050887Y-38653792D01*
X144963261Y-38536738D01*
X144846207Y-38449112D01*
X144846202Y-38449110D01*
X144709204Y-38398011D01*
X144709196Y-38398009D01*
X144648649Y-38391500D01*
X144648638Y-38391500D01*
X142851362Y-38391500D01*
X142851350Y-38391500D01*
X142790803Y-38398009D01*
X142790795Y-38398011D01*
X142653797Y-38449110D01*
X142653792Y-38449112D01*
X142536738Y-38536738D01*
X142449112Y-38653792D01*
X142449110Y-38653797D01*
X142405131Y-38771708D01*
X142362584Y-38828544D01*
X142296064Y-38853354D01*
X142226690Y-38838262D01*
X142197981Y-38816770D01*
X142095009Y-38713798D01*
X142095006Y-38713796D01*
X142095004Y-38713794D01*
X141922009Y-38588106D01*
X141731483Y-38491028D01*
X141731480Y-38491027D01*
X141731478Y-38491026D01*
X141528120Y-38424952D01*
X141528123Y-38424952D01*
X141488801Y-38418724D01*
X141316916Y-38391500D01*
X141103084Y-38391500D01*
X140891884Y-38424951D01*
X140891878Y-38424952D01*
X140688521Y-38491026D01*
X140688515Y-38491029D01*
X140497987Y-38588108D01*
X140324993Y-38713796D01*
X140324990Y-38713798D01*
X140173798Y-38864990D01*
X140173796Y-38864993D01*
X140048108Y-39037987D01*
X140047434Y-39039088D01*
X140047068Y-39039418D01*
X140045196Y-39041996D01*
X140044654Y-39041602D01*
X139994787Y-39086721D01*
X139924745Y-39098328D01*
X139859547Y-39070226D01*
X139834976Y-39041870D01*
X139834804Y-39041996D01*
X139833341Y-39039982D01*
X139832566Y-39039088D01*
X139831896Y-39037996D01*
X139831894Y-39037991D01*
X139706206Y-38864996D01*
X139706203Y-38864993D01*
X139706201Y-38864990D01*
X139555009Y-38713798D01*
X139555006Y-38713796D01*
X139555004Y-38713794D01*
X139382009Y-38588106D01*
X139191483Y-38491028D01*
X139191480Y-38491027D01*
X139191478Y-38491026D01*
X138988120Y-38424952D01*
X138988123Y-38424952D01*
X138948801Y-38418724D01*
X138776916Y-38391500D01*
X138563084Y-38391500D01*
X138351884Y-38424951D01*
X138351878Y-38424952D01*
X138148521Y-38491026D01*
X138148515Y-38491029D01*
X137957987Y-38588108D01*
X137784995Y-38713794D01*
X137730095Y-38768694D01*
X137675193Y-38823596D01*
X137612884Y-38857620D01*
X137586100Y-38860500D01*
X133990469Y-38860500D01*
X133922348Y-38840498D01*
X133875855Y-38786842D01*
X133872422Y-38778556D01*
X133825889Y-38653796D01*
X133825886Y-38653792D01*
X133825886Y-38653791D01*
X133738261Y-38536738D01*
X133621207Y-38449112D01*
X133621202Y-38449110D01*
X133484204Y-38398011D01*
X133484196Y-38398009D01*
X133423649Y-38391500D01*
X133423638Y-38391500D01*
X131626362Y-38391500D01*
X131626350Y-38391500D01*
X131565803Y-38398009D01*
X131565795Y-38398011D01*
X131428797Y-38449110D01*
X131428792Y-38449112D01*
X131311738Y-38536738D01*
X131224112Y-38653792D01*
X131224110Y-38653797D01*
X131173011Y-38790795D01*
X131173009Y-38790803D01*
X131166500Y-38851350D01*
X131166500Y-40648649D01*
X131173853Y-40717039D01*
X131171508Y-40717291D01*
X131168346Y-40776406D01*
X131126826Y-40833996D01*
X131060762Y-40859997D01*
X131049519Y-40860500D01*
X130412388Y-40860500D01*
X130240541Y-40894683D01*
X130240536Y-40894685D01*
X130078664Y-40961735D01*
X129932981Y-41059077D01*
X129932974Y-41059082D01*
X129059082Y-41932974D01*
X129059077Y-41932981D01*
X128961735Y-42078664D01*
X128894685Y-42240536D01*
X128894683Y-42240541D01*
X128860500Y-42412389D01*
X128860500Y-42421457D01*
X128840498Y-42489578D01*
X128835368Y-42496966D01*
X128774112Y-42578792D01*
X128774110Y-42578797D01*
X128723011Y-42715795D01*
X128723009Y-42715803D01*
X128716500Y-42776350D01*
X128716500Y-44623649D01*
X128723009Y-44684196D01*
X128723011Y-44684204D01*
X128774110Y-44821202D01*
X128774112Y-44821207D01*
X128861738Y-44938261D01*
X128978792Y-45025887D01*
X128978794Y-45025888D01*
X128978796Y-45025889D01*
X129037875Y-45047924D01*
X129115795Y-45076988D01*
X129115803Y-45076990D01*
X129176350Y-45083499D01*
X129176355Y-45083499D01*
X129176362Y-45083500D01*
X129176368Y-45083500D01*
X130223632Y-45083500D01*
X130223638Y-45083500D01*
X130223645Y-45083499D01*
X130223649Y-45083499D01*
X130284196Y-45076990D01*
X130284199Y-45076989D01*
X130284201Y-45076989D01*
X130421204Y-45025889D01*
X130429428Y-45019733D01*
X130538261Y-44938261D01*
X130625887Y-44821207D01*
X130625887Y-44821206D01*
X130625889Y-44821204D01*
X130676989Y-44684201D01*
X130678370Y-44671362D01*
X130683499Y-44623649D01*
X130683500Y-44623632D01*
X130683500Y-42876633D01*
X130692283Y-42846717D01*
X130698912Y-42816248D01*
X130702726Y-42811152D01*
X130703502Y-42808512D01*
X130720405Y-42787538D01*
X130801405Y-42706538D01*
X130863717Y-42672512D01*
X130934532Y-42677577D01*
X130991368Y-42720124D01*
X131016179Y-42786644D01*
X131016500Y-42795633D01*
X131016500Y-44623649D01*
X131023009Y-44684196D01*
X131023011Y-44684204D01*
X131074110Y-44821202D01*
X131074112Y-44821207D01*
X131161736Y-44938258D01*
X131161737Y-44938259D01*
X131161739Y-44938261D01*
X131187010Y-44957179D01*
X131189791Y-44960894D01*
X131194012Y-44962822D01*
X131210865Y-44989045D01*
X131229555Y-45014013D01*
X131230587Y-45019733D01*
X131232396Y-45022548D01*
X131237500Y-45058046D01*
X131237500Y-45203061D01*
X131227909Y-45251279D01*
X131222572Y-45264162D01*
X131222570Y-45264168D01*
X131191500Y-45420367D01*
X131191500Y-45579632D01*
X131201634Y-45630577D01*
X131222570Y-45735831D01*
X131283517Y-45882968D01*
X131356446Y-45992115D01*
X131371998Y-46015390D01*
X131372003Y-46015396D01*
X131484603Y-46127996D01*
X131484609Y-46128001D01*
X131484611Y-46128003D01*
X131617032Y-46216483D01*
X131764169Y-46277430D01*
X131920370Y-46308500D01*
X131920371Y-46308500D01*
X132079629Y-46308500D01*
X132079630Y-46308500D01*
X132235831Y-46277430D01*
X132382968Y-46216483D01*
X132515389Y-46128003D01*
X132628003Y-46015389D01*
X132716483Y-45882968D01*
X132777430Y-45735831D01*
X132808500Y-45579630D01*
X132808500Y-45420370D01*
X132777430Y-45264169D01*
X132772091Y-45251279D01*
X132770438Y-45242968D01*
X132767604Y-45238559D01*
X132762500Y-45203061D01*
X132762500Y-45058046D01*
X132782502Y-44989925D01*
X132812988Y-44957179D01*
X132838261Y-44938261D01*
X132925889Y-44821204D01*
X132976989Y-44684201D01*
X132978370Y-44671362D01*
X132983499Y-44623649D01*
X132983500Y-44623632D01*
X132983500Y-42776367D01*
X132983319Y-42772989D01*
X132984892Y-42772904D01*
X132996350Y-42709171D01*
X133044696Y-42657178D01*
X133109058Y-42639500D01*
X137815500Y-42639500D01*
X137883621Y-42659502D01*
X137930114Y-42713158D01*
X137941500Y-42765500D01*
X137941500Y-43110095D01*
X137921498Y-43178216D01*
X137867842Y-43224709D01*
X137863719Y-43226504D01*
X137778662Y-43261736D01*
X137632981Y-43359077D01*
X137632974Y-43359082D01*
X135309082Y-45682974D01*
X135309077Y-45682981D01*
X135211735Y-45828664D01*
X135144685Y-45990536D01*
X135144683Y-45990541D01*
X135110500Y-46162389D01*
X135110500Y-48087610D01*
X135140919Y-48240536D01*
X135144683Y-48259458D01*
X135211735Y-48421336D01*
X135309080Y-48567023D01*
X135432977Y-48690920D01*
X135578664Y-48788265D01*
X135740542Y-48855317D01*
X135912392Y-48889500D01*
X135912393Y-48889500D01*
X136087607Y-48889500D01*
X136087608Y-48889500D01*
X136259458Y-48855317D01*
X136421336Y-48788265D01*
X136567023Y-48690920D01*
X136690920Y-48567023D01*
X136788265Y-48421336D01*
X136855317Y-48259458D01*
X136889500Y-48087608D01*
X136889500Y-46670632D01*
X136909502Y-46602511D01*
X136926395Y-46581547D01*
X137848406Y-45659535D01*
X137910715Y-45625513D01*
X137981530Y-45630577D01*
X138038366Y-45673124D01*
X138044728Y-45682471D01*
X138100970Y-45773652D01*
X138100975Y-45773658D01*
X138226341Y-45899024D01*
X138226347Y-45899029D01*
X138226348Y-45899030D01*
X138377262Y-45992115D01*
X138545574Y-46047887D01*
X138649455Y-46058500D01*
X139850544Y-46058499D01*
X139954426Y-46047887D01*
X140122738Y-45992115D01*
X140273652Y-45899030D01*
X140399030Y-45773652D01*
X140492115Y-45622738D01*
X140547887Y-45454426D01*
X140558500Y-45350545D01*
X140558499Y-42749456D01*
X140558499Y-42749455D01*
X140558499Y-42749448D01*
X140552533Y-42691059D01*
X140565507Y-42621258D01*
X140588781Y-42589160D01*
X140860919Y-42317024D01*
X140860920Y-42317023D01*
X141900920Y-41277023D01*
X141998265Y-41131336D01*
X142065317Y-40969458D01*
X142095991Y-40815247D01*
X142104898Y-40798220D01*
X142108983Y-40779443D01*
X142128030Y-40753998D01*
X142128899Y-40752338D01*
X142130366Y-40750843D01*
X142197983Y-40683226D01*
X142260294Y-40649203D01*
X142331109Y-40654269D01*
X142387945Y-40696816D01*
X142405131Y-40728291D01*
X142449110Y-40846203D01*
X142449112Y-40846207D01*
X142536738Y-40963261D01*
X142653792Y-41050887D01*
X142653794Y-41050888D01*
X142653796Y-41050889D01*
X142712875Y-41072924D01*
X142790795Y-41101988D01*
X142790803Y-41101990D01*
X142851350Y-41108499D01*
X142851355Y-41108499D01*
X142851362Y-41108500D01*
X142851368Y-41108500D01*
X144648632Y-41108500D01*
X144648638Y-41108500D01*
X144648645Y-41108499D01*
X144648649Y-41108499D01*
X144709196Y-41101990D01*
X144709199Y-41101989D01*
X144709201Y-41101989D01*
X144846204Y-41050889D01*
X144963261Y-40963261D01*
X144964403Y-40961735D01*
X145050887Y-40846207D01*
X145050889Y-40846203D01*
X145051537Y-40844467D01*
X145052646Y-40842984D01*
X145055205Y-40838299D01*
X145055878Y-40838666D01*
X145094084Y-40787631D01*
X145160604Y-40762821D01*
X145169592Y-40762500D01*
X148736500Y-40762500D01*
X148745325Y-40765091D01*
X148754432Y-40763782D01*
X148778857Y-40774937D01*
X148804621Y-40782502D01*
X148810645Y-40789455D01*
X148819012Y-40793276D01*
X148833526Y-40815861D01*
X148851114Y-40836158D01*
X148853438Y-40846844D01*
X148857396Y-40853002D01*
X148862500Y-40888500D01*
X148862500Y-40997405D01*
X148852909Y-41045623D01*
X148799493Y-41174581D01*
X148799492Y-41174584D01*
X148766500Y-41340441D01*
X148766500Y-41509558D01*
X148799492Y-41675415D01*
X148799493Y-41675418D01*
X148852909Y-41804375D01*
X148862500Y-41852593D01*
X148862500Y-42347405D01*
X148852909Y-42395623D01*
X148799493Y-42524581D01*
X148799492Y-42524584D01*
X148766500Y-42690441D01*
X148766500Y-42859558D01*
X148799492Y-43025415D01*
X148799493Y-43025418D01*
X148858260Y-43167295D01*
X148865849Y-43237885D01*
X148834069Y-43301372D01*
X148773011Y-43337599D01*
X148741851Y-43341513D01*
X146435142Y-43341513D01*
X146346843Y-43359077D01*
X146307926Y-43366818D01*
X146307925Y-43366818D01*
X146307922Y-43366819D01*
X146258288Y-43387379D01*
X146258287Y-43387379D01*
X146188089Y-43416456D01*
X146080239Y-43488519D01*
X146080233Y-43488524D01*
X145623595Y-43945163D01*
X145561283Y-43979189D01*
X145490468Y-43974124D01*
X145433632Y-43931577D01*
X145408821Y-43865057D01*
X145408500Y-43856068D01*
X145408500Y-43257967D01*
X145428502Y-43189846D01*
X145429735Y-43187965D01*
X145466483Y-43132968D01*
X145527430Y-42985831D01*
X145558500Y-42829630D01*
X145558500Y-42670370D01*
X145527430Y-42514169D01*
X145466483Y-42367032D01*
X145378003Y-42234611D01*
X145378001Y-42234609D01*
X145377996Y-42234603D01*
X145265396Y-42122003D01*
X145265390Y-42121998D01*
X145265389Y-42121997D01*
X145132968Y-42033517D01*
X144985831Y-41972570D01*
X144907730Y-41957035D01*
X144829632Y-41941500D01*
X144829630Y-41941500D01*
X144670370Y-41941500D01*
X144670367Y-41941500D01*
X144553219Y-41964802D01*
X144514169Y-41972570D01*
X144514167Y-41972571D01*
X144367032Y-42033517D01*
X144234609Y-42121998D01*
X144234603Y-42122003D01*
X144122003Y-42234603D01*
X144121998Y-42234609D01*
X144033517Y-42367032D01*
X143972571Y-42514167D01*
X143972570Y-42514170D01*
X143941500Y-42670367D01*
X143941500Y-42683915D01*
X143921498Y-42752036D01*
X143867842Y-42798529D01*
X143859538Y-42801969D01*
X143853796Y-42804110D01*
X143736738Y-42891738D01*
X143649112Y-43008792D01*
X143649110Y-43008797D01*
X143598011Y-43145795D01*
X143598009Y-43145803D01*
X143591500Y-43206350D01*
X143591500Y-44239518D01*
X143571498Y-44307639D01*
X143517842Y-44354132D01*
X143494488Y-44362138D01*
X143490801Y-44363009D01*
X143353797Y-44414110D01*
X143353792Y-44414112D01*
X143236738Y-44501738D01*
X143149112Y-44618792D01*
X143149110Y-44618797D01*
X143098011Y-44755795D01*
X143098009Y-44755803D01*
X143091500Y-44816350D01*
X143091500Y-45906796D01*
X143091513Y-45907278D01*
X143091513Y-47064857D01*
X143116818Y-47192072D01*
X143116820Y-47192080D01*
X143134437Y-47234609D01*
X143134437Y-47234611D01*
X143134438Y-47234611D01*
X143166456Y-47311910D01*
X143238519Y-47419760D01*
X143238524Y-47419766D01*
X144330233Y-48511475D01*
X144330239Y-48511480D01*
X144438090Y-48583544D01*
X144487727Y-48604104D01*
X144557926Y-48633182D01*
X144685145Y-48658487D01*
X144814855Y-48658487D01*
X147185145Y-48658487D01*
X147435145Y-48658487D01*
X147742013Y-48658487D01*
X147810134Y-48678489D01*
X147812014Y-48679722D01*
X147867027Y-48716480D01*
X147867029Y-48716481D01*
X147867032Y-48716483D01*
X148014169Y-48777430D01*
X148170370Y-48808500D01*
X148170371Y-48808500D01*
X148329629Y-48808500D01*
X148329630Y-48808500D01*
X148485831Y-48777430D01*
X148632968Y-48716483D01*
X148765389Y-48628003D01*
X148878003Y-48515389D01*
X148966483Y-48382968D01*
X149027430Y-48235831D01*
X149058500Y-48079630D01*
X149058500Y-47920370D01*
X149027430Y-47764169D01*
X149022091Y-47751279D01*
X149020438Y-47742968D01*
X149017604Y-47738559D01*
X149012500Y-47703061D01*
X149012500Y-47464500D01*
X149032502Y-47396379D01*
X149086158Y-47349886D01*
X149138500Y-47338500D01*
X149178632Y-47338500D01*
X149178638Y-47338500D01*
X149178645Y-47338499D01*
X149178649Y-47338499D01*
X149239196Y-47331990D01*
X149239199Y-47331989D01*
X149239201Y-47331989D01*
X149376204Y-47280889D01*
X149393616Y-47267855D01*
X149493261Y-47193261D01*
X149580887Y-47076207D01*
X149580887Y-47076206D01*
X149580889Y-47076204D01*
X149631989Y-46939201D01*
X149633124Y-46928649D01*
X149638499Y-46878649D01*
X149638500Y-46878632D01*
X149638500Y-46638500D01*
X149658502Y-46570379D01*
X149712158Y-46523886D01*
X149764500Y-46512500D01*
X150200100Y-46512500D01*
X150347413Y-46483197D01*
X150486179Y-46425718D01*
X150500041Y-46416456D01*
X150611065Y-46342273D01*
X151396406Y-45556931D01*
X151458717Y-45522908D01*
X151529532Y-45527972D01*
X151586368Y-45570519D01*
X151611179Y-45637039D01*
X151611500Y-45646028D01*
X151611500Y-46878649D01*
X151618009Y-46939196D01*
X151618011Y-46939204D01*
X151669110Y-47076202D01*
X151669112Y-47076207D01*
X151756738Y-47193261D01*
X151846735Y-47260632D01*
X151865418Y-47285590D01*
X151885840Y-47309158D01*
X151886500Y-47313752D01*
X151889282Y-47317468D01*
X151891505Y-47348561D01*
X151895944Y-47379432D01*
X151894015Y-47383655D01*
X151894346Y-47388284D01*
X151879403Y-47415649D01*
X151866450Y-47444012D01*
X151862546Y-47446520D01*
X151860321Y-47450596D01*
X151832946Y-47465543D01*
X151806724Y-47482396D01*
X151800425Y-47483301D01*
X151798009Y-47484621D01*
X151771226Y-47487500D01*
X151546939Y-47487500D01*
X151498721Y-47477909D01*
X151485837Y-47472572D01*
X151485831Y-47472570D01*
X151329632Y-47441500D01*
X151329630Y-47441500D01*
X151170370Y-47441500D01*
X151170367Y-47441500D01*
X151066514Y-47462158D01*
X151014169Y-47472570D01*
X150913742Y-47514169D01*
X150867032Y-47533517D01*
X150734609Y-47621998D01*
X150734603Y-47622003D01*
X150622003Y-47734603D01*
X150621998Y-47734609D01*
X150621997Y-47734611D01*
X150533517Y-47867032D01*
X150472570Y-48014169D01*
X150468680Y-48033725D01*
X150441500Y-48170367D01*
X150441500Y-48170370D01*
X150441500Y-48329630D01*
X150472570Y-48485831D01*
X150533517Y-48632968D01*
X150621997Y-48765389D01*
X150621998Y-48765390D01*
X150622003Y-48765396D01*
X150734603Y-48877996D01*
X150734609Y-48878001D01*
X150734611Y-48878003D01*
X150867032Y-48966483D01*
X151014169Y-49027430D01*
X151170370Y-49058500D01*
X151170371Y-49058500D01*
X151329629Y-49058500D01*
X151329630Y-49058500D01*
X151485831Y-49027430D01*
X151494580Y-49023805D01*
X151498721Y-49022091D01*
X151546939Y-49012500D01*
X153078622Y-49012500D01*
X153103202Y-49014921D01*
X153107617Y-49015799D01*
X153116168Y-49017500D01*
X153886972Y-49017500D01*
X153955093Y-49037502D01*
X153976067Y-49054405D01*
X154700595Y-49778933D01*
X154734621Y-49841245D01*
X154737500Y-49868028D01*
X154737500Y-52575100D01*
X154756451Y-52670367D01*
X154760539Y-52690920D01*
X154760539Y-52690923D01*
X154766800Y-52722406D01*
X154766802Y-52722411D01*
X154824281Y-52861177D01*
X154907570Y-52985831D01*
X154907727Y-52986065D01*
X155413493Y-53491831D01*
X155447517Y-53554142D01*
X155448846Y-53600634D01*
X155441500Y-53647019D01*
X155441500Y-53852981D01*
X155473720Y-54056408D01*
X155537366Y-54252290D01*
X155630871Y-54435803D01*
X155751932Y-54602430D01*
X155751934Y-54602432D01*
X155751936Y-54602435D01*
X155897568Y-54748067D01*
X155910560Y-54757506D01*
X155953914Y-54813728D01*
X155962500Y-54859443D01*
X155962500Y-55275500D01*
X155942498Y-55343621D01*
X155888842Y-55390114D01*
X155863898Y-55398485D01*
X155850364Y-55401500D01*
X155833498Y-55401500D01*
X155796169Y-55404438D01*
X155661323Y-55443613D01*
X155657413Y-55444485D01*
X155653177Y-55444203D01*
X155630015Y-55447500D01*
X154964896Y-55447500D01*
X154817589Y-55476802D01*
X154817587Y-55476803D01*
X154795227Y-55486065D01*
X154678820Y-55534281D01*
X154553939Y-55617724D01*
X154553937Y-55617725D01*
X153657726Y-56513935D01*
X153588842Y-56617031D01*
X153588841Y-56617032D01*
X153574283Y-56638819D01*
X153516804Y-56777584D01*
X153516803Y-56777585D01*
X153487500Y-56924896D01*
X153487500Y-57139183D01*
X153467498Y-57207304D01*
X153413842Y-57253797D01*
X153343568Y-57263901D01*
X153278988Y-57234407D01*
X153240604Y-57174681D01*
X153240503Y-57174336D01*
X153237287Y-57163265D01*
X153209145Y-57066399D01*
X153209143Y-57066397D01*
X153209143Y-57066394D01*
X153124455Y-56923196D01*
X153124450Y-56923189D01*
X153006810Y-56805549D01*
X153006803Y-56805544D01*
X152863605Y-56720856D01*
X152703829Y-56674437D01*
X152666511Y-56671500D01*
X152666502Y-56671500D01*
X150883498Y-56671500D01*
X150883489Y-56671500D01*
X150846171Y-56674437D01*
X150846170Y-56674437D01*
X150686392Y-56720857D01*
X150679118Y-56724005D01*
X150678482Y-56722535D01*
X150623784Y-56737500D01*
X150002022Y-56737500D01*
X149953804Y-56727909D01*
X149895547Y-56703778D01*
X149892631Y-56702570D01*
X149814530Y-56687035D01*
X149736432Y-56671500D01*
X149736430Y-56671500D01*
X149577170Y-56671500D01*
X149577167Y-56671500D01*
X149497190Y-56687408D01*
X149420969Y-56702570D01*
X149420966Y-56702571D01*
X149414899Y-56703778D01*
X149414664Y-56702597D01*
X149350071Y-56703168D01*
X149290008Y-56665314D01*
X149259946Y-56600996D01*
X149258500Y-56581963D01*
X149258500Y-56381367D01*
X149258499Y-56381350D01*
X149251990Y-56320803D01*
X149251989Y-56320801D01*
X149251989Y-56320799D01*
X149240140Y-56289033D01*
X149235074Y-56218221D01*
X149240137Y-56200974D01*
X149251989Y-56169201D01*
X149252566Y-56163842D01*
X149258499Y-56108649D01*
X149258500Y-56108632D01*
X149258500Y-55111367D01*
X149258499Y-55111350D01*
X149251990Y-55050803D01*
X149251988Y-55050795D01*
X149221627Y-54969396D01*
X149200889Y-54913796D01*
X149200888Y-54913794D01*
X149200887Y-54913792D01*
X149113261Y-54796738D01*
X148996207Y-54709112D01*
X148996202Y-54709110D01*
X148859204Y-54658011D01*
X148859196Y-54658009D01*
X148798649Y-54651500D01*
X148798638Y-54651500D01*
X147201362Y-54651500D01*
X147201350Y-54651500D01*
X147140803Y-54658009D01*
X147140795Y-54658011D01*
X147003797Y-54709110D01*
X147003792Y-54709112D01*
X146886738Y-54796738D01*
X146793711Y-54921010D01*
X146791688Y-54919495D01*
X146786429Y-54931012D01*
X146767495Y-54943179D01*
X146751578Y-54959094D01*
X146736908Y-54962837D01*
X146726703Y-54969396D01*
X146691205Y-54974500D01*
X146542391Y-54974500D01*
X146474270Y-54954498D01*
X146472390Y-54953266D01*
X146439084Y-54931012D01*
X146382968Y-54893517D01*
X146235831Y-54832570D01*
X146141105Y-54813728D01*
X146079632Y-54801500D01*
X146079630Y-54801500D01*
X145920370Y-54801500D01*
X145920367Y-54801500D01*
X145803219Y-54824802D01*
X145764169Y-54832570D01*
X145764167Y-54832571D01*
X145617032Y-54893517D01*
X145484609Y-54981998D01*
X145484603Y-54982003D01*
X145372003Y-55094603D01*
X145371998Y-55094609D01*
X145317556Y-55176088D01*
X145283517Y-55227032D01*
X145222570Y-55374169D01*
X145217852Y-55397887D01*
X145191500Y-55530367D01*
X145191500Y-55530370D01*
X145191500Y-55689630D01*
X145222570Y-55845831D01*
X145251061Y-55914613D01*
X145283517Y-55992968D01*
X145283518Y-55992970D01*
X145298758Y-56015779D01*
X145319972Y-56083532D01*
X145301188Y-56151999D01*
X145248370Y-56199441D01*
X145178287Y-56210796D01*
X145169411Y-56209358D01*
X145079635Y-56191500D01*
X145079630Y-56191500D01*
X144920370Y-56191500D01*
X144920367Y-56191500D01*
X144823361Y-56210796D01*
X144764169Y-56222570D01*
X144726911Y-56238003D01*
X144617032Y-56283517D01*
X144484609Y-56371998D01*
X144484603Y-56372003D01*
X144372003Y-56484603D01*
X144371998Y-56484609D01*
X144283518Y-56617031D01*
X144283517Y-56617031D01*
X144248085Y-56702571D01*
X144222570Y-56764169D01*
X144219901Y-56777587D01*
X144191500Y-56920367D01*
X144191500Y-56920370D01*
X144191500Y-57079630D01*
X144222570Y-57235831D01*
X144234030Y-57263498D01*
X144238035Y-57273166D01*
X144245624Y-57343756D01*
X144213844Y-57407243D01*
X144152786Y-57443470D01*
X144097048Y-57444964D01*
X144079632Y-57441500D01*
X144079630Y-57441500D01*
X143920370Y-57441500D01*
X143920367Y-57441500D01*
X143803219Y-57464802D01*
X143764169Y-57472570D01*
X143764167Y-57472571D01*
X143617032Y-57533517D01*
X143484609Y-57621998D01*
X143484603Y-57622003D01*
X143372003Y-57734603D01*
X143371998Y-57734609D01*
X143283517Y-57867032D01*
X143222571Y-58014167D01*
X143222570Y-58014170D01*
X143191500Y-58170367D01*
X143191500Y-58329632D01*
X143205606Y-58400545D01*
X143222570Y-58485831D01*
X143238549Y-58524407D01*
X143246138Y-58594995D01*
X143214359Y-58658482D01*
X143153301Y-58694710D01*
X143146722Y-58696203D01*
X143061411Y-58713173D01*
X143014169Y-58722570D01*
X143014167Y-58722571D01*
X142867032Y-58783517D01*
X142734609Y-58871998D01*
X142734603Y-58872003D01*
X142622003Y-58984603D01*
X142621998Y-58984609D01*
X142533517Y-59117032D01*
X142472571Y-59264167D01*
X142472570Y-59264170D01*
X142441500Y-59420367D01*
X142441500Y-59420370D01*
X142441500Y-59579630D01*
X142472570Y-59735831D01*
X142472571Y-59735833D01*
X142488035Y-59773166D01*
X142495624Y-59843756D01*
X142463844Y-59907243D01*
X142402786Y-59943470D01*
X142347048Y-59944964D01*
X142329632Y-59941500D01*
X142329630Y-59941500D01*
X142170370Y-59941500D01*
X142170367Y-59941500D01*
X142053219Y-59964802D01*
X142014169Y-59972570D01*
X141910796Y-60015389D01*
X141867032Y-60033517D01*
X141734609Y-60121998D01*
X141734603Y-60122003D01*
X141622003Y-60234603D01*
X141621998Y-60234609D01*
X141581756Y-60294836D01*
X141533517Y-60367032D01*
X141473233Y-60512570D01*
X141472571Y-60514167D01*
X141472570Y-60514170D01*
X141441500Y-60670367D01*
X141441500Y-60670370D01*
X141441500Y-60829630D01*
X141472570Y-60985831D01*
X141533517Y-61132968D01*
X141611181Y-61249201D01*
X141621998Y-61265390D01*
X141622003Y-61265396D01*
X141734603Y-61377996D01*
X141734609Y-61378001D01*
X141734611Y-61378003D01*
X141867032Y-61466483D01*
X142014169Y-61527430D01*
X142170370Y-61558500D01*
X142170371Y-61558500D01*
X142329629Y-61558500D01*
X142329630Y-61558500D01*
X142485831Y-61527430D01*
X142632968Y-61466483D01*
X142722390Y-61406734D01*
X142790143Y-61385520D01*
X142792391Y-61385500D01*
X146615500Y-61385500D01*
X146683621Y-61405502D01*
X146730114Y-61459158D01*
X146741500Y-61511500D01*
X146741500Y-62458637D01*
X146741667Y-62461751D01*
X146725342Y-62530846D01*
X146674254Y-62580146D01*
X146615848Y-62594500D01*
X141792391Y-62594500D01*
X141724270Y-62574498D01*
X141722390Y-62573266D01*
X141658903Y-62530846D01*
X141632968Y-62513517D01*
X141485831Y-62452570D01*
X141407730Y-62437035D01*
X141329632Y-62421500D01*
X141329630Y-62421500D01*
X141170370Y-62421500D01*
X141170367Y-62421500D01*
X141053219Y-62444802D01*
X141014169Y-62452570D01*
X140867034Y-62513516D01*
X140867032Y-62513517D01*
X140734609Y-62601998D01*
X140734603Y-62602003D01*
X140622003Y-62714603D01*
X140621998Y-62714609D01*
X140533517Y-62847032D01*
X140472571Y-62994167D01*
X140472570Y-62994170D01*
X140441500Y-63150367D01*
X140441500Y-63309632D01*
X140450135Y-63353041D01*
X140472570Y-63465831D01*
X140491873Y-63512432D01*
X140533517Y-63612968D01*
X140533517Y-63612969D01*
X140538550Y-63620501D01*
X140559763Y-63688254D01*
X140540978Y-63756721D01*
X140488160Y-63804163D01*
X140433783Y-63816500D01*
X140295367Y-63816500D01*
X140186170Y-63838221D01*
X140139169Y-63847570D01*
X140032424Y-63891786D01*
X139992032Y-63908517D01*
X139859609Y-63996998D01*
X139859603Y-63997003D01*
X139747003Y-64109603D01*
X139746998Y-64109609D01*
X139746997Y-64109611D01*
X139658517Y-64242032D01*
X139597570Y-64389169D01*
X139596589Y-64394103D01*
X139566500Y-64545367D01*
X139566500Y-64545370D01*
X139566500Y-64704630D01*
X139597570Y-64860831D01*
X139658517Y-65007968D01*
X139745654Y-65138379D01*
X139746998Y-65140390D01*
X139747003Y-65140396D01*
X139859603Y-65252996D01*
X139859609Y-65253001D01*
X139859611Y-65253003D01*
X139992032Y-65341483D01*
X140139169Y-65402430D01*
X140295370Y-65433500D01*
X140295371Y-65433500D01*
X140454629Y-65433500D01*
X140454630Y-65433500D01*
X140610831Y-65402430D01*
X140757968Y-65341483D01*
X140890389Y-65253003D01*
X140926910Y-65216482D01*
X140970988Y-65172405D01*
X141033300Y-65138379D01*
X141060083Y-65135500D01*
X146161577Y-65135500D01*
X146229698Y-65155502D01*
X146276191Y-65209158D01*
X146286295Y-65279432D01*
X146256801Y-65344012D01*
X146250672Y-65350595D01*
X145506377Y-66094889D01*
X145506372Y-66094896D01*
X145436827Y-66198977D01*
X145388924Y-66314625D01*
X145388922Y-66314630D01*
X145364500Y-66437406D01*
X145364500Y-70715500D01*
X145344498Y-70783621D01*
X145290842Y-70830114D01*
X145238500Y-70841500D01*
X144466350Y-70841500D01*
X144405804Y-70848009D01*
X144405801Y-70848010D01*
X144374030Y-70859860D01*
X144303214Y-70864923D01*
X144285970Y-70859860D01*
X144254198Y-70848010D01*
X144254195Y-70848009D01*
X144193649Y-70841500D01*
X144193638Y-70841500D01*
X143196362Y-70841500D01*
X143196350Y-70841500D01*
X143135804Y-70848009D01*
X143135801Y-70848010D01*
X143104030Y-70859860D01*
X143033214Y-70864923D01*
X143015970Y-70859860D01*
X142984198Y-70848010D01*
X142984195Y-70848009D01*
X142923649Y-70841500D01*
X142923638Y-70841500D01*
X141926362Y-70841500D01*
X141926350Y-70841500D01*
X141865804Y-70848009D01*
X141865801Y-70848010D01*
X141834030Y-70859860D01*
X141763214Y-70864923D01*
X141745970Y-70859860D01*
X141714198Y-70848010D01*
X141714195Y-70848009D01*
X141653649Y-70841500D01*
X141653638Y-70841500D01*
X140656362Y-70841500D01*
X140656350Y-70841500D01*
X140595804Y-70848009D01*
X140595801Y-70848010D01*
X140564030Y-70859860D01*
X140493214Y-70864923D01*
X140475970Y-70859860D01*
X140444198Y-70848010D01*
X140444195Y-70848009D01*
X140383649Y-70841500D01*
X140383638Y-70841500D01*
X139909942Y-70841500D01*
X139841821Y-70821498D01*
X139795328Y-70767842D01*
X139785224Y-70697568D01*
X139786358Y-70690941D01*
X139808500Y-70579630D01*
X139808500Y-70420370D01*
X139777430Y-70264169D01*
X139716483Y-70117032D01*
X139628003Y-69984611D01*
X139628001Y-69984609D01*
X139627996Y-69984603D01*
X139515396Y-69872003D01*
X139515390Y-69871998D01*
X139515389Y-69871997D01*
X139382968Y-69783517D01*
X139235831Y-69722570D01*
X139157730Y-69707035D01*
X139079632Y-69691500D01*
X139079630Y-69691500D01*
X138920370Y-69691500D01*
X138920367Y-69691500D01*
X138808038Y-69713844D01*
X138764169Y-69722570D01*
X138764167Y-69722570D01*
X138764162Y-69722572D01*
X138726832Y-69738035D01*
X138656242Y-69745624D01*
X138592755Y-69713844D01*
X138556529Y-69652785D01*
X138555036Y-69597043D01*
X138558500Y-69579630D01*
X138558500Y-69420370D01*
X138527430Y-69264169D01*
X138466483Y-69117032D01*
X138378003Y-68984611D01*
X138378001Y-68984609D01*
X138377996Y-68984603D01*
X138265396Y-68872003D01*
X138265390Y-68871998D01*
X138261204Y-68869201D01*
X138132968Y-68783517D01*
X137985831Y-68722570D01*
X137875073Y-68700539D01*
X137829632Y-68691500D01*
X137829630Y-68691500D01*
X137670370Y-68691500D01*
X137670367Y-68691500D01*
X137553219Y-68714802D01*
X137514169Y-68722570D01*
X137514167Y-68722571D01*
X137367033Y-68783516D01*
X137277610Y-68843266D01*
X137209857Y-68864480D01*
X137207609Y-68864500D01*
X131884500Y-68864500D01*
X131816379Y-68844498D01*
X131769886Y-68790842D01*
X131758500Y-68738500D01*
X131758500Y-67811367D01*
X131758499Y-67811350D01*
X131751990Y-67750803D01*
X131751989Y-67750801D01*
X131751989Y-67750799D01*
X131740140Y-67719033D01*
X131735074Y-67648221D01*
X131740137Y-67630974D01*
X131751989Y-67599201D01*
X131752601Y-67593517D01*
X131758499Y-67538649D01*
X131758500Y-67538632D01*
X131758500Y-66541367D01*
X131758499Y-66541350D01*
X131751990Y-66480803D01*
X131751989Y-66480801D01*
X131751989Y-66480799D01*
X131740140Y-66449033D01*
X131735074Y-66378221D01*
X131740137Y-66360974D01*
X131751989Y-66329201D01*
X131752601Y-66323517D01*
X131758499Y-66268649D01*
X131758500Y-66268632D01*
X131758500Y-65271362D01*
X131758333Y-65268249D01*
X131774658Y-65199154D01*
X131825746Y-65149854D01*
X131884152Y-65135500D01*
X135957609Y-65135500D01*
X136025730Y-65155502D01*
X136027610Y-65156734D01*
X136117032Y-65216483D01*
X136264169Y-65277430D01*
X136420370Y-65308500D01*
X136420371Y-65308500D01*
X136579629Y-65308500D01*
X136579630Y-65308500D01*
X136735831Y-65277430D01*
X136882968Y-65216483D01*
X137015389Y-65128003D01*
X137128003Y-65015389D01*
X137216483Y-64882968D01*
X137277430Y-64735831D01*
X137308500Y-64579630D01*
X137308500Y-64420370D01*
X137277430Y-64264169D01*
X137216483Y-64117032D01*
X137128003Y-63984611D01*
X137128001Y-63984609D01*
X137127996Y-63984603D01*
X137015396Y-63872003D01*
X137015390Y-63871998D01*
X137004917Y-63865000D01*
X136882968Y-63783517D01*
X136735831Y-63722570D01*
X136657730Y-63707035D01*
X136579632Y-63691500D01*
X136579630Y-63691500D01*
X136420370Y-63691500D01*
X136420367Y-63691500D01*
X136303219Y-63714802D01*
X136264169Y-63722570D01*
X136264167Y-63722571D01*
X136117033Y-63783516D01*
X136027610Y-63843266D01*
X136009270Y-63849008D01*
X135993107Y-63859396D01*
X135961647Y-63863919D01*
X135959857Y-63864480D01*
X135957609Y-63864500D01*
X135911144Y-63864500D01*
X135843023Y-63844498D01*
X135796530Y-63790842D01*
X135786426Y-63720568D01*
X135806379Y-63668498D01*
X135843483Y-63612968D01*
X135904430Y-63465831D01*
X135935500Y-63309630D01*
X135935500Y-63150370D01*
X135904430Y-62994169D01*
X135843483Y-62847032D01*
X135755003Y-62714611D01*
X135755001Y-62714609D01*
X135754996Y-62714603D01*
X135642396Y-62602003D01*
X135642390Y-62601998D01*
X135631917Y-62595000D01*
X135509968Y-62513517D01*
X135362831Y-62452570D01*
X135351565Y-62450329D01*
X135288658Y-62417421D01*
X135253527Y-62355726D01*
X135257328Y-62284831D01*
X135259731Y-62278557D01*
X135277430Y-62235831D01*
X135308500Y-62079630D01*
X135308500Y-61920370D01*
X135277430Y-61764169D01*
X135216483Y-61617032D01*
X135128003Y-61484611D01*
X135128001Y-61484609D01*
X135127996Y-61484603D01*
X135015396Y-61372003D01*
X135015390Y-61371998D01*
X135015389Y-61371997D01*
X134882968Y-61283517D01*
X134735831Y-61222570D01*
X134663074Y-61208097D01*
X134580316Y-61191636D01*
X134517407Y-61158728D01*
X134482275Y-61097033D01*
X134486075Y-61026138D01*
X134488490Y-61019838D01*
X134502576Y-60985832D01*
X134527430Y-60925831D01*
X134558500Y-60769630D01*
X134558500Y-60610370D01*
X134527430Y-60454169D01*
X134466483Y-60307032D01*
X134378003Y-60174611D01*
X134378001Y-60174609D01*
X134377996Y-60174603D01*
X134265396Y-60062003D01*
X134265390Y-60061998D01*
X134244445Y-60048003D01*
X134132968Y-59973517D01*
X133985831Y-59912570D01*
X133913430Y-59898168D01*
X133845624Y-59884681D01*
X133782715Y-59851773D01*
X133747583Y-59790078D01*
X133751383Y-59719183D01*
X133753785Y-59712913D01*
X133777430Y-59655831D01*
X133808500Y-59499630D01*
X133808500Y-59340370D01*
X133777430Y-59184169D01*
X133716483Y-59037032D01*
X133628003Y-58904611D01*
X133628001Y-58904609D01*
X133627996Y-58904603D01*
X133515396Y-58792003D01*
X133515390Y-58791998D01*
X133515389Y-58791997D01*
X133382968Y-58703517D01*
X133235831Y-58642570D01*
X133151718Y-58625839D01*
X133079632Y-58611500D01*
X133079630Y-58611500D01*
X132920370Y-58611500D01*
X132920367Y-58611500D01*
X132819284Y-58631607D01*
X132764169Y-58642570D01*
X132764167Y-58642571D01*
X132617033Y-58703516D01*
X132527610Y-58763266D01*
X132459857Y-58784480D01*
X132457609Y-58784500D01*
X132168423Y-58784500D01*
X132100302Y-58764498D01*
X132053809Y-58710842D01*
X132043705Y-58640568D01*
X132073199Y-58575988D01*
X132079328Y-58569405D01*
X132406544Y-58242189D01*
X132743625Y-57905108D01*
X132813173Y-57801022D01*
X132861078Y-57685369D01*
X132885500Y-57562591D01*
X132885500Y-57542389D01*
X132905502Y-57474268D01*
X132906735Y-57472387D01*
X132966483Y-57382968D01*
X133027430Y-57235831D01*
X133027430Y-57235828D01*
X133029798Y-57230113D01*
X133031837Y-57230957D01*
X133065272Y-57179901D01*
X133130103Y-57150962D01*
X133197783Y-57161286D01*
X133197945Y-57160896D01*
X133199529Y-57161552D01*
X133200287Y-57161668D01*
X133202587Y-57162818D01*
X133203660Y-57163262D01*
X133203664Y-57163265D01*
X133365542Y-57230317D01*
X133537391Y-57264500D01*
X133537392Y-57264500D01*
X133712607Y-57264500D01*
X133712608Y-57264500D01*
X133884458Y-57230317D01*
X134046336Y-57163265D01*
X134192023Y-57065919D01*
X134315919Y-56942023D01*
X134413265Y-56796336D01*
X134480317Y-56634458D01*
X134514500Y-56462608D01*
X134514500Y-56287391D01*
X134480317Y-56115542D01*
X134413265Y-55953664D01*
X134315919Y-55807976D01*
X133427023Y-54919080D01*
X133281336Y-54821735D01*
X133119458Y-54754683D01*
X133086177Y-54748063D01*
X132947610Y-54720500D01*
X132947608Y-54720500D01*
X131549220Y-54720500D01*
X131505716Y-54709392D01*
X131504647Y-54712260D01*
X131359204Y-54658011D01*
X131359196Y-54658009D01*
X131298649Y-54651500D01*
X131298638Y-54651500D01*
X129701362Y-54651500D01*
X129701350Y-54651500D01*
X129640803Y-54658009D01*
X129640799Y-54658010D01*
X129552903Y-54690794D01*
X129482087Y-54695858D01*
X129419776Y-54661833D01*
X129176405Y-54418462D01*
X129142379Y-54356150D01*
X129139500Y-54329367D01*
X129139500Y-51912393D01*
X129139499Y-51912389D01*
X129131612Y-51872738D01*
X129105317Y-51740542D01*
X129038265Y-51578664D01*
X128940920Y-51432977D01*
X128817023Y-51309080D01*
X127967023Y-50459080D01*
X127821336Y-50361735D01*
X127659458Y-50294683D01*
X127488360Y-50260649D01*
X127425450Y-50227741D01*
X127423903Y-50226221D01*
X127348652Y-50150970D01*
X127199353Y-50058881D01*
X127151875Y-50006095D01*
X127139500Y-49951640D01*
X127139500Y-49076350D01*
X129891500Y-49076350D01*
X129891500Y-50923649D01*
X129898009Y-50984196D01*
X129898011Y-50984204D01*
X129949110Y-51121202D01*
X129949112Y-51121207D01*
X130036738Y-51238261D01*
X130153792Y-51325887D01*
X130153794Y-51325888D01*
X130153796Y-51325889D01*
X130212875Y-51347924D01*
X130290795Y-51376988D01*
X130290803Y-51376990D01*
X130351350Y-51383499D01*
X130351355Y-51383499D01*
X130351362Y-51383500D01*
X130351368Y-51383500D01*
X133648632Y-51383500D01*
X133648638Y-51383500D01*
X133648645Y-51383499D01*
X133648649Y-51383499D01*
X133709196Y-51376990D01*
X133709199Y-51376989D01*
X133709201Y-51376989D01*
X133846204Y-51325889D01*
X133963261Y-51238261D01*
X134050889Y-51121204D01*
X134101989Y-50984201D01*
X134108500Y-50923638D01*
X134108500Y-49076362D01*
X134106580Y-49058499D01*
X134101990Y-49015803D01*
X134101988Y-49015795D01*
X134072924Y-48937875D01*
X134050889Y-48878796D01*
X134050888Y-48878794D01*
X134050887Y-48878792D01*
X133963261Y-48761738D01*
X133846207Y-48674112D01*
X133846202Y-48674110D01*
X133709204Y-48623011D01*
X133709196Y-48623009D01*
X133648649Y-48616500D01*
X133648638Y-48616500D01*
X130351362Y-48616500D01*
X130351350Y-48616500D01*
X130290803Y-48623009D01*
X130290795Y-48623011D01*
X130153797Y-48674110D01*
X130153792Y-48674112D01*
X130036738Y-48761738D01*
X129949112Y-48878792D01*
X129949110Y-48878797D01*
X129898011Y-49015795D01*
X129898009Y-49015803D01*
X129891500Y-49076350D01*
X127139500Y-49076350D01*
X127139500Y-48412393D01*
X127139499Y-48412389D01*
X127133647Y-48382967D01*
X127105317Y-48240542D01*
X127038265Y-48078664D01*
X126940920Y-47932977D01*
X126817023Y-47809080D01*
X125567023Y-46559080D01*
X125421336Y-46461735D01*
X125259458Y-46394683D01*
X125087610Y-46360500D01*
X125087608Y-46360500D01*
X124934499Y-46360500D01*
X124866378Y-46340498D01*
X124819885Y-46286842D01*
X124808499Y-46234500D01*
X124808499Y-46149455D01*
X124797887Y-46045574D01*
X124780172Y-45992114D01*
X124742115Y-45877262D01*
X124649030Y-45726348D01*
X124649029Y-45726347D01*
X124649024Y-45726341D01*
X124523658Y-45600975D01*
X124523652Y-45600970D01*
X124489058Y-45579632D01*
X124372738Y-45507885D01*
X124288582Y-45479999D01*
X124204427Y-45452113D01*
X124204420Y-45452112D01*
X124100553Y-45441500D01*
X122899455Y-45441500D01*
X122795574Y-45452112D01*
X122627261Y-45507885D01*
X122476347Y-45600970D01*
X122476341Y-45600975D01*
X122350975Y-45726341D01*
X122350970Y-45726347D01*
X122257885Y-45877262D01*
X122202113Y-46045572D01*
X122202112Y-46045579D01*
X122191500Y-46149446D01*
X122191500Y-48750544D01*
X122202112Y-48854425D01*
X122257885Y-49022738D01*
X122350970Y-49173652D01*
X122350975Y-49173658D01*
X122476341Y-49299024D01*
X122476347Y-49299029D01*
X122476348Y-49299030D01*
X122627262Y-49392115D01*
X122795574Y-49447887D01*
X122899455Y-49458500D01*
X124100544Y-49458499D01*
X124204426Y-49447887D01*
X124372738Y-49392115D01*
X124523652Y-49299030D01*
X124649030Y-49173652D01*
X124742115Y-49022738D01*
X124797887Y-48854426D01*
X124808500Y-48750545D01*
X124808499Y-48620630D01*
X124828501Y-48552512D01*
X124882156Y-48506019D01*
X124952430Y-48495914D01*
X125017011Y-48525407D01*
X125023594Y-48531537D01*
X125323595Y-48831538D01*
X125357621Y-48893850D01*
X125360500Y-48920633D01*
X125360500Y-49951640D01*
X125340498Y-50019761D01*
X125300647Y-50058881D01*
X125151347Y-50150970D01*
X125151341Y-50150975D01*
X125025975Y-50276341D01*
X125025970Y-50276347D01*
X124932885Y-50427262D01*
X124877113Y-50595572D01*
X124877112Y-50595579D01*
X124866500Y-50699446D01*
X124866500Y-51600544D01*
X124877112Y-51704425D01*
X124932885Y-51872738D01*
X125025970Y-52023652D01*
X125025975Y-52023658D01*
X125151341Y-52149024D01*
X125151347Y-52149029D01*
X125151348Y-52149030D01*
X125302262Y-52242115D01*
X125422469Y-52281947D01*
X125480840Y-52322360D01*
X125508096Y-52387916D01*
X125499245Y-52449768D01*
X125472572Y-52514162D01*
X125472570Y-52514170D01*
X125441500Y-52670367D01*
X125441500Y-52829635D01*
X125472430Y-52985128D01*
X125466102Y-53055842D01*
X125422548Y-53111909D01*
X125388485Y-53129313D01*
X125302264Y-53157884D01*
X125302262Y-53157884D01*
X125302262Y-53157885D01*
X125260806Y-53183455D01*
X125151347Y-53250970D01*
X125151341Y-53250975D01*
X125025975Y-53376341D01*
X125025970Y-53376347D01*
X124994329Y-53427647D01*
X124941543Y-53475125D01*
X124887088Y-53487500D01*
X123924896Y-53487500D01*
X123777585Y-53516803D01*
X123777584Y-53516804D01*
X123638820Y-53574282D01*
X123513934Y-53657727D01*
X123513930Y-53657730D01*
X122657727Y-54513933D01*
X122605677Y-54591833D01*
X122598595Y-54602435D01*
X122592753Y-54611178D01*
X122592751Y-54611181D01*
X122574283Y-54638818D01*
X122516804Y-54777584D01*
X122516803Y-54777585D01*
X122487500Y-54924896D01*
X122487500Y-55030370D01*
X122467498Y-55098491D01*
X122413842Y-55144984D01*
X122401135Y-55149974D01*
X122377263Y-55157884D01*
X122226347Y-55250970D01*
X122226341Y-55250975D01*
X122100975Y-55376341D01*
X122100970Y-55376347D01*
X122007885Y-55527262D01*
X121952113Y-55695572D01*
X121952112Y-55695579D01*
X121941500Y-55799446D01*
X121941500Y-58400544D01*
X121952112Y-58504425D01*
X122007885Y-58672738D01*
X122100970Y-58823652D01*
X122100975Y-58823658D01*
X122226341Y-58949024D01*
X122226347Y-58949029D01*
X122226348Y-58949030D01*
X122377262Y-59042115D01*
X122545574Y-59097887D01*
X122649455Y-59108500D01*
X123850544Y-59108499D01*
X123954426Y-59097887D01*
X124122738Y-59042115D01*
X124273652Y-58949030D01*
X124399030Y-58823652D01*
X124492115Y-58672738D01*
X124547887Y-58504426D01*
X124554026Y-58444336D01*
X124558500Y-58400553D01*
X124558500Y-57888500D01*
X124578502Y-57820379D01*
X124632158Y-57773886D01*
X124684500Y-57762500D01*
X126326500Y-57762500D01*
X126394621Y-57782502D01*
X126420645Y-57806097D01*
X126420780Y-57805963D01*
X126423538Y-57808721D01*
X126425339Y-57810354D01*
X126425973Y-57811156D01*
X126551341Y-57936524D01*
X126551347Y-57936529D01*
X126551348Y-57936530D01*
X126702262Y-58029615D01*
X126870574Y-58085387D01*
X126974455Y-58096000D01*
X128025544Y-58095999D01*
X128129426Y-58085387D01*
X128198867Y-58062376D01*
X128269821Y-58059936D01*
X128330832Y-58096244D01*
X128362527Y-58159772D01*
X128364500Y-58181981D01*
X128364500Y-60684575D01*
X128344498Y-60752696D01*
X128327595Y-60773671D01*
X127934160Y-61167105D01*
X127871848Y-61201130D01*
X127869648Y-61201588D01*
X127764168Y-61222570D01*
X127617032Y-61283517D01*
X127484609Y-61371998D01*
X127484603Y-61372003D01*
X127372003Y-61484603D01*
X127371998Y-61484609D01*
X127332430Y-61543828D01*
X127283517Y-61617032D01*
X127247659Y-61703601D01*
X127222571Y-61764167D01*
X127222570Y-61764170D01*
X127191500Y-61920367D01*
X127191500Y-62079632D01*
X127201589Y-62130352D01*
X127222570Y-62235831D01*
X127283517Y-62382968D01*
X127371997Y-62515389D01*
X127371998Y-62515390D01*
X127372003Y-62515396D01*
X127484603Y-62627996D01*
X127484609Y-62628001D01*
X127484611Y-62628003D01*
X127617032Y-62716483D01*
X127764169Y-62777430D01*
X127920370Y-62808500D01*
X127920371Y-62808500D01*
X128079629Y-62808500D01*
X128079630Y-62808500D01*
X128235831Y-62777430D01*
X128382968Y-62716483D01*
X128515389Y-62628003D01*
X128628003Y-62515389D01*
X128716483Y-62382968D01*
X128748295Y-62306169D01*
X128777428Y-62235837D01*
X128777429Y-62235833D01*
X128777430Y-62235831D01*
X128798410Y-62130350D01*
X128831317Y-62067443D01*
X128832836Y-62065895D01*
X129026406Y-61872326D01*
X129088717Y-61838302D01*
X129159533Y-61843367D01*
X129216368Y-61885914D01*
X129241179Y-61952435D01*
X129241500Y-61961423D01*
X129241500Y-62458649D01*
X129248009Y-62519195D01*
X129248010Y-62519198D01*
X129259860Y-62550970D01*
X129264923Y-62621786D01*
X129259860Y-62639030D01*
X129248010Y-62670801D01*
X129248009Y-62670804D01*
X129241500Y-62731350D01*
X129241500Y-63728649D01*
X129248009Y-63789195D01*
X129248010Y-63789198D01*
X129259860Y-63820970D01*
X129264923Y-63891786D01*
X129259860Y-63909030D01*
X129248010Y-63940801D01*
X129248009Y-63940804D01*
X129241500Y-64001350D01*
X129241500Y-64909899D01*
X129221498Y-64978020D01*
X129167842Y-65024513D01*
X129097568Y-65034617D01*
X129067283Y-65026308D01*
X128985837Y-64992572D01*
X128985834Y-64992571D01*
X128985831Y-64992570D01*
X128907730Y-64977035D01*
X128829632Y-64961500D01*
X128829630Y-64961500D01*
X128670370Y-64961500D01*
X128670367Y-64961500D01*
X128553219Y-64984802D01*
X128514169Y-64992570D01*
X128412660Y-65034617D01*
X128367032Y-65053517D01*
X128234609Y-65141998D01*
X128234603Y-65142003D01*
X128122003Y-65254603D01*
X128121998Y-65254609D01*
X128062262Y-65344012D01*
X128033517Y-65387032D01*
X128014270Y-65433499D01*
X127972571Y-65534167D01*
X127972570Y-65534170D01*
X127941500Y-65690367D01*
X127941500Y-65849632D01*
X127950390Y-65894326D01*
X127972570Y-66005831D01*
X128033517Y-66152968D01*
X128121997Y-66285389D01*
X128121998Y-66285390D01*
X128122003Y-66285396D01*
X128234603Y-66397996D01*
X128234609Y-66398001D01*
X128234611Y-66398003D01*
X128367032Y-66486483D01*
X128514169Y-66547430D01*
X128514171Y-66547430D01*
X128519887Y-66549798D01*
X128518953Y-66552051D01*
X128569329Y-66585060D01*
X128598249Y-66649899D01*
X128587522Y-66720081D01*
X128540556Y-66773323D01*
X128521601Y-66783131D01*
X128412032Y-66828517D01*
X128412030Y-66828518D01*
X128279609Y-66916998D01*
X128279603Y-66917003D01*
X128167003Y-67029603D01*
X128166998Y-67029609D01*
X128166997Y-67029611D01*
X128078517Y-67162032D01*
X128017570Y-67309169D01*
X128012853Y-67332883D01*
X127985292Y-67471442D01*
X127982812Y-67470948D01*
X127960338Y-67526513D01*
X127902360Y-67567489D01*
X127831432Y-67570615D01*
X127813355Y-67564682D01*
X127735831Y-67532570D01*
X127657730Y-67517035D01*
X127579632Y-67501500D01*
X127579630Y-67501500D01*
X127420370Y-67501500D01*
X127420367Y-67501500D01*
X127303219Y-67524802D01*
X127264169Y-67532570D01*
X127186645Y-67564682D01*
X127117032Y-67593517D01*
X126984609Y-67681998D01*
X126984603Y-67682003D01*
X126872003Y-67794603D01*
X126871998Y-67794609D01*
X126783517Y-67927032D01*
X126722571Y-68074167D01*
X126722570Y-68074170D01*
X126691500Y-68230367D01*
X126691500Y-68230370D01*
X126691500Y-68389630D01*
X126722570Y-68545831D01*
X126783517Y-68692968D01*
X126868168Y-68819658D01*
X126871998Y-68825390D01*
X126872003Y-68825396D01*
X126984603Y-68937996D01*
X126984609Y-68938001D01*
X126984611Y-68938003D01*
X127117032Y-69026483D01*
X127264169Y-69087430D01*
X127420370Y-69118500D01*
X127420371Y-69118500D01*
X127579629Y-69118500D01*
X127579630Y-69118500D01*
X127735831Y-69087430D01*
X127882968Y-69026483D01*
X127972390Y-68966734D01*
X128040143Y-68945520D01*
X128042391Y-68945500D01*
X129115848Y-68945500D01*
X129183969Y-68965502D01*
X129230462Y-69019158D01*
X129241667Y-69078249D01*
X129241500Y-69081362D01*
X129241500Y-70078649D01*
X129248009Y-70139195D01*
X129248010Y-70139198D01*
X129259860Y-70170970D01*
X129264923Y-70241786D01*
X129259860Y-70259030D01*
X129248010Y-70290801D01*
X129248009Y-70290804D01*
X129241500Y-70351350D01*
X129241500Y-71348649D01*
X129248009Y-71409196D01*
X129248011Y-71409204D01*
X129299110Y-71546202D01*
X129299112Y-71546207D01*
X129386738Y-71663261D01*
X129503792Y-71750887D01*
X129503794Y-71750888D01*
X129503796Y-71750889D01*
X129562875Y-71772924D01*
X129640795Y-71801988D01*
X129640803Y-71801990D01*
X129701350Y-71808499D01*
X129701355Y-71808499D01*
X129701362Y-71808500D01*
X129701368Y-71808500D01*
X131298632Y-71808500D01*
X131298638Y-71808500D01*
X131298645Y-71808499D01*
X131298649Y-71808499D01*
X131359196Y-71801990D01*
X131359199Y-71801989D01*
X131359201Y-71801989D01*
X131496204Y-71750889D01*
X131613261Y-71663261D01*
X131618706Y-71655988D01*
X131700887Y-71546207D01*
X131700887Y-71546206D01*
X131700889Y-71546204D01*
X131751989Y-71409201D01*
X131758500Y-71348638D01*
X131758500Y-71261500D01*
X131778502Y-71193379D01*
X131832158Y-71146886D01*
X131884500Y-71135500D01*
X133724059Y-71135500D01*
X133792180Y-71155502D01*
X133838673Y-71209158D01*
X133849337Y-71274967D01*
X133846501Y-71301347D01*
X133846500Y-71301367D01*
X133846500Y-72898649D01*
X133853009Y-72959196D01*
X133853011Y-72959204D01*
X133904110Y-73096202D01*
X133904112Y-73096207D01*
X133991738Y-73213261D01*
X134064009Y-73267362D01*
X134106556Y-73324198D01*
X134114500Y-73368230D01*
X134114500Y-74374000D01*
X134094498Y-74442121D01*
X134040842Y-74488614D01*
X133988500Y-74500000D01*
X127827117Y-74500000D01*
X127778899Y-74490409D01*
X127735836Y-74472571D01*
X127579632Y-74441500D01*
X127579630Y-74441500D01*
X127420370Y-74441500D01*
X127420367Y-74441500D01*
X127264163Y-74472571D01*
X127221101Y-74490409D01*
X127172883Y-74500000D01*
X126827117Y-74500000D01*
X126778899Y-74490409D01*
X126735836Y-74472571D01*
X126579632Y-74441500D01*
X126579630Y-74441500D01*
X126420370Y-74441500D01*
X126420367Y-74441500D01*
X126264163Y-74472571D01*
X126221101Y-74490409D01*
X126172883Y-74500000D01*
X125303706Y-74500000D01*
X125255488Y-74490408D01*
X125228975Y-74479426D01*
X125150874Y-74463891D01*
X125072776Y-74448356D01*
X125072774Y-74448356D01*
X124913514Y-74448356D01*
X124913511Y-74448356D01*
X124796363Y-74471658D01*
X124757313Y-74479426D01*
X124757311Y-74479426D01*
X124757310Y-74479427D01*
X124751241Y-74481941D01*
X124730799Y-74490408D01*
X124682582Y-74500000D01*
X122293806Y-74500000D01*
X122286198Y-74499770D01*
X121991444Y-74481941D01*
X121976340Y-74480107D01*
X121689636Y-74427566D01*
X121674866Y-74423926D01*
X121396576Y-74337207D01*
X121382350Y-74331811D01*
X121116554Y-74212186D01*
X121103082Y-74205116D01*
X120853629Y-74054316D01*
X120841124Y-74045684D01*
X120611658Y-73865910D01*
X120600277Y-73855826D01*
X120394173Y-73649722D01*
X120384090Y-73638342D01*
X120204312Y-73408872D01*
X120195685Y-73396373D01*
X120044879Y-73146910D01*
X120037813Y-73133445D01*
X120021051Y-73096202D01*
X119918186Y-72867644D01*
X119912795Y-72853432D01*
X119826070Y-72575121D01*
X119822435Y-72560374D01*
X119769890Y-72273647D01*
X119768059Y-72258566D01*
X119750230Y-71963801D01*
X119750000Y-71956194D01*
X119750000Y-39793805D01*
X119750230Y-39786198D01*
X119750802Y-39776728D01*
X119768059Y-39491431D01*
X119769890Y-39476354D01*
X119822436Y-39189621D01*
X119826069Y-39174881D01*
X119912797Y-38896562D01*
X119918184Y-38882360D01*
X120037817Y-38616545D01*
X120044875Y-38603095D01*
X120195690Y-38353618D01*
X120204306Y-38341134D01*
X120384097Y-38111648D01*
X120394165Y-38100285D01*
X120600285Y-37894165D01*
X120611648Y-37884097D01*
X120841134Y-37704306D01*
X120853618Y-37695690D01*
X121103095Y-37544875D01*
X121116545Y-37537817D01*
X121382360Y-37418184D01*
X121396562Y-37412797D01*
X121674881Y-37326069D01*
X121689621Y-37322436D01*
X121976354Y-37269890D01*
X121991431Y-37268059D01*
X122257542Y-37251963D01*
X122286199Y-37250230D01*
X122293806Y-37250000D01*
X156456194Y-37250000D01*
X156463801Y-37250230D01*
G37*
G04 #@! TD.AperFunction*
M02*
