G04 #@! TF.GenerationSoftware,KiCad,Pcbnew,8.99.0-unknown-e6b739776e~181~ubuntu24.04.1*
G04 #@! TF.CreationDate,2024-12-31T15:22:33+01:00*
G04 #@! TF.ProjectId,Spinne_Werkstatt,5370696e-6e65-45f5-9765-726b73746174,rev?*
G04 #@! TF.SameCoordinates,Original*
G04 #@! TF.FileFunction,Soldermask,Bot*
G04 #@! TF.FilePolarity,Negative*
%FSLAX46Y46*%
G04 Gerber Fmt 4.6, Leading zero omitted, Abs format (unit mm)*
G04 Created by KiCad (PCBNEW 8.99.0-unknown-e6b739776e~181~ubuntu24.04.1) date 2024-12-31 15:22:33*
%MOMM*%
%LPD*%
G01*
G04 APERTURE LIST*
%ADD10C,0.700000*%
%ADD11O,0.900000X2.400000*%
%ADD12O,0.900000X1.700000*%
%ADD13R,1.700000X1.700000*%
%ADD14O,1.700000X1.700000*%
%ADD15C,1.600000*%
G04 APERTURE END LIST*
D10*
X154725000Y-42775000D03*
X153875000Y-42775000D03*
X153025000Y-42775000D03*
X152175000Y-42775000D03*
X151325000Y-42775000D03*
X150475000Y-42775000D03*
X149625000Y-42775000D03*
X148775000Y-42775000D03*
X148775000Y-41425000D03*
X149625000Y-41425000D03*
X150475000Y-41425000D03*
X151325000Y-41425000D03*
X152175000Y-41425000D03*
X153025000Y-41425000D03*
X153875000Y-41425000D03*
X154725000Y-41425000D03*
D11*
X156075000Y-41795000D03*
D12*
X156075000Y-38415000D03*
D11*
X147425000Y-41795000D03*
D12*
X147425000Y-38415000D03*
D13*
X133775000Y-39750000D03*
D14*
X131235000Y-39750000D03*
D13*
X143750000Y-39750000D03*
D14*
X141210000Y-39750000D03*
X138670000Y-39750000D03*
D15*
X156750000Y-53250000D03*
X151750000Y-53250000D03*
D13*
X148000000Y-77500000D03*
D14*
X148000000Y-80040000D03*
X148000000Y-82580000D03*
X148000000Y-85120000D03*
X148000000Y-87660000D03*
X148000000Y-90200000D03*
X148000000Y-92740000D03*
X148000000Y-95280000D03*
X148000000Y-97820000D03*
X148000000Y-100360000D03*
X148000000Y-102900000D03*
X148000000Y-105440000D03*
X148000000Y-107980000D03*
X148000000Y-110520000D03*
X148000000Y-113060000D03*
D13*
X131000000Y-77500000D03*
D14*
X131000000Y-80040000D03*
X131000000Y-82580000D03*
X131000000Y-85120000D03*
X131000000Y-87660000D03*
X131000000Y-90200000D03*
X131000000Y-92740000D03*
X131000000Y-95280000D03*
X131000000Y-97820000D03*
X131000000Y-100360000D03*
X131000000Y-102900000D03*
X131000000Y-105440000D03*
X131000000Y-107980000D03*
X131000000Y-110520000D03*
X131000000Y-113060000D03*
M02*
