G04 #@! TF.GenerationSoftware,KiCad,Pcbnew,9.0.0-rc1-eb83b2429a~181~ubuntu24.04.1*
G04 #@! TF.CreationDate,2025-01-01T21:40:26+01:00*
G04 #@! TF.ProjectId,Spinne_Werkstatt,5370696e-6e65-45f5-9765-726b73746174,rev?*
G04 #@! TF.SameCoordinates,Original*
G04 #@! TF.FileFunction,Legend,Top*
G04 #@! TF.FilePolarity,Positive*
%FSLAX46Y46*%
G04 Gerber Fmt 4.6, Leading zero omitted, Abs format (unit mm)*
G04 Created by KiCad (PCBNEW 9.0.0-rc1-eb83b2429a~181~ubuntu24.04.1) date 2025-01-01 21:40:26*
%MOMM*%
%LPD*%
G01*
G04 APERTURE LIST*
G04 Aperture macros list*
%AMRoundRect*
0 Rectangle with rounded corners*
0 $1 Rounding radius*
0 $2 $3 $4 $5 $6 $7 $8 $9 X,Y pos of 4 corners*
0 Add a 4 corners polygon primitive as box body*
4,1,4,$2,$3,$4,$5,$6,$7,$8,$9,$2,$3,0*
0 Add four circle primitives for the rounded corners*
1,1,$1+$1,$2,$3*
1,1,$1+$1,$4,$5*
1,1,$1+$1,$6,$7*
1,1,$1+$1,$8,$9*
0 Add four rect primitives between the rounded corners*
20,1,$1+$1,$2,$3,$4,$5,0*
20,1,$1+$1,$4,$5,$6,$7,0*
20,1,$1+$1,$6,$7,$8,$9,0*
20,1,$1+$1,$8,$9,$2,$3,0*%
G04 Aperture macros list end*
%ADD10C,0.190500*%
%ADD11C,0.203200*%
%ADD12C,0.127000*%
%ADD13C,0.025400*%
%ADD14C,0.254000*%
%ADD15C,0.150000*%
%ADD16C,0.101600*%
%ADD17C,0.050800*%
%ADD18C,0.120000*%
%ADD19C,0.100000*%
%ADD20C,0.200000*%
%ADD21C,1.600000*%
%ADD22R,0.300000X0.990000*%
%ADD23R,2.260000X2.160000*%
%ADD24RoundRect,0.250000X0.550000X-1.250000X0.550000X1.250000X-0.550000X1.250000X-0.550000X-1.250000X0*%
%ADD25RoundRect,0.250000X-0.475000X0.337500X-0.475000X-0.337500X0.475000X-0.337500X0.475000X0.337500X0*%
%ADD26C,0.700000*%
%ADD27O,0.900000X2.400000*%
%ADD28O,0.900000X1.700000*%
%ADD29R,1.500000X0.900000*%
%ADD30R,0.900000X1.500000*%
%ADD31C,0.600000*%
%ADD32R,3.800000X3.800000*%
%ADD33RoundRect,0.150000X-0.825000X-0.150000X0.825000X-0.150000X0.825000X0.150000X-0.825000X0.150000X0*%
%ADD34RoundRect,0.150000X-0.150000X0.587500X-0.150000X-0.587500X0.150000X-0.587500X0.150000X0.587500X0*%
%ADD35RoundRect,0.150000X0.150000X-0.587500X0.150000X0.587500X-0.150000X0.587500X-0.150000X-0.587500X0*%
%ADD36RoundRect,0.250000X-0.550000X1.250000X-0.550000X-1.250000X0.550000X-1.250000X0.550000X1.250000X0*%
%ADD37R,1.700000X1.700000*%
%ADD38O,1.700000X1.700000*%
%ADD39R,0.950000X1.750000*%
%ADD40R,3.200000X1.750000*%
%ADD41RoundRect,0.250000X-0.625000X0.400000X-0.625000X-0.400000X0.625000X-0.400000X0.625000X0.400000X0*%
G04 APERTURE END LIST*
D10*
X143556756Y-83146839D02*
X143556756Y-82384839D01*
X144064756Y-82384839D02*
X144209899Y-82384839D01*
X144209899Y-82384839D02*
X144282470Y-82421125D01*
X144282470Y-82421125D02*
X144355042Y-82493696D01*
X144355042Y-82493696D02*
X144391327Y-82638839D01*
X144391327Y-82638839D02*
X144391327Y-82892839D01*
X144391327Y-82892839D02*
X144355042Y-83037982D01*
X144355042Y-83037982D02*
X144282470Y-83110554D01*
X144282470Y-83110554D02*
X144209899Y-83146839D01*
X144209899Y-83146839D02*
X144064756Y-83146839D01*
X144064756Y-83146839D02*
X143992185Y-83110554D01*
X143992185Y-83110554D02*
X143919613Y-83037982D01*
X143919613Y-83037982D02*
X143883327Y-82892839D01*
X143883327Y-82892839D02*
X143883327Y-82638839D01*
X143883327Y-82638839D02*
X143919613Y-82493696D01*
X143919613Y-82493696D02*
X143992185Y-82421125D01*
X143992185Y-82421125D02*
X144064756Y-82384839D01*
X144681613Y-82457411D02*
X144717899Y-82421125D01*
X144717899Y-82421125D02*
X144790471Y-82384839D01*
X144790471Y-82384839D02*
X144971899Y-82384839D01*
X144971899Y-82384839D02*
X145044471Y-82421125D01*
X145044471Y-82421125D02*
X145080756Y-82457411D01*
X145080756Y-82457411D02*
X145117042Y-82529982D01*
X145117042Y-82529982D02*
X145117042Y-82602554D01*
X145117042Y-82602554D02*
X145080756Y-82711411D01*
X145080756Y-82711411D02*
X144645328Y-83146839D01*
X144645328Y-83146839D02*
X145117042Y-83146839D01*
X145407327Y-82457411D02*
X145443613Y-82421125D01*
X145443613Y-82421125D02*
X145516185Y-82384839D01*
X145516185Y-82384839D02*
X145697613Y-82384839D01*
X145697613Y-82384839D02*
X145770185Y-82421125D01*
X145770185Y-82421125D02*
X145806470Y-82457411D01*
X145806470Y-82457411D02*
X145842756Y-82529982D01*
X145842756Y-82529982D02*
X145842756Y-82602554D01*
X145842756Y-82602554D02*
X145806470Y-82711411D01*
X145806470Y-82711411D02*
X145371042Y-83146839D01*
X145371042Y-83146839D02*
X145842756Y-83146839D01*
D11*
X142875588Y-36599093D02*
X142875588Y-37421570D01*
X142875588Y-37421570D02*
X142923969Y-37518332D01*
X142923969Y-37518332D02*
X142972350Y-37566713D01*
X142972350Y-37566713D02*
X143069112Y-37615093D01*
X143069112Y-37615093D02*
X143262636Y-37615093D01*
X143262636Y-37615093D02*
X143359398Y-37566713D01*
X143359398Y-37566713D02*
X143407779Y-37518332D01*
X143407779Y-37518332D02*
X143456160Y-37421570D01*
X143456160Y-37421570D02*
X143456160Y-36599093D01*
X143891588Y-37566713D02*
X144036731Y-37615093D01*
X144036731Y-37615093D02*
X144278636Y-37615093D01*
X144278636Y-37615093D02*
X144375398Y-37566713D01*
X144375398Y-37566713D02*
X144423779Y-37518332D01*
X144423779Y-37518332D02*
X144472160Y-37421570D01*
X144472160Y-37421570D02*
X144472160Y-37324808D01*
X144472160Y-37324808D02*
X144423779Y-37228046D01*
X144423779Y-37228046D02*
X144375398Y-37179665D01*
X144375398Y-37179665D02*
X144278636Y-37131284D01*
X144278636Y-37131284D02*
X144085112Y-37082903D01*
X144085112Y-37082903D02*
X143988350Y-37034522D01*
X143988350Y-37034522D02*
X143939969Y-36986141D01*
X143939969Y-36986141D02*
X143891588Y-36889379D01*
X143891588Y-36889379D02*
X143891588Y-36792617D01*
X143891588Y-36792617D02*
X143939969Y-36695855D01*
X143939969Y-36695855D02*
X143988350Y-36647474D01*
X143988350Y-36647474D02*
X144085112Y-36599093D01*
X144085112Y-36599093D02*
X144327017Y-36599093D01*
X144327017Y-36599093D02*
X144472160Y-36647474D01*
X145246255Y-37082903D02*
X145391398Y-37131284D01*
X145391398Y-37131284D02*
X145439779Y-37179665D01*
X145439779Y-37179665D02*
X145488160Y-37276427D01*
X145488160Y-37276427D02*
X145488160Y-37421570D01*
X145488160Y-37421570D02*
X145439779Y-37518332D01*
X145439779Y-37518332D02*
X145391398Y-37566713D01*
X145391398Y-37566713D02*
X145294636Y-37615093D01*
X145294636Y-37615093D02*
X144907588Y-37615093D01*
X144907588Y-37615093D02*
X144907588Y-36599093D01*
X144907588Y-36599093D02*
X145246255Y-36599093D01*
X145246255Y-36599093D02*
X145343017Y-36647474D01*
X145343017Y-36647474D02*
X145391398Y-36695855D01*
X145391398Y-36695855D02*
X145439779Y-36792617D01*
X145439779Y-36792617D02*
X145439779Y-36889379D01*
X145439779Y-36889379D02*
X145391398Y-36986141D01*
X145391398Y-36986141D02*
X145343017Y-37034522D01*
X145343017Y-37034522D02*
X145246255Y-37082903D01*
X145246255Y-37082903D02*
X144907588Y-37082903D01*
D10*
X144919613Y-77134839D02*
X144556756Y-77134839D01*
X144556756Y-77134839D02*
X144520470Y-77497696D01*
X144520470Y-77497696D02*
X144556756Y-77461411D01*
X144556756Y-77461411D02*
X144629328Y-77425125D01*
X144629328Y-77425125D02*
X144810756Y-77425125D01*
X144810756Y-77425125D02*
X144883328Y-77461411D01*
X144883328Y-77461411D02*
X144919613Y-77497696D01*
X144919613Y-77497696D02*
X144955899Y-77570268D01*
X144955899Y-77570268D02*
X144955899Y-77751696D01*
X144955899Y-77751696D02*
X144919613Y-77824268D01*
X144919613Y-77824268D02*
X144883328Y-77860554D01*
X144883328Y-77860554D02*
X144810756Y-77896839D01*
X144810756Y-77896839D02*
X144629328Y-77896839D01*
X144629328Y-77896839D02*
X144556756Y-77860554D01*
X144556756Y-77860554D02*
X144520470Y-77824268D01*
X145173613Y-77134839D02*
X145427613Y-77896839D01*
X145427613Y-77896839D02*
X145681613Y-77134839D01*
D11*
X137125588Y-37082903D02*
X137464255Y-37082903D01*
X137609398Y-37615093D02*
X137125588Y-37615093D01*
X137125588Y-37615093D02*
X137125588Y-36599093D01*
X137125588Y-36599093D02*
X137609398Y-36599093D01*
X137948064Y-36599093D02*
X138625398Y-37615093D01*
X138625398Y-36599093D02*
X137948064Y-37615093D01*
X138867302Y-36599093D02*
X139447874Y-36599093D01*
X139157588Y-37615093D02*
X139157588Y-36599093D01*
D10*
X143556756Y-98396839D02*
X143556756Y-97634839D01*
X144064756Y-97634839D02*
X144209899Y-97634839D01*
X144209899Y-97634839D02*
X144282470Y-97671125D01*
X144282470Y-97671125D02*
X144355042Y-97743696D01*
X144355042Y-97743696D02*
X144391327Y-97888839D01*
X144391327Y-97888839D02*
X144391327Y-98142839D01*
X144391327Y-98142839D02*
X144355042Y-98287982D01*
X144355042Y-98287982D02*
X144282470Y-98360554D01*
X144282470Y-98360554D02*
X144209899Y-98396839D01*
X144209899Y-98396839D02*
X144064756Y-98396839D01*
X144064756Y-98396839D02*
X143992185Y-98360554D01*
X143992185Y-98360554D02*
X143919613Y-98287982D01*
X143919613Y-98287982D02*
X143883327Y-98142839D01*
X143883327Y-98142839D02*
X143883327Y-97888839D01*
X143883327Y-97888839D02*
X143919613Y-97743696D01*
X143919613Y-97743696D02*
X143992185Y-97671125D01*
X143992185Y-97671125D02*
X144064756Y-97634839D01*
X145080756Y-97634839D02*
X144717899Y-97634839D01*
X144717899Y-97634839D02*
X144681613Y-97997696D01*
X144681613Y-97997696D02*
X144717899Y-97961411D01*
X144717899Y-97961411D02*
X144790471Y-97925125D01*
X144790471Y-97925125D02*
X144971899Y-97925125D01*
X144971899Y-97925125D02*
X145044471Y-97961411D01*
X145044471Y-97961411D02*
X145080756Y-97997696D01*
X145080756Y-97997696D02*
X145117042Y-98070268D01*
X145117042Y-98070268D02*
X145117042Y-98251696D01*
X145117042Y-98251696D02*
X145080756Y-98324268D01*
X145080756Y-98324268D02*
X145044471Y-98360554D01*
X145044471Y-98360554D02*
X144971899Y-98396839D01*
X144971899Y-98396839D02*
X144790471Y-98396839D01*
X144790471Y-98396839D02*
X144717899Y-98360554D01*
X144717899Y-98360554D02*
X144681613Y-98324268D01*
X132806756Y-100646839D02*
X132806756Y-99884839D01*
X133314756Y-99884839D02*
X133459899Y-99884839D01*
X133459899Y-99884839D02*
X133532470Y-99921125D01*
X133532470Y-99921125D02*
X133605042Y-99993696D01*
X133605042Y-99993696D02*
X133641327Y-100138839D01*
X133641327Y-100138839D02*
X133641327Y-100392839D01*
X133641327Y-100392839D02*
X133605042Y-100537982D01*
X133605042Y-100537982D02*
X133532470Y-100610554D01*
X133532470Y-100610554D02*
X133459899Y-100646839D01*
X133459899Y-100646839D02*
X133314756Y-100646839D01*
X133314756Y-100646839D02*
X133242185Y-100610554D01*
X133242185Y-100610554D02*
X133169613Y-100537982D01*
X133169613Y-100537982D02*
X133133327Y-100392839D01*
X133133327Y-100392839D02*
X133133327Y-100138839D01*
X133133327Y-100138839D02*
X133169613Y-99993696D01*
X133169613Y-99993696D02*
X133242185Y-99921125D01*
X133242185Y-99921125D02*
X133314756Y-99884839D01*
X133931613Y-99957411D02*
X133967899Y-99921125D01*
X133967899Y-99921125D02*
X134040471Y-99884839D01*
X134040471Y-99884839D02*
X134221899Y-99884839D01*
X134221899Y-99884839D02*
X134294471Y-99921125D01*
X134294471Y-99921125D02*
X134330756Y-99957411D01*
X134330756Y-99957411D02*
X134367042Y-100029982D01*
X134367042Y-100029982D02*
X134367042Y-100102554D01*
X134367042Y-100102554D02*
X134330756Y-100211411D01*
X134330756Y-100211411D02*
X133895328Y-100646839D01*
X133895328Y-100646839D02*
X134367042Y-100646839D01*
X135056470Y-99884839D02*
X134693613Y-99884839D01*
X134693613Y-99884839D02*
X134657327Y-100247696D01*
X134657327Y-100247696D02*
X134693613Y-100211411D01*
X134693613Y-100211411D02*
X134766185Y-100175125D01*
X134766185Y-100175125D02*
X134947613Y-100175125D01*
X134947613Y-100175125D02*
X135020185Y-100211411D01*
X135020185Y-100211411D02*
X135056470Y-100247696D01*
X135056470Y-100247696D02*
X135092756Y-100320268D01*
X135092756Y-100320268D02*
X135092756Y-100501696D01*
X135092756Y-100501696D02*
X135056470Y-100574268D01*
X135056470Y-100574268D02*
X135020185Y-100610554D01*
X135020185Y-100610554D02*
X134947613Y-100646839D01*
X134947613Y-100646839D02*
X134766185Y-100646839D01*
X134766185Y-100646839D02*
X134693613Y-100610554D01*
X134693613Y-100610554D02*
X134657327Y-100574268D01*
X132806756Y-103396839D02*
X132806756Y-102634839D01*
X133314756Y-102634839D02*
X133459899Y-102634839D01*
X133459899Y-102634839D02*
X133532470Y-102671125D01*
X133532470Y-102671125D02*
X133605042Y-102743696D01*
X133605042Y-102743696D02*
X133641327Y-102888839D01*
X133641327Y-102888839D02*
X133641327Y-103142839D01*
X133641327Y-103142839D02*
X133605042Y-103287982D01*
X133605042Y-103287982D02*
X133532470Y-103360554D01*
X133532470Y-103360554D02*
X133459899Y-103396839D01*
X133459899Y-103396839D02*
X133314756Y-103396839D01*
X133314756Y-103396839D02*
X133242185Y-103360554D01*
X133242185Y-103360554D02*
X133169613Y-103287982D01*
X133169613Y-103287982D02*
X133133327Y-103142839D01*
X133133327Y-103142839D02*
X133133327Y-102888839D01*
X133133327Y-102888839D02*
X133169613Y-102743696D01*
X133169613Y-102743696D02*
X133242185Y-102671125D01*
X133242185Y-102671125D02*
X133314756Y-102634839D01*
X133931613Y-102707411D02*
X133967899Y-102671125D01*
X133967899Y-102671125D02*
X134040471Y-102634839D01*
X134040471Y-102634839D02*
X134221899Y-102634839D01*
X134221899Y-102634839D02*
X134294471Y-102671125D01*
X134294471Y-102671125D02*
X134330756Y-102707411D01*
X134330756Y-102707411D02*
X134367042Y-102779982D01*
X134367042Y-102779982D02*
X134367042Y-102852554D01*
X134367042Y-102852554D02*
X134330756Y-102961411D01*
X134330756Y-102961411D02*
X133895328Y-103396839D01*
X133895328Y-103396839D02*
X134367042Y-103396839D01*
X135020185Y-102634839D02*
X134875042Y-102634839D01*
X134875042Y-102634839D02*
X134802470Y-102671125D01*
X134802470Y-102671125D02*
X134766185Y-102707411D01*
X134766185Y-102707411D02*
X134693613Y-102816268D01*
X134693613Y-102816268D02*
X134657327Y-102961411D01*
X134657327Y-102961411D02*
X134657327Y-103251696D01*
X134657327Y-103251696D02*
X134693613Y-103324268D01*
X134693613Y-103324268D02*
X134729899Y-103360554D01*
X134729899Y-103360554D02*
X134802470Y-103396839D01*
X134802470Y-103396839D02*
X134947613Y-103396839D01*
X134947613Y-103396839D02*
X135020185Y-103360554D01*
X135020185Y-103360554D02*
X135056470Y-103324268D01*
X135056470Y-103324268D02*
X135092756Y-103251696D01*
X135092756Y-103251696D02*
X135092756Y-103070268D01*
X135092756Y-103070268D02*
X135056470Y-102997696D01*
X135056470Y-102997696D02*
X135020185Y-102961411D01*
X135020185Y-102961411D02*
X134947613Y-102925125D01*
X134947613Y-102925125D02*
X134802470Y-102925125D01*
X134802470Y-102925125D02*
X134729899Y-102961411D01*
X134729899Y-102961411D02*
X134693613Y-102997696D01*
X134693613Y-102997696D02*
X134657327Y-103070268D01*
D11*
X132859398Y-36599093D02*
X132375588Y-36599093D01*
X132375588Y-36599093D02*
X132327207Y-37082903D01*
X132327207Y-37082903D02*
X132375588Y-37034522D01*
X132375588Y-37034522D02*
X132472350Y-36986141D01*
X132472350Y-36986141D02*
X132714255Y-36986141D01*
X132714255Y-36986141D02*
X132811017Y-37034522D01*
X132811017Y-37034522D02*
X132859398Y-37082903D01*
X132859398Y-37082903D02*
X132907779Y-37179665D01*
X132907779Y-37179665D02*
X132907779Y-37421570D01*
X132907779Y-37421570D02*
X132859398Y-37518332D01*
X132859398Y-37518332D02*
X132811017Y-37566713D01*
X132811017Y-37566713D02*
X132714255Y-37615093D01*
X132714255Y-37615093D02*
X132472350Y-37615093D01*
X132472350Y-37615093D02*
X132375588Y-37566713D01*
X132375588Y-37566713D02*
X132327207Y-37518332D01*
X133198064Y-36599093D02*
X133536731Y-37615093D01*
X133536731Y-37615093D02*
X133875398Y-36599093D01*
D10*
X132806756Y-90646839D02*
X132806756Y-89884839D01*
X133314756Y-89884839D02*
X133459899Y-89884839D01*
X133459899Y-89884839D02*
X133532470Y-89921125D01*
X133532470Y-89921125D02*
X133605042Y-89993696D01*
X133605042Y-89993696D02*
X133641327Y-90138839D01*
X133641327Y-90138839D02*
X133641327Y-90392839D01*
X133641327Y-90392839D02*
X133605042Y-90537982D01*
X133605042Y-90537982D02*
X133532470Y-90610554D01*
X133532470Y-90610554D02*
X133459899Y-90646839D01*
X133459899Y-90646839D02*
X133314756Y-90646839D01*
X133314756Y-90646839D02*
X133242185Y-90610554D01*
X133242185Y-90610554D02*
X133169613Y-90537982D01*
X133169613Y-90537982D02*
X133133327Y-90392839D01*
X133133327Y-90392839D02*
X133133327Y-90138839D01*
X133133327Y-90138839D02*
X133169613Y-89993696D01*
X133169613Y-89993696D02*
X133242185Y-89921125D01*
X133242185Y-89921125D02*
X133314756Y-89884839D01*
X133895328Y-89884839D02*
X134367042Y-89884839D01*
X134367042Y-89884839D02*
X134113042Y-90175125D01*
X134113042Y-90175125D02*
X134221899Y-90175125D01*
X134221899Y-90175125D02*
X134294471Y-90211411D01*
X134294471Y-90211411D02*
X134330756Y-90247696D01*
X134330756Y-90247696D02*
X134367042Y-90320268D01*
X134367042Y-90320268D02*
X134367042Y-90501696D01*
X134367042Y-90501696D02*
X134330756Y-90574268D01*
X134330756Y-90574268D02*
X134294471Y-90610554D01*
X134294471Y-90610554D02*
X134221899Y-90646839D01*
X134221899Y-90646839D02*
X134004185Y-90646839D01*
X134004185Y-90646839D02*
X133931613Y-90610554D01*
X133931613Y-90610554D02*
X133895328Y-90574268D01*
X135020185Y-90138839D02*
X135020185Y-90646839D01*
X134838756Y-89848554D02*
X134657327Y-90392839D01*
X134657327Y-90392839D02*
X135129042Y-90392839D01*
X143556756Y-105896839D02*
X143556756Y-105134839D01*
X144064756Y-105134839D02*
X144209899Y-105134839D01*
X144209899Y-105134839D02*
X144282470Y-105171125D01*
X144282470Y-105171125D02*
X144355042Y-105243696D01*
X144355042Y-105243696D02*
X144391327Y-105388839D01*
X144391327Y-105388839D02*
X144391327Y-105642839D01*
X144391327Y-105642839D02*
X144355042Y-105787982D01*
X144355042Y-105787982D02*
X144282470Y-105860554D01*
X144282470Y-105860554D02*
X144209899Y-105896839D01*
X144209899Y-105896839D02*
X144064756Y-105896839D01*
X144064756Y-105896839D02*
X143992185Y-105860554D01*
X143992185Y-105860554D02*
X143919613Y-105787982D01*
X143919613Y-105787982D02*
X143883327Y-105642839D01*
X143883327Y-105642839D02*
X143883327Y-105388839D01*
X143883327Y-105388839D02*
X143919613Y-105243696D01*
X143919613Y-105243696D02*
X143992185Y-105171125D01*
X143992185Y-105171125D02*
X144064756Y-105134839D01*
X145044471Y-105388839D02*
X145044471Y-105896839D01*
X144863042Y-105098554D02*
X144681613Y-105642839D01*
X144681613Y-105642839D02*
X145153328Y-105642839D01*
X133205899Y-77171125D02*
X133133328Y-77134839D01*
X133133328Y-77134839D02*
X133024470Y-77134839D01*
X133024470Y-77134839D02*
X132915613Y-77171125D01*
X132915613Y-77171125D02*
X132843042Y-77243696D01*
X132843042Y-77243696D02*
X132806756Y-77316268D01*
X132806756Y-77316268D02*
X132770470Y-77461411D01*
X132770470Y-77461411D02*
X132770470Y-77570268D01*
X132770470Y-77570268D02*
X132806756Y-77715411D01*
X132806756Y-77715411D02*
X132843042Y-77787982D01*
X132843042Y-77787982D02*
X132915613Y-77860554D01*
X132915613Y-77860554D02*
X133024470Y-77896839D01*
X133024470Y-77896839D02*
X133097042Y-77896839D01*
X133097042Y-77896839D02*
X133205899Y-77860554D01*
X133205899Y-77860554D02*
X133242185Y-77824268D01*
X133242185Y-77824268D02*
X133242185Y-77570268D01*
X133242185Y-77570268D02*
X133097042Y-77570268D01*
X133568756Y-77896839D02*
X133568756Y-77134839D01*
X133568756Y-77134839D02*
X134004185Y-77896839D01*
X134004185Y-77896839D02*
X134004185Y-77134839D01*
X134367042Y-77896839D02*
X134367042Y-77134839D01*
X134367042Y-77134839D02*
X134548471Y-77134839D01*
X134548471Y-77134839D02*
X134657328Y-77171125D01*
X134657328Y-77171125D02*
X134729899Y-77243696D01*
X134729899Y-77243696D02*
X134766185Y-77316268D01*
X134766185Y-77316268D02*
X134802471Y-77461411D01*
X134802471Y-77461411D02*
X134802471Y-77570268D01*
X134802471Y-77570268D02*
X134766185Y-77715411D01*
X134766185Y-77715411D02*
X134729899Y-77787982D01*
X134729899Y-77787982D02*
X134657328Y-77860554D01*
X134657328Y-77860554D02*
X134548471Y-77896839D01*
X134548471Y-77896839D02*
X134367042Y-77896839D01*
X132697899Y-87134839D02*
X132951899Y-87896839D01*
X132951899Y-87896839D02*
X133205899Y-87134839D01*
X133459899Y-87896839D02*
X133459899Y-87134839D01*
X133459899Y-87134839D02*
X133895328Y-87896839D01*
X133895328Y-87896839D02*
X133895328Y-87134839D01*
X144697899Y-84884839D02*
X145133328Y-84884839D01*
X144915613Y-85646839D02*
X144915613Y-84884839D01*
X145314756Y-84884839D02*
X145822756Y-85646839D01*
X145822756Y-84884839D02*
X145314756Y-85646839D01*
X143556756Y-80396839D02*
X143556756Y-79634839D01*
X144064756Y-79634839D02*
X144209899Y-79634839D01*
X144209899Y-79634839D02*
X144282470Y-79671125D01*
X144282470Y-79671125D02*
X144355042Y-79743696D01*
X144355042Y-79743696D02*
X144391327Y-79888839D01*
X144391327Y-79888839D02*
X144391327Y-80142839D01*
X144391327Y-80142839D02*
X144355042Y-80287982D01*
X144355042Y-80287982D02*
X144282470Y-80360554D01*
X144282470Y-80360554D02*
X144209899Y-80396839D01*
X144209899Y-80396839D02*
X144064756Y-80396839D01*
X144064756Y-80396839D02*
X143992185Y-80360554D01*
X143992185Y-80360554D02*
X143919613Y-80287982D01*
X143919613Y-80287982D02*
X143883327Y-80142839D01*
X143883327Y-80142839D02*
X143883327Y-79888839D01*
X143883327Y-79888839D02*
X143919613Y-79743696D01*
X143919613Y-79743696D02*
X143992185Y-79671125D01*
X143992185Y-79671125D02*
X144064756Y-79634839D01*
X144681613Y-79707411D02*
X144717899Y-79671125D01*
X144717899Y-79671125D02*
X144790471Y-79634839D01*
X144790471Y-79634839D02*
X144971899Y-79634839D01*
X144971899Y-79634839D02*
X145044471Y-79671125D01*
X145044471Y-79671125D02*
X145080756Y-79707411D01*
X145080756Y-79707411D02*
X145117042Y-79779982D01*
X145117042Y-79779982D02*
X145117042Y-79852554D01*
X145117042Y-79852554D02*
X145080756Y-79961411D01*
X145080756Y-79961411D02*
X144645328Y-80396839D01*
X144645328Y-80396839D02*
X145117042Y-80396839D01*
X145371042Y-79634839D02*
X145842756Y-79634839D01*
X145842756Y-79634839D02*
X145588756Y-79925125D01*
X145588756Y-79925125D02*
X145697613Y-79925125D01*
X145697613Y-79925125D02*
X145770185Y-79961411D01*
X145770185Y-79961411D02*
X145806470Y-79997696D01*
X145806470Y-79997696D02*
X145842756Y-80070268D01*
X145842756Y-80070268D02*
X145842756Y-80251696D01*
X145842756Y-80251696D02*
X145806470Y-80324268D01*
X145806470Y-80324268D02*
X145770185Y-80360554D01*
X145770185Y-80360554D02*
X145697613Y-80396839D01*
X145697613Y-80396839D02*
X145479899Y-80396839D01*
X145479899Y-80396839D02*
X145407327Y-80360554D01*
X145407327Y-80360554D02*
X145371042Y-80324268D01*
X143556756Y-108396839D02*
X143556756Y-107634839D01*
X144064756Y-107634839D02*
X144209899Y-107634839D01*
X144209899Y-107634839D02*
X144282470Y-107671125D01*
X144282470Y-107671125D02*
X144355042Y-107743696D01*
X144355042Y-107743696D02*
X144391327Y-107888839D01*
X144391327Y-107888839D02*
X144391327Y-108142839D01*
X144391327Y-108142839D02*
X144355042Y-108287982D01*
X144355042Y-108287982D02*
X144282470Y-108360554D01*
X144282470Y-108360554D02*
X144209899Y-108396839D01*
X144209899Y-108396839D02*
X144064756Y-108396839D01*
X144064756Y-108396839D02*
X143992185Y-108360554D01*
X143992185Y-108360554D02*
X143919613Y-108287982D01*
X143919613Y-108287982D02*
X143883327Y-108142839D01*
X143883327Y-108142839D02*
X143883327Y-107888839D01*
X143883327Y-107888839D02*
X143919613Y-107743696D01*
X143919613Y-107743696D02*
X143992185Y-107671125D01*
X143992185Y-107671125D02*
X144064756Y-107634839D01*
X144863042Y-107634839D02*
X144935613Y-107634839D01*
X144935613Y-107634839D02*
X145008185Y-107671125D01*
X145008185Y-107671125D02*
X145044471Y-107707411D01*
X145044471Y-107707411D02*
X145080756Y-107779982D01*
X145080756Y-107779982D02*
X145117042Y-107925125D01*
X145117042Y-107925125D02*
X145117042Y-108106554D01*
X145117042Y-108106554D02*
X145080756Y-108251696D01*
X145080756Y-108251696D02*
X145044471Y-108324268D01*
X145044471Y-108324268D02*
X145008185Y-108360554D01*
X145008185Y-108360554D02*
X144935613Y-108396839D01*
X144935613Y-108396839D02*
X144863042Y-108396839D01*
X144863042Y-108396839D02*
X144790471Y-108360554D01*
X144790471Y-108360554D02*
X144754185Y-108324268D01*
X144754185Y-108324268D02*
X144717899Y-108251696D01*
X144717899Y-108251696D02*
X144681613Y-108106554D01*
X144681613Y-108106554D02*
X144681613Y-107925125D01*
X144681613Y-107925125D02*
X144717899Y-107779982D01*
X144717899Y-107779982D02*
X144754185Y-107707411D01*
X144754185Y-107707411D02*
X144790471Y-107671125D01*
X144790471Y-107671125D02*
X144863042Y-107634839D01*
X143556756Y-110896839D02*
X143556756Y-110134839D01*
X144064756Y-110134839D02*
X144209899Y-110134839D01*
X144209899Y-110134839D02*
X144282470Y-110171125D01*
X144282470Y-110171125D02*
X144355042Y-110243696D01*
X144355042Y-110243696D02*
X144391327Y-110388839D01*
X144391327Y-110388839D02*
X144391327Y-110642839D01*
X144391327Y-110642839D02*
X144355042Y-110787982D01*
X144355042Y-110787982D02*
X144282470Y-110860554D01*
X144282470Y-110860554D02*
X144209899Y-110896839D01*
X144209899Y-110896839D02*
X144064756Y-110896839D01*
X144064756Y-110896839D02*
X143992185Y-110860554D01*
X143992185Y-110860554D02*
X143919613Y-110787982D01*
X143919613Y-110787982D02*
X143883327Y-110642839D01*
X143883327Y-110642839D02*
X143883327Y-110388839D01*
X143883327Y-110388839D02*
X143919613Y-110243696D01*
X143919613Y-110243696D02*
X143992185Y-110171125D01*
X143992185Y-110171125D02*
X144064756Y-110134839D01*
X144681613Y-110207411D02*
X144717899Y-110171125D01*
X144717899Y-110171125D02*
X144790471Y-110134839D01*
X144790471Y-110134839D02*
X144971899Y-110134839D01*
X144971899Y-110134839D02*
X145044471Y-110171125D01*
X145044471Y-110171125D02*
X145080756Y-110207411D01*
X145080756Y-110207411D02*
X145117042Y-110279982D01*
X145117042Y-110279982D02*
X145117042Y-110352554D01*
X145117042Y-110352554D02*
X145080756Y-110461411D01*
X145080756Y-110461411D02*
X144645328Y-110896839D01*
X144645328Y-110896839D02*
X145117042Y-110896839D01*
X132806756Y-105896839D02*
X132806756Y-105134839D01*
X133314756Y-105134839D02*
X133459899Y-105134839D01*
X133459899Y-105134839D02*
X133532470Y-105171125D01*
X133532470Y-105171125D02*
X133605042Y-105243696D01*
X133605042Y-105243696D02*
X133641327Y-105388839D01*
X133641327Y-105388839D02*
X133641327Y-105642839D01*
X133641327Y-105642839D02*
X133605042Y-105787982D01*
X133605042Y-105787982D02*
X133532470Y-105860554D01*
X133532470Y-105860554D02*
X133459899Y-105896839D01*
X133459899Y-105896839D02*
X133314756Y-105896839D01*
X133314756Y-105896839D02*
X133242185Y-105860554D01*
X133242185Y-105860554D02*
X133169613Y-105787982D01*
X133169613Y-105787982D02*
X133133327Y-105642839D01*
X133133327Y-105642839D02*
X133133327Y-105388839D01*
X133133327Y-105388839D02*
X133169613Y-105243696D01*
X133169613Y-105243696D02*
X133242185Y-105171125D01*
X133242185Y-105171125D02*
X133314756Y-105134839D01*
X133931613Y-105207411D02*
X133967899Y-105171125D01*
X133967899Y-105171125D02*
X134040471Y-105134839D01*
X134040471Y-105134839D02*
X134221899Y-105134839D01*
X134221899Y-105134839D02*
X134294471Y-105171125D01*
X134294471Y-105171125D02*
X134330756Y-105207411D01*
X134330756Y-105207411D02*
X134367042Y-105279982D01*
X134367042Y-105279982D02*
X134367042Y-105352554D01*
X134367042Y-105352554D02*
X134330756Y-105461411D01*
X134330756Y-105461411D02*
X133895328Y-105896839D01*
X133895328Y-105896839D02*
X134367042Y-105896839D01*
X134621042Y-105134839D02*
X135129042Y-105134839D01*
X135129042Y-105134839D02*
X134802470Y-105896839D01*
X143556756Y-113396839D02*
X143556756Y-112634839D01*
X144064756Y-112634839D02*
X144209899Y-112634839D01*
X144209899Y-112634839D02*
X144282470Y-112671125D01*
X144282470Y-112671125D02*
X144355042Y-112743696D01*
X144355042Y-112743696D02*
X144391327Y-112888839D01*
X144391327Y-112888839D02*
X144391327Y-113142839D01*
X144391327Y-113142839D02*
X144355042Y-113287982D01*
X144355042Y-113287982D02*
X144282470Y-113360554D01*
X144282470Y-113360554D02*
X144209899Y-113396839D01*
X144209899Y-113396839D02*
X144064756Y-113396839D01*
X144064756Y-113396839D02*
X143992185Y-113360554D01*
X143992185Y-113360554D02*
X143919613Y-113287982D01*
X143919613Y-113287982D02*
X143883327Y-113142839D01*
X143883327Y-113142839D02*
X143883327Y-112888839D01*
X143883327Y-112888839D02*
X143919613Y-112743696D01*
X143919613Y-112743696D02*
X143992185Y-112671125D01*
X143992185Y-112671125D02*
X144064756Y-112634839D01*
X145117042Y-113396839D02*
X144681613Y-113396839D01*
X144899328Y-113396839D02*
X144899328Y-112634839D01*
X144899328Y-112634839D02*
X144826756Y-112743696D01*
X144826756Y-112743696D02*
X144754185Y-112816268D01*
X144754185Y-112816268D02*
X144681613Y-112852554D01*
X145806470Y-112634839D02*
X145443613Y-112634839D01*
X145443613Y-112634839D02*
X145407327Y-112997696D01*
X145407327Y-112997696D02*
X145443613Y-112961411D01*
X145443613Y-112961411D02*
X145516185Y-112925125D01*
X145516185Y-112925125D02*
X145697613Y-112925125D01*
X145697613Y-112925125D02*
X145770185Y-112961411D01*
X145770185Y-112961411D02*
X145806470Y-112997696D01*
X145806470Y-112997696D02*
X145842756Y-113070268D01*
X145842756Y-113070268D02*
X145842756Y-113251696D01*
X145842756Y-113251696D02*
X145806470Y-113324268D01*
X145806470Y-113324268D02*
X145770185Y-113360554D01*
X145770185Y-113360554D02*
X145697613Y-113396839D01*
X145697613Y-113396839D02*
X145516185Y-113396839D01*
X145516185Y-113396839D02*
X145443613Y-113360554D01*
X145443613Y-113360554D02*
X145407327Y-113324268D01*
X143556756Y-103396839D02*
X143556756Y-102634839D01*
X144064756Y-102634839D02*
X144209899Y-102634839D01*
X144209899Y-102634839D02*
X144282470Y-102671125D01*
X144282470Y-102671125D02*
X144355042Y-102743696D01*
X144355042Y-102743696D02*
X144391327Y-102888839D01*
X144391327Y-102888839D02*
X144391327Y-103142839D01*
X144391327Y-103142839D02*
X144355042Y-103287982D01*
X144355042Y-103287982D02*
X144282470Y-103360554D01*
X144282470Y-103360554D02*
X144209899Y-103396839D01*
X144209899Y-103396839D02*
X144064756Y-103396839D01*
X144064756Y-103396839D02*
X143992185Y-103360554D01*
X143992185Y-103360554D02*
X143919613Y-103287982D01*
X143919613Y-103287982D02*
X143883327Y-103142839D01*
X143883327Y-103142839D02*
X143883327Y-102888839D01*
X143883327Y-102888839D02*
X143919613Y-102743696D01*
X143919613Y-102743696D02*
X143992185Y-102671125D01*
X143992185Y-102671125D02*
X144064756Y-102634839D01*
X145117042Y-103396839D02*
X144681613Y-103396839D01*
X144899328Y-103396839D02*
X144899328Y-102634839D01*
X144899328Y-102634839D02*
X144826756Y-102743696D01*
X144826756Y-102743696D02*
X144754185Y-102816268D01*
X144754185Y-102816268D02*
X144681613Y-102852554D01*
X145770185Y-102634839D02*
X145625042Y-102634839D01*
X145625042Y-102634839D02*
X145552470Y-102671125D01*
X145552470Y-102671125D02*
X145516185Y-102707411D01*
X145516185Y-102707411D02*
X145443613Y-102816268D01*
X145443613Y-102816268D02*
X145407327Y-102961411D01*
X145407327Y-102961411D02*
X145407327Y-103251696D01*
X145407327Y-103251696D02*
X145443613Y-103324268D01*
X145443613Y-103324268D02*
X145479899Y-103360554D01*
X145479899Y-103360554D02*
X145552470Y-103396839D01*
X145552470Y-103396839D02*
X145697613Y-103396839D01*
X145697613Y-103396839D02*
X145770185Y-103360554D01*
X145770185Y-103360554D02*
X145806470Y-103324268D01*
X145806470Y-103324268D02*
X145842756Y-103251696D01*
X145842756Y-103251696D02*
X145842756Y-103070268D01*
X145842756Y-103070268D02*
X145806470Y-102997696D01*
X145806470Y-102997696D02*
X145770185Y-102961411D01*
X145770185Y-102961411D02*
X145697613Y-102925125D01*
X145697613Y-102925125D02*
X145552470Y-102925125D01*
X145552470Y-102925125D02*
X145479899Y-102961411D01*
X145479899Y-102961411D02*
X145443613Y-102997696D01*
X145443613Y-102997696D02*
X145407327Y-103070268D01*
X143556756Y-90646839D02*
X143556756Y-89884839D01*
X144064756Y-89884839D02*
X144209899Y-89884839D01*
X144209899Y-89884839D02*
X144282470Y-89921125D01*
X144282470Y-89921125D02*
X144355042Y-89993696D01*
X144355042Y-89993696D02*
X144391327Y-90138839D01*
X144391327Y-90138839D02*
X144391327Y-90392839D01*
X144391327Y-90392839D02*
X144355042Y-90537982D01*
X144355042Y-90537982D02*
X144282470Y-90610554D01*
X144282470Y-90610554D02*
X144209899Y-90646839D01*
X144209899Y-90646839D02*
X144064756Y-90646839D01*
X144064756Y-90646839D02*
X143992185Y-90610554D01*
X143992185Y-90610554D02*
X143919613Y-90537982D01*
X143919613Y-90537982D02*
X143883327Y-90392839D01*
X143883327Y-90392839D02*
X143883327Y-90138839D01*
X143883327Y-90138839D02*
X143919613Y-89993696D01*
X143919613Y-89993696D02*
X143992185Y-89921125D01*
X143992185Y-89921125D02*
X144064756Y-89884839D01*
X144681613Y-89957411D02*
X144717899Y-89921125D01*
X144717899Y-89921125D02*
X144790471Y-89884839D01*
X144790471Y-89884839D02*
X144971899Y-89884839D01*
X144971899Y-89884839D02*
X145044471Y-89921125D01*
X145044471Y-89921125D02*
X145080756Y-89957411D01*
X145080756Y-89957411D02*
X145117042Y-90029982D01*
X145117042Y-90029982D02*
X145117042Y-90102554D01*
X145117042Y-90102554D02*
X145080756Y-90211411D01*
X145080756Y-90211411D02*
X144645328Y-90646839D01*
X144645328Y-90646839D02*
X145117042Y-90646839D01*
X145842756Y-90646839D02*
X145407327Y-90646839D01*
X145625042Y-90646839D02*
X145625042Y-89884839D01*
X145625042Y-89884839D02*
X145552470Y-89993696D01*
X145552470Y-89993696D02*
X145479899Y-90066268D01*
X145479899Y-90066268D02*
X145407327Y-90102554D01*
X132806756Y-108396839D02*
X132806756Y-107634839D01*
X133314756Y-107634839D02*
X133459899Y-107634839D01*
X133459899Y-107634839D02*
X133532470Y-107671125D01*
X133532470Y-107671125D02*
X133605042Y-107743696D01*
X133605042Y-107743696D02*
X133641327Y-107888839D01*
X133641327Y-107888839D02*
X133641327Y-108142839D01*
X133641327Y-108142839D02*
X133605042Y-108287982D01*
X133605042Y-108287982D02*
X133532470Y-108360554D01*
X133532470Y-108360554D02*
X133459899Y-108396839D01*
X133459899Y-108396839D02*
X133314756Y-108396839D01*
X133314756Y-108396839D02*
X133242185Y-108360554D01*
X133242185Y-108360554D02*
X133169613Y-108287982D01*
X133169613Y-108287982D02*
X133133327Y-108142839D01*
X133133327Y-108142839D02*
X133133327Y-107888839D01*
X133133327Y-107888839D02*
X133169613Y-107743696D01*
X133169613Y-107743696D02*
X133242185Y-107671125D01*
X133242185Y-107671125D02*
X133314756Y-107634839D01*
X134367042Y-108396839D02*
X133931613Y-108396839D01*
X134149328Y-108396839D02*
X134149328Y-107634839D01*
X134149328Y-107634839D02*
X134076756Y-107743696D01*
X134076756Y-107743696D02*
X134004185Y-107816268D01*
X134004185Y-107816268D02*
X133931613Y-107852554D01*
X135020185Y-107888839D02*
X135020185Y-108396839D01*
X134838756Y-107598554D02*
X134657327Y-108142839D01*
X134657327Y-108142839D02*
X135129042Y-108142839D01*
X132734185Y-79634839D02*
X133205899Y-79634839D01*
X133205899Y-79634839D02*
X132951899Y-79925125D01*
X132951899Y-79925125D02*
X133060756Y-79925125D01*
X133060756Y-79925125D02*
X133133328Y-79961411D01*
X133133328Y-79961411D02*
X133169613Y-79997696D01*
X133169613Y-79997696D02*
X133205899Y-80070268D01*
X133205899Y-80070268D02*
X133205899Y-80251696D01*
X133205899Y-80251696D02*
X133169613Y-80324268D01*
X133169613Y-80324268D02*
X133133328Y-80360554D01*
X133133328Y-80360554D02*
X133060756Y-80396839D01*
X133060756Y-80396839D02*
X132843042Y-80396839D01*
X132843042Y-80396839D02*
X132770470Y-80360554D01*
X132770470Y-80360554D02*
X132734185Y-80324268D01*
X133532470Y-80324268D02*
X133568756Y-80360554D01*
X133568756Y-80360554D02*
X133532470Y-80396839D01*
X133532470Y-80396839D02*
X133496184Y-80360554D01*
X133496184Y-80360554D02*
X133532470Y-80324268D01*
X133532470Y-80324268D02*
X133532470Y-80396839D01*
X133822756Y-79634839D02*
X134294470Y-79634839D01*
X134294470Y-79634839D02*
X134040470Y-79925125D01*
X134040470Y-79925125D02*
X134149327Y-79925125D01*
X134149327Y-79925125D02*
X134221899Y-79961411D01*
X134221899Y-79961411D02*
X134258184Y-79997696D01*
X134258184Y-79997696D02*
X134294470Y-80070268D01*
X134294470Y-80070268D02*
X134294470Y-80251696D01*
X134294470Y-80251696D02*
X134258184Y-80324268D01*
X134258184Y-80324268D02*
X134221899Y-80360554D01*
X134221899Y-80360554D02*
X134149327Y-80396839D01*
X134149327Y-80396839D02*
X133931613Y-80396839D01*
X133931613Y-80396839D02*
X133859041Y-80360554D01*
X133859041Y-80360554D02*
X133822756Y-80324268D01*
X134512184Y-79634839D02*
X134766184Y-80396839D01*
X134766184Y-80396839D02*
X135020184Y-79634839D01*
D11*
X128907779Y-36647474D02*
X128811017Y-36599093D01*
X128811017Y-36599093D02*
X128665874Y-36599093D01*
X128665874Y-36599093D02*
X128520731Y-36647474D01*
X128520731Y-36647474D02*
X128423969Y-36744236D01*
X128423969Y-36744236D02*
X128375588Y-36840998D01*
X128375588Y-36840998D02*
X128327207Y-37034522D01*
X128327207Y-37034522D02*
X128327207Y-37179665D01*
X128327207Y-37179665D02*
X128375588Y-37373189D01*
X128375588Y-37373189D02*
X128423969Y-37469951D01*
X128423969Y-37469951D02*
X128520731Y-37566713D01*
X128520731Y-37566713D02*
X128665874Y-37615093D01*
X128665874Y-37615093D02*
X128762636Y-37615093D01*
X128762636Y-37615093D02*
X128907779Y-37566713D01*
X128907779Y-37566713D02*
X128956160Y-37518332D01*
X128956160Y-37518332D02*
X128956160Y-37179665D01*
X128956160Y-37179665D02*
X128762636Y-37179665D01*
X129391588Y-37615093D02*
X129391588Y-36599093D01*
X129391588Y-36599093D02*
X129972160Y-37615093D01*
X129972160Y-37615093D02*
X129972160Y-36599093D01*
X130455969Y-37615093D02*
X130455969Y-36599093D01*
X130455969Y-36599093D02*
X130697874Y-36599093D01*
X130697874Y-36599093D02*
X130843017Y-36647474D01*
X130843017Y-36647474D02*
X130939779Y-36744236D01*
X130939779Y-36744236D02*
X130988160Y-36840998D01*
X130988160Y-36840998D02*
X131036541Y-37034522D01*
X131036541Y-37034522D02*
X131036541Y-37179665D01*
X131036541Y-37179665D02*
X130988160Y-37373189D01*
X130988160Y-37373189D02*
X130939779Y-37469951D01*
X130939779Y-37469951D02*
X130843017Y-37566713D01*
X130843017Y-37566713D02*
X130697874Y-37615093D01*
X130697874Y-37615093D02*
X130455969Y-37615093D01*
D10*
X143556756Y-95646839D02*
X143556756Y-94884839D01*
X144064756Y-94884839D02*
X144209899Y-94884839D01*
X144209899Y-94884839D02*
X144282470Y-94921125D01*
X144282470Y-94921125D02*
X144355042Y-94993696D01*
X144355042Y-94993696D02*
X144391327Y-95138839D01*
X144391327Y-95138839D02*
X144391327Y-95392839D01*
X144391327Y-95392839D02*
X144355042Y-95537982D01*
X144355042Y-95537982D02*
X144282470Y-95610554D01*
X144282470Y-95610554D02*
X144209899Y-95646839D01*
X144209899Y-95646839D02*
X144064756Y-95646839D01*
X144064756Y-95646839D02*
X143992185Y-95610554D01*
X143992185Y-95610554D02*
X143919613Y-95537982D01*
X143919613Y-95537982D02*
X143883327Y-95392839D01*
X143883327Y-95392839D02*
X143883327Y-95138839D01*
X143883327Y-95138839D02*
X143919613Y-94993696D01*
X143919613Y-94993696D02*
X143992185Y-94921125D01*
X143992185Y-94921125D02*
X144064756Y-94884839D01*
X145117042Y-95646839D02*
X144681613Y-95646839D01*
X144899328Y-95646839D02*
X144899328Y-94884839D01*
X144899328Y-94884839D02*
X144826756Y-94993696D01*
X144826756Y-94993696D02*
X144754185Y-95066268D01*
X144754185Y-95066268D02*
X144681613Y-95102554D01*
X145552470Y-95211411D02*
X145479899Y-95175125D01*
X145479899Y-95175125D02*
X145443613Y-95138839D01*
X145443613Y-95138839D02*
X145407327Y-95066268D01*
X145407327Y-95066268D02*
X145407327Y-95029982D01*
X145407327Y-95029982D02*
X145443613Y-94957411D01*
X145443613Y-94957411D02*
X145479899Y-94921125D01*
X145479899Y-94921125D02*
X145552470Y-94884839D01*
X145552470Y-94884839D02*
X145697613Y-94884839D01*
X145697613Y-94884839D02*
X145770185Y-94921125D01*
X145770185Y-94921125D02*
X145806470Y-94957411D01*
X145806470Y-94957411D02*
X145842756Y-95029982D01*
X145842756Y-95029982D02*
X145842756Y-95066268D01*
X145842756Y-95066268D02*
X145806470Y-95138839D01*
X145806470Y-95138839D02*
X145770185Y-95175125D01*
X145770185Y-95175125D02*
X145697613Y-95211411D01*
X145697613Y-95211411D02*
X145552470Y-95211411D01*
X145552470Y-95211411D02*
X145479899Y-95247696D01*
X145479899Y-95247696D02*
X145443613Y-95283982D01*
X145443613Y-95283982D02*
X145407327Y-95356554D01*
X145407327Y-95356554D02*
X145407327Y-95501696D01*
X145407327Y-95501696D02*
X145443613Y-95574268D01*
X145443613Y-95574268D02*
X145479899Y-95610554D01*
X145479899Y-95610554D02*
X145552470Y-95646839D01*
X145552470Y-95646839D02*
X145697613Y-95646839D01*
X145697613Y-95646839D02*
X145770185Y-95610554D01*
X145770185Y-95610554D02*
X145806470Y-95574268D01*
X145806470Y-95574268D02*
X145842756Y-95501696D01*
X145842756Y-95501696D02*
X145842756Y-95356554D01*
X145842756Y-95356554D02*
X145806470Y-95283982D01*
X145806470Y-95283982D02*
X145770185Y-95247696D01*
X145770185Y-95247696D02*
X145697613Y-95211411D01*
X132806756Y-98146839D02*
X132806756Y-97384839D01*
X133314756Y-97384839D02*
X133459899Y-97384839D01*
X133459899Y-97384839D02*
X133532470Y-97421125D01*
X133532470Y-97421125D02*
X133605042Y-97493696D01*
X133605042Y-97493696D02*
X133641327Y-97638839D01*
X133641327Y-97638839D02*
X133641327Y-97892839D01*
X133641327Y-97892839D02*
X133605042Y-98037982D01*
X133605042Y-98037982D02*
X133532470Y-98110554D01*
X133532470Y-98110554D02*
X133459899Y-98146839D01*
X133459899Y-98146839D02*
X133314756Y-98146839D01*
X133314756Y-98146839D02*
X133242185Y-98110554D01*
X133242185Y-98110554D02*
X133169613Y-98037982D01*
X133169613Y-98037982D02*
X133133327Y-97892839D01*
X133133327Y-97892839D02*
X133133327Y-97638839D01*
X133133327Y-97638839D02*
X133169613Y-97493696D01*
X133169613Y-97493696D02*
X133242185Y-97421125D01*
X133242185Y-97421125D02*
X133314756Y-97384839D01*
X133895328Y-97384839D02*
X134367042Y-97384839D01*
X134367042Y-97384839D02*
X134113042Y-97675125D01*
X134113042Y-97675125D02*
X134221899Y-97675125D01*
X134221899Y-97675125D02*
X134294471Y-97711411D01*
X134294471Y-97711411D02*
X134330756Y-97747696D01*
X134330756Y-97747696D02*
X134367042Y-97820268D01*
X134367042Y-97820268D02*
X134367042Y-98001696D01*
X134367042Y-98001696D02*
X134330756Y-98074268D01*
X134330756Y-98074268D02*
X134294471Y-98110554D01*
X134294471Y-98110554D02*
X134221899Y-98146839D01*
X134221899Y-98146839D02*
X134004185Y-98146839D01*
X134004185Y-98146839D02*
X133931613Y-98110554D01*
X133931613Y-98110554D02*
X133895328Y-98074268D01*
X134621042Y-97384839D02*
X135092756Y-97384839D01*
X135092756Y-97384839D02*
X134838756Y-97675125D01*
X134838756Y-97675125D02*
X134947613Y-97675125D01*
X134947613Y-97675125D02*
X135020185Y-97711411D01*
X135020185Y-97711411D02*
X135056470Y-97747696D01*
X135056470Y-97747696D02*
X135092756Y-97820268D01*
X135092756Y-97820268D02*
X135092756Y-98001696D01*
X135092756Y-98001696D02*
X135056470Y-98074268D01*
X135056470Y-98074268D02*
X135020185Y-98110554D01*
X135020185Y-98110554D02*
X134947613Y-98146839D01*
X134947613Y-98146839D02*
X134729899Y-98146839D01*
X134729899Y-98146839D02*
X134657327Y-98110554D01*
X134657327Y-98110554D02*
X134621042Y-98074268D01*
X132806756Y-82497696D02*
X133060756Y-82497696D01*
X133169613Y-82896839D02*
X132806756Y-82896839D01*
X132806756Y-82896839D02*
X132806756Y-82134839D01*
X132806756Y-82134839D02*
X133169613Y-82134839D01*
X133496185Y-82896839D02*
X133496185Y-82134839D01*
X133496185Y-82134839D02*
X133931614Y-82896839D01*
X133931614Y-82896839D02*
X133931614Y-82134839D01*
X132697899Y-84634839D02*
X132951899Y-85396839D01*
X132951899Y-85396839D02*
X133205899Y-84634839D01*
X133459899Y-85396839D02*
X133459899Y-84634839D01*
X133459899Y-84634839D02*
X133750185Y-84634839D01*
X133750185Y-84634839D02*
X133822756Y-84671125D01*
X133822756Y-84671125D02*
X133859042Y-84707411D01*
X133859042Y-84707411D02*
X133895328Y-84779982D01*
X133895328Y-84779982D02*
X133895328Y-84888839D01*
X133895328Y-84888839D02*
X133859042Y-84961411D01*
X133859042Y-84961411D02*
X133822756Y-84997696D01*
X133822756Y-84997696D02*
X133750185Y-85033982D01*
X133750185Y-85033982D02*
X133459899Y-85033982D01*
X132806756Y-110896839D02*
X132806756Y-110134839D01*
X133314756Y-110134839D02*
X133459899Y-110134839D01*
X133459899Y-110134839D02*
X133532470Y-110171125D01*
X133532470Y-110171125D02*
X133605042Y-110243696D01*
X133605042Y-110243696D02*
X133641327Y-110388839D01*
X133641327Y-110388839D02*
X133641327Y-110642839D01*
X133641327Y-110642839D02*
X133605042Y-110787982D01*
X133605042Y-110787982D02*
X133532470Y-110860554D01*
X133532470Y-110860554D02*
X133459899Y-110896839D01*
X133459899Y-110896839D02*
X133314756Y-110896839D01*
X133314756Y-110896839D02*
X133242185Y-110860554D01*
X133242185Y-110860554D02*
X133169613Y-110787982D01*
X133169613Y-110787982D02*
X133133327Y-110642839D01*
X133133327Y-110642839D02*
X133133327Y-110388839D01*
X133133327Y-110388839D02*
X133169613Y-110243696D01*
X133169613Y-110243696D02*
X133242185Y-110171125D01*
X133242185Y-110171125D02*
X133314756Y-110134839D01*
X134367042Y-110896839D02*
X133931613Y-110896839D01*
X134149328Y-110896839D02*
X134149328Y-110134839D01*
X134149328Y-110134839D02*
X134076756Y-110243696D01*
X134076756Y-110243696D02*
X134004185Y-110316268D01*
X134004185Y-110316268D02*
X133931613Y-110352554D01*
X134657327Y-110207411D02*
X134693613Y-110171125D01*
X134693613Y-110171125D02*
X134766185Y-110134839D01*
X134766185Y-110134839D02*
X134947613Y-110134839D01*
X134947613Y-110134839D02*
X135020185Y-110171125D01*
X135020185Y-110171125D02*
X135056470Y-110207411D01*
X135056470Y-110207411D02*
X135092756Y-110279982D01*
X135092756Y-110279982D02*
X135092756Y-110352554D01*
X135092756Y-110352554D02*
X135056470Y-110461411D01*
X135056470Y-110461411D02*
X134621042Y-110896839D01*
X134621042Y-110896839D02*
X135092756Y-110896839D01*
X132806756Y-113396839D02*
X132806756Y-112634839D01*
X133314756Y-112634839D02*
X133459899Y-112634839D01*
X133459899Y-112634839D02*
X133532470Y-112671125D01*
X133532470Y-112671125D02*
X133605042Y-112743696D01*
X133605042Y-112743696D02*
X133641327Y-112888839D01*
X133641327Y-112888839D02*
X133641327Y-113142839D01*
X133641327Y-113142839D02*
X133605042Y-113287982D01*
X133605042Y-113287982D02*
X133532470Y-113360554D01*
X133532470Y-113360554D02*
X133459899Y-113396839D01*
X133459899Y-113396839D02*
X133314756Y-113396839D01*
X133314756Y-113396839D02*
X133242185Y-113360554D01*
X133242185Y-113360554D02*
X133169613Y-113287982D01*
X133169613Y-113287982D02*
X133133327Y-113142839D01*
X133133327Y-113142839D02*
X133133327Y-112888839D01*
X133133327Y-112888839D02*
X133169613Y-112743696D01*
X133169613Y-112743696D02*
X133242185Y-112671125D01*
X133242185Y-112671125D02*
X133314756Y-112634839D01*
X134367042Y-113396839D02*
X133931613Y-113396839D01*
X134149328Y-113396839D02*
X134149328Y-112634839D01*
X134149328Y-112634839D02*
X134076756Y-112743696D01*
X134076756Y-112743696D02*
X134004185Y-112816268D01*
X134004185Y-112816268D02*
X133931613Y-112852554D01*
X134621042Y-112634839D02*
X135092756Y-112634839D01*
X135092756Y-112634839D02*
X134838756Y-112925125D01*
X134838756Y-112925125D02*
X134947613Y-112925125D01*
X134947613Y-112925125D02*
X135020185Y-112961411D01*
X135020185Y-112961411D02*
X135056470Y-112997696D01*
X135056470Y-112997696D02*
X135092756Y-113070268D01*
X135092756Y-113070268D02*
X135092756Y-113251696D01*
X135092756Y-113251696D02*
X135056470Y-113324268D01*
X135056470Y-113324268D02*
X135020185Y-113360554D01*
X135020185Y-113360554D02*
X134947613Y-113396839D01*
X134947613Y-113396839D02*
X134729899Y-113396839D01*
X134729899Y-113396839D02*
X134657327Y-113360554D01*
X134657327Y-113360554D02*
X134621042Y-113324268D01*
X144992185Y-88146839D02*
X144738185Y-87783982D01*
X144556756Y-88146839D02*
X144556756Y-87384839D01*
X144556756Y-87384839D02*
X144847042Y-87384839D01*
X144847042Y-87384839D02*
X144919613Y-87421125D01*
X144919613Y-87421125D02*
X144955899Y-87457411D01*
X144955899Y-87457411D02*
X144992185Y-87529982D01*
X144992185Y-87529982D02*
X144992185Y-87638839D01*
X144992185Y-87638839D02*
X144955899Y-87711411D01*
X144955899Y-87711411D02*
X144919613Y-87747696D01*
X144919613Y-87747696D02*
X144847042Y-87783982D01*
X144847042Y-87783982D02*
X144556756Y-87783982D01*
X145246185Y-87384839D02*
X145754185Y-88146839D01*
X145754185Y-87384839D02*
X145246185Y-88146839D01*
X132806756Y-95646839D02*
X132806756Y-94884839D01*
X133314756Y-94884839D02*
X133459899Y-94884839D01*
X133459899Y-94884839D02*
X133532470Y-94921125D01*
X133532470Y-94921125D02*
X133605042Y-94993696D01*
X133605042Y-94993696D02*
X133641327Y-95138839D01*
X133641327Y-95138839D02*
X133641327Y-95392839D01*
X133641327Y-95392839D02*
X133605042Y-95537982D01*
X133605042Y-95537982D02*
X133532470Y-95610554D01*
X133532470Y-95610554D02*
X133459899Y-95646839D01*
X133459899Y-95646839D02*
X133314756Y-95646839D01*
X133314756Y-95646839D02*
X133242185Y-95610554D01*
X133242185Y-95610554D02*
X133169613Y-95537982D01*
X133169613Y-95537982D02*
X133133327Y-95392839D01*
X133133327Y-95392839D02*
X133133327Y-95138839D01*
X133133327Y-95138839D02*
X133169613Y-94993696D01*
X133169613Y-94993696D02*
X133242185Y-94921125D01*
X133242185Y-94921125D02*
X133314756Y-94884839D01*
X133895328Y-94884839D02*
X134367042Y-94884839D01*
X134367042Y-94884839D02*
X134113042Y-95175125D01*
X134113042Y-95175125D02*
X134221899Y-95175125D01*
X134221899Y-95175125D02*
X134294471Y-95211411D01*
X134294471Y-95211411D02*
X134330756Y-95247696D01*
X134330756Y-95247696D02*
X134367042Y-95320268D01*
X134367042Y-95320268D02*
X134367042Y-95501696D01*
X134367042Y-95501696D02*
X134330756Y-95574268D01*
X134330756Y-95574268D02*
X134294471Y-95610554D01*
X134294471Y-95610554D02*
X134221899Y-95646839D01*
X134221899Y-95646839D02*
X134004185Y-95646839D01*
X134004185Y-95646839D02*
X133931613Y-95610554D01*
X133931613Y-95610554D02*
X133895328Y-95574268D01*
X134657327Y-94957411D02*
X134693613Y-94921125D01*
X134693613Y-94921125D02*
X134766185Y-94884839D01*
X134766185Y-94884839D02*
X134947613Y-94884839D01*
X134947613Y-94884839D02*
X135020185Y-94921125D01*
X135020185Y-94921125D02*
X135056470Y-94957411D01*
X135056470Y-94957411D02*
X135092756Y-95029982D01*
X135092756Y-95029982D02*
X135092756Y-95102554D01*
X135092756Y-95102554D02*
X135056470Y-95211411D01*
X135056470Y-95211411D02*
X134621042Y-95646839D01*
X134621042Y-95646839D02*
X135092756Y-95646839D01*
X143556756Y-93146839D02*
X143556756Y-92384839D01*
X144064756Y-92384839D02*
X144209899Y-92384839D01*
X144209899Y-92384839D02*
X144282470Y-92421125D01*
X144282470Y-92421125D02*
X144355042Y-92493696D01*
X144355042Y-92493696D02*
X144391327Y-92638839D01*
X144391327Y-92638839D02*
X144391327Y-92892839D01*
X144391327Y-92892839D02*
X144355042Y-93037982D01*
X144355042Y-93037982D02*
X144282470Y-93110554D01*
X144282470Y-93110554D02*
X144209899Y-93146839D01*
X144209899Y-93146839D02*
X144064756Y-93146839D01*
X144064756Y-93146839D02*
X143992185Y-93110554D01*
X143992185Y-93110554D02*
X143919613Y-93037982D01*
X143919613Y-93037982D02*
X143883327Y-92892839D01*
X143883327Y-92892839D02*
X143883327Y-92638839D01*
X143883327Y-92638839D02*
X143919613Y-92493696D01*
X143919613Y-92493696D02*
X143992185Y-92421125D01*
X143992185Y-92421125D02*
X144064756Y-92384839D01*
X145117042Y-93146839D02*
X144681613Y-93146839D01*
X144899328Y-93146839D02*
X144899328Y-92384839D01*
X144899328Y-92384839D02*
X144826756Y-92493696D01*
X144826756Y-92493696D02*
X144754185Y-92566268D01*
X144754185Y-92566268D02*
X144681613Y-92602554D01*
X145479899Y-93146839D02*
X145625042Y-93146839D01*
X145625042Y-93146839D02*
X145697613Y-93110554D01*
X145697613Y-93110554D02*
X145733899Y-93074268D01*
X145733899Y-93074268D02*
X145806470Y-92965411D01*
X145806470Y-92965411D02*
X145842756Y-92820268D01*
X145842756Y-92820268D02*
X145842756Y-92529982D01*
X145842756Y-92529982D02*
X145806470Y-92457411D01*
X145806470Y-92457411D02*
X145770185Y-92421125D01*
X145770185Y-92421125D02*
X145697613Y-92384839D01*
X145697613Y-92384839D02*
X145552470Y-92384839D01*
X145552470Y-92384839D02*
X145479899Y-92421125D01*
X145479899Y-92421125D02*
X145443613Y-92457411D01*
X145443613Y-92457411D02*
X145407327Y-92529982D01*
X145407327Y-92529982D02*
X145407327Y-92711411D01*
X145407327Y-92711411D02*
X145443613Y-92783982D01*
X145443613Y-92783982D02*
X145479899Y-92820268D01*
X145479899Y-92820268D02*
X145552470Y-92856554D01*
X145552470Y-92856554D02*
X145697613Y-92856554D01*
X145697613Y-92856554D02*
X145770185Y-92820268D01*
X145770185Y-92820268D02*
X145806470Y-92783982D01*
X145806470Y-92783982D02*
X145842756Y-92711411D01*
X143556756Y-100896839D02*
X143556756Y-100134839D01*
X144064756Y-100134839D02*
X144209899Y-100134839D01*
X144209899Y-100134839D02*
X144282470Y-100171125D01*
X144282470Y-100171125D02*
X144355042Y-100243696D01*
X144355042Y-100243696D02*
X144391327Y-100388839D01*
X144391327Y-100388839D02*
X144391327Y-100642839D01*
X144391327Y-100642839D02*
X144355042Y-100787982D01*
X144355042Y-100787982D02*
X144282470Y-100860554D01*
X144282470Y-100860554D02*
X144209899Y-100896839D01*
X144209899Y-100896839D02*
X144064756Y-100896839D01*
X144064756Y-100896839D02*
X143992185Y-100860554D01*
X143992185Y-100860554D02*
X143919613Y-100787982D01*
X143919613Y-100787982D02*
X143883327Y-100642839D01*
X143883327Y-100642839D02*
X143883327Y-100388839D01*
X143883327Y-100388839D02*
X143919613Y-100243696D01*
X143919613Y-100243696D02*
X143992185Y-100171125D01*
X143992185Y-100171125D02*
X144064756Y-100134839D01*
X145117042Y-100896839D02*
X144681613Y-100896839D01*
X144899328Y-100896839D02*
X144899328Y-100134839D01*
X144899328Y-100134839D02*
X144826756Y-100243696D01*
X144826756Y-100243696D02*
X144754185Y-100316268D01*
X144754185Y-100316268D02*
X144681613Y-100352554D01*
X145371042Y-100134839D02*
X145879042Y-100134839D01*
X145879042Y-100134839D02*
X145552470Y-100896839D01*
X132806756Y-93146839D02*
X132806756Y-92384839D01*
X133314756Y-92384839D02*
X133459899Y-92384839D01*
X133459899Y-92384839D02*
X133532470Y-92421125D01*
X133532470Y-92421125D02*
X133605042Y-92493696D01*
X133605042Y-92493696D02*
X133641327Y-92638839D01*
X133641327Y-92638839D02*
X133641327Y-92892839D01*
X133641327Y-92892839D02*
X133605042Y-93037982D01*
X133605042Y-93037982D02*
X133532470Y-93110554D01*
X133532470Y-93110554D02*
X133459899Y-93146839D01*
X133459899Y-93146839D02*
X133314756Y-93146839D01*
X133314756Y-93146839D02*
X133242185Y-93110554D01*
X133242185Y-93110554D02*
X133169613Y-93037982D01*
X133169613Y-93037982D02*
X133133327Y-92892839D01*
X133133327Y-92892839D02*
X133133327Y-92638839D01*
X133133327Y-92638839D02*
X133169613Y-92493696D01*
X133169613Y-92493696D02*
X133242185Y-92421125D01*
X133242185Y-92421125D02*
X133314756Y-92384839D01*
X133895328Y-92384839D02*
X134367042Y-92384839D01*
X134367042Y-92384839D02*
X134113042Y-92675125D01*
X134113042Y-92675125D02*
X134221899Y-92675125D01*
X134221899Y-92675125D02*
X134294471Y-92711411D01*
X134294471Y-92711411D02*
X134330756Y-92747696D01*
X134330756Y-92747696D02*
X134367042Y-92820268D01*
X134367042Y-92820268D02*
X134367042Y-93001696D01*
X134367042Y-93001696D02*
X134330756Y-93074268D01*
X134330756Y-93074268D02*
X134294471Y-93110554D01*
X134294471Y-93110554D02*
X134221899Y-93146839D01*
X134221899Y-93146839D02*
X134004185Y-93146839D01*
X134004185Y-93146839D02*
X133931613Y-93110554D01*
X133931613Y-93110554D02*
X133895328Y-93074268D01*
X135056470Y-92384839D02*
X134693613Y-92384839D01*
X134693613Y-92384839D02*
X134657327Y-92747696D01*
X134657327Y-92747696D02*
X134693613Y-92711411D01*
X134693613Y-92711411D02*
X134766185Y-92675125D01*
X134766185Y-92675125D02*
X134947613Y-92675125D01*
X134947613Y-92675125D02*
X135020185Y-92711411D01*
X135020185Y-92711411D02*
X135056470Y-92747696D01*
X135056470Y-92747696D02*
X135092756Y-92820268D01*
X135092756Y-92820268D02*
X135092756Y-93001696D01*
X135092756Y-93001696D02*
X135056470Y-93074268D01*
X135056470Y-93074268D02*
X135020185Y-93110554D01*
X135020185Y-93110554D02*
X134947613Y-93146839D01*
X134947613Y-93146839D02*
X134766185Y-93146839D01*
X134766185Y-93146839D02*
X134693613Y-93110554D01*
X134693613Y-93110554D02*
X134657327Y-93074268D01*
D12*
X154523340Y-63997570D02*
X154559626Y-64033856D01*
X154559626Y-64033856D02*
X154595911Y-64142713D01*
X154595911Y-64142713D02*
X154595911Y-64215285D01*
X154595911Y-64215285D02*
X154559626Y-64324142D01*
X154559626Y-64324142D02*
X154487054Y-64396713D01*
X154487054Y-64396713D02*
X154414483Y-64432999D01*
X154414483Y-64432999D02*
X154269340Y-64469285D01*
X154269340Y-64469285D02*
X154160483Y-64469285D01*
X154160483Y-64469285D02*
X154015340Y-64432999D01*
X154015340Y-64432999D02*
X153942768Y-64396713D01*
X153942768Y-64396713D02*
X153870197Y-64324142D01*
X153870197Y-64324142D02*
X153833911Y-64215285D01*
X153833911Y-64215285D02*
X153833911Y-64142713D01*
X153833911Y-64142713D02*
X153870197Y-64033856D01*
X153870197Y-64033856D02*
X153906483Y-63997570D01*
X154668483Y-63852428D02*
X154668483Y-63271856D01*
X153833911Y-63090428D02*
X154450768Y-63090428D01*
X154450768Y-63090428D02*
X154523340Y-63054142D01*
X154523340Y-63054142D02*
X154559626Y-63017857D01*
X154559626Y-63017857D02*
X154595911Y-62945285D01*
X154595911Y-62945285D02*
X154595911Y-62800142D01*
X154595911Y-62800142D02*
X154559626Y-62727571D01*
X154559626Y-62727571D02*
X154523340Y-62691285D01*
X154523340Y-62691285D02*
X154450768Y-62654999D01*
X154450768Y-62654999D02*
X153833911Y-62654999D01*
X154559626Y-62328428D02*
X154595911Y-62219571D01*
X154595911Y-62219571D02*
X154595911Y-62038142D01*
X154595911Y-62038142D02*
X154559626Y-61965571D01*
X154559626Y-61965571D02*
X154523340Y-61929285D01*
X154523340Y-61929285D02*
X154450768Y-61892999D01*
X154450768Y-61892999D02*
X154378197Y-61892999D01*
X154378197Y-61892999D02*
X154305626Y-61929285D01*
X154305626Y-61929285D02*
X154269340Y-61965571D01*
X154269340Y-61965571D02*
X154233054Y-62038142D01*
X154233054Y-62038142D02*
X154196768Y-62183285D01*
X154196768Y-62183285D02*
X154160483Y-62255856D01*
X154160483Y-62255856D02*
X154124197Y-62292142D01*
X154124197Y-62292142D02*
X154051626Y-62328428D01*
X154051626Y-62328428D02*
X153979054Y-62328428D01*
X153979054Y-62328428D02*
X153906483Y-62292142D01*
X153906483Y-62292142D02*
X153870197Y-62255856D01*
X153870197Y-62255856D02*
X153833911Y-62183285D01*
X153833911Y-62183285D02*
X153833911Y-62001856D01*
X153833911Y-62001856D02*
X153870197Y-61892999D01*
X154196768Y-61312428D02*
X154233054Y-61203571D01*
X154233054Y-61203571D02*
X154269340Y-61167285D01*
X154269340Y-61167285D02*
X154341911Y-61130999D01*
X154341911Y-61130999D02*
X154450768Y-61130999D01*
X154450768Y-61130999D02*
X154523340Y-61167285D01*
X154523340Y-61167285D02*
X154559626Y-61203571D01*
X154559626Y-61203571D02*
X154595911Y-61276142D01*
X154595911Y-61276142D02*
X154595911Y-61566428D01*
X154595911Y-61566428D02*
X153833911Y-61566428D01*
X153833911Y-61566428D02*
X153833911Y-61312428D01*
X153833911Y-61312428D02*
X153870197Y-61239857D01*
X153870197Y-61239857D02*
X153906483Y-61203571D01*
X153906483Y-61203571D02*
X153979054Y-61167285D01*
X153979054Y-61167285D02*
X154051626Y-61167285D01*
X154051626Y-61167285D02*
X154124197Y-61203571D01*
X154124197Y-61203571D02*
X154160483Y-61239857D01*
X154160483Y-61239857D02*
X154196768Y-61312428D01*
X154196768Y-61312428D02*
X154196768Y-61566428D01*
X154668483Y-60985857D02*
X154668483Y-60405285D01*
X153833911Y-60223857D02*
X154450768Y-60223857D01*
X154450768Y-60223857D02*
X154523340Y-60187571D01*
X154523340Y-60187571D02*
X154559626Y-60151286D01*
X154559626Y-60151286D02*
X154595911Y-60078714D01*
X154595911Y-60078714D02*
X154595911Y-59933571D01*
X154595911Y-59933571D02*
X154559626Y-59861000D01*
X154559626Y-59861000D02*
X154523340Y-59824714D01*
X154523340Y-59824714D02*
X154450768Y-59788428D01*
X154450768Y-59788428D02*
X153833911Y-59788428D01*
X154378197Y-59461857D02*
X154378197Y-59099000D01*
X154595911Y-59534428D02*
X153833911Y-59280428D01*
X153833911Y-59280428D02*
X154595911Y-59026428D01*
X154595911Y-58336999D02*
X154233054Y-58590999D01*
X154595911Y-58772428D02*
X153833911Y-58772428D01*
X153833911Y-58772428D02*
X153833911Y-58482142D01*
X153833911Y-58482142D02*
X153870197Y-58409571D01*
X153870197Y-58409571D02*
X153906483Y-58373285D01*
X153906483Y-58373285D02*
X153979054Y-58336999D01*
X153979054Y-58336999D02*
X154087911Y-58336999D01*
X154087911Y-58336999D02*
X154160483Y-58373285D01*
X154160483Y-58373285D02*
X154196768Y-58409571D01*
X154196768Y-58409571D02*
X154233054Y-58482142D01*
X154233054Y-58482142D02*
X154233054Y-58772428D01*
X153833911Y-58119285D02*
X153833911Y-57683857D01*
X154595911Y-57901571D02*
X153833911Y-57901571D01*
X154595911Y-57030714D02*
X154595911Y-57466143D01*
X154595911Y-57248428D02*
X153833911Y-57248428D01*
X153833911Y-57248428D02*
X153942768Y-57321000D01*
X153942768Y-57321000D02*
X154015340Y-57393571D01*
X154015340Y-57393571D02*
X154051626Y-57466143D01*
D13*
X144062524Y-44671184D02*
X144062524Y-44417184D01*
X144062524Y-44417184D02*
X144123000Y-44417184D01*
X144123000Y-44417184D02*
X144159286Y-44429279D01*
X144159286Y-44429279D02*
X144183476Y-44453469D01*
X144183476Y-44453469D02*
X144195571Y-44477660D01*
X144195571Y-44477660D02*
X144207667Y-44526041D01*
X144207667Y-44526041D02*
X144207667Y-44562327D01*
X144207667Y-44562327D02*
X144195571Y-44610708D01*
X144195571Y-44610708D02*
X144183476Y-44634898D01*
X144183476Y-44634898D02*
X144159286Y-44659089D01*
X144159286Y-44659089D02*
X144123000Y-44671184D01*
X144123000Y-44671184D02*
X144062524Y-44671184D01*
X144449571Y-44671184D02*
X144304428Y-44671184D01*
X144377000Y-44671184D02*
X144377000Y-44417184D01*
X144377000Y-44417184D02*
X144352809Y-44453469D01*
X144352809Y-44453469D02*
X144328619Y-44477660D01*
X144328619Y-44477660D02*
X144304428Y-44489755D01*
D14*
X158574318Y-49187381D02*
X157304318Y-49187381D01*
X157304318Y-49187381D02*
X157304318Y-48885000D01*
X157304318Y-48885000D02*
X157364794Y-48703571D01*
X157364794Y-48703571D02*
X157485746Y-48582619D01*
X157485746Y-48582619D02*
X157606699Y-48522142D01*
X157606699Y-48522142D02*
X157848603Y-48461666D01*
X157848603Y-48461666D02*
X158030032Y-48461666D01*
X158030032Y-48461666D02*
X158271937Y-48522142D01*
X158271937Y-48522142D02*
X158392889Y-48582619D01*
X158392889Y-48582619D02*
X158513842Y-48703571D01*
X158513842Y-48703571D02*
X158574318Y-48885000D01*
X158574318Y-48885000D02*
X158574318Y-49187381D01*
X157727651Y-47373095D02*
X158574318Y-47373095D01*
X157243842Y-47675476D02*
X158150984Y-47977857D01*
X158150984Y-47977857D02*
X158150984Y-47191666D01*
X153824318Y-49137381D02*
X152554318Y-49137381D01*
X152554318Y-49137381D02*
X152554318Y-48835000D01*
X152554318Y-48835000D02*
X152614794Y-48653571D01*
X152614794Y-48653571D02*
X152735746Y-48532619D01*
X152735746Y-48532619D02*
X152856699Y-48472142D01*
X152856699Y-48472142D02*
X153098603Y-48411666D01*
X153098603Y-48411666D02*
X153280032Y-48411666D01*
X153280032Y-48411666D02*
X153521937Y-48472142D01*
X153521937Y-48472142D02*
X153642889Y-48532619D01*
X153642889Y-48532619D02*
X153763842Y-48653571D01*
X153763842Y-48653571D02*
X153824318Y-48835000D01*
X153824318Y-48835000D02*
X153824318Y-49137381D01*
X152554318Y-47988333D02*
X152554318Y-47202142D01*
X152554318Y-47202142D02*
X153038127Y-47625476D01*
X153038127Y-47625476D02*
X153038127Y-47444047D01*
X153038127Y-47444047D02*
X153098603Y-47323095D01*
X153098603Y-47323095D02*
X153159080Y-47262619D01*
X153159080Y-47262619D02*
X153280032Y-47202142D01*
X153280032Y-47202142D02*
X153582413Y-47202142D01*
X153582413Y-47202142D02*
X153703365Y-47262619D01*
X153703365Y-47262619D02*
X153763842Y-47323095D01*
X153763842Y-47323095D02*
X153824318Y-47444047D01*
X153824318Y-47444047D02*
X153824318Y-47806904D01*
X153824318Y-47806904D02*
X153763842Y-47927857D01*
X153763842Y-47927857D02*
X153703365Y-47988333D01*
X150324318Y-49187381D02*
X149054318Y-49187381D01*
X149054318Y-49187381D02*
X149054318Y-48885000D01*
X149054318Y-48885000D02*
X149114794Y-48703571D01*
X149114794Y-48703571D02*
X149235746Y-48582619D01*
X149235746Y-48582619D02*
X149356699Y-48522142D01*
X149356699Y-48522142D02*
X149598603Y-48461666D01*
X149598603Y-48461666D02*
X149780032Y-48461666D01*
X149780032Y-48461666D02*
X150021937Y-48522142D01*
X150021937Y-48522142D02*
X150142889Y-48582619D01*
X150142889Y-48582619D02*
X150263842Y-48703571D01*
X150263842Y-48703571D02*
X150324318Y-48885000D01*
X150324318Y-48885000D02*
X150324318Y-49187381D01*
X149175270Y-47977857D02*
X149114794Y-47917381D01*
X149114794Y-47917381D02*
X149054318Y-47796428D01*
X149054318Y-47796428D02*
X149054318Y-47494047D01*
X149054318Y-47494047D02*
X149114794Y-47373095D01*
X149114794Y-47373095D02*
X149175270Y-47312619D01*
X149175270Y-47312619D02*
X149296222Y-47252142D01*
X149296222Y-47252142D02*
X149417175Y-47252142D01*
X149417175Y-47252142D02*
X149598603Y-47312619D01*
X149598603Y-47312619D02*
X150324318Y-48038333D01*
X150324318Y-48038333D02*
X150324318Y-47252142D01*
D15*
X120159580Y-47416666D02*
X120207200Y-47464285D01*
X120207200Y-47464285D02*
X120254819Y-47607142D01*
X120254819Y-47607142D02*
X120254819Y-47702380D01*
X120254819Y-47702380D02*
X120207200Y-47845237D01*
X120207200Y-47845237D02*
X120111961Y-47940475D01*
X120111961Y-47940475D02*
X120016723Y-47988094D01*
X120016723Y-47988094D02*
X119826247Y-48035713D01*
X119826247Y-48035713D02*
X119683390Y-48035713D01*
X119683390Y-48035713D02*
X119492914Y-47988094D01*
X119492914Y-47988094D02*
X119397676Y-47940475D01*
X119397676Y-47940475D02*
X119302438Y-47845237D01*
X119302438Y-47845237D02*
X119254819Y-47702380D01*
X119254819Y-47702380D02*
X119254819Y-47607142D01*
X119254819Y-47607142D02*
X119302438Y-47464285D01*
X119302438Y-47464285D02*
X119350057Y-47416666D01*
X120350057Y-47226190D02*
X120350057Y-46464285D01*
X119254819Y-46321427D02*
X119254819Y-45702380D01*
X119254819Y-45702380D02*
X119635771Y-46035713D01*
X119635771Y-46035713D02*
X119635771Y-45892856D01*
X119635771Y-45892856D02*
X119683390Y-45797618D01*
X119683390Y-45797618D02*
X119731009Y-45749999D01*
X119731009Y-45749999D02*
X119826247Y-45702380D01*
X119826247Y-45702380D02*
X120064342Y-45702380D01*
X120064342Y-45702380D02*
X120159580Y-45749999D01*
X120159580Y-45749999D02*
X120207200Y-45797618D01*
X120207200Y-45797618D02*
X120254819Y-45892856D01*
X120254819Y-45892856D02*
X120254819Y-46178570D01*
X120254819Y-46178570D02*
X120207200Y-46273808D01*
X120207200Y-46273808D02*
X120159580Y-46321427D01*
X120159580Y-45273808D02*
X120207200Y-45226189D01*
X120207200Y-45226189D02*
X120254819Y-45273808D01*
X120254819Y-45273808D02*
X120207200Y-45321427D01*
X120207200Y-45321427D02*
X120159580Y-45273808D01*
X120159580Y-45273808D02*
X120254819Y-45273808D01*
X119254819Y-44892856D02*
X119254819Y-44273809D01*
X119254819Y-44273809D02*
X119635771Y-44607142D01*
X119635771Y-44607142D02*
X119635771Y-44464285D01*
X119635771Y-44464285D02*
X119683390Y-44369047D01*
X119683390Y-44369047D02*
X119731009Y-44321428D01*
X119731009Y-44321428D02*
X119826247Y-44273809D01*
X119826247Y-44273809D02*
X120064342Y-44273809D01*
X120064342Y-44273809D02*
X120159580Y-44321428D01*
X120159580Y-44321428D02*
X120207200Y-44369047D01*
X120207200Y-44369047D02*
X120254819Y-44464285D01*
X120254819Y-44464285D02*
X120254819Y-44749999D01*
X120254819Y-44749999D02*
X120207200Y-44845237D01*
X120207200Y-44845237D02*
X120159580Y-44892856D01*
X119254819Y-43988094D02*
X120254819Y-43654761D01*
X120254819Y-43654761D02*
X119254819Y-43321428D01*
X120254819Y-42464285D02*
X120254819Y-43035713D01*
X120254819Y-42749999D02*
X119254819Y-42749999D01*
X119254819Y-42749999D02*
X119397676Y-42845237D01*
X119397676Y-42845237D02*
X119492914Y-42940475D01*
X119492914Y-42940475D02*
X119540533Y-43035713D01*
D16*
X129181345Y-59253904D02*
X129205536Y-59278095D01*
X129205536Y-59278095D02*
X129229726Y-59350666D01*
X129229726Y-59350666D02*
X129229726Y-59399047D01*
X129229726Y-59399047D02*
X129205536Y-59471619D01*
X129205536Y-59471619D02*
X129157155Y-59520000D01*
X129157155Y-59520000D02*
X129108774Y-59544190D01*
X129108774Y-59544190D02*
X129012012Y-59568381D01*
X129012012Y-59568381D02*
X128939440Y-59568381D01*
X128939440Y-59568381D02*
X128842678Y-59544190D01*
X128842678Y-59544190D02*
X128794297Y-59520000D01*
X128794297Y-59520000D02*
X128745916Y-59471619D01*
X128745916Y-59471619D02*
X128721726Y-59399047D01*
X128721726Y-59399047D02*
X128721726Y-59350666D01*
X128721726Y-59350666D02*
X128745916Y-59278095D01*
X128745916Y-59278095D02*
X128770107Y-59253904D01*
X129278107Y-59157143D02*
X129278107Y-58770095D01*
X128963631Y-58649142D02*
X128963631Y-58479809D01*
X129229726Y-58407237D02*
X129229726Y-58649142D01*
X129229726Y-58649142D02*
X128721726Y-58649142D01*
X128721726Y-58649142D02*
X128721726Y-58407237D01*
X129205536Y-58213714D02*
X129229726Y-58141142D01*
X129229726Y-58141142D02*
X129229726Y-58020190D01*
X129229726Y-58020190D02*
X129205536Y-57971809D01*
X129205536Y-57971809D02*
X129181345Y-57947618D01*
X129181345Y-57947618D02*
X129132964Y-57923428D01*
X129132964Y-57923428D02*
X129084583Y-57923428D01*
X129084583Y-57923428D02*
X129036202Y-57947618D01*
X129036202Y-57947618D02*
X129012012Y-57971809D01*
X129012012Y-57971809D02*
X128987821Y-58020190D01*
X128987821Y-58020190D02*
X128963631Y-58116952D01*
X128963631Y-58116952D02*
X128939440Y-58165333D01*
X128939440Y-58165333D02*
X128915250Y-58189523D01*
X128915250Y-58189523D02*
X128866869Y-58213714D01*
X128866869Y-58213714D02*
X128818488Y-58213714D01*
X128818488Y-58213714D02*
X128770107Y-58189523D01*
X128770107Y-58189523D02*
X128745916Y-58165333D01*
X128745916Y-58165333D02*
X128721726Y-58116952D01*
X128721726Y-58116952D02*
X128721726Y-57995999D01*
X128721726Y-57995999D02*
X128745916Y-57923428D01*
X129229726Y-57705713D02*
X128721726Y-57705713D01*
X128721726Y-57705713D02*
X128721726Y-57512189D01*
X128721726Y-57512189D02*
X128745916Y-57463808D01*
X128745916Y-57463808D02*
X128770107Y-57439618D01*
X128770107Y-57439618D02*
X128818488Y-57415427D01*
X128818488Y-57415427D02*
X128891059Y-57415427D01*
X128891059Y-57415427D02*
X128939440Y-57439618D01*
X128939440Y-57439618D02*
X128963631Y-57463808D01*
X128963631Y-57463808D02*
X128987821Y-57512189D01*
X128987821Y-57512189D02*
X128987821Y-57705713D01*
X128770107Y-57221904D02*
X128745916Y-57197713D01*
X128745916Y-57197713D02*
X128721726Y-57149332D01*
X128721726Y-57149332D02*
X128721726Y-57028380D01*
X128721726Y-57028380D02*
X128745916Y-56979999D01*
X128745916Y-56979999D02*
X128770107Y-56955808D01*
X128770107Y-56955808D02*
X128818488Y-56931618D01*
X128818488Y-56931618D02*
X128866869Y-56931618D01*
X128866869Y-56931618D02*
X128939440Y-56955808D01*
X128939440Y-56955808D02*
X129229726Y-57246094D01*
X129229726Y-57246094D02*
X129229726Y-56931618D01*
D15*
X149142857Y-39204819D02*
X149142857Y-40014342D01*
X149142857Y-40014342D02*
X149190476Y-40109580D01*
X149190476Y-40109580D02*
X149238095Y-40157200D01*
X149238095Y-40157200D02*
X149333333Y-40204819D01*
X149333333Y-40204819D02*
X149523809Y-40204819D01*
X149523809Y-40204819D02*
X149619047Y-40157200D01*
X149619047Y-40157200D02*
X149666666Y-40109580D01*
X149666666Y-40109580D02*
X149714285Y-40014342D01*
X149714285Y-40014342D02*
X149714285Y-39204819D01*
X150142857Y-40157200D02*
X150285714Y-40204819D01*
X150285714Y-40204819D02*
X150523809Y-40204819D01*
X150523809Y-40204819D02*
X150619047Y-40157200D01*
X150619047Y-40157200D02*
X150666666Y-40109580D01*
X150666666Y-40109580D02*
X150714285Y-40014342D01*
X150714285Y-40014342D02*
X150714285Y-39919104D01*
X150714285Y-39919104D02*
X150666666Y-39823866D01*
X150666666Y-39823866D02*
X150619047Y-39776247D01*
X150619047Y-39776247D02*
X150523809Y-39728628D01*
X150523809Y-39728628D02*
X150333333Y-39681009D01*
X150333333Y-39681009D02*
X150238095Y-39633390D01*
X150238095Y-39633390D02*
X150190476Y-39585771D01*
X150190476Y-39585771D02*
X150142857Y-39490533D01*
X150142857Y-39490533D02*
X150142857Y-39395295D01*
X150142857Y-39395295D02*
X150190476Y-39300057D01*
X150190476Y-39300057D02*
X150238095Y-39252438D01*
X150238095Y-39252438D02*
X150333333Y-39204819D01*
X150333333Y-39204819D02*
X150571428Y-39204819D01*
X150571428Y-39204819D02*
X150714285Y-39252438D01*
X151476190Y-39681009D02*
X151619047Y-39728628D01*
X151619047Y-39728628D02*
X151666666Y-39776247D01*
X151666666Y-39776247D02*
X151714285Y-39871485D01*
X151714285Y-39871485D02*
X151714285Y-40014342D01*
X151714285Y-40014342D02*
X151666666Y-40109580D01*
X151666666Y-40109580D02*
X151619047Y-40157200D01*
X151619047Y-40157200D02*
X151523809Y-40204819D01*
X151523809Y-40204819D02*
X151142857Y-40204819D01*
X151142857Y-40204819D02*
X151142857Y-39204819D01*
X151142857Y-39204819D02*
X151476190Y-39204819D01*
X151476190Y-39204819D02*
X151571428Y-39252438D01*
X151571428Y-39252438D02*
X151619047Y-39300057D01*
X151619047Y-39300057D02*
X151666666Y-39395295D01*
X151666666Y-39395295D02*
X151666666Y-39490533D01*
X151666666Y-39490533D02*
X151619047Y-39585771D01*
X151619047Y-39585771D02*
X151571428Y-39633390D01*
X151571428Y-39633390D02*
X151476190Y-39681009D01*
X151476190Y-39681009D02*
X151142857Y-39681009D01*
X152142857Y-39823866D02*
X152904762Y-39823866D01*
X153952380Y-40109580D02*
X153904761Y-40157200D01*
X153904761Y-40157200D02*
X153761904Y-40204819D01*
X153761904Y-40204819D02*
X153666666Y-40204819D01*
X153666666Y-40204819D02*
X153523809Y-40157200D01*
X153523809Y-40157200D02*
X153428571Y-40061961D01*
X153428571Y-40061961D02*
X153380952Y-39966723D01*
X153380952Y-39966723D02*
X153333333Y-39776247D01*
X153333333Y-39776247D02*
X153333333Y-39633390D01*
X153333333Y-39633390D02*
X153380952Y-39442914D01*
X153380952Y-39442914D02*
X153428571Y-39347676D01*
X153428571Y-39347676D02*
X153523809Y-39252438D01*
X153523809Y-39252438D02*
X153666666Y-39204819D01*
X153666666Y-39204819D02*
X153761904Y-39204819D01*
X153761904Y-39204819D02*
X153904761Y-39252438D01*
X153904761Y-39252438D02*
X153952380Y-39300057D01*
X154904761Y-40204819D02*
X154333333Y-40204819D01*
X154619047Y-40204819D02*
X154619047Y-39204819D01*
X154619047Y-39204819D02*
X154523809Y-39347676D01*
X154523809Y-39347676D02*
X154428571Y-39442914D01*
X154428571Y-39442914D02*
X154333333Y-39490533D01*
D17*
X150258285Y-37982368D02*
X150258285Y-37474368D01*
X150258285Y-37474368D02*
X150451809Y-37474368D01*
X150451809Y-37474368D02*
X150500190Y-37498558D01*
X150500190Y-37498558D02*
X150524380Y-37522749D01*
X150524380Y-37522749D02*
X150548571Y-37571130D01*
X150548571Y-37571130D02*
X150548571Y-37643701D01*
X150548571Y-37643701D02*
X150524380Y-37692082D01*
X150524380Y-37692082D02*
X150500190Y-37716273D01*
X150500190Y-37716273D02*
X150451809Y-37740463D01*
X150451809Y-37740463D02*
X150258285Y-37740463D01*
X151056571Y-37933987D02*
X151032380Y-37958178D01*
X151032380Y-37958178D02*
X150959809Y-37982368D01*
X150959809Y-37982368D02*
X150911428Y-37982368D01*
X150911428Y-37982368D02*
X150838856Y-37958178D01*
X150838856Y-37958178D02*
X150790475Y-37909797D01*
X150790475Y-37909797D02*
X150766285Y-37861416D01*
X150766285Y-37861416D02*
X150742094Y-37764654D01*
X150742094Y-37764654D02*
X150742094Y-37692082D01*
X150742094Y-37692082D02*
X150766285Y-37595320D01*
X150766285Y-37595320D02*
X150790475Y-37546939D01*
X150790475Y-37546939D02*
X150838856Y-37498558D01*
X150838856Y-37498558D02*
X150911428Y-37474368D01*
X150911428Y-37474368D02*
X150959809Y-37474368D01*
X150959809Y-37474368D02*
X151032380Y-37498558D01*
X151032380Y-37498558D02*
X151056571Y-37522749D01*
X151443618Y-37716273D02*
X151516190Y-37740463D01*
X151516190Y-37740463D02*
X151540380Y-37764654D01*
X151540380Y-37764654D02*
X151564571Y-37813035D01*
X151564571Y-37813035D02*
X151564571Y-37885606D01*
X151564571Y-37885606D02*
X151540380Y-37933987D01*
X151540380Y-37933987D02*
X151516190Y-37958178D01*
X151516190Y-37958178D02*
X151467809Y-37982368D01*
X151467809Y-37982368D02*
X151274285Y-37982368D01*
X151274285Y-37982368D02*
X151274285Y-37474368D01*
X151274285Y-37474368D02*
X151443618Y-37474368D01*
X151443618Y-37474368D02*
X151491999Y-37498558D01*
X151491999Y-37498558D02*
X151516190Y-37522749D01*
X151516190Y-37522749D02*
X151540380Y-37571130D01*
X151540380Y-37571130D02*
X151540380Y-37619511D01*
X151540380Y-37619511D02*
X151516190Y-37667892D01*
X151516190Y-37667892D02*
X151491999Y-37692082D01*
X151491999Y-37692082D02*
X151443618Y-37716273D01*
X151443618Y-37716273D02*
X151274285Y-37716273D01*
X152169333Y-37716273D02*
X152338666Y-37716273D01*
X152411238Y-37982368D02*
X152169333Y-37982368D01*
X152169333Y-37982368D02*
X152169333Y-37474368D01*
X152169333Y-37474368D02*
X152411238Y-37474368D01*
X152846666Y-37982368D02*
X152846666Y-37474368D01*
X152846666Y-37958178D02*
X152798285Y-37982368D01*
X152798285Y-37982368D02*
X152701523Y-37982368D01*
X152701523Y-37982368D02*
X152653142Y-37958178D01*
X152653142Y-37958178D02*
X152628952Y-37933987D01*
X152628952Y-37933987D02*
X152604761Y-37885606D01*
X152604761Y-37885606D02*
X152604761Y-37740463D01*
X152604761Y-37740463D02*
X152628952Y-37692082D01*
X152628952Y-37692082D02*
X152653142Y-37667892D01*
X152653142Y-37667892D02*
X152701523Y-37643701D01*
X152701523Y-37643701D02*
X152798285Y-37643701D01*
X152798285Y-37643701D02*
X152846666Y-37667892D01*
X153306285Y-37643701D02*
X153306285Y-38054939D01*
X153306285Y-38054939D02*
X153282095Y-38103320D01*
X153282095Y-38103320D02*
X153257904Y-38127511D01*
X153257904Y-38127511D02*
X153209523Y-38151701D01*
X153209523Y-38151701D02*
X153136952Y-38151701D01*
X153136952Y-38151701D02*
X153088571Y-38127511D01*
X153306285Y-37958178D02*
X153257904Y-37982368D01*
X153257904Y-37982368D02*
X153161142Y-37982368D01*
X153161142Y-37982368D02*
X153112761Y-37958178D01*
X153112761Y-37958178D02*
X153088571Y-37933987D01*
X153088571Y-37933987D02*
X153064380Y-37885606D01*
X153064380Y-37885606D02*
X153064380Y-37740463D01*
X153064380Y-37740463D02*
X153088571Y-37692082D01*
X153088571Y-37692082D02*
X153112761Y-37667892D01*
X153112761Y-37667892D02*
X153161142Y-37643701D01*
X153161142Y-37643701D02*
X153257904Y-37643701D01*
X153257904Y-37643701D02*
X153306285Y-37667892D01*
X153741714Y-37958178D02*
X153693333Y-37982368D01*
X153693333Y-37982368D02*
X153596571Y-37982368D01*
X153596571Y-37982368D02*
X153548190Y-37958178D01*
X153548190Y-37958178D02*
X153523999Y-37909797D01*
X153523999Y-37909797D02*
X153523999Y-37716273D01*
X153523999Y-37716273D02*
X153548190Y-37667892D01*
X153548190Y-37667892D02*
X153596571Y-37643701D01*
X153596571Y-37643701D02*
X153693333Y-37643701D01*
X153693333Y-37643701D02*
X153741714Y-37667892D01*
X153741714Y-37667892D02*
X153765904Y-37716273D01*
X153765904Y-37716273D02*
X153765904Y-37764654D01*
X153765904Y-37764654D02*
X153523999Y-37813035D01*
D15*
X137738095Y-57204819D02*
X137738095Y-58014342D01*
X137738095Y-58014342D02*
X137785714Y-58109580D01*
X137785714Y-58109580D02*
X137833333Y-58157200D01*
X137833333Y-58157200D02*
X137928571Y-58204819D01*
X137928571Y-58204819D02*
X138119047Y-58204819D01*
X138119047Y-58204819D02*
X138214285Y-58157200D01*
X138214285Y-58157200D02*
X138261904Y-58109580D01*
X138261904Y-58109580D02*
X138309523Y-58014342D01*
X138309523Y-58014342D02*
X138309523Y-57204819D01*
X139309523Y-58204819D02*
X138738095Y-58204819D01*
X139023809Y-58204819D02*
X139023809Y-57204819D01*
X139023809Y-57204819D02*
X138928571Y-57347676D01*
X138928571Y-57347676D02*
X138833333Y-57442914D01*
X138833333Y-57442914D02*
X138738095Y-57490533D01*
X157050057Y-73095238D02*
X157002438Y-73190476D01*
X157002438Y-73190476D02*
X156907200Y-73285714D01*
X156907200Y-73285714D02*
X156764342Y-73428571D01*
X156764342Y-73428571D02*
X156716723Y-73523809D01*
X156716723Y-73523809D02*
X156716723Y-73619047D01*
X156954819Y-73571428D02*
X156907200Y-73666666D01*
X156907200Y-73666666D02*
X156811961Y-73761904D01*
X156811961Y-73761904D02*
X156621485Y-73809523D01*
X156621485Y-73809523D02*
X156288152Y-73809523D01*
X156288152Y-73809523D02*
X156097676Y-73761904D01*
X156097676Y-73761904D02*
X156002438Y-73666666D01*
X156002438Y-73666666D02*
X155954819Y-73571428D01*
X155954819Y-73571428D02*
X155954819Y-73380952D01*
X155954819Y-73380952D02*
X156002438Y-73285714D01*
X156002438Y-73285714D02*
X156097676Y-73190476D01*
X156097676Y-73190476D02*
X156288152Y-73142857D01*
X156288152Y-73142857D02*
X156621485Y-73142857D01*
X156621485Y-73142857D02*
X156811961Y-73190476D01*
X156811961Y-73190476D02*
X156907200Y-73285714D01*
X156907200Y-73285714D02*
X156954819Y-73380952D01*
X156954819Y-73380952D02*
X156954819Y-73571428D01*
X156050057Y-72761904D02*
X156002438Y-72714285D01*
X156002438Y-72714285D02*
X155954819Y-72619047D01*
X155954819Y-72619047D02*
X155954819Y-72380952D01*
X155954819Y-72380952D02*
X156002438Y-72285714D01*
X156002438Y-72285714D02*
X156050057Y-72238095D01*
X156050057Y-72238095D02*
X156145295Y-72190476D01*
X156145295Y-72190476D02*
X156240533Y-72190476D01*
X156240533Y-72190476D02*
X156383390Y-72238095D01*
X156383390Y-72238095D02*
X156954819Y-72809523D01*
X156954819Y-72809523D02*
X156954819Y-72190476D01*
X157050057Y-68345238D02*
X157002438Y-68440476D01*
X157002438Y-68440476D02*
X156907200Y-68535714D01*
X156907200Y-68535714D02*
X156764342Y-68678571D01*
X156764342Y-68678571D02*
X156716723Y-68773809D01*
X156716723Y-68773809D02*
X156716723Y-68869047D01*
X156954819Y-68821428D02*
X156907200Y-68916666D01*
X156907200Y-68916666D02*
X156811961Y-69011904D01*
X156811961Y-69011904D02*
X156621485Y-69059523D01*
X156621485Y-69059523D02*
X156288152Y-69059523D01*
X156288152Y-69059523D02*
X156097676Y-69011904D01*
X156097676Y-69011904D02*
X156002438Y-68916666D01*
X156002438Y-68916666D02*
X155954819Y-68821428D01*
X155954819Y-68821428D02*
X155954819Y-68630952D01*
X155954819Y-68630952D02*
X156002438Y-68535714D01*
X156002438Y-68535714D02*
X156097676Y-68440476D01*
X156097676Y-68440476D02*
X156288152Y-68392857D01*
X156288152Y-68392857D02*
X156621485Y-68392857D01*
X156621485Y-68392857D02*
X156811961Y-68440476D01*
X156811961Y-68440476D02*
X156907200Y-68535714D01*
X156907200Y-68535714D02*
X156954819Y-68630952D01*
X156954819Y-68630952D02*
X156954819Y-68821428D01*
X156954819Y-67440476D02*
X156954819Y-68011904D01*
X156954819Y-67726190D02*
X155954819Y-67726190D01*
X155954819Y-67726190D02*
X156097676Y-67821428D01*
X156097676Y-67821428D02*
X156192914Y-67916666D01*
X156192914Y-67916666D02*
X156240533Y-68011904D01*
X121523809Y-64359580D02*
X121476190Y-64407200D01*
X121476190Y-64407200D02*
X121333333Y-64454819D01*
X121333333Y-64454819D02*
X121238095Y-64454819D01*
X121238095Y-64454819D02*
X121095238Y-64407200D01*
X121095238Y-64407200D02*
X121000000Y-64311961D01*
X121000000Y-64311961D02*
X120952381Y-64216723D01*
X120952381Y-64216723D02*
X120904762Y-64026247D01*
X120904762Y-64026247D02*
X120904762Y-63883390D01*
X120904762Y-63883390D02*
X120952381Y-63692914D01*
X120952381Y-63692914D02*
X121000000Y-63597676D01*
X121000000Y-63597676D02*
X121095238Y-63502438D01*
X121095238Y-63502438D02*
X121238095Y-63454819D01*
X121238095Y-63454819D02*
X121333333Y-63454819D01*
X121333333Y-63454819D02*
X121476190Y-63502438D01*
X121476190Y-63502438D02*
X121523809Y-63550057D01*
X121714286Y-64550057D02*
X122476190Y-64550057D01*
X122714286Y-63931009D02*
X123047619Y-63931009D01*
X123190476Y-64454819D02*
X122714286Y-64454819D01*
X122714286Y-64454819D02*
X122714286Y-63454819D01*
X122714286Y-63454819D02*
X123190476Y-63454819D01*
X123571429Y-64407200D02*
X123714286Y-64454819D01*
X123714286Y-64454819D02*
X123952381Y-64454819D01*
X123952381Y-64454819D02*
X124047619Y-64407200D01*
X124047619Y-64407200D02*
X124095238Y-64359580D01*
X124095238Y-64359580D02*
X124142857Y-64264342D01*
X124142857Y-64264342D02*
X124142857Y-64169104D01*
X124142857Y-64169104D02*
X124095238Y-64073866D01*
X124095238Y-64073866D02*
X124047619Y-64026247D01*
X124047619Y-64026247D02*
X123952381Y-63978628D01*
X123952381Y-63978628D02*
X123761905Y-63931009D01*
X123761905Y-63931009D02*
X123666667Y-63883390D01*
X123666667Y-63883390D02*
X123619048Y-63835771D01*
X123619048Y-63835771D02*
X123571429Y-63740533D01*
X123571429Y-63740533D02*
X123571429Y-63645295D01*
X123571429Y-63645295D02*
X123619048Y-63550057D01*
X123619048Y-63550057D02*
X123666667Y-63502438D01*
X123666667Y-63502438D02*
X123761905Y-63454819D01*
X123761905Y-63454819D02*
X124000000Y-63454819D01*
X124000000Y-63454819D02*
X124142857Y-63502438D01*
X124571429Y-64454819D02*
X124571429Y-63454819D01*
X124571429Y-63454819D02*
X124952381Y-63454819D01*
X124952381Y-63454819D02*
X125047619Y-63502438D01*
X125047619Y-63502438D02*
X125095238Y-63550057D01*
X125095238Y-63550057D02*
X125142857Y-63645295D01*
X125142857Y-63645295D02*
X125142857Y-63788152D01*
X125142857Y-63788152D02*
X125095238Y-63883390D01*
X125095238Y-63883390D02*
X125047619Y-63931009D01*
X125047619Y-63931009D02*
X124952381Y-63978628D01*
X124952381Y-63978628D02*
X124571429Y-63978628D01*
X126095238Y-64454819D02*
X125523810Y-64454819D01*
X125809524Y-64454819D02*
X125809524Y-63454819D01*
X125809524Y-63454819D02*
X125714286Y-63597676D01*
X125714286Y-63597676D02*
X125619048Y-63692914D01*
X125619048Y-63692914D02*
X125523810Y-63740533D01*
D12*
X129568857Y-46878197D02*
X129931715Y-46878197D01*
X129496286Y-47095911D02*
X129750286Y-46333911D01*
X129750286Y-46333911D02*
X130004286Y-47095911D01*
X130258286Y-47095911D02*
X130258286Y-46333911D01*
X130258286Y-46333911D02*
X130512286Y-46878197D01*
X130512286Y-46878197D02*
X130766286Y-46333911D01*
X130766286Y-46333911D02*
X130766286Y-47095911D01*
X131092857Y-47059626D02*
X131201715Y-47095911D01*
X131201715Y-47095911D02*
X131383143Y-47095911D01*
X131383143Y-47095911D02*
X131455715Y-47059626D01*
X131455715Y-47059626D02*
X131492000Y-47023340D01*
X131492000Y-47023340D02*
X131528286Y-46950768D01*
X131528286Y-46950768D02*
X131528286Y-46878197D01*
X131528286Y-46878197D02*
X131492000Y-46805626D01*
X131492000Y-46805626D02*
X131455715Y-46769340D01*
X131455715Y-46769340D02*
X131383143Y-46733054D01*
X131383143Y-46733054D02*
X131238000Y-46696768D01*
X131238000Y-46696768D02*
X131165429Y-46660483D01*
X131165429Y-46660483D02*
X131129143Y-46624197D01*
X131129143Y-46624197D02*
X131092857Y-46551626D01*
X131092857Y-46551626D02*
X131092857Y-46479054D01*
X131092857Y-46479054D02*
X131129143Y-46406483D01*
X131129143Y-46406483D02*
X131165429Y-46370197D01*
X131165429Y-46370197D02*
X131238000Y-46333911D01*
X131238000Y-46333911D02*
X131419429Y-46333911D01*
X131419429Y-46333911D02*
X131528286Y-46370197D01*
X132254000Y-47095911D02*
X131818571Y-47095911D01*
X132036286Y-47095911D02*
X132036286Y-46333911D01*
X132036286Y-46333911D02*
X131963714Y-46442768D01*
X131963714Y-46442768D02*
X131891143Y-46515340D01*
X131891143Y-46515340D02*
X131818571Y-46551626D01*
X132979714Y-47095911D02*
X132544285Y-47095911D01*
X132762000Y-47095911D02*
X132762000Y-46333911D01*
X132762000Y-46333911D02*
X132689428Y-46442768D01*
X132689428Y-46442768D02*
X132616857Y-46515340D01*
X132616857Y-46515340D02*
X132544285Y-46551626D01*
X133705428Y-47095911D02*
X133269999Y-47095911D01*
X133487714Y-47095911D02*
X133487714Y-46333911D01*
X133487714Y-46333911D02*
X133415142Y-46442768D01*
X133415142Y-46442768D02*
X133342571Y-46515340D01*
X133342571Y-46515340D02*
X133269999Y-46551626D01*
X133959428Y-46333911D02*
X134467428Y-46333911D01*
X134467428Y-46333911D02*
X134140856Y-47095911D01*
D16*
X127963631Y-54483619D02*
X127963631Y-54314286D01*
X128229726Y-54241714D02*
X128229726Y-54483619D01*
X128229726Y-54483619D02*
X127721726Y-54483619D01*
X127721726Y-54483619D02*
X127721726Y-54241714D01*
X128205536Y-54048191D02*
X128229726Y-53975619D01*
X128229726Y-53975619D02*
X128229726Y-53854667D01*
X128229726Y-53854667D02*
X128205536Y-53806286D01*
X128205536Y-53806286D02*
X128181345Y-53782095D01*
X128181345Y-53782095D02*
X128132964Y-53757905D01*
X128132964Y-53757905D02*
X128084583Y-53757905D01*
X128084583Y-53757905D02*
X128036202Y-53782095D01*
X128036202Y-53782095D02*
X128012012Y-53806286D01*
X128012012Y-53806286D02*
X127987821Y-53854667D01*
X127987821Y-53854667D02*
X127963631Y-53951429D01*
X127963631Y-53951429D02*
X127939440Y-53999810D01*
X127939440Y-53999810D02*
X127915250Y-54024000D01*
X127915250Y-54024000D02*
X127866869Y-54048191D01*
X127866869Y-54048191D02*
X127818488Y-54048191D01*
X127818488Y-54048191D02*
X127770107Y-54024000D01*
X127770107Y-54024000D02*
X127745916Y-53999810D01*
X127745916Y-53999810D02*
X127721726Y-53951429D01*
X127721726Y-53951429D02*
X127721726Y-53830476D01*
X127721726Y-53830476D02*
X127745916Y-53757905D01*
X128229726Y-53540190D02*
X127721726Y-53540190D01*
X127721726Y-53540190D02*
X127721726Y-53346666D01*
X127721726Y-53346666D02*
X127745916Y-53298285D01*
X127745916Y-53298285D02*
X127770107Y-53274095D01*
X127770107Y-53274095D02*
X127818488Y-53249904D01*
X127818488Y-53249904D02*
X127891059Y-53249904D01*
X127891059Y-53249904D02*
X127939440Y-53274095D01*
X127939440Y-53274095D02*
X127963631Y-53298285D01*
X127963631Y-53298285D02*
X127987821Y-53346666D01*
X127987821Y-53346666D02*
X127987821Y-53540190D01*
X128278107Y-53153143D02*
X128278107Y-52766095D01*
X127963631Y-52645142D02*
X127963631Y-52475809D01*
X128229726Y-52403237D02*
X128229726Y-52645142D01*
X128229726Y-52645142D02*
X127721726Y-52645142D01*
X127721726Y-52645142D02*
X127721726Y-52403237D01*
X128229726Y-52185523D02*
X127721726Y-52185523D01*
X127721726Y-52185523D02*
X128229726Y-51895237D01*
X128229726Y-51895237D02*
X127721726Y-51895237D01*
X128278107Y-51774286D02*
X128278107Y-51387238D01*
X128229726Y-50975999D02*
X127987821Y-51145333D01*
X128229726Y-51266285D02*
X127721726Y-51266285D01*
X127721726Y-51266285D02*
X127721726Y-51072761D01*
X127721726Y-51072761D02*
X127745916Y-51024380D01*
X127745916Y-51024380D02*
X127770107Y-51000190D01*
X127770107Y-51000190D02*
X127818488Y-50975999D01*
X127818488Y-50975999D02*
X127891059Y-50975999D01*
X127891059Y-50975999D02*
X127939440Y-51000190D01*
X127939440Y-51000190D02*
X127963631Y-51024380D01*
X127963631Y-51024380D02*
X127987821Y-51072761D01*
X127987821Y-51072761D02*
X127987821Y-51266285D01*
X128229726Y-50492190D02*
X128229726Y-50782476D01*
X128229726Y-50637333D02*
X127721726Y-50637333D01*
X127721726Y-50637333D02*
X127794297Y-50685714D01*
X127794297Y-50685714D02*
X127842678Y-50734095D01*
X127842678Y-50734095D02*
X127866869Y-50782476D01*
D15*
X143309580Y-47702381D02*
X143357200Y-47750000D01*
X143357200Y-47750000D02*
X143404819Y-47892857D01*
X143404819Y-47892857D02*
X143404819Y-47988095D01*
X143404819Y-47988095D02*
X143357200Y-48130952D01*
X143357200Y-48130952D02*
X143261961Y-48226190D01*
X143261961Y-48226190D02*
X143166723Y-48273809D01*
X143166723Y-48273809D02*
X142976247Y-48321428D01*
X142976247Y-48321428D02*
X142833390Y-48321428D01*
X142833390Y-48321428D02*
X142642914Y-48273809D01*
X142642914Y-48273809D02*
X142547676Y-48226190D01*
X142547676Y-48226190D02*
X142452438Y-48130952D01*
X142452438Y-48130952D02*
X142404819Y-47988095D01*
X142404819Y-47988095D02*
X142404819Y-47892857D01*
X142404819Y-47892857D02*
X142452438Y-47750000D01*
X142452438Y-47750000D02*
X142500057Y-47702381D01*
X143500057Y-47511905D02*
X143500057Y-46750000D01*
X142404819Y-46035714D02*
X142404819Y-46511904D01*
X142404819Y-46511904D02*
X142881009Y-46559523D01*
X142881009Y-46559523D02*
X142833390Y-46511904D01*
X142833390Y-46511904D02*
X142785771Y-46416666D01*
X142785771Y-46416666D02*
X142785771Y-46178571D01*
X142785771Y-46178571D02*
X142833390Y-46083333D01*
X142833390Y-46083333D02*
X142881009Y-46035714D01*
X142881009Y-46035714D02*
X142976247Y-45988095D01*
X142976247Y-45988095D02*
X143214342Y-45988095D01*
X143214342Y-45988095D02*
X143309580Y-46035714D01*
X143309580Y-46035714D02*
X143357200Y-46083333D01*
X143357200Y-46083333D02*
X143404819Y-46178571D01*
X143404819Y-46178571D02*
X143404819Y-46416666D01*
X143404819Y-46416666D02*
X143357200Y-46511904D01*
X143357200Y-46511904D02*
X143309580Y-46559523D01*
X142404819Y-45702380D02*
X143404819Y-45369047D01*
X143404819Y-45369047D02*
X142404819Y-45035714D01*
X143404819Y-44178571D02*
X143404819Y-44749999D01*
X143404819Y-44464285D02*
X142404819Y-44464285D01*
X142404819Y-44464285D02*
X142547676Y-44559523D01*
X142547676Y-44559523D02*
X142642914Y-44654761D01*
X142642914Y-44654761D02*
X142690533Y-44749999D01*
D18*
X157870000Y-54870000D02*
X157870000Y-52630000D01*
X157870000Y-54870000D02*
X150630000Y-54870000D01*
X157870000Y-52630000D02*
X150630000Y-52630000D01*
X150630000Y-54870000D02*
X150630000Y-52630000D01*
D19*
X143450000Y-43955000D02*
X143450000Y-45155000D01*
X145050000Y-43955000D02*
X145050000Y-45155000D01*
D20*
X156600000Y-50408000D02*
X156190000Y-50408000D01*
X156190000Y-50408000D02*
X156190000Y-46093000D01*
X156190000Y-46093000D02*
X156600000Y-46093000D01*
X159400000Y-50408000D02*
X159810000Y-50408000D01*
X159810000Y-50408000D02*
X159810000Y-46093000D01*
X159810000Y-46093000D02*
X159400000Y-46093000D01*
D19*
X158000000Y-52250000D02*
X158000000Y-52250000D01*
X158000000Y-52350000D02*
X158000000Y-52350000D01*
X158000000Y-52350000D02*
G75*
G02*
X158000000Y-52250000I0J50000D01*
G01*
X158000000Y-52250000D02*
G75*
G02*
X158000000Y-52350000I0J-50000D01*
G01*
D20*
X151850000Y-50358000D02*
X151440000Y-50358000D01*
X151440000Y-50358000D02*
X151440000Y-46043000D01*
X151440000Y-46043000D02*
X151850000Y-46043000D01*
X154650000Y-50358000D02*
X155060000Y-50358000D01*
X155060000Y-50358000D02*
X155060000Y-46043000D01*
X155060000Y-46043000D02*
X154650000Y-46043000D01*
D19*
X153250000Y-52200000D02*
X153250000Y-52200000D01*
X153250000Y-52300000D02*
X153250000Y-52300000D01*
X153250000Y-52300000D02*
G75*
G02*
X153250000Y-52200000I0J50000D01*
G01*
X153250000Y-52200000D02*
G75*
G02*
X153250000Y-52300000I0J-50000D01*
G01*
X148000000Y-52200000D02*
G75*
G02*
X148000000Y-52300000I0J-50000D01*
G01*
X148000000Y-52300000D02*
G75*
G02*
X148000000Y-52200000I0J50000D01*
G01*
X148000000Y-52300000D02*
X148000000Y-52300000D01*
X148000000Y-52200000D02*
X148000000Y-52200000D01*
D20*
X149810000Y-46043000D02*
X149400000Y-46043000D01*
X149810000Y-50358000D02*
X149810000Y-46043000D01*
X149400000Y-50358000D02*
X149810000Y-50358000D01*
X146190000Y-46043000D02*
X146600000Y-46043000D01*
X146190000Y-50358000D02*
X146190000Y-46043000D01*
X146600000Y-50358000D02*
X146190000Y-50358000D01*
D18*
X120740000Y-42490000D02*
X122440000Y-42490000D01*
X120740000Y-46945563D02*
X120740000Y-42490000D01*
X121502500Y-48562500D02*
X122127500Y-48562500D01*
X121804437Y-48010000D02*
X120740000Y-46945563D01*
X121804437Y-48010000D02*
X122440000Y-48010000D01*
X121815000Y-48875000D02*
X121815000Y-48250000D01*
X125195563Y-48010000D02*
X124560000Y-48010000D01*
X125195563Y-48010000D02*
X126260000Y-46945563D01*
X126260000Y-42490000D02*
X124560000Y-42490000D01*
X126260000Y-46945563D02*
X126260000Y-42490000D01*
X126765000Y-57776248D02*
X126765000Y-58298752D01*
X128235000Y-57776248D02*
X128235000Y-58298752D01*
X147155000Y-36775000D02*
X147155000Y-34045000D01*
X147155000Y-40375000D02*
X147155000Y-39475000D01*
X156225000Y-43455000D02*
X147275000Y-43455000D01*
X156345000Y-34045000D02*
X147155000Y-34045000D01*
X156345000Y-36775000D02*
X156345000Y-34045000D01*
X156345000Y-40375000D02*
X156345000Y-39475000D01*
X130140000Y-71560000D02*
X130140000Y-72460000D01*
X130140000Y-72460000D02*
X132825000Y-72460000D01*
X130450000Y-53040000D02*
X148360000Y-53040000D01*
X145675000Y-72460000D02*
X148360000Y-72460000D01*
X148360000Y-53040000D02*
X148360000Y-53630000D01*
X148360000Y-71560000D02*
X148360000Y-72460000D01*
X130140000Y-53600000D02*
X129640000Y-53600000D01*
X130140000Y-53100000D01*
X130140000Y-53600000D01*
G36*
X130140000Y-53600000D02*
G01*
X129640000Y-53600000D01*
X130140000Y-53100000D01*
X130140000Y-53600000D01*
G37*
X154250000Y-55595000D02*
X152300000Y-55595000D01*
X154250000Y-55595000D02*
X156200000Y-55595000D01*
X154250000Y-65715000D02*
X152300000Y-65715000D01*
X154250000Y-65715000D02*
X156200000Y-65715000D01*
X151550000Y-55650000D02*
X151310000Y-55320000D01*
X151790000Y-55320000D01*
X151550000Y-55650000D01*
G36*
X151550000Y-55650000D02*
G01*
X151310000Y-55320000D01*
X151790000Y-55320000D01*
X151550000Y-55650000D01*
G37*
X152490000Y-72937500D02*
X152490000Y-72287500D01*
X152490000Y-72937500D02*
X152490000Y-73587500D01*
X155610000Y-72937500D02*
X155610000Y-72287500D01*
X155610000Y-72937500D02*
X155610000Y-73587500D01*
X155890000Y-72015000D02*
X155560000Y-71775000D01*
X155890000Y-71535000D01*
X155890000Y-72015000D01*
G36*
X155890000Y-72015000D02*
G01*
X155560000Y-71775000D01*
X155890000Y-71535000D01*
X155890000Y-72015000D01*
G37*
X152440000Y-68437500D02*
X152440000Y-67787500D01*
X152440000Y-68437500D02*
X152440000Y-69087500D01*
X155560000Y-68437500D02*
X155560000Y-67787500D01*
X155560000Y-68437500D02*
X155560000Y-69087500D01*
X152490000Y-69600000D02*
X152160000Y-69840000D01*
X152160000Y-69360000D01*
X152490000Y-69600000D01*
G36*
X152490000Y-69600000D02*
G01*
X152160000Y-69840000D01*
X152160000Y-69360000D01*
X152490000Y-69600000D01*
G37*
X120490000Y-57604437D02*
X120490000Y-62060000D01*
X120490000Y-62060000D02*
X122190000Y-62060000D01*
X121554437Y-56540000D02*
X120490000Y-57604437D01*
X121554437Y-56540000D02*
X122190000Y-56540000D01*
X124935000Y-55675000D02*
X124935000Y-56300000D01*
X124945563Y-56540000D02*
X124310000Y-56540000D01*
X124945563Y-56540000D02*
X126010000Y-57604437D01*
X125247500Y-55987500D02*
X124622500Y-55987500D01*
X126010000Y-57604437D02*
X126010000Y-62060000D01*
X126010000Y-62060000D02*
X124310000Y-62060000D01*
X128655000Y-38420000D02*
X128655000Y-41080000D01*
X131255000Y-38420000D02*
X128655000Y-38420000D01*
X131255000Y-38420000D02*
X131255000Y-41080000D01*
X131255000Y-41080000D02*
X128655000Y-41080000D01*
X132525000Y-38420000D02*
X133855000Y-38420000D01*
X133855000Y-38420000D02*
X133855000Y-39750000D01*
X137340000Y-38420000D02*
X137340000Y-41080000D01*
X142480000Y-38420000D02*
X137340000Y-38420000D01*
X142480000Y-38420000D02*
X142480000Y-41080000D01*
X142480000Y-41080000D02*
X137340000Y-41080000D01*
X143750000Y-38420000D02*
X145080000Y-38420000D01*
X145080000Y-38420000D02*
X145080000Y-39750000D01*
D20*
X128750000Y-45100000D02*
X135250000Y-45100000D01*
X128750000Y-48600000D02*
X128750000Y-45100000D01*
X135125000Y-42825000D02*
X135125000Y-44575000D01*
X135250000Y-45100000D02*
X135250000Y-48600000D01*
X135250000Y-48600000D02*
X128750000Y-48600000D01*
D18*
X125340000Y-51972936D02*
X125340000Y-53427064D01*
X127160000Y-51972936D02*
X127160000Y-53427064D01*
X136490000Y-44554437D02*
X136490000Y-49010000D01*
X136490000Y-49010000D02*
X138190000Y-49010000D01*
X137554437Y-43490000D02*
X136490000Y-44554437D01*
X137554437Y-43490000D02*
X138190000Y-43490000D01*
X140935000Y-42625000D02*
X140935000Y-43250000D01*
X140945563Y-43490000D02*
X140310000Y-43490000D01*
X140945563Y-43490000D02*
X142010000Y-44554437D01*
X141247500Y-42937500D02*
X140622500Y-42937500D01*
X142010000Y-44554437D02*
X142010000Y-49010000D01*
X142010000Y-49010000D02*
X140310000Y-49010000D01*
%LPC*%
D21*
X151750000Y-53750000D03*
X156750000Y-53750000D03*
D22*
X143750000Y-43750000D03*
X144250000Y-43750000D03*
X144750000Y-43750000D03*
X144750000Y-45360000D03*
X144250000Y-45360000D03*
X143750000Y-45360000D03*
D23*
X158000000Y-50700000D03*
X158000000Y-45800000D03*
X153250000Y-50650000D03*
X153250000Y-45750000D03*
X148000000Y-45750000D03*
X148000000Y-50650000D03*
D24*
X123500000Y-47450000D03*
X123500000Y-43050000D03*
D25*
X127500000Y-57000000D03*
X127500000Y-59075000D03*
D26*
X154725000Y-42775000D03*
X153875000Y-42775000D03*
X153025000Y-42775000D03*
X152175000Y-42775000D03*
X151325000Y-42775000D03*
X150475000Y-42775000D03*
X149625000Y-42775000D03*
X148775000Y-42775000D03*
X148775000Y-41425000D03*
X149625000Y-41425000D03*
X150475000Y-41425000D03*
X151325000Y-41425000D03*
X152175000Y-41425000D03*
X153025000Y-41425000D03*
X153875000Y-41425000D03*
X154725000Y-41425000D03*
D27*
X156075000Y-41795000D03*
D28*
X156075000Y-38415000D03*
D27*
X147425000Y-41795000D03*
D28*
X147425000Y-38415000D03*
D29*
X130500000Y-54340000D03*
X130500000Y-55610000D03*
X130500000Y-56880000D03*
X130500000Y-58150000D03*
X130500000Y-59420000D03*
X130500000Y-60690000D03*
X130500000Y-61960000D03*
X130500000Y-63230000D03*
X130500000Y-64500000D03*
X130500000Y-65770000D03*
X130500000Y-67040000D03*
X130500000Y-68310000D03*
X130500000Y-69580000D03*
X130500000Y-70850000D03*
D30*
X133535000Y-72100000D03*
X134805000Y-72100000D03*
X136075000Y-72100000D03*
X137345000Y-72100000D03*
X138615000Y-72100000D03*
X139885000Y-72100000D03*
X141155000Y-72100000D03*
X142425000Y-72100000D03*
X143695000Y-72100000D03*
X144965000Y-72100000D03*
D29*
X148000000Y-70850000D03*
X148000000Y-69580000D03*
X148000000Y-68310000D03*
X148000000Y-67040000D03*
X148000000Y-65770000D03*
X148000000Y-64500000D03*
X148000000Y-63230000D03*
X148000000Y-61960000D03*
X148000000Y-60690000D03*
X148000000Y-59420000D03*
X148000000Y-58150000D03*
X148000000Y-56880000D03*
X148000000Y-55610000D03*
X148000000Y-54340000D03*
D31*
X136350000Y-60980000D03*
X136350000Y-62380000D03*
X137050000Y-60280000D03*
X137050000Y-61680000D03*
X137050000Y-63080000D03*
X137750000Y-60980000D03*
D32*
X137750000Y-61680000D03*
D31*
X137750000Y-62380000D03*
X138450000Y-60280000D03*
X138450000Y-61680000D03*
X138450000Y-63080000D03*
X139150000Y-60980000D03*
X139150000Y-62380000D03*
D33*
X151775000Y-56210000D03*
X151775000Y-57480000D03*
X151775000Y-58750000D03*
X151775000Y-60020000D03*
X151775000Y-61290000D03*
X151775000Y-62560000D03*
X151775000Y-63830000D03*
X151775000Y-65100000D03*
X156725000Y-65100000D03*
X156725000Y-63830000D03*
X156725000Y-62560000D03*
X156725000Y-61290000D03*
X156725000Y-60020000D03*
X156725000Y-58750000D03*
X156725000Y-57480000D03*
X156725000Y-56210000D03*
D34*
X155000000Y-72000000D03*
X153100000Y-72000000D03*
X154050000Y-73875000D03*
D35*
X153050000Y-69375000D03*
X154950000Y-69375000D03*
X154000000Y-67500000D03*
D36*
X123250000Y-57100000D03*
X123250000Y-61500000D03*
D37*
X132525000Y-39750000D03*
D38*
X129985000Y-39750000D03*
D37*
X143750000Y-39750000D03*
D38*
X141210000Y-39750000D03*
X138670000Y-39750000D03*
D39*
X134300000Y-43700000D03*
X132000000Y-43700000D03*
X129700000Y-43700000D03*
D40*
X132000000Y-50000000D03*
D41*
X126250000Y-51150000D03*
X126250000Y-54250000D03*
D36*
X139250000Y-44050000D03*
X139250000Y-48450000D03*
D37*
X148000000Y-77500000D03*
D38*
X148000000Y-80040000D03*
X148000000Y-82580000D03*
X148000000Y-85120000D03*
X148000000Y-87660000D03*
X148000000Y-90200000D03*
X148000000Y-92740000D03*
X148000000Y-95280000D03*
X148000000Y-97820000D03*
X148000000Y-100360000D03*
X148000000Y-102900000D03*
X148000000Y-105440000D03*
X148000000Y-107980000D03*
X148000000Y-110520000D03*
X148000000Y-113060000D03*
D37*
X131000000Y-77500000D03*
D38*
X131000000Y-80040000D03*
X131000000Y-82580000D03*
X131000000Y-85120000D03*
X131000000Y-87660000D03*
X131000000Y-90200000D03*
X131000000Y-92740000D03*
X131000000Y-95280000D03*
X131000000Y-97820000D03*
X131000000Y-100360000D03*
X131000000Y-102900000D03*
X131000000Y-105440000D03*
X131000000Y-107980000D03*
X131000000Y-110520000D03*
X131000000Y-113060000D03*
%LPD*%
M02*
